<?xml version="1.0" encoding="utf-8"?>
<svg width="485px" height="399px" viewBox="0 0 485 399" version="1.1" xmlns:xlink="http://www.w3.org/1999/xlink" xmlns="http://www.w3.org/2000/svg">
  <defs>
    <path d="M0 0L485 0L485 399L0 399L0 0Z" id="path_1" />
    <path d="M0 0L485 0L485 399L0 399L0 0L0 0Z" id="path_2" />
    <clipPath id="clip_1">
      <use xlink:href="#path_1" />
    </clipPath>
    <clipPath id="mask_1">
      <use xlink:href="#path_2" />
    </clipPath>
  </defs>
  <g id="discord" clip-path="url(#clip_1)">
    <path d="M0 0L485 0L485 399L0 399L0 0Z" id="discord" fill="none" fill-rule="evenodd" stroke="none" />
    <g id="Mask-Group">
      <path d="M0 0L485 0L485 399L0 399L0 0L0 0Z" id="path_1" fill="none" stroke="none" />
      <g clip-path="url(#mask_1)">
        <g id="Frame">
          <path d="M0 0L485 0L485 399L0 399L0 0L0 0Z" id="Frame#1" fill="#FFFFFF" fill-opacity="0" fill-rule="evenodd" stroke="none" />
          <g id="Group" transform="translate(20 39)">
            <path d="M44.2009 60.737C77.4649 1.15244 165.06 0 165.06 0L177.66 22.7954C177.66 22.7954 76.6711 44.5778 98.2801 73.4519C119.889 102.326 133.119 53.0626 217.728 55.2155C302.337 57.3684 330.625 94.601 345.996 70.9191C361.368 47.2372 264.6 25.3282 264.6 25.3282L271.404 0.506557C271.404 0.506557 360.55 -1.20311 395.892 62.8141C431.235 126.831 441 264.68 441 264.68C441 264.68 422.289 291.262 391.734 307.092C361.179 322.922 318.78 327.999 318.78 327.999L292.32 295.074C292.32 295.074 383.545 275.508 361.873 251.509C340.201 227.511 289.141 273.694 236.129 274.684C147.982 276.332 99.1101 225.786 79.884 251.509C60.6579 277.234 146.16 297.606 146.16 297.606L126 327.999C126 327.999 83.16 322.922 51.66 307.092C20.16 291.262 0 264.68 0 264.68C0 264.68 10.9368 120.322 44.2009 60.737L44.2009 60.737L44.2009 60.737L44.2009 60.737Z" id="Vector" fill="#FFFFFF" fill-rule="evenodd" stroke="none" />
            <path d="M126 187.429C126 165.047 140.103 146.904 157.5 146.904C174.897 146.904 189 165.047 189 187.429C189 209.81 174.897 227.954 157.5 227.954C140.103 227.954 126 209.81 126 187.429L126 187.429L126 187.429L126 187.429Z" id="Oval" fill="#000000" fill-rule="evenodd" stroke="none" />
            <path d="M250.74 187.429C250.74 165.047 264.843 146.904 282.24 146.904C299.637 146.904 313.74 165.047 313.74 187.429C313.74 209.81 299.637 227.954 282.24 227.954C264.843 227.954 250.74 209.81 250.74 187.429L250.74 187.429L250.74 187.429L250.74 187.429Z" id="Oval-Copy" fill="#000000" fill-rule="evenodd" stroke="none" />
          </g>
        </g>
      </g>
    </g>
  </g>
</svg>