<?xml version="1.0" encoding="utf-8"?>
<svg width="392px" height="375px" viewBox="0 0 392 375" version="1.1" xmlns:xlink="http://www.w3.org/1999/xlink" xmlns="http://www.w3.org/2000/svg">
  <defs>
    <path d="M0 0L392 0L392 375L0 375L0 0Z" id="path_1" />
    <clipPath id="mask_1">
      <use xlink:href="#path_1" />
    </clipPath>
  </defs>
  <g id="github">
    <g id="Mask-Group">
      <path d="M0 0L392 0L392 375L0 375L0 0Z" id="artboard_1" fill="none" fill-rule="evenodd" stroke="none" />
      <g clip-path="url(#mask_1)">
        <g id="Artboard">
          <path d="M0 0L392 0L392 375L0 375L0 0Z" id="artboard_1" fill="#FFFFFF" fill-opacity="0" fill-rule="evenodd" stroke="none" />
          <path d="M125.374 351.012C151.759 365.452 142.294 317.132 142.294 317.132C142.294 317.132 117.364 320.952 102.854 309.692C88.3441 298.432 92.2341 285.752 85.2139 274.332C78.194 262.911 72.059 268.931 73.174 263.611C74.289 258.291 80.6989 256.496 89.9941 263.611C99.2891 270.726 105.939 280.257 110.354 289.272C114.769 298.287 141.254 294.872 141.254 294.872C141.254 294.872 142.973 283.103 147.223 274.728C151.473 266.352 158.254 261.371 158.254 261.371C158.254 261.371 103.504 245.621 91.2542 214.371C79.0039 183.121 109.254 136.371 109.254 136.371C109.254 136.371 103.254 92.2456 113.754 84.8706C124.254 77.4953 161.254 104.871 161.254 104.871C161.254 104.871 177.54 101.157 194.915 101.533C212.29 101.907 230.754 106.371 230.754 106.371C230.754 106.371 267.254 75.9953 279.254 83.3706C291.255 90.7456 281.754 136.871 281.754 136.871C281.754 136.871 309.63 166.746 300.755 206.871C291.88 246.996 234.254 259.371 234.254 259.371C234.254 259.371 244.504 272.497 248.254 295.372C252.004 318.247 248.224 331.107 248.294 346.072C248.364 361.036 269.909 359.56 312.534 323.23C355.159 286.901 355.755 261.871 355.755 261.871C355.755 261.871 388.37 194.841 361.174 127.531C333.978 60.2207 280.254 34.8702 280.254 34.8702C280.254 34.8702 209.389 -2.34492 135.994 23.9702C62.5988 50.2852 32.7539 118.371 32.7539 118.371C32.7539 118.371 3.66967 188.092 35.4648 258.411C67.2599 328.732 98.989 336.572 125.374 351.012L125.374 351.012Z" id="Vector" fill="#38307E" fill-rule="evenodd" stroke="none" />
        </g>
      </g>
    </g>
  </g>
</svg>