<?xml version="1.0" encoding="utf-8"?>
<svg width="399px" height="360px" viewBox="0 0 399 360" version="1.1" xmlns:xlink="http://www.w3.org/1999/xlink" xmlns="http://www.w3.org/2000/svg">
  <defs>
    <path d="M0 0L399 0L399 360L0 360L0 0Z" id="path_1" />
    <clipPath id="mask_1">
      <use xlink:href="#path_1" />
    </clipPath>
  </defs>
  <g id="twitter">
    <g id="Mask-Group">
      <path d="M0 0L399 0L399 360L0 360L0 0Z" id="artboard_1" fill="none" fill-rule="evenodd" stroke="none" />
      <g clip-path="url(#mask_1)">
        <g id="Artboard">
          <path d="M0 0L399 0L399 360L0 360L0 0Z" id="artboard_1" fill="#FFFFFF" fill-opacity="0" fill-rule="evenodd" stroke="none" />
          <path d="M53.4999 53.4399C53.4999 53.4399 82.0545 88.956 120.055 108.456C158.055 127.956 205.5 131.44 205.5 131.44C205.5 131.44 197.167 95.4 211.917 73.15C226.667 50.9001 264.5 42.4399 264.5 42.4399C264.5 42.4399 289.378 40.7152 304.878 46.7151C320.378 52.7151 326.5 66.4398 326.5 66.4398L373.5 51.2399L344.6 87.8398L383 76.4399L347 112.44C347 112.44 364.275 226.023 248.5 297.248C132.725 368.472 35.8999 301.34 35.8999 301.34C35.8999 301.34 69.5631 300.391 94.2132 291.666C118.863 282.941 137.7 265.64 137.7 265.64C137.7 265.64 110.13 263.623 92.7049 250.948C75.2799 238.273 67.9999 218.94 67.9999 218.94L106.9 217.44C106.9 217.44 74.5363 208.536 59.1862 190.286C43.8362 172.036 41.4998 144.44 41.4998 144.44C41.4998 144.44 49.7276 149.795 58.1276 151.995C66.5276 154.195 75.0999 153.24 75.0999 153.24C75.0999 153.24 50.8761 132.236 45.4761 107.286C40.0761 82.3358 53.4999 53.4399 53.4999 53.4399L53.4999 53.4399Z" id="Vector" fill="#38307E" fill-rule="evenodd" stroke="none" />
        </g>
      </g>
    </g>
  </g>
</svg>