<?xml version="1.0" encoding="utf-8"?>
<svg width="663px" height="647px" viewBox="0 0 663 647" version="1.1" xmlns:xlink="http://www.w3.org/1999/xlink" xmlns="http://www.w3.org/2000/svg">
  <defs>
    <path d="M249.267 298.939C249.267 277.036 267.634 259.28 290.292 259.28C312.95 259.28 331.317 277.036 331.317 298.939C331.317 320.843 312.95 338.599 290.292 338.599C267.634 338.599 249.267 320.843 249.267 298.939Z" id="path_1" />
    <rect width="663" height="647" id="artboard_1" />
    <clipPath id="clip_1">
      <use xlink:href="#artboard_1" clip-rule="evenodd" />
    </clipPath>
    <clipPath id="clip_2">
      <use xlink:href="#path_1" />
    </clipPath>
  </defs>
  <g id="Artboard" clip-path="url(#clip_1)">
    <use xlink:href="#artboard_1" stroke="none" fill="#FFFFFF" fill-opacity="0" />
    <g id="Group-3" transform="translate(39.999817 27.024765)" artboard="2aa59a19-ddb3-470d-9790-0fc3191823a2">
      <path d="M235.765 109.797C254.33 103.598 256.504 98.4335 255.499 87.4246C254.494 76.4155 193.131 32.7394 155.169 65.7641C117.208 98.7887 140.213 196.745 140.213 196.745C140.213 196.745 29.3412 233.695 17.1375 275.009C4.93381 316.322 71.273 376.209 93.5251 351.802C115.777 327.396 45.0701 310.502 58.8193 282.033C72.5685 253.566 148.522 237.931 148.522 237.931L164.62 290.812C164.62 290.812 72.7817 460.337 130.371 511.837C187.96 563.336 227.257 517.554 234.382 509.307C241.507 501.059 237.477 487.844 220.556 484.576C203.635 481.307 171.351 519.418 152.34 482.177C133.328 444.935 182.796 333.523 182.796 333.523C182.796 333.523 260.361 511.03 378.702 543.825C497.043 576.619 434.642 274.23 383.996 272.08C333.351 269.931 457.605 453.838 395.112 500.274C332.619 546.71 206.534 291.642 206.534 291.642L250.825 226.745C250.825 226.745 429.51 238.798 496.466 275.009C563.422 311.22 490.205 338.642 482.486 350.762C474.766 362.881 490.176 392.174 510.79 380.24C531.405 368.307 574.745 346.414 562.816 305.11C550.888 263.807 521.895 244.706 449.782 217.628C377.669 190.553 279.151 194.203 279.151 194.203C279.151 194.203 375.02 78.7867 412.874 104.713C450.728 130.638 421.957 160.61 433.226 172.424C444.496 184.239 451.582 186.767 461.144 174.881C470.707 162.995 491.233 47.5379 395.965 65.0034C300.697 82.469 231.092 192.677 231.092 192.677L177.084 192.677C177.084 192.677 166.568 116.281 181.238 95.56C195.909 74.8401 217.2 115.997 235.765 109.797Z" id="Vector" fill="none" fill-rule="evenodd" stroke="#0A003D" stroke-width="10" />
      <path d="M173.448 222.672L220.186 220.638L188.508 268.432L173.448 222.672Z" id="Vector-2" fill="#0A003D" fill-rule="evenodd" stroke="#0A003D" stroke-width="1" />
      <g id="Oval">
        <g clip-path="url(#clip_2)">
          <use xlink:href="#path_1" fill="none" stroke="#0A003D" stroke-width="28" />
        </g>
      </g>
      <path d="M91.8238 172.419L91.0453 174.633Q90.9807 174.817 90.9072 174.997Q90.8337 175.178 90.7516 175.354Q90.6694 175.531 90.5788 175.703Q90.4881 175.875 90.3892 176.043Q90.2903 176.211 90.1833 176.374Q90.0763 176.536 89.9615 176.694Q89.8468 176.851 89.7245 177.003Q89.6022 177.154 89.4727 177.3Q89.3431 177.445 89.2067 177.584Q89.0703 177.723 88.9272 177.855Q88.7842 177.987 88.6349 178.112Q88.4856 178.237 88.3304 178.355Q88.1751 178.472 88.0144 178.582Q87.8536 178.692 87.6877 178.794Q87.5218 178.896 87.3512 178.99Q87.1805 179.084 87.0055 179.169Q86.8304 179.254 86.6514 179.331Q86.4725 179.408 86.2899 179.476Q86.1075 179.544 85.9219 179.603Q85.7363 179.662 85.548 179.712Q85.3598 179.762 85.1693 179.802Q84.9789 179.843 84.7867 179.874Q84.5945 179.906 84.401 179.928Q84.2075 179.949 84.0132 179.962Q83.8188 179.974 83.6241 179.977Q83.4294 179.981 83.2348 179.974Q83.0401 179.968 82.846 179.952Q82.652 179.936 82.4589 179.911Q82.2658 179.885 82.0742 179.85Q81.8825 179.816 81.6928 179.772Q81.5031 179.728 81.3158 179.675Q81.1284 179.622 80.9439 179.559L53.6816 170.368Q53.494 170.305 53.3097 170.233Q53.1255 170.16 52.945 170.079Q52.7646 169.997 52.5884 169.907Q52.4122 169.817 52.2407 169.718Q52.0692 169.619 51.9028 169.511Q51.7363 169.404 51.5755 169.289Q51.4146 169.173 51.2596 169.05Q51.1046 168.927 50.9559 168.796Q50.8072 168.666 50.6651 168.528Q50.5231 168.39 50.388 168.245Q50.2529 168.1 50.1252 167.949Q49.9975 167.798 49.8774 167.64Q49.7573 167.483 49.6451 167.32Q49.533 167.156 49.4291 166.988Q49.3251 166.819 49.2296 166.646Q49.1341 166.473 49.0474 166.295Q48.9606 166.117 48.8827 165.935Q48.8048 165.753 48.7361 165.567Q48.6673 165.381 48.6078 165.192Q48.5483 165.004 48.4982 164.812Q48.4481 164.62 48.4076 164.427Q48.367 164.233 48.3361 164.037Q48.3052 163.842 48.284 163.645Q48.2628 163.448 48.2514 163.25Q48.2399 163.053 48.2383 162.855Q48.2366 162.657 48.2448 162.459Q48.2529 162.261 48.2709 162.064Q48.2888 161.867 48.3165 161.671Q48.3441 161.475 48.3815 161.28Q48.4188 161.086 48.4657 160.893Q48.5126 160.701 48.569 160.511Q48.6253 160.321 48.691 160.135L49.4695 157.921Q49.5341 157.737 49.6076 157.557Q49.6811 157.377 49.7632 157.2Q49.8454 157.023 49.9361 156.851Q50.0267 156.679 50.1256 156.511Q50.2246 156.343 50.3316 156.181Q50.4385 156.018 50.5533 155.86Q50.6681 155.703 50.7904 155.552Q50.9126 155.4 51.0422 155.255Q51.1717 155.109 51.3081 154.97Q51.4446 154.831 51.5876 154.699Q51.7306 154.567 51.88 154.442Q52.0293 154.317 52.1845 154.199Q52.3397 154.082 52.5004 153.972Q52.6612 153.862 52.8271 153.76Q52.993 153.658 53.1637 153.564Q53.3343 153.47 53.5094 153.385Q53.6844 153.3 53.8634 153.223Q54.0424 153.146 54.2249 153.078Q54.4074 153.01 54.593 152.951Q54.7786 152.892 54.9668 152.842Q55.155 152.793 55.3455 152.752Q55.5359 152.711 55.7281 152.68Q55.9203 152.649 56.1138 152.627Q56.3073 152.605 56.5017 152.592Q56.696 152.58 56.8907 152.577Q57.0854 152.574 57.2801 152.58Q57.4747 152.587 57.6688 152.602Q57.8629 152.618 58.056 152.644Q58.2491 152.669 58.4407 152.704Q58.6323 152.738 58.822 152.782Q59.0117 152.826 59.1991 152.879Q59.3864 152.933 59.5709 152.995L86.8333 162.186Q87.0209 162.249 87.2051 162.322Q87.3894 162.394 87.5698 162.476Q87.7503 162.557 87.9265 162.647Q88.1026 162.738 88.2742 162.837Q88.4457 162.935 88.6121 163.043Q88.7785 163.15 88.9394 163.265Q89.1003 163.381 89.2553 163.504Q89.4103 163.627 89.559 163.758Q89.7077 163.889 89.8497 164.027Q89.9918 164.164 90.1268 164.309Q90.2619 164.454 90.3896 164.605Q90.5174 164.757 90.6375 164.914Q90.7575 165.071 90.8697 165.235Q90.9818 165.398 91.0858 165.566Q91.1897 165.735 91.2852 165.908Q91.3807 166.082 91.4675 166.26Q91.5543 166.438 91.6321 166.62Q91.71 166.802 91.7788 166.987Q91.8475 167.173 91.9071 167.362Q91.9666 167.551 92.0167 167.742Q92.0667 167.934 92.1073 168.127Q92.1478 168.321 92.1787 168.517Q92.2096 168.712 92.2308 168.909Q92.252 169.106 92.2635 169.304Q92.2749 169.501 92.2765 169.699Q92.2782 169.897 92.27 170.095Q92.2619 170.293 92.2439 170.49Q92.226 170.687 92.1984 170.883Q92.1707 171.079 92.1334 171.274Q92.096 171.468 92.0491 171.661Q92.0022 171.853 91.9458 172.043Q91.8895 172.233 91.8238 172.419Z" id="Rectangle-2" fill="#0A003D" fill-rule="evenodd" stroke="none" />
      <path d="M122.939 53.2438L121.154 54.992Q121.015 55.1276 120.871 55.2562Q120.726 55.3849 120.575 55.5064Q120.424 55.6279 120.267 55.742Q120.111 55.8561 119.949 55.9624Q119.787 56.0688 119.62 56.1671Q119.453 56.2655 119.282 56.3557Q119.11 56.4459 118.935 56.5277Q118.759 56.6095 118.58 56.6827Q118.4 56.7558 118.218 56.8203Q118.035 56.8847 117.849 56.9402Q117.664 56.9957 117.476 57.0421Q117.288 57.0886 117.098 57.1259Q116.907 57.1632 116.716 57.1912Q116.524 57.2193 116.331 57.238Q116.138 57.2567 115.945 57.2661Q115.751 57.2755 115.558 57.2755Q115.364 57.2755 115.17 57.2661Q114.977 57.2567 114.784 57.238Q114.591 57.2193 114.4 57.1912Q114.208 57.1632 114.018 57.1259Q113.828 57.0886 113.64 57.0421Q113.452 56.9957 113.266 56.9402Q113.08 56.8847 112.898 56.8203Q112.715 56.7559 112.536 56.6827Q112.356 56.6095 112.181 56.5277Q112.005 56.4459 111.834 56.3557Q111.662 56.2655 111.495 56.1671Q111.328 56.0688 111.166 55.9624Q111.005 55.8561 110.848 55.742Q110.691 55.6279 110.541 55.5064Q110.39 55.3849 110.245 55.2562Q110.1 55.1276 109.962 54.992L89.6689 35.1234Q89.5267 34.9842 89.3916 34.838Q89.2565 34.6919 89.1289 34.5393Q89.0012 34.3866 88.8813 34.2278Q88.7614 34.069 88.6495 33.9044Q88.5377 33.7398 88.4341 33.5698Q88.3306 33.3999 88.2356 33.225Q88.1406 33.0501 88.0545 32.8707Q87.9683 32.6913 87.8912 32.5079Q87.8141 32.3244 87.7462 32.1374Q87.6783 31.9503 87.6197 31.7601Q87.5612 31.5699 87.5122 31.377Q87.4632 31.1841 87.4239 30.9891Q87.3846 30.794 87.355 30.5972Q87.3254 30.4004 87.3056 30.2024Q87.2858 30.0044 87.2759 29.8056Q87.2661 29.6068 87.2661 29.4078Q87.2661 29.2088 87.276 29.0101Q87.2859 28.8113 87.3056 28.6133Q87.3254 28.4153 87.355 28.2185Q87.3846 28.0217 87.4239 27.8266Q87.4632 27.6315 87.5122 27.4387Q87.5612 27.2458 87.6197 27.0556Q87.6783 26.8654 87.7462 26.6783Q87.8141 26.4912 87.8912 26.3078Q87.9683 26.1243 88.0545 25.945Q88.1406 25.7656 88.2356 25.5907Q88.3306 25.4158 88.4341 25.2458Q88.5377 25.0759 88.6495 24.9113Q88.7614 24.7467 88.8813 24.5879Q89.0012 24.4291 89.1289 24.2764Q89.2565 24.1238 89.3916 23.9776Q89.5267 23.8315 89.6689 23.6923L91.4545 21.944Q91.5929 21.8085 91.7378 21.6798Q91.8826 21.5512 92.0335 21.4296Q92.1843 21.3081 92.3409 21.1941Q92.4975 21.08 92.6595 20.9737Q92.8214 20.8673 92.9883 20.7689Q93.1551 20.6705 93.3266 20.5803Q93.498 20.4902 93.6736 20.4084Q93.8492 20.3266 94.0286 20.2534Q94.208 20.1802 94.3907 20.1158Q94.5734 20.0514 94.759 19.9959Q94.9446 19.9404 95.1327 19.8939Q95.3207 19.8475 95.5108 19.8102Q95.7009 19.7729 95.8926 19.7448Q96.0843 19.7168 96.2771 19.6981Q96.4699 19.6793 96.6634 19.6699Q96.8569 19.6606 97.0507 19.6606Q97.2444 19.6606 97.4379 19.6699Q97.6314 19.6793 97.8242 19.6981Q98.017 19.7168 98.2087 19.7448Q98.4004 19.7729 98.5905 19.8102Q98.7806 19.8475 98.9686 19.8939Q99.1567 19.9404 99.3423 19.9959Q99.5279 20.0514 99.7106 20.1158Q99.8933 20.1802 100.073 20.2534Q100.252 20.3266 100.428 20.4084Q100.603 20.4902 100.775 20.5804Q100.946 20.6705 101.113 20.7689Q101.28 20.8673 101.442 20.9737Q101.604 21.08 101.76 21.1941Q101.917 21.3081 102.068 21.4296Q102.219 21.5512 102.364 21.6798Q102.508 21.8085 102.647 21.944L122.939 41.8127Q123.082 41.9519 123.217 42.098Q123.352 42.2441 123.479 42.3968Q123.607 42.5495 123.727 42.7083Q123.847 42.8671 123.959 43.0317Q124.071 43.1963 124.174 43.3662Q124.278 43.5362 124.373 43.7111Q124.468 43.8859 124.554 44.0653Q124.64 44.2447 124.717 44.4282Q124.794 44.6116 124.862 44.7987Q124.93 44.9857 124.989 45.1759Q125.047 45.3661 125.096 45.559Q125.145 45.7519 125.184 45.947Q125.224 46.1421 125.253 46.3389Q125.283 46.5357 125.303 46.7337Q125.322 46.9317 125.332 47.1305Q125.342 47.3292 125.342 47.5282Q125.342 47.7272 125.332 47.926Q125.322 48.1247 125.303 48.3228Q125.283 48.5208 125.253 48.7176Q125.224 48.9144 125.184 49.1094Q125.145 49.3045 125.096 49.4974Q125.047 49.6903 124.989 49.8805Q124.93 50.0707 124.862 50.2578Q124.794 50.4448 124.717 50.6283Q124.64 50.8117 124.554 50.9911Q124.468 51.1705 124.373 51.3454Q124.278 51.5203 124.174 51.6902Q124.071 51.8602 123.959 52.0247Q123.847 52.1893 123.727 52.3481Q123.607 52.507 123.479 52.6596Q123.352 52.8123 123.217 52.9584Q123.082 53.1045 122.939 53.2438L122.939 53.2438Z" id="Rectangle-2-Copy" fill="#0A003D" fill-rule="evenodd" stroke="none" />
      <path d="M249.9 44.2547L247.56 43.0875Q247.383 42.9989 247.21 42.9016Q247.037 42.8042 246.869 42.6985Q246.701 42.5927 246.538 42.4787Q246.376 42.3647 246.219 42.2428Q246.062 42.1209 245.912 41.9914Q245.762 41.8619 245.618 41.7251Q245.474 41.5883 245.337 41.4445Q245.2 41.3007 245.071 41.1503Q244.941 40.9999 244.819 40.8433Q244.697 40.6866 244.583 40.5241Q244.469 40.3616 244.363 40.1937Q244.258 40.0257 244.16 39.8528Q244.063 39.6798 243.974 39.5022Q243.886 39.3246 243.806 39.1428Q243.726 38.961 243.656 38.7755Q243.585 38.59 243.524 38.4012Q243.462 38.2124 243.41 38.0208Q243.359 37.8292 243.316 37.6353Q243.274 37.4413 243.241 37.2455Q243.209 37.0497 243.186 36.8525Q243.163 36.6554 243.15 36.4573Q243.137 36.2592 243.133 36.0608Q243.13 35.8623 243.137 35.6639Q243.143 35.4655 243.16 35.2677Q243.176 35.0699 243.202 34.8731Q243.229 34.6763 243.265 34.4811Q243.3 34.2859 243.346 34.0927Q243.392 33.8995 243.447 33.7088Q243.502 33.5181 243.566 33.3304Q243.631 33.1427 243.705 32.9584Q243.778 32.7741 243.861 32.5937Q243.944 32.4132 244.036 32.2372L257.019 7.28845Q257.108 7.11616 257.206 6.94842Q257.304 6.78068 257.41 6.61789Q257.516 6.4551 257.63 6.29764Q257.744 6.14019 257.865 5.98844Q257.986 5.83669 258.115 5.691Q258.243 5.54531 258.378 5.40603Q258.514 5.26674 258.656 5.1342Q258.798 5.00165 258.946 4.87615Q259.094 4.75065 259.248 4.63249Q259.402 4.51433 259.562 4.40379Q259.722 4.29325 259.887 4.1906Q260.052 4.08794 260.221 3.99341Q260.391 3.89887 260.565 3.81269Q260.739 3.7265 260.917 3.64886Q261.095 3.57123 261.277 3.50232Q261.458 3.43342 261.643 3.37341Q261.828 3.3134 262.015 3.26242Q262.203 3.21145 262.392 3.16963Q262.582 3.12782 262.774 3.09525Q262.965 3.06269 263.158 3.03946Q263.351 3.01623 263.544 3.00238Q263.738 2.98854 263.932 2.98412Q264.126 2.97969 264.321 2.98469Q264.515 2.9897 264.708 3.00412Q264.902 3.01854 265.095 3.04235Q265.288 3.06616 265.479 3.09929Q265.67 3.13242 265.86 3.17481Q266.05 3.21719 266.237 3.26872Q266.424 3.32025 266.609 3.38082Q266.793 3.44138 266.975 3.51082Q267.156 3.58027 267.334 3.65844Q267.512 3.73661 267.685 3.82331L270.025 4.99051Q270.203 5.07913 270.376 5.17644Q270.549 5.27375 270.717 5.37953Q270.885 5.48531 271.047 5.59928Q271.21 5.71326 271.366 5.83516Q271.523 5.95706 271.673 6.08657Q271.824 6.21609 271.968 6.35291Q272.112 6.48973 272.248 6.63352Q272.385 6.7773 272.515 6.9277Q272.644 7.0781 272.766 7.23473Q272.888 7.39137 273.002 7.55386Q273.116 7.71635 273.222 7.8843Q273.328 8.05225 273.425 8.22524Q273.523 8.39823 273.611 8.57583Q273.7 8.75344 273.78 8.93522Q273.859 9.117 273.93 9.30252Q274 9.48803 274.062 9.67682Q274.123 9.86561 274.175 10.0572Q274.227 10.2488 274.269 10.4427Q274.312 10.6367 274.344 10.8325Q274.377 11.0283 274.4 11.2254Q274.423 11.4226 274.436 11.6207Q274.449 11.8188 274.452 12.0172Q274.455 12.2157 274.449 12.4141Q274.442 12.6125 274.426 12.8103Q274.409 13.0081 274.383 13.2049Q274.357 13.4017 274.321 13.5969Q274.285 13.7921 274.239 13.9853Q274.194 14.1785 274.139 14.3692Q274.084 14.5599 274.019 14.7476Q273.955 14.9353 273.881 15.1196Q273.807 15.3039 273.724 15.4843Q273.642 15.6647 273.55 15.8408L260.567 40.7895Q260.477 40.9618 260.379 41.1296Q260.281 41.2973 260.175 41.4601Q260.069 41.6229 259.955 41.7804Q259.842 41.9378 259.721 42.0896Q259.599 42.2413 259.471 42.387Q259.342 42.5327 259.207 42.672Q259.072 42.8112 258.93 42.9438Q258.788 43.0763 258.639 43.2018Q258.491 43.3273 258.337 43.4455Q258.183 43.5637 258.023 43.6742Q257.863 43.7847 257.699 43.8874Q257.534 43.9901 257.364 44.0846Q257.194 44.1791 257.02 44.2653Q256.846 44.3515 256.668 44.4291Q256.49 44.5068 256.309 44.5757Q256.127 44.6446 255.942 44.7046Q255.758 44.7646 255.57 44.8156Q255.383 44.8665 255.193 44.9084Q255.003 44.9502 254.812 44.9827Q254.62 45.0153 254.428 45.0385Q254.235 45.0618 254.041 45.0756Q253.847 45.0895 253.653 45.0939Q253.459 45.0983 253.265 45.0933Q253.071 45.0883 252.877 45.0739Q252.683 45.0594 252.49 45.0356Q252.298 45.0118 252.106 44.9787Q251.915 44.9456 251.725 44.9032Q251.536 44.8608 251.349 44.8093Q251.161 44.7577 250.977 44.6972Q250.792 44.6366 250.611 44.5672Q250.429 44.4977 250.252 44.4196Q250.074 44.3414 249.9 44.2547Z" id="Rectangle-2-Copy-2" fill="#0A003D" fill-rule="evenodd" stroke="none" />
      <path d="M506.917 177.229L504.927 175.651Q504.771 175.527 504.621 175.396Q504.472 175.265 504.329 175.126Q504.186 174.988 504.05 174.843Q503.915 174.697 503.786 174.545Q503.658 174.393 503.537 174.235Q503.416 174.077 503.304 173.913Q503.191 173.749 503.087 173.58Q502.982 173.41 502.887 173.236Q502.791 173.062 502.704 172.883Q502.617 172.704 502.539 172.521Q502.461 172.338 502.392 172.151Q502.323 171.964 502.263 171.775Q502.204 171.585 502.154 171.392Q502.104 171.2 502.064 171.005Q502.023 170.81 501.993 170.613Q501.962 170.417 501.941 170.219Q501.921 170.021 501.91 169.822Q501.899 169.624 501.898 169.425Q501.897 169.226 501.905 169.027Q501.914 168.828 501.933 168.63Q501.952 168.432 501.98 168.235Q502.009 168.039 502.047 167.843Q502.085 167.648 502.133 167.455Q502.181 167.262 502.239 167.071Q502.296 166.881 502.363 166.694Q502.43 166.506 502.506 166.322Q502.582 166.139 502.667 165.959Q502.753 165.779 502.847 165.604Q502.941 165.428 503.043 165.258Q503.146 165.087 503.257 164.922Q503.368 164.757 503.487 164.598Q503.606 164.438 503.733 164.285L521.771 142.475Q521.894 142.326 522.025 142.183Q522.155 142.04 522.293 141.903Q522.43 141.766 522.574 141.636Q522.718 141.507 522.868 141.384Q523.018 141.261 523.173 141.146Q523.329 141.03 523.49 140.923Q523.651 140.815 523.817 140.715Q523.983 140.616 524.154 140.524Q524.325 140.432 524.5 140.349Q524.675 140.266 524.854 140.191Q525.033 140.117 525.215 140.051Q525.397 139.985 525.582 139.928Q525.768 139.871 525.955 139.823Q526.143 139.775 526.333 139.736Q526.523 139.698 526.714 139.668Q526.906 139.638 527.099 139.618Q527.291 139.598 527.485 139.587Q527.678 139.576 527.872 139.575Q528.066 139.573 528.259 139.581Q528.453 139.589 528.646 139.606Q528.839 139.623 529.031 139.65Q529.223 139.676 529.413 139.712Q529.604 139.748 529.792 139.793Q529.981 139.838 530.167 139.892Q530.353 139.946 530.536 140.009Q530.719 140.072 530.899 140.144Q531.079 140.216 531.256 140.296Q531.432 140.377 531.604 140.466Q531.776 140.555 531.944 140.652Q532.112 140.749 532.275 140.854Q532.437 140.959 532.595 141.072Q532.752 141.185 532.904 141.305L534.894 142.883Q535.05 143.007 535.2 143.138Q535.349 143.269 535.492 143.408Q535.635 143.546 535.771 143.692Q535.906 143.837 536.035 143.989Q536.163 144.141 536.284 144.299Q536.405 144.457 536.517 144.621Q536.63 144.785 536.734 144.955Q536.839 145.124 536.935 145.298Q537.03 145.473 537.117 145.652Q537.204 145.831 537.282 146.014Q537.361 146.197 537.429 146.383Q537.498 146.57 537.558 146.76Q537.617 146.95 537.667 147.142Q537.717 147.335 537.757 147.529Q537.798 147.724 537.828 147.921Q537.859 148.117 537.88 148.315Q537.901 148.513 537.911 148.712Q537.922 148.91 537.923 149.109Q537.924 149.308 537.916 149.507Q537.907 149.706 537.888 149.904Q537.869 150.102 537.841 150.299Q537.812 150.496 537.774 150.691Q537.736 150.886 537.688 151.079Q537.64 151.272 537.582 151.463Q537.525 151.653 537.458 151.841Q537.391 152.028 537.315 152.212Q537.239 152.396 537.154 152.575Q537.068 152.755 536.974 152.931Q536.88 153.106 536.778 153.276Q536.675 153.447 536.564 153.612Q536.453 153.777 536.334 153.937Q536.215 154.096 536.089 154.249L518.051 176.059Q517.927 176.208 517.796 176.351Q517.666 176.495 517.529 176.631Q517.391 176.768 517.247 176.898Q517.104 177.028 516.954 177.15Q516.804 177.273 516.648 177.389Q516.492 177.504 516.331 177.612Q516.17 177.719 516.004 177.819Q515.838 177.919 515.667 178.01Q515.496 178.102 515.321 178.185Q515.146 178.268 514.967 178.343Q514.788 178.418 514.606 178.483Q514.424 178.549 514.239 178.606Q514.054 178.663 513.866 178.711Q513.678 178.759 513.488 178.798Q513.298 178.837 513.107 178.866Q512.915 178.896 512.723 178.916Q512.53 178.936 512.336 178.947Q512.143 178.958 511.949 178.96Q511.755 178.961 511.562 178.953Q511.368 178.945 511.175 178.928Q510.982 178.911 510.79 178.884Q510.598 178.858 510.408 178.822Q510.217 178.786 510.029 178.741Q509.84 178.696 509.654 178.642Q509.468 178.588 509.285 178.525Q509.102 178.462 508.922 178.39Q508.742 178.318 508.565 178.238Q508.389 178.157 508.217 178.068Q508.045 177.98 507.877 177.882Q507.709 177.785 507.547 177.68Q507.384 177.575 507.226 177.462Q507.069 177.349 506.917 177.229Z" id="Rectangle-2-Copy-3" fill="#0A003D" fill-rule="evenodd" stroke="none" />
      <path d="M500.037 424.153L501.641 422.281Q501.767 422.134 501.9 421.993Q502.033 421.853 502.173 421.718Q502.313 421.584 502.459 421.457Q502.605 421.33 502.757 421.209Q502.909 421.089 503.066 420.977Q503.224 420.864 503.387 420.759Q503.55 420.654 503.718 420.558Q503.886 420.461 504.058 420.372Q504.23 420.284 504.407 420.204Q504.583 420.123 504.763 420.052Q504.943 419.98 505.127 419.918Q505.31 419.855 505.496 419.801Q505.683 419.748 505.871 419.703Q506.06 419.658 506.25 419.623Q506.441 419.587 506.633 419.561Q506.825 419.535 507.018 419.518Q507.211 419.501 507.404 419.494Q507.598 419.486 507.792 419.488Q507.985 419.49 508.179 419.501Q508.372 419.512 508.565 419.533Q508.758 419.554 508.949 419.583Q509.14 419.613 509.33 419.652Q509.52 419.692 509.708 419.74Q509.895 419.788 510.08 419.846Q510.266 419.903 510.448 419.969Q510.63 420.035 510.808 420.11Q510.987 420.185 511.162 420.269Q511.337 420.352 511.507 420.444Q511.678 420.536 511.844 420.636Q512.01 420.736 512.171 420.844Q512.332 420.952 512.487 421.067Q512.643 421.183 512.792 421.306L534.799 439.386Q534.953 439.512 535.1 439.646Q535.247 439.78 535.388 439.921Q535.528 440.062 535.661 440.21Q535.795 440.357 535.92 440.512Q536.046 440.666 536.164 440.826Q536.282 440.986 536.392 441.152Q536.502 441.318 536.603 441.489Q536.705 441.66 536.797 441.836Q536.89 442.013 536.974 442.193Q537.058 442.373 537.133 442.558Q537.208 442.742 537.273 442.93Q537.339 443.118 537.395 443.309Q537.451 443.499 537.498 443.693Q537.544 443.886 537.581 444.082Q537.618 444.277 537.646 444.474Q537.673 444.672 537.69 444.87Q537.707 445.068 537.715 445.267Q537.722 445.466 537.72 445.665Q537.717 445.863 537.705 446.062Q537.693 446.261 537.671 446.458Q537.648 446.656 537.616 446.852Q537.584 447.049 537.543 447.243Q537.501 447.438 537.45 447.63Q537.398 447.822 537.337 448.012Q537.277 448.201 537.206 448.387Q537.136 448.574 537.057 448.756Q536.978 448.939 536.889 449.117Q536.801 449.295 536.704 449.469Q536.607 449.643 536.501 449.811Q536.396 449.98 536.282 450.143Q536.168 450.306 536.046 450.464Q535.924 450.621 535.795 450.772L534.191 452.644Q534.065 452.791 533.932 452.932Q533.799 453.073 533.659 453.207Q533.519 453.341 533.373 453.468Q533.227 453.596 533.075 453.716Q532.923 453.836 532.765 453.948Q532.608 454.061 532.445 454.166Q532.282 454.271 532.114 454.367Q531.946 454.464 531.774 454.553Q531.601 454.641 531.425 454.722Q531.248 454.802 531.068 454.873Q530.888 454.945 530.705 455.007Q530.522 455.07 530.335 455.124Q530.149 455.177 529.961 455.222Q529.772 455.267 529.582 455.302Q529.391 455.338 529.199 455.364Q529.007 455.39 528.814 455.407Q528.621 455.424 528.428 455.431Q528.234 455.439 528.04 455.437Q527.846 455.435 527.653 455.424Q527.46 455.413 527.267 455.392Q527.074 455.372 526.883 455.342Q526.691 455.312 526.502 455.273Q526.312 455.233 526.124 455.185Q525.937 455.137 525.751 455.08Q525.566 455.022 525.384 454.956Q525.202 454.89 525.023 454.815Q524.845 454.74 524.67 454.656Q524.495 454.573 524.324 454.481Q524.154 454.389 523.988 454.289Q523.822 454.189 523.661 454.081Q523.5 453.973 523.345 453.858Q523.189 453.742 523.039 453.619L501.033 435.539Q500.879 435.413 500.732 435.279Q500.584 435.145 500.444 435.004Q500.304 434.863 500.17 434.716Q500.037 434.568 499.911 434.414Q499.786 434.259 499.668 434.099Q499.55 433.939 499.44 433.773Q499.33 433.607 499.229 433.436Q499.127 433.265 499.034 433.089Q498.942 432.913 498.858 432.732Q498.774 432.552 498.699 432.368Q498.624 432.183 498.559 431.995Q498.493 431.808 498.437 431.617Q498.381 431.426 498.334 431.232Q498.287 431.039 498.25 430.843Q498.214 430.648 498.186 430.451Q498.159 430.254 498.142 430.056Q498.125 429.857 498.117 429.658Q498.11 429.46 498.112 429.261Q498.114 429.062 498.127 428.863Q498.139 428.665 498.161 428.467Q498.183 428.269 498.215 428.073Q498.247 427.876 498.289 427.682Q498.331 427.487 498.382 427.295Q498.434 427.103 498.494 426.913Q498.555 426.724 498.625 426.538Q498.695 426.352 498.775 426.169Q498.854 425.987 498.942 425.808Q499.031 425.63 499.128 425.456Q499.225 425.283 499.33 425.114Q499.436 424.945 499.55 424.782Q499.664 424.619 499.785 424.462Q499.907 424.304 500.037 424.153Z" id="Rectangle-2-Copy-4" fill="#0A003D" fill-rule="evenodd" stroke="none" />
      <path d="M433.736 553.346L435.626 551.68Q435.771 551.552 435.923 551.431Q436.074 551.31 436.231 551.197Q436.388 551.083 436.551 550.977Q436.713 550.872 436.88 550.774Q437.047 550.676 437.219 550.587Q437.391 550.497 437.567 550.416Q437.743 550.335 437.923 550.262Q438.102 550.19 438.285 550.126Q438.468 550.063 438.654 550.008Q438.84 549.953 439.028 549.907Q439.216 549.862 439.407 549.825Q439.597 549.788 439.789 549.761Q439.981 549.734 440.173 549.716Q440.366 549.698 440.56 549.689Q440.754 549.681 440.947 549.681Q441.141 549.682 441.334 549.692Q441.528 549.702 441.721 549.722Q441.914 549.741 442.105 549.77Q442.297 549.799 442.487 549.837Q442.677 549.875 442.865 549.922Q443.052 549.969 443.238 550.026Q443.423 550.082 443.606 550.147Q443.788 550.212 443.967 550.286Q444.146 550.36 444.322 550.442Q444.497 550.525 444.668 550.616Q444.839 550.707 445.006 550.806Q445.172 550.905 445.334 551.012Q445.495 551.119 445.651 551.233Q445.807 551.348 445.958 551.47Q446.108 551.592 446.253 551.722Q446.397 551.851 446.535 551.987Q446.673 552.123 446.804 552.266L465.995 573.134Q466.129 573.28 466.257 573.433Q466.384 573.586 466.503 573.745Q466.623 573.905 466.734 574.07Q466.846 574.234 466.949 574.405Q467.052 574.575 467.146 574.75Q467.241 574.925 467.326 575.105Q467.412 575.284 467.489 575.468Q467.565 575.651 467.633 575.839Q467.7 576.026 467.758 576.216Q467.816 576.406 467.865 576.6Q467.913 576.792 467.952 576.988Q467.991 577.183 468.02 577.38Q468.049 577.577 468.068 577.775Q468.087 577.973 468.097 578.172Q468.106 578.37 468.106 578.569Q468.105 578.768 468.095 578.967Q468.084 579.166 468.064 579.364Q468.044 579.562 468.014 579.758Q467.984 579.955 467.944 580.15Q467.904 580.345 467.854 580.538Q467.805 580.73 467.746 580.92Q467.687 581.11 467.619 581.297Q467.55 581.484 467.473 581.667Q467.395 581.851 467.308 582.03Q467.222 582.209 467.126 582.384Q467.031 582.558 466.927 582.728Q466.823 582.898 466.711 583.062Q466.598 583.226 466.478 583.385Q466.358 583.543 466.23 583.695Q466.102 583.848 465.966 583.994Q465.831 584.139 465.688 584.278Q465.546 584.417 465.396 584.549L463.507 586.215Q463.361 586.343 463.21 586.464Q463.059 586.585 462.902 586.698Q462.745 586.812 462.582 586.917Q462.42 587.023 462.253 587.121Q462.085 587.219 461.913 587.308Q461.742 587.398 461.566 587.479Q461.39 587.56 461.21 587.632Q461.03 587.705 460.847 587.769Q460.664 587.832 460.479 587.887Q460.293 587.942 460.105 587.988Q459.916 588.033 459.726 588.07Q459.536 588.106 459.344 588.134Q459.152 588.161 458.959 588.179Q458.766 588.197 458.573 588.206Q458.379 588.214 458.186 588.214Q457.992 588.213 457.798 588.203Q457.605 588.192 457.412 588.173Q457.219 588.153 457.028 588.125Q456.836 588.096 456.646 588.058Q456.456 588.02 456.268 587.973Q456.08 587.925 455.895 587.869Q455.71 587.813 455.527 587.748Q455.345 587.683 455.166 587.609Q454.987 587.535 454.811 587.452Q454.636 587.37 454.465 587.279Q454.294 587.188 454.127 587.089Q453.961 586.99 453.799 586.883Q453.638 586.776 453.482 586.661Q453.325 586.547 453.175 586.425Q453.025 586.302 452.88 586.173Q452.736 586.044 452.598 585.908Q452.46 585.772 452.329 585.629L433.138 564.761Q433.003 564.614 432.876 564.461Q432.749 564.308 432.629 564.149Q432.51 563.99 432.399 563.825Q432.287 563.66 432.184 563.49Q432.081 563.32 431.987 563.145Q431.892 562.97 431.806 562.79Q431.721 562.611 431.644 562.427Q431.567 562.243 431.5 562.056Q431.433 561.869 431.375 561.678Q431.316 561.488 431.268 561.295Q431.22 561.102 431.181 560.907Q431.142 560.712 431.113 560.515Q431.084 560.318 431.064 560.12Q431.045 559.922 431.036 559.723Q431.026 559.524 431.027 559.325Q431.027 559.126 431.038 558.928Q431.048 558.729 431.069 558.531Q431.089 558.333 431.119 558.136Q431.149 557.94 431.189 557.745Q431.229 557.55 431.278 557.357Q431.328 557.164 431.387 556.974Q431.446 556.784 431.514 556.597Q431.583 556.411 431.66 556.227Q431.738 556.044 431.824 555.865Q431.911 555.686 432.006 555.511Q432.102 555.336 432.206 555.167Q432.31 554.997 432.422 554.833Q432.534 554.669 432.655 554.51Q432.775 554.352 432.903 554.199Q433.031 554.047 433.166 553.901Q433.302 553.755 433.444 553.617Q433.587 553.478 433.736 553.346Z" id="Rectangle-2-Copy-5" fill="#0A003D" fill-rule="evenodd" stroke="none" />
      <path d="M268.851 556.799L271.448 557.433Q271.64 557.48 271.829 557.536Q272.019 557.592 272.205 557.658Q272.392 557.724 272.575 557.798Q272.758 557.873 272.937 557.957Q273.116 558.04 273.29 558.133Q273.465 558.225 273.635 558.326Q273.805 558.427 273.97 558.536Q274.134 558.645 274.294 558.762Q274.453 558.879 274.606 559.004Q274.759 559.129 274.906 559.261Q275.053 559.394 275.193 559.533Q275.333 559.672 275.466 559.818Q275.599 559.965 275.724 560.117Q275.85 560.27 275.968 560.428Q276.086 560.587 276.196 560.751Q276.306 560.915 276.408 561.084Q276.51 561.254 276.603 561.428Q276.696 561.602 276.781 561.781Q276.865 561.959 276.941 562.142Q277.017 562.324 277.083 562.51Q277.15 562.697 277.207 562.886Q277.264 563.075 277.312 563.267Q277.36 563.458 277.398 563.652Q277.437 563.846 277.465 564.041Q277.494 564.237 277.513 564.434Q277.532 564.63 277.541 564.828Q277.551 565.025 277.55 565.223Q277.55 565.42 277.539 565.618Q277.529 565.815 277.509 566.012Q277.489 566.208 277.46 566.404Q277.43 566.599 277.391 566.793Q277.352 566.986 277.303 567.178L270.396 594.299Q270.348 594.488 270.291 594.675Q270.234 594.861 270.167 595.045Q270.101 595.228 270.026 595.408Q269.95 595.588 269.867 595.765Q269.783 595.941 269.69 596.113Q269.598 596.284 269.497 596.452Q269.397 596.619 269.288 596.781Q269.179 596.943 269.063 597.099Q268.946 597.256 268.822 597.407Q268.698 597.557 268.567 597.702Q268.436 597.846 268.298 597.984Q268.16 598.122 268.015 598.253Q267.871 598.384 267.72 598.508Q267.569 598.632 267.412 598.748Q267.256 598.864 267.094 598.973Q266.931 599.081 266.764 599.182Q266.597 599.282 266.425 599.375Q266.253 599.467 266.077 599.551Q265.901 599.634 265.72 599.709Q265.54 599.784 265.357 599.85Q265.173 599.917 264.987 599.974Q264.8 600.031 264.611 600.079Q264.422 600.127 264.23 600.165Q264.039 600.204 263.846 600.233Q263.653 600.263 263.459 600.283Q263.265 600.303 263.07 600.313Q262.875 600.323 262.68 600.324Q262.485 600.325 262.29 600.316Q262.095 600.308 261.901 600.29Q261.707 600.272 261.514 600.244Q261.32 600.216 261.129 600.179Q260.937 600.142 260.748 600.096L258.151 599.462Q257.959 599.415 257.769 599.359Q257.58 599.302 257.393 599.237Q257.207 599.171 257.024 599.097Q256.841 599.022 256.662 598.938Q256.483 598.855 256.308 598.762Q256.134 598.67 255.964 598.569Q255.794 598.468 255.629 598.359Q255.464 598.25 255.305 598.133Q255.146 598.016 254.993 597.891Q254.84 597.766 254.693 597.634Q254.546 597.501 254.406 597.362Q254.266 597.223 254.133 597.076Q254 596.93 253.874 596.778Q253.749 596.625 253.631 596.467Q253.513 596.308 253.403 596.144Q253.293 595.98 253.191 595.811Q253.089 595.641 252.996 595.467Q252.903 595.293 252.818 595.114Q252.733 594.936 252.658 594.753Q252.582 594.57 252.516 594.384Q252.449 594.198 252.392 594.009Q252.335 593.82 252.287 593.628Q252.239 593.437 252.201 593.243Q252.162 593.049 252.133 592.853Q252.105 592.658 252.086 592.461Q252.067 592.265 252.057 592.067Q252.048 591.87 252.049 591.672Q252.049 591.475 252.059 591.277Q252.069 591.08 252.089 590.883Q252.109 590.687 252.139 590.491Q252.169 590.296 252.208 590.102Q252.247 589.909 252.296 589.717L259.202 562.596Q259.251 562.407 259.308 562.22Q259.365 562.034 259.432 561.85Q259.498 561.667 259.573 561.487Q259.648 561.307 259.732 561.13Q259.816 560.954 259.908 560.782Q260.001 560.611 260.102 560.443Q260.202 560.276 260.311 560.114Q260.42 559.952 260.536 559.796Q260.652 559.639 260.776 559.488Q260.9 559.338 261.032 559.193Q261.163 559.049 261.301 558.911Q261.439 558.773 261.583 558.642Q261.728 558.511 261.879 558.387Q262.03 558.263 262.186 558.147Q262.343 558.031 262.505 557.922Q262.667 557.814 262.835 557.713Q263.002 557.613 263.174 557.521Q263.346 557.428 263.522 557.345Q263.698 557.261 263.878 557.186Q264.059 557.111 264.242 557.045Q264.426 556.978 264.612 556.921Q264.799 556.864 264.988 556.816Q265.177 556.768 265.368 556.73Q265.56 556.691 265.752 556.662Q265.945 556.632 266.139 556.612Q266.334 556.593 266.528 556.582Q266.723 556.572 266.918 556.571Q267.114 556.57 267.308 556.579Q267.503 556.587 267.698 556.606Q267.892 556.624 268.085 556.651Q268.278 556.679 268.47 556.716Q268.661 556.753 268.851 556.799Z" id="Rectangle-2-Copy-6" fill="#0A003D" fill-rule="evenodd" stroke="none" />
      <path d="M76.4776 502.796L78.6827 504.146Q78.8522 504.249 79.0164 504.361Q79.1806 504.473 79.339 504.593Q79.4974 504.713 79.6496 504.841Q79.8019 504.969 79.9476 505.104Q80.0933 505.239 80.2321 505.381Q80.3709 505.523 80.5025 505.672Q80.6341 505.821 80.7581 505.977Q80.8822 506.132 80.9984 506.293Q81.1145 506.454 81.2225 506.621Q81.3305 506.788 81.4301 506.96Q81.5297 507.132 81.6207 507.309Q81.7116 507.485 81.7937 507.666Q81.8757 507.847 81.9487 508.032Q82.0216 508.217 82.0853 508.405Q82.149 508.594 82.2033 508.785Q82.2575 508.976 82.3022 509.17Q82.3469 509.363 82.3819 509.559Q82.417 509.755 82.4422 509.952Q82.4675 510.149 82.4829 510.347Q82.4984 510.545 82.504 510.744Q82.5096 510.942 82.5053 511.141Q82.501 511.34 82.4869 511.538Q82.4727 511.736 82.4487 511.933Q82.4248 512.131 82.391 512.327Q82.3573 512.522 82.3139 512.716Q82.2704 512.91 82.2174 513.102Q82.1644 513.293 82.102 513.482Q82.0395 513.671 81.9678 513.856Q81.8961 514.042 81.8152 514.223Q81.7344 514.405 81.6446 514.582Q81.5548 514.759 81.4564 514.932Q81.3579 515.104 81.251 515.272L66.0828 539.039Q65.9785 539.202 65.8663 539.361Q65.7542 539.519 65.6344 539.672Q65.5147 539.824 65.3878 539.971Q65.2608 540.118 65.1269 540.258Q64.993 540.398 64.8524 540.532Q64.7118 540.666 64.5649 540.792Q64.418 540.919 64.2652 541.039Q64.1123 541.158 63.9538 541.27Q63.7954 541.382 63.6317 541.486Q63.468 541.59 63.2994 541.686Q63.1308 541.782 62.9578 541.87Q62.7848 541.958 62.6077 542.037Q62.4307 542.116 62.25 542.187Q62.0693 542.257 61.8854 542.319Q61.7015 542.381 61.5148 542.433Q61.3281 542.486 61.1391 542.53Q60.95 542.573 60.7591 542.608Q60.5682 542.642 60.3759 542.667Q60.1835 542.692 59.9902 542.708Q59.7968 542.724 59.6029 542.73Q59.409 542.737 59.2151 542.734Q59.0211 542.731 58.8275 542.718Q58.6339 542.706 58.4411 542.684Q58.2484 542.662 58.0569 542.631Q57.8654 542.6 57.6757 542.56Q57.4859 542.519 57.2984 542.47Q57.1108 542.42 56.9259 542.362Q56.7409 542.303 56.559 542.236Q56.3771 542.168 56.1987 542.092Q56.0203 542.016 55.8458 541.931Q55.6713 541.846 55.5011 541.753Q55.3309 541.66 55.1655 541.559L52.9604 540.21Q52.7908 540.106 52.6267 539.994Q52.4625 539.882 52.3041 539.762Q52.1457 539.642 51.9934 539.514Q51.8412 539.387 51.6955 539.251Q51.5498 539.116 51.4109 538.974Q51.2721 538.832 51.1405 538.683Q51.0089 538.534 50.8849 538.379Q50.7609 538.223 50.6447 538.062Q50.5285 537.901 50.4205 537.734Q50.3125 537.567 50.2129 537.395Q50.1133 537.223 50.0224 537.047Q49.9315 536.87 49.8494 536.689Q49.7674 536.508 49.6944 536.323Q49.6214 536.138 49.5578 535.95Q49.4941 535.762 49.4398 535.57Q49.3856 535.379 49.3409 535.186Q49.2962 534.992 49.2611 534.796Q49.2261 534.601 49.2008 534.403Q49.1756 534.206 49.1601 534.008Q49.1447 533.81 49.1391 533.611Q49.1335 533.413 49.1378 533.214Q49.1421 533.015 49.1562 532.817Q49.1704 532.619 49.1943 532.422Q49.2183 532.224 49.252 532.029Q49.2858 531.833 49.3292 531.639Q49.3726 531.445 49.4256 531.253Q49.4786 531.062 49.5411 530.873Q49.6035 530.684 49.6753 530.499Q49.747 530.314 49.8279 530.132Q49.9087 529.951 49.9985 529.773Q50.0883 529.596 50.1867 529.423Q50.2852 529.251 50.3921 529.083L65.5602 505.316Q65.6646 505.153 65.7768 504.995Q65.8889 504.836 66.0086 504.684Q66.1283 504.531 66.2553 504.384Q66.3823 504.238 66.5162 504.097Q66.6501 503.957 66.7907 503.823Q66.9313 503.69 67.0782 503.563Q67.2251 503.436 67.3779 503.317Q67.5308 503.197 67.6893 503.085Q67.8477 502.974 68.0114 502.869Q68.1751 502.765 68.3437 502.669Q68.5123 502.573 68.6853 502.486Q68.8583 502.398 69.0354 502.319Q69.2124 502.239 69.3931 502.169Q69.5738 502.098 69.7577 502.036Q69.9416 501.975 70.1283 501.922Q70.315 501.869 70.504 501.826Q70.693 501.782 70.8839 501.748Q71.0749 501.713 71.2672 501.688Q71.4596 501.663 71.6529 501.647Q71.8463 501.631 72.0402 501.625Q72.2341 501.619 72.428 501.622Q72.622 501.625 72.8156 501.637Q73.0092 501.65 73.2019 501.671Q73.3947 501.693 73.5862 501.724Q73.7777 501.755 73.9674 501.796Q74.1572 501.836 74.3447 501.886Q74.5323 501.935 74.7172 501.994Q74.9022 502.052 75.0841 502.12Q75.266 502.187 75.4444 502.263Q75.6228 502.339 75.7973 502.424Q75.9718 502.509 76.142 502.602Q76.3121 502.695 76.4776 502.796Z" id="Rectangle-2-Copy-7" fill="#0A003D" fill-rule="evenodd" stroke="none" />
      <path d="M45.4281 378.195L46.0436 380.444Q46.0958 380.635 46.1385 380.828Q46.1812 381.021 46.2143 381.216Q46.2474 381.411 46.2709 381.607Q46.2943 381.803 46.308 382.001Q46.3218 382.198 46.3257 382.395Q46.3297 382.593 46.3239 382.791Q46.3181 382.988 46.3025 383.185Q46.287 383.382 46.2617 383.579Q46.2364 383.775 46.2015 383.969Q46.1665 384.164 46.122 384.356Q46.0775 384.549 46.0236 384.739Q45.9696 384.929 45.9063 385.117Q45.843 385.304 45.7706 385.488Q45.6981 385.672 45.6167 385.852Q45.5352 386.032 45.445 386.208Q45.3547 386.384 45.2559 386.555Q45.157 386.726 45.0499 386.892Q44.9427 387.058 44.8274 387.219Q44.7122 387.38 44.5892 387.534Q44.4661 387.689 44.3356 387.838Q44.2051 387.986 44.0674 388.128Q43.9296 388.27 43.7851 388.405Q43.6406 388.539 43.4895 388.667Q43.3385 388.795 43.1814 388.914Q43.0242 389.034 42.8613 389.146Q42.6985 389.258 42.5302 389.362Q42.362 389.466 42.1889 389.562Q42.0158 389.657 41.8381 389.744Q41.6605 389.83 41.4788 389.908Q41.2971 389.986 41.1117 390.055Q40.9264 390.124 40.7379 390.183Q40.5494 390.243 40.3582 390.293L12.4945 397.603Q12.3058 397.652 12.115 397.693Q11.9241 397.733 11.7316 397.764Q11.539 397.795 11.3451 397.816Q11.1513 397.838 10.9566 397.85Q10.7619 397.862 10.5669 397.864Q10.3718 397.867 10.1769 397.86Q9.98201 397.853 9.78767 397.836Q9.59332 397.82 9.40001 397.794Q9.2067 397.768 9.01489 397.732Q8.82308 397.697 8.63321 397.652Q8.44335 397.608 8.25589 397.554Q8.06843 397.5 7.88381 397.437Q7.6992 397.374 7.51787 397.302Q7.33655 397.23 7.15894 397.15Q6.98133 397.069 6.80786 396.98Q6.63439 396.891 6.46547 396.793Q6.29655 396.696 6.13259 396.59Q5.96862 396.485 5.81 396.371Q5.65138 396.258 5.49848 396.136Q5.34558 396.015 5.19876 395.887Q5.05194 395.759 4.91156 395.623Q4.77117 395.488 4.63755 395.346Q4.50394 395.204 4.3774 395.055Q4.25087 394.907 4.13171 394.752Q4.01256 394.598 3.90108 394.438Q3.7896 394.278 3.68605 394.113Q3.5825 393.947 3.48713 393.777Q3.39175 393.607 3.30479 393.432Q3.21782 393.258 3.13947 393.079Q3.06111 392.901 2.99156 392.718Q2.922 392.536 2.86141 392.351Q2.80082 392.165 2.74934 391.977L2.13384 389.728Q2.08166 389.538 2.03896 389.345Q1.99626 389.152 1.96315 388.957Q1.93004 388.762 1.9066 388.565Q1.88315 388.369 1.86943 388.172Q1.85571 387.975 1.85175 387.777Q1.84779 387.579 1.8536 387.382Q1.8594 387.184 1.87497 386.987Q1.89053 386.79 1.9158 386.594Q1.94108 386.398 1.97601 386.203Q2.01094 386.009 2.05544 385.816Q2.09994 385.624 2.1539 385.433Q2.20786 385.243 2.27114 385.056Q2.33443 384.869 2.40689 384.685Q2.47935 384.501 2.56081 384.321Q2.64227 384.141 2.73253 383.965Q2.82278 383.789 2.92162 383.618Q3.02045 383.446 3.12762 383.28Q3.23479 383.114 3.35004 382.954Q3.46528 382.793 3.58832 382.638Q3.71136 382.484 3.84189 382.335Q3.97242 382.187 4.11013 382.045Q4.24783 381.903 4.39238 381.768Q4.53692 381.633 4.68795 381.506Q4.83898 381.378 4.99612 381.258Q5.15327 381.138 5.31615 381.026Q5.47902 380.914 5.64724 380.81Q5.81545 380.707 5.98859 380.611Q6.16172 380.516 6.33936 380.429Q6.517 380.342 6.69871 380.264Q6.88041 380.186 7.06574 380.118Q7.25108 380.049 7.43958 379.989Q7.62808 379.93 7.81929 379.88L35.683 372.57Q35.8716 372.52 36.0625 372.48Q36.2533 372.44 36.4459 372.409Q36.6385 372.378 36.8324 372.356Q37.0262 372.335 37.2209 372.323Q37.4156 372.311 37.6106 372.308Q37.8056 372.306 38.0005 372.313Q38.1955 372.32 38.3898 372.336Q38.5842 372.353 38.7775 372.379Q38.9708 372.405 39.1626 372.44Q39.3544 372.475 39.5443 372.52Q39.7341 372.565 39.9216 372.619Q40.1091 372.673 40.2937 372.735Q40.4783 372.798 40.6596 372.87Q40.8409 372.942 41.0185 373.023Q41.1961 373.103 41.3696 373.192Q41.5431 373.282 41.712 373.379Q41.8809 373.477 42.0449 373.582Q42.2088 373.688 42.3675 373.801Q42.5261 373.915 42.679 374.036Q42.8319 374.157 42.9787 374.286Q43.1255 374.414 43.2659 374.549Q43.4063 374.685 43.5399 374.827Q43.6735 374.969 43.8001 375.117Q43.9266 375.266 44.0458 375.42Q44.1649 375.575 44.2764 375.735Q44.3879 375.895 44.4914 376.06Q44.595 376.225 44.6904 376.395Q44.7857 376.566 44.8727 376.74Q44.9597 376.915 45.038 377.093Q45.1164 377.272 45.1859 377.454Q45.2555 377.636 45.3161 377.822Q45.3767 378.007 45.4281 378.195Z" id="Rectangle-2-Copy-8" fill="#0A003D" fill-rule="evenodd" stroke="none" />
    </g>
  </g>
</svg>