<?xml version="1.0" encoding="utf-8"?>
<svg width="1010px" height="1020px" viewBox="0 0 1010 1020" version="1.1" xmlns:xlink="http://www.w3.org/1999/xlink" xmlns="http://www.w3.org/2000/svg">
  <defs>
    <filter filterUnits="userSpaceOnUse" color-interpolation-filters="sRGB" id="filter_1">
      <feFlood flood-opacity="0" result="BackgroundImageFix" />
      <feColorMatrix in="SourceAlpha" type="matrix" values="0 0 0 0 0 0 0 0 0 0 0 0 0 0 0 0 0 0 127 0" />
      <feOffset dx="4" dy="4" />
      <feGaussianBlur stdDeviation="7" />
      <feColorMatrix type="matrix" values="0 0 0 0 0.6431373 0 0 0 0 0.63529414 0 0 0 0 0.64705884 0 0 0 1 0" />
      <feBlend mode="normal" in2="BackgroundImageFix" result="effect0_dropShadow" />
      <feBlend mode="normal" in="SourceGraphic" in2="effect0_dropShadow" result="shape" />
    </filter>
    <path d="M0 0L1010 0L1010 1020L0 1020L0 0Z" id="path_1" />
    <path d="M410.85 460.602C410.85 428.359 439.611 402.221 475.09 402.221C510.57 402.221 539.331 428.359 539.331 460.602C539.331 492.844 510.57 518.982 475.09 518.982C439.611 518.982 410.85 492.844 410.85 460.602Z" id="path_2" />
    <clipPath id="clip_1">
      <use xlink:href="#path_1" />
    </clipPath>
    <clipPath id="clip_2">
      <use xlink:href="#path_2" />
    </clipPath>
  </defs>
  <g id="Artboard" clip-path="url(#clip_1)">
    <path d="M0 0L1010 0L1010 1020L0 1020L0 0Z" id="Artboard" fill="#FFFFFF" fill-opacity="0" fill-rule="evenodd" stroke="none" />
    <g filter="url(#filter_1)">
      <g id="Group-3" transform="matrix(0.98768836 0.15643448 -0.15643448 0.98768836 105.09082 0)">
        <path d="M389.708 182.172C418.779 173.046 422.183 165.444 420.609 149.239C419.035 133.033 322.947 68.739 263.505 117.353C204.062 165.967 240.085 310.164 240.085 310.164C240.085 310.164 66.473 364.557 47.3634 425.373C28.2539 486.187 132.133 574.345 166.977 538.417C201.821 502.489 91.1025 477.62 112.632 435.713C134.162 393.808 253.095 370.792 253.095 370.792L278.304 448.636C278.304 448.636 134.496 698.186 224.674 773.996C314.851 849.806 376.386 782.412 387.542 770.272C398.699 758.131 392.389 738.677 365.892 733.866C339.396 729.055 288.843 785.156 259.074 730.335C229.304 675.513 306.765 511.509 306.765 511.509C306.765 511.509 428.223 772.809 613.531 821.084C798.839 869.359 701.126 424.226 621.821 421.062C542.516 417.897 737.083 688.618 639.226 756.975C541.369 825.331 343.935 449.858 343.935 449.858L413.29 354.325C413.29 354.325 693.09 372.068 797.934 425.373C902.779 478.677 788.13 519.044 776.043 536.885C763.956 554.724 788.085 597.846 820.365 580.278C852.645 562.712 920.51 530.484 901.831 469.683C883.153 408.882 837.753 380.765 724.833 340.905C611.913 301.048 457.645 306.422 457.645 306.422C457.645 306.422 607.765 136.523 667.04 174.687C726.315 212.851 681.263 256.971 698.909 274.362C716.556 291.755 727.651 295.476 742.625 277.979C757.599 260.483 789.741 90.5231 640.563 116.233C491.383 141.944 382.39 304.176 382.39 304.176L297.82 304.176C297.82 304.176 281.353 191.716 304.326 161.214C327.298 130.713 360.638 191.299 389.708 182.172Z" id="Vector" fill="none" fill-rule="evenodd" stroke="#4E1055" stroke-width="10" />
        <path d="M292.128 348.332L365.313 345.338L315.71 415.694L292.128 348.332Z" id="Vector-2" fill="#4E1055" fill-rule="evenodd" stroke="#4E1055" stroke-width="1" />
        <g id="Oval">
          <g clip-path="url(#clip_2)">
            <use xlink:href="#path_2" fill="none" stroke="#4E1055" stroke-width="28" />
          </g>
        </g>
        <path d="M142.807 265.58L138.888 276.055Q138.822 276.233 138.747 276.407Q138.672 276.582 138.589 276.753Q138.506 276.923 138.415 277.09Q138.323 277.257 138.224 277.419Q138.125 277.581 138.019 277.738Q137.912 277.896 137.798 278.048Q137.685 278.2 137.564 278.346Q137.443 278.493 137.315 278.633Q137.187 278.774 137.053 278.908Q136.918 279.043 136.778 279.17Q136.637 279.298 136.491 279.419Q136.344 279.54 136.192 279.654Q136.04 279.768 135.883 279.875Q135.726 279.981 135.563 280.08Q135.401 280.179 135.234 280.27Q135.068 280.361 134.897 280.445Q134.726 280.528 134.552 280.603Q134.377 280.678 134.199 280.744Q134.021 280.811 133.84 280.869Q133.659 280.927 133.476 280.976Q133.292 281.026 133.107 281.066Q132.921 281.107 132.734 281.139Q132.547 281.17 132.358 281.193Q132.169 281.216 131.98 281.23Q131.79 281.244 131.601 281.249Q131.411 281.253 131.221 281.249Q131.031 281.245 130.841 281.232Q130.652 281.219 130.463 281.197Q130.274 281.174 130.087 281.143Q129.899 281.112 129.714 281.072Q129.528 281.032 129.344 280.983Q129.161 280.935 128.98 280.877L77.8186 264.662Q77.6254 264.601 77.4355 264.53Q77.2455 264.459 77.0595 264.378Q76.8734 264.298 76.6916 264.208Q76.5098 264.118 76.3329 264.019Q76.1559 263.92 75.9841 263.813Q75.8124 263.705 75.6463 263.589Q75.4803 263.472 75.3203 263.348Q75.1604 263.223 75.0069 263.091Q74.8535 262.958 74.707 262.818Q74.5604 262.678 74.4212 262.53Q74.2819 262.383 74.1504 262.229Q74.0188 262.075 73.8952 261.914Q73.7715 261.753 73.6562 261.586Q73.5409 261.42 73.4342 261.247Q73.3275 261.075 73.2296 260.897Q73.1318 260.72 73.043 260.537Q72.9543 260.355 72.8749 260.169Q72.7956 259.982 72.7257 259.792Q72.6559 259.601 72.5958 259.408Q72.5357 259.214 72.4855 259.018Q72.4353 258.821 72.3951 258.622Q72.3549 258.424 72.3249 258.223Q72.2948 258.023 72.2749 257.821Q72.2551 257.619 72.2454 257.417Q72.2358 257.214 72.2365 257.011Q72.2371 256.809 72.248 256.606Q72.2589 256.404 72.2801 256.202Q72.3013 256 72.3326 255.8Q72.3639 255.6 72.4054 255.401Q72.4468 255.203 72.4983 255.007Q72.5498 254.811 72.6111 254.617Q72.6724 254.424 72.7434 254.234L76.6619 243.759Q76.7284 243.581 76.8034 243.407Q76.8783 243.232 76.9614 243.061Q77.0446 242.891 77.1357 242.724Q77.2269 242.557 77.3259 242.395Q77.4248 242.233 77.5314 242.076Q77.638 241.918 77.7519 241.766Q77.8658 241.614 77.9867 241.468Q78.1077 241.321 78.2355 241.181Q78.3633 241.04 78.4977 240.906Q78.632 240.771 78.7726 240.644Q78.9132 240.516 79.0596 240.395Q79.2061 240.274 79.3582 240.16Q79.5102 240.046 79.6675 239.939Q79.8248 239.833 79.987 239.734Q80.1491 239.635 80.3158 239.544Q80.4825 239.453 80.6533 239.369Q80.8241 239.286 80.9987 239.211Q81.1733 239.136 81.3512 239.07Q81.5292 239.003 81.7101 238.945Q81.891 238.887 82.0744 238.838Q82.2579 238.788 82.4435 238.748Q82.6291 238.707 82.8164 238.676Q83.0037 238.644 83.1923 238.621Q83.3809 238.598 83.5704 238.584Q83.7598 238.57 83.9498 238.565Q84.1397 238.561 84.3296 238.565Q84.5196 238.569 84.7091 238.582Q84.8986 238.595 85.0873 238.618Q85.276 238.64 85.4634 238.671Q85.6508 238.702 85.8365 238.742Q86.0223 238.782 86.2059 238.831Q86.3895 238.879 86.5706 238.937L137.732 255.152Q137.925 255.213 138.115 255.284Q138.305 255.355 138.491 255.436Q138.677 255.516 138.859 255.606Q139.04 255.696 139.217 255.795Q139.394 255.894 139.566 256.001Q139.738 256.109 139.904 256.226Q140.07 256.342 140.23 256.466Q140.39 256.591 140.543 256.724Q140.697 256.856 140.843 256.996Q140.99 257.136 141.129 257.284Q141.268 257.431 141.4 257.585Q141.531 257.74 141.655 257.9Q141.779 258.061 141.894 258.228Q142.009 258.394 142.116 258.567Q142.223 258.739 142.321 258.917Q142.418 259.094 142.507 259.277Q142.596 259.459 142.675 259.645Q142.755 259.832 142.824 260.022Q142.894 260.213 142.954 260.406Q143.014 260.6 143.065 260.796Q143.115 260.993 143.155 261.192Q143.195 261.39 143.225 261.591Q143.255 261.791 143.275 261.993Q143.295 262.195 143.305 262.397Q143.314 262.6 143.314 262.803Q143.313 263.005 143.302 263.208Q143.291 263.41 143.27 263.612Q143.249 263.814 143.218 264.014Q143.186 264.214 143.145 264.413Q143.103 264.611 143.052 264.807Q143 265.003 142.939 265.197Q142.878 265.39 142.807 265.58Z" id="Rectangle-2" fill="#4E1055" fill-rule="evenodd" stroke="none" />
        <path d="M194.691 84.7831L185.801 92.9653Q185.665 93.0913 185.522 93.2108Q185.379 93.3303 185.231 93.443Q185.083 93.5557 184.93 93.6614Q184.777 93.7671 184.62 93.8656Q184.462 93.9641 184.3 94.0552Q184.137 94.1462 183.971 94.2297Q183.805 94.3131 183.635 94.3887Q183.465 94.4643 183.292 94.5319Q183.118 94.5995 182.942 94.659Q182.766 94.7185 182.587 94.7697Q182.408 94.8209 182.227 94.8638Q182.046 94.9067 181.863 94.9411Q181.681 94.9754 181.496 95.0013Q181.312 95.0272 181.127 95.0445Q180.942 95.0617 180.756 95.0704Q180.57 95.079 180.384 95.079Q180.198 95.079 180.012 95.0704Q179.826 95.0617 179.641 95.0445Q179.456 95.0272 179.272 95.0013Q179.088 94.9754 178.905 94.941Q178.722 94.9066 178.541 94.8638Q178.36 94.8209 178.181 94.7697Q178.002 94.7185 177.826 94.659Q177.65 94.5995 177.477 94.5319Q177.303 94.4643 177.133 94.3887Q176.963 94.3131 176.797 94.2297Q176.631 94.1462 176.469 94.0552Q176.306 93.9641 176.149 93.8656Q175.991 93.7671 175.838 93.6614Q175.685 93.5557 175.537 93.443Q175.389 93.3303 175.246 93.2108Q175.104 93.0913 174.967 92.9653L137.097 58.1072Q136.945 57.9672 136.801 57.8195Q136.656 57.6718 136.519 57.5169Q136.382 57.362 136.254 57.2002Q136.125 57.0384 136.005 56.8701Q135.885 56.7019 135.773 56.5277Q135.662 56.3535 135.56 56.1737Q135.458 55.994 135.365 55.8093Q135.272 55.6245 135.189 55.4352Q135.106 55.2459 135.033 55.0526Q134.96 54.8592 134.897 54.6624Q134.834 54.4655 134.781 54.2656Q134.728 54.0658 134.686 53.8635Q134.643 53.6612 134.611 53.4569Q134.58 53.2527 134.558 53.0471Q134.537 52.8415 134.526 52.635Q134.516 52.4286 134.516 52.2219Q134.516 52.0152 134.526 51.8087Q134.537 51.6023 134.558 51.3967Q134.58 51.1911 134.611 50.9868Q134.643 50.7826 134.686 50.5803Q134.728 50.3779 134.781 50.1781Q134.834 49.9782 134.897 49.7814Q134.96 49.5845 135.033 49.3912Q135.106 49.1978 135.189 49.0085Q135.272 48.8192 135.365 48.6345Q135.458 48.4497 135.56 48.27Q135.662 48.0903 135.773 47.9161Q135.885 47.7418 136.005 47.5736Q136.125 47.4054 136.254 47.2436Q136.382 47.0818 136.519 46.9268Q136.656 46.7719 136.801 46.6242Q136.945 46.4766 137.097 46.3366L145.986 38.1543Q146.123 38.0283 146.266 37.9089Q146.408 37.7894 146.556 37.6766Q146.704 37.5639 146.857 37.4582Q147.01 37.3525 147.168 37.254Q147.326 37.1555 147.488 37.0644Q147.65 36.9734 147.817 36.89Q147.983 36.8066 148.153 36.731Q148.323 36.6554 148.496 36.5877Q148.669 36.5201 148.846 36.4606Q149.022 36.4012 149.201 36.3499Q149.38 36.2987 149.561 36.2558Q149.742 36.213 149.924 36.1786Q150.107 36.1442 150.291 36.1183Q150.476 36.0924 150.661 36.0752Q150.846 36.0579 151.032 36.0493Q151.218 36.0406 151.404 36.0406Q151.59 36.0406 151.776 36.0493Q151.961 36.0579 152.147 36.0752Q152.332 36.0924 152.516 36.1183Q152.7 36.1442 152.883 36.1786Q153.066 36.213 153.247 36.2558Q153.428 36.2987 153.607 36.3499Q153.785 36.4012 153.962 36.4606Q154.138 36.5201 154.311 36.5877Q154.485 36.6554 154.654 36.731Q154.824 36.8066 154.991 36.89Q155.157 36.9734 155.319 37.0644Q155.481 37.1555 155.639 37.254Q155.797 37.3525 155.95 37.4582Q156.103 37.5639 156.251 37.6766Q156.399 37.7894 156.542 37.9088Q156.684 38.0283 156.821 38.1543L194.691 73.0125Q194.843 73.1525 194.987 73.3001Q195.132 73.4478 195.269 73.6027Q195.406 73.7577 195.534 73.9195Q195.663 74.0813 195.783 74.2495Q195.903 74.4177 196.014 74.5919Q196.126 74.7662 196.228 74.9459Q196.33 75.1256 196.423 75.3104Q196.515 75.4951 196.598 75.6844Q196.681 75.8737 196.755 76.0671Q196.828 76.2604 196.891 76.4573Q196.954 76.6541 197.007 76.854Q197.06 77.0538 197.102 77.2562Q197.144 77.4585 197.176 77.6627Q197.208 77.867 197.23 78.0726Q197.251 78.2782 197.262 78.4846Q197.272 78.6911 197.272 78.8978Q197.272 79.1045 197.262 79.3109Q197.251 79.5174 197.23 79.723Q197.208 79.9286 197.176 80.1328Q197.144 80.3371 197.102 80.5394Q197.06 80.7417 197.007 80.9415Q196.954 81.1414 196.891 81.3383Q196.828 81.5351 196.755 81.7285Q196.681 81.9218 196.598 82.1111Q196.515 82.3004 196.423 82.4852Q196.33 82.6699 196.228 82.8497Q196.126 83.0294 196.014 83.2036Q195.903 83.3778 195.783 83.546Q195.663 83.7143 195.534 83.8761Q195.406 84.0379 195.269 84.1928Q195.132 84.3477 194.987 84.4954Q194.843 84.6431 194.691 84.7831Z" id="Rectangle-2-Copy" fill="#4E1055" fill-rule="evenodd" stroke="none" />
        <path d="M406.827 68.5453L395.26 63.1203Q395.075 63.0334 394.894 62.937Q394.713 62.8407 394.538 62.7353Q394.362 62.6299 394.192 62.5156Q394.023 62.4014 393.859 62.2785Q393.695 62.1557 393.538 62.0247Q393.38 61.8937 393.23 61.7548Q393.079 61.6159 392.936 61.4694Q392.793 61.323 392.658 61.1695Q392.522 61.0159 392.395 60.8556Q392.267 60.6954 392.148 60.5288Q392.029 60.3622 391.919 60.1897Q391.809 60.0173 391.707 59.8394Q391.606 59.6615 391.514 59.4787Q391.422 59.2958 391.339 59.1085Q391.256 58.9212 391.183 58.7299Q391.11 58.5387 391.047 58.3439Q390.984 58.1491 390.931 57.9514Q390.878 57.7536 390.835 57.5534Q390.792 57.3532 390.76 57.1511Q390.727 56.9489 390.705 56.7454Q390.683 56.5419 390.671 56.3374Q390.659 56.133 390.658 55.9283Q390.657 55.7235 390.666 55.519Q390.675 55.3145 390.695 55.1107Q390.714 54.9069 390.744 54.7043Q390.774 54.5018 390.815 54.3011Q390.855 54.1004 390.906 53.902Q390.956 53.7036 391.017 53.508Q391.078 53.3125 391.148 53.1203Q391.219 52.9281 391.299 52.7398Q391.379 52.5514 391.469 52.3675Q391.559 52.1835 391.658 52.0044L415.79 8.40941Q415.881 8.24494 415.98 8.08493Q416.078 7.92492 416.184 7.76972Q416.291 7.61452 416.404 7.46448Q416.517 7.31444 416.637 7.16988Q416.757 7.02532 416.884 6.88657Q417.011 6.74781 417.144 6.61517Q417.277 6.48253 417.417 6.35629Q417.556 6.23005 417.701 6.11049Q417.846 5.99094 417.997 5.87833Q418.147 5.76572 418.303 5.66031Q418.459 5.55489 418.619 5.4569Q418.779 5.35892 418.944 5.26858Q419.109 5.17824 419.278 5.09574Q419.447 5.01324 419.62 4.93877Q419.792 4.8643 419.968 4.79802Q420.144 4.73173 420.323 4.67379Q420.502 4.61585 420.683 4.56637Q420.864 4.51689 421.048 4.47598Q421.231 4.43507 421.416 4.40283Q421.602 4.37059 421.788 4.34709Q421.975 4.32358 422.162 4.30886Q422.349 4.29414 422.537 4.28824Q422.725 4.28234 422.913 4.28528Q423.101 4.28821 423.289 4.29997Q423.476 4.31173 423.663 4.3323Q423.85 4.35286 424.036 4.38217Q424.222 4.41149 424.406 4.4495Q424.59 4.4875 424.772 4.53412Q424.954 4.58073 425.134 4.63584Q425.313 4.69096 425.49 4.75446Q425.667 4.81796 425.841 4.8897Q426.015 4.96144 426.185 5.04126L437.752 10.4663Q437.937 10.5532 438.118 10.6495Q438.299 10.7459 438.474 10.8513Q438.65 10.9567 438.82 11.071Q438.99 11.1852 439.153 11.3081Q439.317 11.4309 439.475 11.5619Q439.632 11.6929 439.782 11.8318Q439.933 11.9707 440.076 12.1172Q440.219 12.2636 440.354 12.4171Q440.49 12.5707 440.617 12.731Q440.745 12.8912 440.864 13.0578Q440.983 13.2244 441.093 13.3969Q441.203 13.5693 441.305 13.7472Q441.406 13.9251 441.498 14.1079Q441.59 14.2907 441.673 14.4781Q441.756 14.6654 441.829 14.8567Q441.902 15.0479 441.965 15.2427Q442.028 15.4375 442.081 15.6352Q442.134 15.833 442.177 16.0332Q442.22 16.2334 442.252 16.4355Q442.285 16.6377 442.307 16.8412Q442.329 17.0448 442.341 17.2492Q442.353 17.4536 442.354 17.6583Q442.356 17.8631 442.346 18.0676Q442.337 18.2721 442.317 18.4759Q442.298 18.6797 442.268 18.8823Q442.238 19.0848 442.197 19.2855Q442.157 19.4862 442.106 19.6846Q442.056 19.883 441.995 20.0786Q441.935 20.2741 441.864 20.4663Q441.793 20.6585 441.713 20.8468Q441.633 21.0352 441.543 21.2191Q441.453 21.4031 441.354 21.5822L417.222 65.1772Q417.131 65.3416 417.032 65.5016Q416.934 65.6617 416.828 65.8168Q416.721 65.972 416.608 66.1221Q416.495 66.2721 416.375 66.4167Q416.255 66.5612 416.128 66.7Q416.001 66.8387 415.868 66.9714Q415.735 67.104 415.595 67.2303Q415.456 67.3565 415.311 67.4761Q415.166 67.5956 415.015 67.7082Q414.865 67.8208 414.709 67.9263Q414.553 68.0317 414.393 68.1297Q414.233 68.2276 414.068 68.318Q413.903 68.4083 413.734 68.4908Q413.565 68.5733 413.392 68.6478Q413.22 68.7223 413.044 68.7885Q412.868 68.8548 412.689 68.9128Q412.51 68.9707 412.329 69.0202Q412.148 69.0697 411.964 69.1106Q411.781 69.1515 411.596 69.1837Q411.41 69.216 411.224 69.2395Q411.037 69.263 410.85 69.2777Q410.662 69.2924 410.475 69.2983Q410.287 69.3042 410.099 69.3013Q409.911 69.2984 409.723 69.2866Q409.536 69.2748 409.349 69.2543Q409.162 69.2337 408.976 69.2044Q408.79 69.1751 408.606 69.1371Q408.422 69.0991 408.24 69.0525Q408.058 69.0058 407.878 68.9507Q407.699 68.8956 407.522 68.8321Q407.345 68.7686 407.171 68.6969Q406.997 68.6251 406.827 68.5453Z" id="Rectangle-2-Copy-2" fill="#4E1055" fill-rule="evenodd" stroke="none" />
        <path d="M809.908 264.95L800.027 257.584Q799.861 257.461 799.702 257.329Q799.543 257.197 799.391 257.058Q799.239 256.918 799.095 256.77Q798.95 256.623 798.813 256.468Q798.677 256.313 798.548 256.152Q798.419 255.99 798.299 255.822Q798.179 255.654 798.068 255.48Q797.957 255.306 797.855 255.127Q797.753 254.947 797.66 254.763Q797.567 254.578 797.484 254.389Q797.401 254.2 797.328 254.007Q797.255 253.814 797.192 253.618Q797.128 253.421 797.076 253.221Q797.023 253.022 796.98 252.82Q796.937 252.618 796.905 252.414Q796.873 252.21 796.852 252.004Q796.83 251.799 796.819 251.593Q796.808 251.387 796.808 251.18Q796.808 250.974 796.818 250.767Q796.829 250.561 796.85 250.356Q796.871 250.15 796.903 249.946Q796.934 249.742 796.976 249.54Q797.018 249.338 797.071 249.138Q797.123 248.938 797.186 248.742Q797.249 248.545 797.321 248.352Q797.394 248.158 797.477 247.969Q797.56 247.78 797.652 247.595Q797.744 247.411 797.846 247.231Q797.948 247.051 798.058 246.877Q798.169 246.703 798.289 246.534Q798.409 246.366 798.537 246.204Q798.665 246.042 798.801 245.887L832.415 207.679Q832.538 207.539 832.668 207.405Q832.797 207.271 832.932 207.143Q833.068 207.016 833.209 206.894Q833.351 206.773 833.497 206.658Q833.644 206.544 833.796 206.436Q833.948 206.328 834.105 206.228Q834.262 206.127 834.423 206.034Q834.584 205.941 834.75 205.856Q834.915 205.77 835.084 205.692Q835.254 205.615 835.426 205.545Q835.599 205.475 835.775 205.414Q835.951 205.352 836.129 205.299Q836.307 205.245 836.488 205.2Q836.669 205.155 836.852 205.119Q837.034 205.082 837.218 205.054Q837.402 205.026 837.588 205.007Q837.773 204.987 837.959 204.977Q838.145 204.966 838.331 204.964Q838.517 204.962 838.703 204.968Q838.889 204.975 839.075 204.99Q839.261 205.005 839.445 205.029Q839.63 205.053 839.813 205.085Q839.997 205.118 840.178 205.159Q840.36 205.2 840.54 205.249Q840.719 205.298 840.896 205.356Q841.073 205.414 841.248 205.479Q841.422 205.545 841.593 205.619Q841.764 205.693 841.931 205.775Q842.099 205.856 842.262 205.946Q842.425 206.035 842.584 206.132Q842.743 206.229 842.898 206.333Q843.052 206.438 843.201 206.549L853.083 213.915Q853.249 214.038 853.408 214.17Q853.567 214.302 853.719 214.441Q853.87 214.581 854.015 214.729Q854.159 214.876 854.296 215.031Q854.433 215.186 854.562 215.347Q854.69 215.509 854.81 215.677Q854.93 215.845 855.042 216.019Q855.153 216.193 855.255 216.372Q855.357 216.552 855.45 216.736Q855.543 216.921 855.626 217.11Q855.709 217.299 855.782 217.492Q855.855 217.685 855.918 217.881Q855.981 218.078 856.034 218.278Q856.087 218.477 856.13 218.679Q856.172 218.881 856.204 219.085Q856.236 219.289 856.258 219.495Q856.28 219.7 856.29 219.906Q856.301 220.112 856.302 220.319Q856.302 220.525 856.291 220.732Q856.281 220.938 856.26 221.143Q856.239 221.349 856.207 221.553Q856.176 221.757 856.133 221.959Q856.091 222.161 856.039 222.361Q855.986 222.561 855.924 222.757Q855.861 222.954 855.788 223.147Q855.715 223.34 855.633 223.53Q855.55 223.719 855.458 223.904Q855.366 224.088 855.264 224.268Q855.162 224.448 855.051 224.622Q854.94 224.796 854.821 224.964Q854.701 225.133 854.573 225.295Q854.445 225.456 854.308 225.612L820.694 263.82Q820.571 263.96 820.442 264.094Q820.313 264.228 820.177 264.356Q820.042 264.483 819.9 264.605Q819.759 264.726 819.612 264.841Q819.465 264.955 819.313 265.063Q819.161 265.171 819.005 265.271Q818.848 265.372 818.687 265.465Q818.525 265.558 818.36 265.643Q818.194 265.729 818.025 265.807Q817.856 265.884 817.683 265.954Q817.51 266.024 817.335 266.085Q817.159 266.147 816.981 266.2Q816.802 266.254 816.621 266.299Q816.441 266.344 816.258 266.38Q816.076 266.417 815.891 266.445Q815.707 266.473 815.522 266.492Q815.337 266.511 815.151 266.522Q814.965 266.533 814.779 266.535Q814.592 266.537 814.406 266.531Q814.22 266.524 814.035 266.509Q813.849 266.494 813.664 266.47Q813.479 266.446 813.296 266.413Q813.113 266.381 812.931 266.34Q812.749 266.299 812.57 266.25Q812.39 266.201 812.213 266.143Q812.036 266.085 811.862 266.019Q811.688 265.954 811.517 265.88Q811.346 265.806 811.178 265.724Q811.011 265.642 810.848 265.553Q810.684 265.464 810.525 265.367Q810.366 265.27 810.212 265.165Q810.057 265.061 809.908 264.95Z" id="Rectangle-2-Copy-3" fill="#4E1055" fill-rule="evenodd" stroke="none" />
        <path d="M801.064 642.227L809.068 633.447Q809.193 633.309 809.325 633.177Q809.456 633.046 809.594 632.92Q809.732 632.795 809.875 632.676Q810.018 632.558 810.167 632.446Q810.316 632.334 810.47 632.229Q810.623 632.124 810.782 632.026Q810.94 631.928 811.103 631.838Q811.266 631.748 811.433 631.665Q811.6 631.583 811.771 631.508Q811.941 631.433 812.115 631.367Q812.289 631.3 812.465 631.242Q812.642 631.183 812.821 631.133Q813.001 631.083 813.182 631.041Q813.364 630.999 813.547 630.966Q813.73 630.932 813.914 630.908Q814.099 630.883 814.284 630.867Q814.47 630.851 814.656 630.843Q814.842 630.835 815.028 630.837Q815.214 630.838 815.4 630.848Q815.586 630.857 815.771 630.876Q815.957 630.894 816.141 630.921Q816.325 630.948 816.508 630.984Q816.69 631.019 816.871 631.063Q817.052 631.107 817.231 631.16Q817.409 631.212 817.585 631.273Q817.761 631.334 817.934 631.402Q818.107 631.471 818.277 631.548Q818.447 631.625 818.613 631.709Q818.778 631.794 818.94 631.886Q819.102 631.978 819.259 632.078Q819.416 632.177 819.569 632.284Q819.721 632.391 819.869 632.505L860.987 664.264Q861.15 664.39 861.307 664.524Q861.464 664.659 861.614 664.801Q861.763 664.944 861.905 665.094Q862.047 665.244 862.181 665.401Q862.315 665.558 862.441 665.722Q862.567 665.886 862.684 666.056Q862.801 666.226 862.91 666.402Q863.018 666.578 863.117 666.759Q863.216 666.94 863.306 667.126Q863.395 667.312 863.475 667.503Q863.555 667.693 863.625 667.888Q863.695 668.082 863.754 668.28Q863.814 668.478 863.864 668.678Q863.913 668.879 863.952 669.081Q863.991 669.284 864.02 669.489Q864.048 669.694 864.066 669.899Q864.084 670.105 864.091 670.312Q864.099 670.518 864.095 670.724Q864.092 670.931 864.078 671.137Q864.064 671.343 864.039 671.548Q864.015 671.753 863.979 671.957Q863.944 672.16 863.899 672.362Q863.853 672.563 863.797 672.762Q863.741 672.961 863.675 673.157Q863.609 673.352 863.532 673.544Q863.456 673.736 863.37 673.924Q863.284 674.112 863.189 674.295Q863.093 674.478 862.988 674.656Q862.883 674.834 862.769 675.006Q862.656 675.179 862.533 675.345Q862.41 675.511 862.279 675.671Q862.148 675.83 862.009 675.983L854.005 684.763Q853.879 684.9 853.748 685.032Q853.616 685.164 853.478 685.289Q853.341 685.414 853.197 685.533Q853.054 685.652 852.905 685.764Q852.757 685.876 852.603 685.981Q852.449 686.086 852.291 686.183Q852.132 686.281 851.969 686.371Q851.806 686.462 851.64 686.544Q851.473 686.627 851.302 686.701Q851.132 686.776 850.958 686.843Q850.784 686.909 850.607 686.968Q850.43 687.026 850.251 687.077Q850.072 687.127 849.891 687.169Q849.709 687.21 849.526 687.244Q849.343 687.277 849.158 687.302Q848.974 687.327 848.788 687.343Q848.603 687.359 848.417 687.366Q848.231 687.374 848.045 687.373Q847.858 687.372 847.672 687.362Q847.487 687.352 847.301 687.334Q847.116 687.315 846.932 687.288Q846.748 687.261 846.565 687.226Q846.382 687.19 846.201 687.146Q846.02 687.102 845.842 687.05Q845.663 686.997 845.487 686.937Q845.311 686.876 845.138 686.807Q844.965 686.738 844.795 686.661Q844.626 686.585 844.46 686.5Q844.294 686.416 844.132 686.323Q843.971 686.231 843.813 686.132Q843.656 686.032 843.504 685.925Q843.351 685.818 843.204 685.705L802.086 653.946Q801.922 653.82 801.766 653.685Q801.609 653.551 801.459 653.408Q801.31 653.266 801.168 653.116Q801.026 652.966 800.891 652.809Q800.757 652.652 800.632 652.488Q800.506 652.324 800.388 652.154Q800.271 651.984 800.163 651.808Q800.055 651.632 799.956 651.451Q799.857 651.27 799.767 651.083Q799.678 650.897 799.598 650.707Q799.518 650.516 799.448 650.322Q799.378 650.127 799.318 649.93Q799.259 649.732 799.209 649.531Q799.16 649.331 799.121 649.128Q799.082 648.925 799.053 648.721Q799.024 648.516 799.007 648.31Q798.989 648.104 798.981 647.898Q798.974 647.692 798.977 647.485Q798.981 647.279 798.995 647.072Q799.009 646.866 799.033 646.661Q799.058 646.456 799.093 646.253Q799.128 646.049 799.174 645.848Q799.22 645.646 799.276 645.447Q799.332 645.248 799.398 645.053Q799.464 644.857 799.54 644.665Q799.616 644.473 799.702 644.285Q799.788 644.098 799.884 643.914Q799.98 643.731 800.084 643.553Q800.189 643.375 800.303 643.203Q800.417 643.031 800.54 642.865Q800.663 642.699 800.794 642.539Q800.925 642.379 801.064 642.227Z" id="Rectangle-2-Copy-4" fill="#4E1055" fill-rule="evenodd" stroke="none" />
        <path d="M696.811 832.767L706.206 824.98Q706.35 824.861 706.498 824.75Q706.647 824.638 706.8 824.533Q706.954 824.428 707.112 824.33Q707.271 824.232 707.434 824.142Q707.596 824.052 707.763 823.969Q707.93 823.887 708.1 823.812Q708.271 823.737 708.445 823.671Q708.618 823.604 708.795 823.546Q708.972 823.487 709.151 823.437Q709.33 823.387 709.511 823.345Q709.692 823.303 709.875 823.27Q710.059 823.236 710.243 823.211Q710.427 823.187 710.613 823.17Q710.798 823.154 710.984 823.147Q711.17 823.139 711.356 823.14Q711.542 823.141 711.728 823.151Q711.914 823.16 712.099 823.179Q712.284 823.197 712.468 823.224Q712.652 823.251 712.835 823.286Q713.018 823.322 713.198 823.366Q713.379 823.41 713.558 823.462Q713.736 823.514 713.912 823.575Q714.088 823.635 714.261 823.704Q714.434 823.773 714.604 823.849Q714.773 823.926 714.939 824.01Q715.105 824.094 715.267 824.186Q715.428 824.279 715.586 824.378Q715.743 824.477 715.895 824.584Q716.048 824.691 716.195 824.804Q716.342 824.918 716.484 825.038Q716.626 825.159 716.763 825.286Q716.899 825.412 717.029 825.545L752.816 862.131Q752.961 862.279 753.098 862.434Q753.234 862.589 753.363 862.75Q753.491 862.912 753.611 863.08Q753.731 863.249 753.842 863.423Q753.953 863.597 754.055 863.777Q754.157 863.957 754.25 864.141Q754.343 864.326 754.425 864.516Q754.508 864.705 754.581 864.898Q754.654 865.091 754.717 865.288Q754.78 865.485 754.833 865.685Q754.886 865.885 754.928 866.087Q754.97 866.289 755.002 866.494Q755.034 866.698 755.055 866.903Q755.076 867.109 755.087 867.315Q755.097 867.522 755.097 867.728Q755.097 867.935 755.086 868.141Q755.076 868.348 755.054 868.553Q755.033 868.759 755.001 868.963Q754.969 869.167 754.926 869.369Q754.884 869.572 754.831 869.771Q754.778 869.971 754.715 870.168Q754.652 870.365 754.578 870.558Q754.505 870.751 754.422 870.94Q754.339 871.13 754.246 871.314Q754.153 871.499 754.051 871.679Q753.949 871.858 753.838 872.032Q753.726 872.207 753.606 872.375Q753.486 872.543 753.357 872.705Q753.229 872.866 753.092 873.021Q752.955 873.176 752.81 873.324Q752.666 873.471 752.514 873.611Q752.362 873.751 752.203 873.883L742.807 881.67Q742.664 881.789 742.515 881.901Q742.366 882.013 742.213 882.118Q742.059 882.223 741.901 882.32Q741.742 882.418 741.579 882.508Q741.417 882.598 741.25 882.681Q741.083 882.763 740.913 882.838Q740.742 882.913 740.569 882.979Q740.395 883.046 740.218 883.105Q740.042 883.163 739.862 883.213Q739.683 883.264 739.502 883.305Q739.321 883.347 739.138 883.381Q738.954 883.414 738.77 883.439Q738.586 883.464 738.4 883.48Q738.215 883.496 738.029 883.504Q737.843 883.511 737.657 883.51Q737.471 883.509 737.285 883.5Q737.099 883.49 736.914 883.472Q736.729 883.453 736.545 883.426Q736.361 883.399 736.178 883.364Q735.996 883.328 735.815 883.285Q735.634 883.241 735.455 883.188Q735.277 883.136 735.101 883.076Q734.925 883.015 734.752 882.946Q734.579 882.878 734.409 882.801Q734.24 882.725 734.074 882.64Q733.908 882.556 733.746 882.464Q733.585 882.372 733.427 882.272Q733.27 882.173 733.118 882.066Q732.965 881.96 732.818 881.846Q732.671 881.732 732.529 881.612Q732.387 881.492 732.251 881.365Q732.114 881.238 731.984 881.105L696.197 844.52Q696.052 844.372 695.915 844.217Q695.779 844.062 695.65 843.9Q695.522 843.738 695.402 843.57Q695.282 843.402 695.171 843.227Q695.059 843.053 694.958 842.873Q694.856 842.694 694.763 842.509Q694.67 842.324 694.588 842.135Q694.505 841.945 694.432 841.752Q694.359 841.559 694.296 841.362Q694.233 841.165 694.18 840.965Q694.127 840.765 694.085 840.563Q694.043 840.361 694.011 840.157Q693.979 839.952 693.958 839.747Q693.937 839.541 693.926 839.335Q693.916 839.129 693.916 838.922Q693.916 838.715 693.927 838.509Q693.938 838.303 693.959 838.097Q693.98 837.891 694.012 837.687Q694.044 837.483 694.087 837.281Q694.129 837.079 694.182 836.879Q694.235 836.679 694.298 836.482Q694.361 836.285 694.435 836.092Q694.508 835.899 694.591 835.71Q694.674 835.521 694.767 835.336Q694.86 835.151 694.962 834.971Q695.064 834.792 695.175 834.618Q695.286 834.444 695.407 834.275Q695.527 834.107 695.656 833.946Q695.784 833.784 695.921 833.629Q696.058 833.474 696.203 833.327Q696.347 833.179 696.499 833.039Q696.651 832.899 696.811 832.767Z" id="Rectangle-2-Copy-5" fill="#4E1055" fill-rule="evenodd" stroke="none" />
        <path d="M432.919 839.842L445.719 842.78Q445.915 842.825 446.109 842.88Q446.303 842.935 446.493 842.999Q446.684 843.063 446.871 843.137Q447.058 843.211 447.241 843.295Q447.424 843.378 447.603 843.47Q447.782 843.563 447.956 843.664Q448.13 843.766 448.298 843.875Q448.467 843.985 448.63 844.103Q448.793 844.222 448.949 844.348Q449.106 844.474 449.256 844.608Q449.406 844.742 449.549 844.884Q449.693 845.025 449.829 845.173Q449.964 845.322 450.093 845.477Q450.221 845.632 450.341 845.793Q450.462 845.954 450.574 846.122Q450.686 846.289 450.789 846.461Q450.893 846.634 450.988 846.811Q451.082 846.989 451.168 847.171Q451.254 847.353 451.33 847.539Q451.406 847.725 451.473 847.915Q451.54 848.105 451.598 848.298Q451.655 848.491 451.702 848.686Q451.75 848.882 451.788 849.08Q451.825 849.277 451.853 849.477Q451.881 849.676 451.898 849.876Q451.916 850.077 451.923 850.278Q451.931 850.479 451.928 850.68Q451.926 850.881 451.913 851.082Q451.9 851.283 451.877 851.483Q451.855 851.683 451.822 851.881Q451.789 852.08 451.746 852.277Q451.703 852.473 451.651 852.667L438.839 899.965Q438.789 900.15 438.73 900.332Q438.672 900.515 438.604 900.694Q438.537 900.873 438.461 901.049Q438.385 901.224 438.3 901.396Q438.216 901.568 438.124 901.736Q438.031 901.904 437.931 902.067Q437.83 902.23 437.722 902.388Q437.614 902.546 437.499 902.699Q437.383 902.852 437.26 902.999Q437.138 903.146 437.008 903.287Q436.879 903.428 436.742 903.562Q436.606 903.697 436.464 903.825Q436.321 903.953 436.173 904.074Q436.024 904.195 435.87 904.309Q435.716 904.422 435.557 904.529Q435.398 904.635 435.234 904.733Q435.069 904.832 434.901 904.922Q434.732 905.013 434.559 905.095Q434.386 905.178 434.209 905.252Q434.033 905.326 433.853 905.391Q433.673 905.456 433.49 905.513Q433.307 905.57 433.122 905.618Q432.936 905.666 432.749 905.705Q432.561 905.744 432.372 905.774Q432.183 905.804 431.993 905.825Q431.802 905.846 431.611 905.858Q431.42 905.869 431.229 905.872Q431.037 905.875 430.846 905.868Q430.654 905.862 430.464 905.846Q430.273 905.83 430.083 905.806Q429.893 905.781 429.704 905.747Q429.516 905.713 429.329 905.67L416.529 902.732Q416.333 902.687 416.139 902.633Q415.946 902.578 415.755 902.513Q415.564 902.449 415.377 902.375Q415.19 902.301 415.007 902.217Q414.824 902.134 414.645 902.042Q414.466 901.949 414.292 901.848Q414.118 901.747 413.95 901.637Q413.781 901.527 413.618 901.409Q413.456 901.291 413.299 901.164Q413.142 901.038 412.992 900.904Q412.842 900.77 412.699 900.629Q412.555 900.487 412.42 900.339Q412.284 900.191 412.155 900.036Q412.027 899.88 411.907 899.719Q411.786 899.558 411.674 899.391Q411.562 899.224 411.459 899.051Q411.355 898.879 411.261 898.701Q411.166 898.523 411.08 898.341Q410.995 898.159 410.918 897.973Q410.842 897.787 410.775 897.597Q410.708 897.407 410.651 897.214Q410.593 897.022 410.546 896.826Q410.498 896.63 410.46 896.433Q410.423 896.235 410.395 896.036Q410.367 895.836 410.35 895.636Q410.332 895.435 410.325 895.234Q410.317 895.033 410.32 894.832Q410.323 894.631 410.335 894.43Q410.348 894.229 410.371 894.029Q410.394 893.829 410.426 893.631Q410.459 893.432 410.502 893.236Q410.545 893.039 410.597 892.845L423.409 845.547Q423.459 845.362 423.518 845.18Q423.577 844.998 423.644 844.819Q423.712 844.64 423.788 844.464Q423.864 844.288 423.948 844.116Q424.032 843.944 424.125 843.777Q424.217 843.609 424.318 843.446Q424.418 843.283 424.526 843.125Q424.634 842.966 424.75 842.814Q424.865 842.661 424.988 842.514Q425.111 842.367 425.24 842.226Q425.37 842.085 425.506 841.95Q425.642 841.816 425.785 841.688Q425.927 841.56 426.075 841.439Q426.224 841.318 426.378 841.204Q426.532 841.09 426.691 840.984Q426.851 840.878 427.015 840.779Q427.179 840.681 427.348 840.59Q427.517 840.5 427.689 840.417Q427.862 840.335 428.039 840.261Q428.215 840.187 428.395 840.121Q428.575 840.056 428.758 839.999Q428.941 839.942 429.127 839.894Q429.312 839.847 429.499 839.807Q429.687 839.768 429.876 839.738Q430.065 839.708 430.255 839.688Q430.446 839.667 430.637 839.655Q430.828 839.643 431.02 839.64Q431.211 839.638 431.402 839.644Q431.594 839.651 431.785 839.666Q431.976 839.682 432.165 839.707Q432.355 839.732 432.544 839.766Q432.732 839.799 432.919 839.842Z" id="Rectangle-2-Copy-6" fill="#4E1055" fill-rule="evenodd" stroke="none" />
        <path d="M126.518 760.137L137.438 766.418Q137.616 766.52 137.789 766.632Q137.962 766.743 138.129 766.864Q138.296 766.984 138.456 767.113Q138.616 767.241 138.77 767.378Q138.924 767.515 139.07 767.659Q139.216 767.804 139.355 767.956Q139.494 768.108 139.624 768.266Q139.755 768.425 139.878 768.59Q140 768.756 140.114 768.927Q140.228 769.098 140.332 769.275Q140.437 769.452 140.533 769.634Q140.628 769.817 140.714 770.003Q140.8 770.19 140.877 770.381Q140.953 770.572 141.02 770.767Q141.086 770.961 141.143 771.159Q141.199 771.357 141.245 771.557Q141.291 771.758 141.327 771.96Q141.363 772.163 141.388 772.367Q141.413 772.571 141.428 772.776Q141.443 772.981 141.447 773.187Q141.451 773.393 141.445 773.598Q141.439 773.804 141.422 774.009Q141.405 774.214 141.377 774.417Q141.35 774.621 141.312 774.823Q141.274 775.026 141.226 775.226Q141.178 775.426 141.12 775.623Q141.061 775.82 140.993 776.014Q140.924 776.208 140.846 776.398Q140.768 776.588 140.68 776.774Q140.592 776.96 140.494 777.141Q140.397 777.322 140.29 777.498Q140.183 777.674 140.068 777.844L111.847 819.416Q111.742 819.571 111.63 819.721Q111.517 819.871 111.398 820.015Q111.279 820.159 111.154 820.298Q111.028 820.436 110.896 820.569Q110.764 820.701 110.626 820.827Q110.488 820.954 110.344 821.073Q110.2 821.193 110.051 821.306Q109.902 821.418 109.747 821.524Q109.593 821.63 109.434 821.728Q109.275 821.826 109.111 821.917Q108.948 822.008 108.78 822.091Q108.612 822.174 108.441 822.249Q108.27 822.324 108.095 822.391Q107.92 822.458 107.743 822.517Q107.565 822.576 107.385 822.626Q107.205 822.677 107.023 822.719Q106.84 822.761 106.656 822.794Q106.472 822.828 106.287 822.852Q106.102 822.877 105.915 822.893Q105.729 822.909 105.542 822.917Q105.355 822.924 105.168 822.922Q104.981 822.921 104.794 822.911Q104.607 822.901 104.421 822.882Q104.235 822.863 104.05 822.835Q103.865 822.808 103.682 822.772Q103.498 822.735 103.316 822.691Q103.135 822.646 102.955 822.593Q102.776 822.54 102.599 822.478Q102.423 822.417 102.249 822.347Q102.076 822.277 101.905 822.2Q101.735 822.122 101.569 822.036Q101.403 821.951 101.24 821.857L90.3204 815.576Q90.1421 815.474 89.9694 815.362Q89.7966 815.251 89.6298 815.13Q89.4629 815.01 89.3025 814.881Q89.1421 814.753 88.9885 814.616Q88.835 814.479 88.6886 814.335Q88.5423 814.19 88.4035 814.038Q88.2648 813.886 88.134 813.728Q88.0033 813.569 87.8809 813.404Q87.7584 813.238 87.6447 813.067Q87.5309 812.896 87.4261 812.719Q87.3213 812.542 87.2258 812.36Q87.1302 812.177 87.0441 811.991Q86.958 811.804 86.8816 811.613Q86.8052 811.422 86.7388 811.227Q86.6723 811.033 86.616 810.835Q86.5596 810.637 86.5135 810.437Q86.4673 810.236 86.4316 810.034Q86.3958 809.831 86.3705 809.627Q86.3452 809.423 86.3304 809.218Q86.3156 809.013 86.3113 808.807Q86.3071 808.601 86.3135 808.396Q86.3198 808.19 86.3367 807.985Q86.3536 807.78 86.381 807.577Q86.4084 807.373 86.4463 807.171Q86.4841 806.968 86.5323 806.768Q86.5805 806.568 86.6389 806.371Q86.6973 806.174 86.7658 805.98Q86.8342 805.786 86.9126 805.596Q86.9909 805.406 87.0789 805.22Q87.1669 805.034 87.2643 804.853Q87.3618 804.672 87.4684 804.496Q87.575 804.32 87.6905 804.15L115.912 762.578Q116.017 762.423 116.129 762.273Q116.241 762.124 116.36 761.979Q116.479 761.835 116.605 761.697Q116.731 761.558 116.863 761.425Q116.995 761.293 117.133 761.167Q117.271 761.041 117.415 760.921Q117.558 760.801 117.708 760.689Q117.857 760.576 118.011 760.47Q118.166 760.364 118.325 760.266Q118.484 760.168 118.647 760.077Q118.811 759.986 118.979 759.903Q119.146 759.82 119.318 759.745Q119.489 759.67 119.663 759.603Q119.838 759.536 120.016 759.477Q120.193 759.418 120.373 759.368Q120.554 759.317 120.736 759.275Q120.918 759.233 121.102 759.2Q121.286 759.167 121.472 759.142Q121.657 759.117 121.843 759.101Q122.03 759.085 122.217 759.078Q122.404 759.07 122.591 759.072Q122.778 759.073 122.965 759.083Q123.151 759.094 123.337 759.112Q123.523 759.131 123.708 759.159Q123.894 759.186 124.077 759.223Q124.261 759.259 124.442 759.304Q124.624 759.348 124.803 759.401Q124.983 759.455 125.159 759.516Q125.336 759.578 125.509 759.647Q125.683 759.717 125.853 759.795Q126.023 759.872 126.19 759.958Q126.356 760.044 126.518 760.137Z" id="Rectangle-2-Copy-7" fill="#4E1055" fill-rule="evenodd" stroke="none" />
        <path d="M70.0098 574.604L73.1114 585.258Q73.1677 585.452 73.2143 585.648Q73.2608 585.844 73.2974 586.042Q73.3339 586.241 73.3605 586.44Q73.387 586.64 73.4035 586.841Q73.4199 587.042 73.4263 587.243Q73.4326 587.445 73.4287 587.646Q73.4249 587.848 73.4109 588.049Q73.3969 588.25 73.3729 588.45Q73.3488 588.65 73.3146 588.849Q73.2805 589.047 73.2364 589.244Q73.1923 589.441 73.1384 589.635Q73.0844 589.829 73.0208 590.02Q72.9571 590.212 72.8839 590.399Q72.8107 590.587 72.7282 590.771Q72.6456 590.955 72.5539 591.134Q72.4621 591.314 72.3615 591.488Q72.2609 591.663 72.1515 591.832Q72.0422 592.002 71.9245 592.165Q71.8068 592.329 71.681 592.486Q71.5552 592.644 71.4217 592.795Q71.2881 592.946 71.1471 593.09Q71.0061 593.234 70.8581 593.371Q70.71 593.507 70.5552 593.636Q70.4005 593.766 70.2394 593.887Q70.0783 594.008 69.9114 594.121Q69.7444 594.234 69.5719 594.338Q69.3995 594.442 69.222 594.538Q69.0445 594.633 68.8625 594.72Q68.6804 594.806 68.4942 594.883Q68.3081 594.961 68.1182 595.028Q67.9284 595.096 67.7354 595.154Q67.5424 595.212 67.3467 595.26L15.0276 608.164Q14.842 608.21 14.6544 608.247Q14.4668 608.284 14.2777 608.312Q14.0886 608.34 13.8983 608.359Q13.7081 608.377 13.5171 608.387Q13.3262 608.397 13.135 608.397Q12.9438 608.398 12.7528 608.389Q12.5618 608.381 12.3715 608.363Q12.1811 608.345 11.9918 608.318Q11.8025 608.292 11.6147 608.256Q11.4269 608.22 11.2411 608.175Q11.0552 608.131 10.8717 608.077Q10.6881 608.023 10.5074 607.961Q10.3266 607.899 10.149 607.828Q9.97146 607.757 9.79746 607.678Q9.62347 607.599 9.45346 607.511Q9.28345 607.424 9.11781 607.328Q8.95218 607.233 8.79129 607.13Q8.6304 607.026 8.47463 606.916Q8.31886 606.805 8.16856 606.687Q8.01826 606.569 7.87378 606.443Q7.7293 606.318 7.59097 606.186Q7.45263 606.054 7.32076 605.916Q7.18888 605.777 7.06378 605.633Q6.93867 605.488 6.82061 605.338Q6.70254 605.188 6.5918 605.032Q6.48106 604.876 6.37789 604.715Q6.27472 604.554 6.17936 604.388Q6.08399 604.223 5.99665 604.052Q5.90932 603.882 5.8302 603.708Q5.75109 603.534 5.68038 603.357Q5.60967 603.179 5.54753 602.998Q5.48538 602.817 5.43195 602.634L2.33035 591.979Q2.27402 591.786 2.22751 591.59Q2.18099 591.393 2.14441 591.195Q2.10783 590.997 2.08128 590.797Q2.05473 590.597 2.03827 590.397Q2.02182 590.196 2.0155 589.994Q2.00918 589.793 2.01301 589.591Q2.01685 589.39 2.03082 589.189Q2.0448 588.988 2.06889 588.787Q2.09298 588.587 2.12711 588.389Q2.16124 588.19 2.20534 587.993Q2.24943 587.797 2.30337 587.603Q2.35731 587.408 2.42097 587.217Q2.48462 587.026 2.55783 586.838Q2.63103 586.65 2.7136 586.466Q2.79617 586.283 2.88789 586.103Q2.97961 585.924 3.08026 585.749Q3.1809 585.574 3.29021 585.405Q3.39952 585.236 3.51722 585.072Q3.63492 584.909 3.76071 584.751Q3.88651 584.594 4.02007 584.443Q4.15363 584.292 4.29462 584.148Q4.43562 584.004 4.58369 583.867Q4.73175 583.73 4.88652 583.601Q5.04129 583.472 5.20236 583.351Q5.36343 583.23 5.5304 583.117Q5.69737 583.004 5.86981 582.9Q6.04226 582.795 6.21974 582.7Q6.39721 582.604 6.57928 582.518Q6.76134 582.431 6.94753 582.354Q7.13371 582.277 7.32355 582.209Q7.51339 582.142 7.70639 582.083Q7.8994 582.025 8.09509 581.977L60.4141 569.073Q60.5998 569.027 60.7874 568.99Q60.975 568.954 61.1641 568.926Q61.3532 568.898 61.5435 568.879Q61.7337 568.86 61.9247 568.851Q62.1156 568.841 62.3068 568.84Q62.498 568.84 62.689 568.848Q62.8799 568.857 63.0703 568.875Q63.2607 568.892 63.45 568.919Q63.6393 568.946 63.8271 568.982Q64.0148 569.018 64.2007 569.062Q64.3866 569.107 64.5701 569.161Q64.7537 569.214 64.9344 569.276Q65.1152 569.339 65.2928 569.409Q65.4703 569.48 65.6443 569.56Q65.8183 569.639 65.9883 569.726Q66.1583 569.814 66.324 569.909Q66.4896 570.005 66.6505 570.108Q66.8114 570.211 66.9672 570.322Q67.1229 570.433 67.2732 570.551Q67.4235 570.669 67.568 570.794Q67.7125 570.919 67.8508 571.051Q67.9892 571.183 68.121 571.322Q68.2529 571.46 68.378 571.605Q68.5031 571.749 68.6212 571.9Q68.7393 572.05 68.85 572.206Q68.9607 572.362 69.0639 572.523Q69.1671 572.684 69.2624 572.849Q69.3578 573.015 69.4451 573.185Q69.5325 573.355 69.6116 573.529Q69.6907 573.703 69.7614 573.881Q69.8321 574.059 69.8943 574.239Q69.9564 574.42 70.0098 574.604Z" id="Rectangle-2-Copy-8" fill="#4E1055" fill-rule="evenodd" stroke="none" />
      </g>
    </g>
  </g>
</svg>