<?xml version="1.0" encoding="utf-8"?>
<svg width="687px" height="644px" viewBox="0 0 687 644" version="1.1" xmlns:xlink="http://www.w3.org/1999/xlink" xmlns="http://www.w3.org/2000/svg">
  <defs>
    <filter filterUnits="userSpaceOnUse" color-interpolation-filters="sRGB" id="filter_1">
      <feFlood flood-opacity="0" result="BackgroundImageFix" />
      <feColorMatrix in="SourceAlpha" type="matrix" values="0 0 0 0 0 0 0 0 0 0 0 0 0 0 0 0 0 0 127 0" />
      <feOffset dx="4" dy="4" />
      <feGaussianBlur stdDeviation="11" />
      <feColorMatrix type="matrix" values="0 0 0 0 0.12941177 0 0 0 0 0.28627452 0 0 0 0 0.85490197 0 0 0 1 0" />
      <feBlend mode="normal" in2="BackgroundImageFix" result="effect0_dropShadow" />
      <feBlend mode="normal" in="SourceGraphic" in2="effect0_dropShadow" result="shape" />
    </filter>
    <path d="M255.887 296.857C255.887 275.145 274.743 257.544 298.002 257.544C321.261 257.544 340.117 275.145 340.117 296.857C340.117 318.569 321.261 336.169 298.002 336.169C274.743 336.169 255.887 318.569 255.887 296.857Z" id="path_1" />
    <rect width="687" height="644" id="artboard_1" />
    <clipPath id="clip_1">
      <use xlink:href="#artboard_1" clip-rule="evenodd" />
    </clipPath>
    <clipPath id="clip_2">
      <use xlink:href="#path_1" />
    </clipPath>
  </defs>
  <g id="Artboard" clip-path="url(#clip_1)">
    <use xlink:href="#artboard_1" stroke="none" fill="#FFFFFF" fill-opacity="0" />
    <g filter="url(#filter_1)" artboard="ad8cdf8d-0b9a-4222-a30f-9b10b6807d2d">
      <g id="Group-3" transform="translate(53.99936 24.000061)">
        <path d="M242.028 109.366C261.086 103.221 263.317 98.1015 262.285 87.1887C261.253 76.2758 198.261 32.9811 159.292 65.7174C120.322 98.4535 143.938 195.554 143.938 195.554C143.938 195.554 30.1218 232.182 17.594 273.135C5.06627 314.087 73.1671 373.451 96.0101 349.258C118.853 325.064 46.2684 308.318 60.3827 280.098C74.497 251.88 152.467 236.381 152.467 236.381L168.993 288.8C168.993 288.8 74.7159 456.845 133.834 507.894C192.953 558.944 233.293 513.562 240.607 505.387C247.921 497.211 243.785 484.111 226.414 480.871C209.044 477.631 175.903 515.41 156.386 478.493C136.87 441.577 187.652 331.138 187.652 331.138C187.652 331.138 267.277 507.095 388.761 539.603C510.244 572.111 446.186 272.362 394.195 270.232C342.205 268.101 469.758 450.402 405.606 496.432C341.453 542.463 212.02 289.623 212.02 289.623L257.487 225.292C257.487 225.292 440.918 237.24 509.651 273.135C578.385 309.029 503.224 336.212 495.3 348.226C487.375 360.239 503.194 389.276 524.356 377.446C545.518 365.617 590.009 343.916 577.764 302.973C565.518 262.03 535.755 243.096 461.728 216.255C387.7 189.416 286.565 193.034 286.565 193.034C286.565 193.034 384.981 78.6263 423.84 104.326C462.699 130.025 433.164 159.734 444.732 171.446C456.301 183.158 463.575 185.664 473.392 173.881C483.208 162.099 504.28 47.6504 406.482 64.9633C308.683 82.2764 237.23 191.522 237.23 191.522L181.788 191.522C181.788 191.522 170.992 115.793 186.053 95.2531C201.113 74.7141 222.97 115.512 242.028 109.366Z" id="Vector" fill="none" fill-rule="evenodd" stroke="#FFFFFF" stroke-width="10" />
        <path d="M178.055 221.255L226.034 219.239L193.515 266.616L178.055 221.255Z" id="Vector-2" fill="#FFFFFF" fill-rule="evenodd" stroke="#FFFFFF" stroke-width="1" />
        <g id="Oval">
          <g clip-path="url(#clip_2)">
            <use xlink:href="#path_1" fill="none" stroke="#FFFFFF" stroke-width="28" />
          </g>
        </g>
        <path d="M94.1908 171.657L93.4202 173.773Q93.3545 173.953 93.2802 174.131Q93.2059 174.308 93.1232 174.481Q93.0405 174.654 92.9495 174.823Q92.8586 174.993 92.7596 175.157Q92.6607 175.322 92.554 175.481Q92.4472 175.641 92.3329 175.795Q92.2187 175.95 92.0971 176.098Q91.9756 176.247 91.847 176.39Q91.7185 176.533 91.5832 176.669Q91.448 176.805 91.3063 176.935Q91.1647 177.065 91.017 177.187Q90.8693 177.31 90.7159 177.426Q90.5625 177.541 90.4037 177.649Q90.2449 177.757 90.0811 177.858Q89.9174 177.958 89.7489 178.05Q89.5805 178.142 89.4079 178.227Q89.2352 178.311 89.0588 178.386Q88.8823 178.462 88.7024 178.529Q88.5225 178.597 88.3395 178.655Q88.1566 178.714 87.971 178.763Q87.7855 178.813 87.5978 178.853Q87.4101 178.894 87.2207 178.926Q87.0313 178.957 86.8406 178.98Q86.6498 179.002 86.4582 179.016Q86.2666 179.029 86.0746 179.033Q85.8826 179.037 85.6906 179.032Q85.4987 179.027 85.3072 179.013Q85.1156 178.998 84.925 178.975Q84.7344 178.951 84.5452 178.919Q84.3559 178.886 84.1684 178.844Q83.981 178.803 83.7957 178.752Q83.6105 178.701 83.4278 178.642L55.0984 169.419Q54.9075 169.357 54.7201 169.285Q54.5326 169.213 54.349 169.132Q54.1653 169.052 53.986 168.962Q53.8066 168.871 53.632 168.773Q53.4574 168.674 53.288 168.566Q53.1185 168.459 52.9547 168.343Q52.7909 168.227 52.6331 168.103Q52.4753 167.979 52.3239 167.847Q52.1725 167.715 52.0279 167.576Q51.8833 167.437 51.7459 167.291Q51.6084 167.145 51.4785 166.992Q51.3486 166.839 51.2265 166.679Q51.1044 166.52 50.9904 166.355Q50.8765 166.19 50.7709 166.019Q50.6654 165.848 50.5686 165.673Q50.4717 165.497 50.3838 165.317Q50.2959 165.136 50.2172 164.952Q50.1384 164.767 50.069 164.579Q49.9997 164.39 49.9398 164.199Q49.8799 164.007 49.8297 163.813Q49.7796 163.619 49.7392 163.422Q49.6988 163.225 49.6683 163.027Q49.6379 162.829 49.6174 162.629Q49.5969 162.43 49.5865 162.229Q49.576 162.029 49.5756 161.828Q49.5753 161.627 49.5849 161.427Q49.5946 161.226 49.6143 161.027Q49.634 160.827 49.6637 160.629Q49.6935 160.43 49.7331 160.233Q49.7727 160.037 49.8221 159.842Q49.8716 159.648 49.9307 159.456Q49.9898 159.264 50.0585 159.076L50.8291 156.959Q50.8948 156.779 50.9691 156.602Q51.0434 156.425 51.1262 156.252Q51.2089 156.078 51.2998 155.909Q51.3908 155.74 51.4897 155.575Q51.5887 155.411 51.6954 155.251Q51.8021 155.091 51.9164 154.937Q52.0307 154.783 52.1522 154.634Q52.2738 154.485 52.4023 154.343Q52.5309 154.2 52.6661 154.064Q52.8014 153.927 52.943 153.798Q53.0846 153.668 53.2323 153.545Q53.38 153.422 53.5334 153.307Q53.6868 153.191 53.8456 153.083Q54.0044 152.975 54.1682 152.875Q54.332 152.775 54.5004 152.682Q54.6688 152.59 54.8414 152.506Q55.0141 152.422 55.1906 152.346Q55.3671 152.27 55.547 152.203Q55.7269 152.136 55.9098 152.077Q56.0928 152.019 56.2783 151.969Q56.4638 151.92 56.6515 151.879Q56.8392 151.838 57.0286 151.807Q57.2181 151.775 57.4088 151.753Q57.5995 151.73 57.7911 151.717Q57.9827 151.704 58.1747 151.699Q58.3667 151.695 58.5587 151.701Q58.7507 151.706 58.9422 151.72Q59.1337 151.734 59.3243 151.758Q59.5149 151.781 59.7042 151.814Q59.8934 151.847 60.0809 151.888Q60.2684 151.93 60.4536 151.981Q60.6389 152.031 60.8215 152.091L89.151 161.314Q89.3418 161.376 89.5293 161.447Q89.7167 161.519 89.9004 161.6Q90.084 161.681 90.2633 161.771Q90.4427 161.861 90.6173 161.96Q90.7919 162.059 90.9613 162.166Q91.1308 162.274 91.2946 162.39Q91.4584 162.506 91.6162 162.63Q91.774 162.754 91.9254 162.885Q92.0768 163.017 92.2214 163.156Q92.366 163.295 92.5034 163.442Q92.6409 163.588 92.7708 163.741Q92.9007 163.894 93.0228 164.053Q93.1449 164.212 93.2589 164.377Q93.3728 164.543 93.4784 164.713Q93.5839 164.884 93.6808 165.06Q93.7776 165.236 93.8655 165.416Q93.9534 165.596 94.0321 165.781Q94.1109 165.966 94.1803 166.154Q94.2497 166.342 94.3095 166.534Q94.3694 166.725 94.4196 166.919Q94.4698 167.114 94.5101 167.31Q94.5505 167.507 94.581 167.705Q94.6115 167.904 94.6319 168.103Q94.6524 168.303 94.6629 168.503Q94.6733 168.704 94.6737 168.904Q94.6741 169.105 94.6644 169.306Q94.6547 169.506 94.635 169.706Q94.6153 169.905 94.5856 170.104Q94.5559 170.302 94.5162 170.499Q94.4766 170.696 94.4272 170.89Q94.3777 171.085 94.3186 171.277Q94.2595 171.468 94.1908 171.657Z" id="Rectangle-2" fill="#FFFFFF" fill-rule="evenodd" stroke="none" />
        <path d="M126.053 53.4572L124.125 55.2799Q123.987 55.41 123.844 55.5334Q123.7 55.6569 123.551 55.7734Q123.402 55.8899 123.247 55.9992Q123.092 56.1085 122.933 56.2104Q122.773 56.3123 122.609 56.4065Q122.445 56.5007 122.276 56.587Q122.107 56.6733 121.935 56.7516Q121.763 56.8298 121.587 56.8999Q121.411 56.9699 121.232 57.0315Q121.053 57.0931 120.871 57.1461Q120.689 57.1992 120.505 57.2436Q120.321 57.288 120.135 57.3236Q119.949 57.3593 119.761 57.3861Q119.574 57.4129 119.385 57.4308Q119.197 57.4487 119.008 57.4576Q118.819 57.4666 118.629 57.4666Q118.44 57.4666 118.251 57.4576Q118.062 57.4487 117.873 57.4308Q117.685 57.4129 117.497 57.3861Q117.31 57.3593 117.124 57.3236Q116.938 57.288 116.754 57.2436Q116.57 57.1992 116.388 57.1461Q116.206 57.0931 116.027 57.0315Q115.848 56.9699 115.672 56.8999Q115.496 56.8298 115.324 56.7516Q115.151 56.6733 114.983 56.587Q114.814 56.5007 114.65 56.4065Q114.486 56.3123 114.326 56.2104Q114.166 56.1085 114.012 55.9992Q113.857 55.8899 113.708 55.7734Q113.559 55.6569 113.415 55.5334Q113.271 55.41 113.134 55.2799L92.2072 35.4936Q92.0595 35.3539 91.919 35.2069Q91.7785 35.0598 91.6457 34.9058Q91.5128 34.7518 91.388 34.5913Q91.2632 34.4307 91.1467 34.264Q91.0302 34.0974 90.9223 33.925Q90.8144 33.7526 90.7154 33.5749Q90.6164 33.3973 90.5266 33.2148Q90.4367 33.0324 90.3563 32.8456Q90.2758 32.6588 90.205 32.4682Q90.1341 32.2776 90.073 32.0836Q90.012 31.8896 89.9608 31.6928Q89.9097 31.4959 89.8686 31.2968Q89.8276 31.0976 89.7966 30.8966Q89.7658 30.6956 89.7451 30.4932Q89.7245 30.2909 89.7141 30.0878Q89.7038 29.8847 89.7038 29.6814Q89.7038 29.478 89.7141 29.2749Q89.7245 29.0718 89.7451 28.8695Q89.7658 28.6671 89.7967 28.4661Q89.8276 28.2651 89.8686 28.066Q89.9097 27.8668 89.9608 27.6699Q90.012 27.4731 90.073 27.2791Q90.1341 27.0851 90.205 26.8945Q90.2758 26.7039 90.3563 26.5171Q90.4367 26.3303 90.5266 26.1479Q90.6164 25.9654 90.7154 25.7878Q90.8144 25.6101 90.9223 25.4377Q91.0302 25.2654 91.1467 25.0987Q91.2632 24.932 91.388 24.7714Q91.5128 24.6109 91.6457 24.4569Q91.7785 24.3029 91.919 24.1558Q92.0595 24.0088 92.2072 23.8691L94.1349 22.0464Q94.2725 21.9163 94.4161 21.7929Q94.5597 21.6694 94.709 21.5529Q94.8582 21.4364 95.0129 21.3271Q95.1675 21.2178 95.3271 21.1159Q95.4867 21.0141 95.651 20.9198Q95.8153 20.8256 95.9838 20.7393Q96.1524 20.653 96.3248 20.5747Q96.4972 20.4965 96.6732 20.4265Q96.8491 20.3565 97.0282 20.2948Q97.2072 20.2332 97.389 20.1802Q97.5708 20.1271 97.7549 20.0827Q97.9389 20.0383 98.1249 20.0027Q98.3109 19.967 98.4983 19.9402Q98.6858 19.9134 98.8743 19.8955Q99.0628 19.8776 99.252 19.8687Q99.4411 19.8597 99.6305 19.8597Q99.8198 19.8597 100.009 19.8687Q100.198 19.8776 100.387 19.8955Q100.575 19.9134 100.763 19.9402Q100.95 19.967 101.136 20.0027Q101.322 20.0383 101.506 20.0827Q101.69 20.1271 101.872 20.1802Q102.054 20.2332 102.233 20.2948Q102.412 20.3564 102.588 20.4265Q102.764 20.4965 102.936 20.5747Q103.109 20.653 103.277 20.7393Q103.446 20.8256 103.61 20.9198Q103.774 21.014 103.934 21.1159Q104.093 21.2178 104.248 21.3271Q104.403 21.4364 104.552 21.5529Q104.701 21.6694 104.845 21.7929Q104.988 21.9163 105.126 22.0464L126.053 41.8327Q126.2 41.9724 126.341 42.1194Q126.481 42.2665 126.614 42.4205Q126.747 42.5745 126.872 42.735Q126.997 42.8956 127.113 43.0623Q127.23 43.229 127.338 43.4013Q127.445 43.5737 127.544 43.7514Q127.643 43.929 127.733 44.1115Q127.823 44.2939 127.904 44.4807Q127.984 44.6675 128.055 44.8581Q128.126 45.0487 128.187 45.2427Q128.248 45.4367 128.299 45.6335Q128.35 45.8304 128.391 46.0296Q128.432 46.2287 128.463 46.4297Q128.494 46.6307 128.515 46.8331Q128.535 47.0354 128.546 47.2385Q128.556 47.4416 128.556 47.645Q128.556 47.8483 128.546 48.0514Q128.535 48.2545 128.515 48.4569Q128.494 48.6592 128.463 48.8602Q128.432 49.0612 128.391 49.2604Q128.35 49.4595 128.299 49.6564Q128.248 49.8532 128.187 50.0472Q128.126 50.2412 128.055 50.4318Q127.984 50.6224 127.904 50.8092Q127.823 50.996 127.733 51.1784Q127.643 51.3609 127.544 51.5385Q127.445 51.7162 127.338 51.8886Q127.23 52.061 127.113 52.2276Q126.997 52.3943 126.872 52.5549Q126.747 52.7154 126.614 52.8694Q126.481 53.0234 126.341 53.1705Q126.2 53.3175 126.053 53.4572Z" id="Rectangle-2-Copy" fill="#FFFFFF" fill-rule="evenodd" stroke="none" />
        <path d="M256.878 44.5616L254.205 43.2741Q254.023 43.1864 253.846 43.0897Q253.669 42.9929 253.496 42.8873Q253.324 42.7817 253.157 42.6676Q252.991 42.5534 252.83 42.431Q252.669 42.3086 252.515 42.1782Q252.361 42.0478 252.213 41.9098Q252.066 41.7718 251.925 41.6265Q251.785 41.4813 251.652 41.3291Q251.519 41.1769 251.394 41.0182Q251.269 40.8595 251.152 40.6947Q251.035 40.5299 250.927 40.3594Q250.818 40.1889 250.719 40.0132Q250.619 39.8374 250.528 39.6569Q250.438 39.4763 250.356 39.2914Q250.275 39.1065 250.203 38.9177Q250.131 38.729 250.069 38.5368Q250.006 38.3446 249.954 38.1495Q249.901 37.9545 249.859 37.757Q249.816 37.5595 249.783 37.3601Q249.751 37.1608 249.728 36.96Q249.705 36.7592 249.693 36.5576Q249.681 36.3559 249.679 36.1539Q249.676 35.9519 249.684 35.75Q249.692 35.5481 249.711 35.3469Q249.729 35.1457 249.757 34.9457Q249.786 34.7456 249.824 34.5473Q249.862 34.3489 249.911 34.1528Q249.959 33.9566 250.017 33.7632Q250.076 33.5697 250.143 33.3794Q250.211 33.1891 250.289 33.0025Q250.366 32.8159 250.453 32.6334Q250.54 32.451 250.636 32.2731L263.949 7.56733Q264.04 7.39946 264.138 7.23609Q264.236 7.07272 264.342 6.91422Q264.449 6.75572 264.562 6.60246Q264.675 6.44919 264.796 6.30151Q264.917 6.15382 265.044 6.01206Q265.172 5.87029 265.306 5.73476Q265.44 5.59923 265.581 5.47025Q265.721 5.34127 265.867 5.21913Q266.014 5.09699 266.166 4.98196Q266.318 4.86694 266.476 4.75929Q266.633 4.65165 266.795 4.55162Q266.958 4.4516 267.125 4.35943Q267.292 4.26726 267.463 4.18315Q267.634 4.09903 267.809 4.02317Q267.984 3.94731 268.162 3.87987Q268.34 3.81244 268.522 3.75358Q268.703 3.69472 268.887 3.64457Q269.071 3.59441 269.257 3.55309Q269.444 3.51176 269.632 3.47936Q269.819 3.44695 270.009 3.42353Q270.198 3.40012 270.388 3.38575Q270.578 3.37138 270.769 3.36608Q270.959 3.36079 271.15 3.36459Q271.341 3.36838 271.531 3.38126Q271.721 3.39414 271.911 3.41607Q272.1 3.438 272.288 3.46893Q272.477 3.49986 272.663 3.53973Q272.849 3.57959 273.034 3.62829Q273.218 3.677 273.4 3.73443Q273.582 3.79187 273.761 3.85791Q273.94 3.92394 274.115 3.99843Q274.291 4.07291 274.463 4.15568L277.135 5.44312Q277.317 5.5308 277.494 5.62756Q277.672 5.72433 277.844 5.82992Q278.016 5.93551 278.183 6.04967Q278.35 6.16382 278.51 6.28624Q278.671 6.40866 278.825 6.53904Q278.98 6.66942 279.127 6.80743Q279.275 6.94543 279.415 7.09071Q279.556 7.23599 279.688 7.38817Q279.821 7.54035 279.946 7.69904Q280.071 7.85774 280.188 8.02254Q280.305 8.18734 280.414 8.35784Q280.522 8.52833 280.622 8.70408Q280.721 8.87982 280.812 9.06038Q280.902 9.24093 280.984 9.42583Q281.065 9.61073 281.137 9.79951Q281.209 9.98828 281.272 10.1804Q281.334 10.3726 281.387 10.5677Q281.439 10.7628 281.482 10.9602Q281.524 11.1577 281.557 11.3571Q281.59 11.5565 281.612 11.7572Q281.635 11.958 281.647 12.1597Q281.66 12.3613 281.662 12.5633Q281.664 12.7654 281.656 12.9672Q281.648 13.1691 281.63 13.3703Q281.611 13.5715 281.583 13.7716Q281.555 13.9716 281.516 14.1699Q281.478 14.3683 281.43 14.5644Q281.381 14.7606 281.323 14.9541Q281.265 15.1475 281.197 15.3378Q281.129 15.5281 281.052 15.7147Q280.974 15.9013 280.887 16.0838Q280.801 16.2662 280.705 16.4441L267.391 41.1499Q267.301 41.3178 267.202 41.4812Q267.104 41.6445 266.998 41.803Q266.892 41.9615 266.778 42.1148Q266.665 42.2681 266.544 42.4157Q266.424 42.5634 266.296 42.7052Q266.169 42.847 266.034 42.9825Q265.9 43.118 265.76 43.247Q265.619 43.376 265.473 43.4981Q265.327 43.6203 265.174 43.7353Q265.022 43.8503 264.865 43.958Q264.707 44.0656 264.545 44.1656Q264.383 44.2656 264.216 44.3578Q264.049 44.45 263.878 44.5341Q263.707 44.6182 263.532 44.6941Q263.357 44.7699 263.178 44.8374Q263 44.9048 262.819 44.9637Q262.637 45.0225 262.453 45.0727Q262.269 45.1228 262.083 45.1642Q261.897 45.2055 261.709 45.2379Q261.521 45.2703 261.332 45.2937Q261.142 45.3171 260.952 45.3315Q260.762 45.3459 260.572 45.3512Q260.381 45.3565 260.19 45.3527Q260 45.3489 259.809 45.336Q259.619 45.3231 259.43 45.3012Q259.24 45.2793 259.052 45.2483Q258.864 45.2174 258.677 45.1775Q258.491 45.1377 258.307 45.089Q258.122 45.0402 257.94 44.9828Q257.758 44.9254 257.58 44.8593Q257.401 44.7933 257.225 44.7188Q257.05 44.6443 256.878 44.5616Z" id="Rectangle-2-Copy-2" fill="#FFFFFF" fill-rule="evenodd" stroke="none" />
        <path d="M520.678 176.445L518.485 174.766Q518.324 174.642 518.169 174.511Q518.014 174.379 517.866 174.24Q517.718 174.101 517.577 173.954Q517.437 173.808 517.303 173.654Q517.17 173.5 517.045 173.34Q516.92 173.18 516.803 173.014Q516.686 172.848 516.578 172.676Q516.47 172.504 516.37 172.326Q516.271 172.149 516.181 171.967Q516.091 171.785 516.01 171.599Q515.929 171.412 515.857 171.222Q515.786 171.032 515.725 170.838Q515.663 170.644 515.612 170.448Q515.56 170.251 515.518 170.052Q515.477 169.853 515.445 169.653Q515.414 169.452 515.393 169.25Q515.371 169.048 515.36 168.845Q515.35 168.642 515.349 168.439Q515.348 168.235 515.358 168.032Q515.368 167.829 515.388 167.627Q515.408 167.425 515.438 167.224Q515.468 167.023 515.509 166.824Q515.549 166.625 515.6 166.428Q515.65 166.231 515.71 166.037Q515.771 165.843 515.841 165.652Q515.911 165.461 515.991 165.275Q516.071 165.088 516.16 164.905Q516.249 164.722 516.347 164.545Q516.446 164.367 516.553 164.194Q516.66 164.022 516.776 163.855Q516.892 163.688 517.016 163.527Q517.14 163.366 517.273 163.212L535.837 141.536Q535.96 141.392 536.09 141.254Q536.22 141.116 536.356 140.984Q536.493 140.853 536.635 140.727Q536.778 140.602 536.926 140.484Q537.074 140.366 537.228 140.255Q537.381 140.144 537.54 140.041Q537.699 139.937 537.862 139.841Q538.025 139.745 538.193 139.657Q538.361 139.569 538.533 139.489Q538.705 139.409 538.88 139.337Q539.055 139.265 539.234 139.202Q539.412 139.138 539.594 139.083Q539.775 139.028 539.959 138.982Q540.143 138.936 540.328 138.898Q540.514 138.861 540.702 138.832Q540.889 138.803 541.077 138.784Q541.266 138.764 541.455 138.753Q541.644 138.742 541.834 138.74Q542.023 138.738 542.213 138.746Q542.402 138.753 542.591 138.769Q542.78 138.785 542.968 138.81Q543.155 138.835 543.342 138.869Q543.528 138.903 543.713 138.945Q543.898 138.988 544.08 139.039Q544.263 139.091 544.442 139.151Q544.622 139.21 544.799 139.279Q544.976 139.347 545.149 139.424Q545.322 139.501 545.492 139.585Q545.661 139.67 545.826 139.763Q545.992 139.856 546.152 139.956Q546.313 140.057 546.469 140.165Q546.625 140.273 546.775 140.388L548.968 142.067Q549.13 142.191 549.285 142.322Q549.439 142.454 549.588 142.593Q549.735 142.732 549.876 142.879Q550.017 143.026 550.15 143.179Q550.283 143.333 550.408 143.493Q550.533 143.653 550.65 143.819Q550.767 143.985 550.875 144.157Q550.984 144.329 551.083 144.507Q551.182 144.684 551.273 144.866Q551.363 145.048 551.444 145.234Q551.525 145.421 551.596 145.611Q551.667 145.801 551.729 145.995Q551.79 146.189 551.842 146.385Q551.894 146.582 551.935 146.781Q551.977 146.98 552.008 147.18Q552.04 147.381 552.061 147.583Q552.082 147.785 552.093 147.988Q552.104 148.191 552.105 148.395Q552.105 148.598 552.095 148.801Q552.086 149.004 552.066 149.206Q552.046 149.408 552.015 149.609Q551.985 149.81 551.945 150.009Q551.904 150.208 551.854 150.405Q551.803 150.602 551.743 150.796Q551.683 150.99 551.612 151.181Q551.542 151.372 551.462 151.558Q551.383 151.745 551.294 151.928Q551.204 152.111 551.106 152.288Q551.008 152.466 550.901 152.639Q550.793 152.811 550.677 152.978Q550.562 153.145 550.437 153.306Q550.313 153.467 550.181 153.621L531.617 175.297Q531.493 175.441 531.363 175.579Q531.233 175.717 531.097 175.849Q530.961 175.98 530.818 176.105Q530.676 176.231 530.528 176.349Q530.379 176.467 530.226 176.578Q530.072 176.689 529.914 176.792Q529.755 176.896 529.591 176.992Q529.428 177.088 529.26 177.176Q529.092 177.264 528.921 177.344Q528.749 177.424 528.573 177.496Q528.398 177.568 528.22 177.631Q528.041 177.695 527.86 177.75Q527.678 177.805 527.494 177.851Q527.311 177.897 527.125 177.935Q526.939 177.972 526.752 178.001Q526.564 178.03 526.376 178.049Q526.188 178.069 525.998 178.08Q525.809 178.091 525.62 178.093Q525.43 178.095 525.241 178.087Q525.051 178.08 524.862 178.064Q524.674 178.048 524.486 178.023Q524.298 177.998 524.112 177.964Q523.925 177.93 523.74 177.888Q523.556 177.845 523.373 177.794Q523.191 177.742 523.011 177.682Q522.831 177.623 522.655 177.554Q522.478 177.486 522.305 177.409Q522.131 177.332 521.962 177.248Q521.792 177.163 521.627 177.07Q521.462 176.977 521.301 176.877Q521.14 176.776 520.985 176.668Q520.829 176.56 520.678 176.445Z" id="Rectangle-2-Copy-3" fill="#FFFFFF" fill-rule="evenodd" stroke="none" />
        <path d="M513.481 420.837L515.182 418.921Q515.307 418.779 515.44 418.643Q515.572 418.508 515.711 418.379Q515.849 418.249 515.994 418.127Q516.138 418.004 516.289 417.889Q516.439 417.773 516.594 417.665Q516.75 417.557 516.91 417.456Q517.071 417.355 517.236 417.262Q517.401 417.169 517.57 417.084Q517.739 416.999 517.912 416.922Q518.085 416.845 518.262 416.776Q518.439 416.708 518.618 416.647Q518.798 416.587 518.98 416.535Q519.162 416.483 519.347 416.44Q519.531 416.397 519.718 416.363Q519.904 416.329 520.092 416.303Q520.28 416.278 520.468 416.261Q520.657 416.245 520.846 416.237Q521.036 416.23 521.225 416.231Q521.415 416.233 521.604 416.243Q521.793 416.254 521.981 416.273Q522.17 416.292 522.357 416.321Q522.545 416.349 522.73 416.386Q522.916 416.423 523.1 416.469Q523.284 416.515 523.465 416.569Q523.647 416.624 523.826 416.687Q524.004 416.75 524.18 416.821Q524.355 416.893 524.527 416.972Q524.699 417.052 524.867 417.14Q525.035 417.227 525.198 417.323Q525.362 417.418 525.521 417.522Q525.68 417.625 525.834 417.735Q525.987 417.846 526.136 417.964L548.868 435.999Q549.027 436.125 549.18 436.26Q549.333 436.394 549.478 436.536Q549.624 436.678 549.762 436.827Q549.9 436.976 550.031 437.132Q550.161 437.287 550.284 437.45Q550.406 437.612 550.52 437.78Q550.634 437.949 550.739 438.122Q550.844 438.296 550.941 438.475Q551.037 438.654 551.124 438.838Q551.211 439.022 551.289 439.21Q551.367 439.397 551.435 439.589Q551.503 439.78 551.561 439.975Q551.619 440.17 551.667 440.367Q551.715 440.565 551.754 440.765Q551.792 440.964 551.82 441.165Q551.848 441.367 551.865 441.569Q551.883 441.772 551.89 441.975Q551.898 442.178 551.895 442.381Q551.892 442.585 551.879 442.787Q551.865 442.99 551.842 443.192Q551.818 443.394 551.784 443.594Q551.751 443.795 551.707 443.993Q551.663 444.192 551.609 444.388Q551.555 444.584 551.491 444.777Q551.427 444.97 551.354 445.159Q551.28 445.349 551.197 445.534Q551.114 445.72 551.022 445.901Q550.929 446.082 550.828 446.258Q550.726 446.434 550.616 446.605Q550.506 446.776 550.387 446.941Q550.268 447.105 550.141 447.264Q550.014 447.423 549.879 447.575L548.178 449.492Q548.053 449.633 547.92 449.769Q547.788 449.905 547.649 450.034Q547.511 450.163 547.366 450.285Q547.222 450.408 547.071 450.523Q546.921 450.639 546.766 450.747Q546.61 450.855 546.45 450.956Q546.289 451.057 546.124 451.15Q545.959 451.243 545.79 451.328Q545.621 451.413 545.448 451.49Q545.275 451.567 545.098 451.636Q544.922 451.705 544.742 451.765Q544.562 451.825 544.38 451.877Q544.198 451.929 544.013 451.972Q543.829 452.015 543.642 452.049Q543.456 452.084 543.268 452.109Q543.081 452.134 542.892 452.151Q542.703 452.167 542.514 452.175Q542.324 452.182 542.135 452.181Q541.946 452.179 541.756 452.169Q541.567 452.159 541.379 452.139Q541.19 452.12 541.003 452.092Q540.815 452.063 540.63 452.026Q540.444 451.989 540.26 451.943Q540.076 451.898 539.895 451.843Q539.713 451.789 539.535 451.726Q539.356 451.663 539.18 451.591Q539.005 451.52 538.833 451.44Q538.661 451.36 538.493 451.273Q538.325 451.185 538.162 451.089Q537.998 450.994 537.839 450.891Q537.68 450.787 537.526 450.677Q537.372 450.566 537.224 450.449L514.492 432.413Q514.332 432.287 514.18 432.153Q514.027 432.018 513.882 431.877Q513.736 431.735 513.598 431.586Q513.46 431.437 513.329 431.281Q513.199 431.125 513.076 430.963Q512.954 430.8 512.84 430.632Q512.726 430.464 512.621 430.29Q512.515 430.116 512.419 429.937Q512.323 429.758 512.236 429.574Q512.149 429.391 512.071 429.203Q511.993 429.015 511.925 428.823Q511.857 428.632 511.799 428.437Q511.741 428.242 511.693 428.045Q511.644 427.847 511.606 427.648Q511.568 427.448 511.54 427.247Q511.512 427.045 511.495 426.843Q511.477 426.64 511.47 426.437Q511.462 426.234 511.465 426.031Q511.468 425.828 511.481 425.625Q511.495 425.422 511.518 425.22Q511.542 425.018 511.575 424.818Q511.609 424.617 511.653 424.419Q511.697 424.22 511.751 424.024Q511.805 423.828 511.869 423.636Q511.932 423.443 512.006 423.253Q512.08 423.064 512.163 422.878Q512.246 422.693 512.338 422.511Q512.43 422.33 512.532 422.154Q512.633 421.978 512.744 421.807Q512.854 421.637 512.973 421.472Q513.092 421.307 513.219 421.148Q513.346 420.989 513.481 420.837Z" id="Rectangle-2-Copy-4" fill="#FFFFFF" fill-rule="evenodd" stroke="none" />
        <path d="M445.413 548.96L447.475 547.205Q447.619 547.082 447.769 546.966Q447.919 546.85 448.074 546.742Q448.229 546.633 448.389 546.532Q448.549 546.431 448.714 546.337Q448.879 546.244 449.048 546.158Q449.217 546.073 449.39 545.995Q449.563 545.918 449.739 545.849Q449.915 545.78 450.095 545.719Q450.274 545.658 450.456 545.606Q450.638 545.554 450.823 545.51Q451.007 545.467 451.193 545.432Q451.379 545.397 451.567 545.371Q451.754 545.346 451.943 545.329Q452.132 545.312 452.321 545.304Q452.51 545.296 452.7 545.296Q452.889 545.297 453.078 545.307Q453.267 545.317 453.456 545.336Q453.644 545.355 453.832 545.383Q454.019 545.41 454.205 545.447Q454.391 545.484 454.574 545.529Q454.758 545.574 454.94 545.628Q455.121 545.682 455.3 545.745Q455.479 545.807 455.655 545.878Q455.83 545.949 456.002 546.028Q456.174 546.107 456.343 546.194Q456.511 546.282 456.674 546.377Q456.838 546.472 456.997 546.574Q457.157 546.677 457.311 546.787Q457.465 546.897 457.614 547.015Q457.762 547.132 457.905 547.256Q458.048 547.38 458.185 547.511Q458.322 547.642 458.453 547.779L478.223 568.54Q478.364 568.687 478.496 568.841Q478.629 568.996 478.753 569.156Q478.878 569.317 478.994 569.484Q479.11 569.651 479.218 569.823Q479.325 569.996 479.424 570.173Q479.523 570.351 479.612 570.534Q479.702 570.716 479.782 570.903Q479.862 571.09 479.933 571.281Q480.003 571.471 480.064 571.666Q480.125 571.86 480.176 572.056Q480.226 572.253 480.267 572.452Q480.308 572.652 480.339 572.853Q480.369 573.054 480.39 573.256Q480.41 573.458 480.42 573.661Q480.43 573.865 480.43 574.068Q480.429 574.271 480.419 574.474Q480.408 574.677 480.387 574.879Q480.366 575.082 480.335 575.283Q480.304 575.484 480.263 575.683Q480.221 575.882 480.17 576.078Q480.118 576.275 480.057 576.469Q479.996 576.663 479.925 576.853Q479.854 577.044 479.773 577.231Q479.692 577.417 479.602 577.599Q479.512 577.782 479.413 577.959Q479.314 578.137 479.206 578.309Q479.097 578.481 478.981 578.648Q478.864 578.814 478.739 578.974Q478.614 579.135 478.481 579.289Q478.348 579.442 478.207 579.589Q478.067 579.736 477.919 579.876Q477.771 580.015 477.616 580.147L475.554 581.902Q475.41 582.025 475.26 582.141Q475.11 582.257 474.955 582.365Q474.8 582.474 474.64 582.575Q474.48 582.676 474.315 582.77Q474.15 582.863 473.981 582.948Q473.812 583.034 473.639 583.111Q473.466 583.189 473.29 583.258Q473.114 583.327 472.934 583.388Q472.755 583.449 472.573 583.501Q472.391 583.553 472.207 583.596Q472.022 583.64 471.836 583.675Q471.65 583.71 471.462 583.735Q471.275 583.761 471.086 583.778Q470.897 583.795 470.708 583.803Q470.519 583.811 470.329 583.81Q470.14 583.809 469.951 583.8Q469.762 583.79 469.573 583.771Q469.385 583.752 469.198 583.724Q469.01 583.697 468.824 583.66Q468.638 583.623 468.455 583.578Q468.271 583.533 468.089 583.479Q467.908 583.425 467.729 583.362Q467.55 583.3 467.374 583.229Q467.199 583.158 467.027 583.079Q466.855 583 466.686 582.912Q466.518 582.825 466.355 582.73Q466.191 582.635 466.032 582.533Q465.872 582.43 465.718 582.32Q465.564 582.21 465.415 582.092Q465.267 581.975 465.124 581.851Q464.981 581.727 464.844 581.596Q464.707 581.465 464.576 581.328L444.806 560.567Q444.666 560.42 444.533 560.266Q444.4 560.112 444.276 559.951Q444.151 559.79 444.035 559.623Q443.919 559.456 443.811 559.284Q443.704 559.111 443.605 558.934Q443.506 558.756 443.417 558.573Q443.327 558.391 443.247 558.204Q443.167 558.017 443.096 557.826Q443.026 557.635 442.965 557.441Q442.904 557.247 442.853 557.05Q442.803 556.854 442.762 556.654Q442.721 556.455 442.69 556.254Q442.66 556.053 442.64 555.851Q442.619 555.649 442.609 555.445Q442.599 555.242 442.599 555.039Q442.6 554.836 442.61 554.633Q442.621 554.43 442.642 554.227Q442.663 554.025 442.694 553.824Q442.725 553.623 442.767 553.424Q442.808 553.225 442.859 553.028Q442.911 552.832 442.972 552.638Q443.033 552.444 443.104 552.253Q443.176 552.063 443.256 551.876Q443.337 551.69 443.427 551.507Q443.517 551.325 443.616 551.148Q443.716 550.97 443.824 550.798Q443.932 550.626 444.048 550.459Q444.165 550.293 444.29 550.132Q444.415 549.972 444.548 549.818Q444.681 549.664 444.822 549.518Q444.963 549.371 445.11 549.231Q445.258 549.092 445.413 548.96Z" id="Rectangle-2-Copy-5" fill="#FFFFFF" fill-rule="evenodd" stroke="none" />
        <path d="M275.682 552.436L278.727 553.154Q278.921 553.2 279.113 553.255Q279.305 553.31 279.494 553.375Q279.683 553.44 279.868 553.515Q280.053 553.589 280.235 553.672Q280.416 553.756 280.593 553.848Q280.77 553.941 280.942 554.042Q281.114 554.143 281.281 554.252Q281.448 554.362 281.609 554.48Q281.771 554.597 281.926 554.723Q282.081 554.849 282.23 554.982Q282.378 555.115 282.52 555.256Q282.662 555.396 282.797 555.544Q282.931 555.691 283.059 555.845Q283.186 555.999 283.305 556.159Q283.424 556.319 283.536 556.485Q283.647 556.651 283.75 556.822Q283.852 556.993 283.946 557.169Q284.041 557.345 284.126 557.526Q284.211 557.706 284.287 557.891Q284.363 558.075 284.43 558.264Q284.497 558.452 284.554 558.643Q284.611 558.834 284.659 559.028Q284.707 559.222 284.745 559.418Q284.783 559.614 284.811 559.812Q284.839 560.009 284.857 560.208Q284.876 560.407 284.884 560.606Q284.892 560.806 284.89 561.006Q284.889 561.205 284.877 561.405Q284.866 561.604 284.844 561.802Q284.823 562.001 284.791 562.198Q284.76 562.395 284.718 562.591Q284.677 562.786 284.626 562.979L277.564 589.761Q277.515 589.948 277.457 590.132Q277.398 590.316 277.332 590.497Q277.265 590.678 277.189 590.856Q277.113 591.033 277.029 591.207Q276.945 591.381 276.853 591.55Q276.76 591.72 276.66 591.885Q276.559 592.05 276.451 592.209Q276.342 592.369 276.227 592.524Q276.111 592.678 275.987 592.827Q275.864 592.975 275.734 593.118Q275.604 593.26 275.467 593.396Q275.33 593.532 275.186 593.662Q275.043 593.791 274.893 593.913Q274.744 594.036 274.589 594.15Q274.434 594.265 274.273 594.372Q274.113 594.48 273.947 594.579Q273.781 594.679 273.611 594.77Q273.441 594.861 273.267 594.944Q273.093 595.027 272.914 595.102Q272.736 595.176 272.555 595.242Q272.373 595.308 272.189 595.365Q272.004 595.422 271.817 595.469Q271.63 595.517 271.441 595.556Q271.252 595.595 271.061 595.625Q270.87 595.655 270.678 595.675Q270.487 595.696 270.294 595.707Q270.101 595.718 269.908 595.72Q269.715 595.722 269.522 595.714Q269.329 595.707 269.137 595.69Q268.944 595.674 268.753 595.648Q268.562 595.622 268.372 595.587Q268.182 595.551 267.994 595.507L264.949 594.789Q264.755 594.743 264.563 594.688Q264.371 594.633 264.182 594.568Q263.994 594.503 263.808 594.428Q263.623 594.354 263.442 594.271Q263.26 594.187 263.083 594.095Q262.906 594.002 262.734 593.901Q262.562 593.8 262.395 593.691Q262.228 593.581 262.067 593.463Q261.906 593.346 261.75 593.22Q261.595 593.094 261.447 592.961Q261.298 592.828 261.156 592.687Q261.014 592.547 260.879 592.399Q260.745 592.252 260.618 592.098Q260.49 591.944 260.371 591.784Q260.252 591.624 260.141 591.458Q260.029 591.292 259.927 591.121Q259.824 590.95 259.73 590.774Q259.636 590.598 259.55 590.417Q259.465 590.237 259.389 590.052Q259.313 589.867 259.246 589.679Q259.18 589.491 259.122 589.3Q259.065 589.109 259.017 588.915Q258.969 588.721 258.931 588.525Q258.893 588.329 258.865 588.131Q258.837 587.934 258.819 587.735Q258.801 587.536 258.792 587.337Q258.784 587.137 258.786 586.937Q258.787 586.738 258.799 586.538Q258.811 586.339 258.832 586.141Q258.854 585.942 258.885 585.745Q258.917 585.548 258.958 585.352Q258.999 585.157 259.05 584.964L266.112 558.182Q266.161 557.995 266.22 557.811Q266.278 557.627 266.345 557.446Q266.412 557.265 266.488 557.087Q266.563 556.91 266.647 556.736Q266.731 556.562 266.824 556.393Q266.916 556.223 267.017 556.058Q267.117 555.893 267.226 555.733Q267.334 555.574 267.45 555.419Q267.566 555.265 267.689 555.116Q267.812 554.968 267.942 554.825Q268.073 554.683 268.21 554.547Q268.347 554.41 268.49 554.281Q268.633 554.152 268.783 554.03Q268.932 553.907 269.088 553.792Q269.243 553.678 269.403 553.57Q269.564 553.463 269.729 553.364Q269.895 553.264 270.065 553.173Q270.235 553.082 270.409 552.999Q270.584 552.916 270.762 552.841Q270.94 552.767 271.122 552.701Q271.303 552.635 271.488 552.578Q271.672 552.521 271.859 552.473Q272.046 552.425 272.235 552.387Q272.424 552.348 272.615 552.318Q272.806 552.288 272.998 552.268Q273.19 552.247 273.383 552.236Q273.575 552.225 273.768 552.223Q273.961 552.221 274.154 552.229Q274.347 552.236 274.54 552.253Q274.732 552.269 274.923 552.295Q275.115 552.321 275.305 552.356Q275.494 552.392 275.682 552.436Z" id="Rectangle-2-Copy-6" fill="#FFFFFF" fill-rule="evenodd" stroke="none" />
        <path d="M78.1883 498.784L80.6726 500.251Q80.8471 500.354 81.0161 500.466Q81.1852 500.578 81.3483 500.698Q81.5115 500.818 81.6684 500.947Q81.8252 501.075 81.9754 501.211Q82.1255 501.347 82.2686 501.491Q82.4117 501.634 82.5474 501.785Q82.683 501.936 82.8108 502.093Q82.9386 502.25 83.0583 502.414Q83.178 502.577 83.2893 502.747Q83.4006 502.916 83.5031 503.091Q83.6057 503.266 83.6992 503.445Q83.7928 503.625 83.8771 503.809Q83.9615 503.994 84.0364 504.182Q84.1113 504.37 84.1766 504.562Q84.2418 504.754 84.2973 504.949Q84.3528 505.144 84.3983 505.341Q84.4438 505.539 84.4793 505.738Q84.5147 505.938 84.5401 506.139Q84.5654 506.34 84.5805 506.542Q84.5956 506.744 84.6005 506.947Q84.6053 507.149 84.5999 507.352Q84.5945 507.555 84.5788 507.757Q84.5631 507.959 84.5373 508.16Q84.5114 508.361 84.4754 508.56Q84.4393 508.76 84.3932 508.957Q84.3472 509.154 84.2912 509.349Q84.2352 509.544 84.1693 509.735Q84.1036 509.927 84.0281 510.115Q83.9527 510.303 83.8679 510.487Q83.783 510.671 83.6889 510.851Q83.5949 511.03 83.4918 511.205Q83.3888 511.379 83.2771 511.549L67.7007 535.118Q67.5959 535.276 67.4837 535.43Q67.3715 535.583 67.2522 535.731Q67.1328 535.879 67.0065 536.021Q66.8803 536.163 66.7474 536.299Q66.6145 536.435 66.4754 536.564Q66.3362 536.694 66.191 536.816Q66.0459 536.939 65.8951 537.055Q65.7442 537.17 65.5881 537.279Q65.4319 537.387 65.2708 537.488Q65.1097 537.589 64.944 537.682Q64.7782 537.775 64.6083 537.86Q64.4383 537.945 64.2645 538.022Q64.0907 538.099 63.9134 538.168Q63.7362 538.236 63.5558 538.296Q63.3755 538.356 63.1925 538.408Q63.0096 538.459 62.8244 538.502Q62.6391 538.545 62.4521 538.578Q62.2651 538.612 62.0767 538.637Q61.8882 538.662 61.6988 538.678Q61.5094 538.694 61.3195 538.701Q61.1296 538.708 60.9395 538.706Q60.7494 538.704 60.5597 538.693Q60.37 538.682 60.181 538.661Q59.992 538.641 59.8041 538.612Q59.6163 538.583 59.43 538.545Q59.2438 538.507 59.0596 538.46Q58.8753 538.414 58.6935 538.358Q58.5117 538.303 58.3328 538.239Q58.1538 538.175 57.9781 538.102Q57.8024 538.03 57.6303 537.949Q57.4582 537.868 57.2902 537.78Q57.1221 537.691 56.9585 537.594L54.4742 536.126Q54.2997 536.023 54.1307 535.911Q53.9616 535.8 53.7985 535.68Q53.6353 535.559 53.4784 535.431Q53.3216 535.303 53.1714 535.167Q53.0213 535.03 52.8782 534.887Q52.7351 534.743 52.5995 534.593Q52.4638 534.442 52.336 534.285Q52.2082 534.128 52.0885 533.964Q51.9688 533.801 51.8575 533.631Q51.7462 533.462 51.6437 533.287Q51.5411 533.112 51.4476 532.932Q51.354 532.753 51.2697 532.569Q51.1853 532.384 51.1104 532.196Q51.0355 532.008 50.9703 531.816Q50.905 531.624 50.8495 531.429Q50.7941 531.234 50.7485 531.036Q50.703 530.839 50.6675 530.639Q50.6321 530.44 50.6068 530.239Q50.5814 530.038 50.5663 529.836Q50.5512 529.634 50.5464 529.431Q50.5415 529.228 50.5469 529.026Q50.5524 528.823 50.568 528.621Q50.5837 528.419 50.6096 528.218Q50.6354 528.017 50.6715 527.818Q50.7075 527.618 50.7536 527.421Q50.7996 527.224 50.8557 527.029Q50.9117 526.834 50.9775 526.642Q51.0433 526.451 51.1187 526.263Q51.1941 526.074 51.279 525.89Q51.3638 525.706 51.4579 525.527Q51.5519 525.347 51.655 525.173Q51.758 524.998 51.8698 524.829L67.4461 501.26Q67.5509 501.102 67.6631 500.948Q67.7754 500.795 67.8947 500.647Q68.0141 500.499 68.1403 500.357Q68.2666 500.215 68.3995 500.079Q68.5323 499.943 68.6715 499.814Q68.8107 499.684 68.9558 499.561Q69.101 499.439 69.2518 499.323Q69.4026 499.207 69.5588 499.099Q69.7149 498.991 69.8761 498.89Q70.0372 498.789 70.2029 498.696Q70.3686 498.603 70.5386 498.518Q70.7086 498.433 70.8824 498.356Q71.0562 498.279 71.2334 498.21Q71.4107 498.142 71.591 498.082Q71.7714 498.022 71.9543 497.97Q72.1373 497.919 72.3225 497.876Q72.5077 497.833 72.6947 497.799Q72.8818 497.766 73.0702 497.741Q73.2586 497.716 73.448 497.7Q73.6374 497.684 73.8274 497.677Q74.0173 497.67 74.2074 497.672Q74.3974 497.674 74.5872 497.685Q74.7769 497.696 74.9659 497.717Q75.1549 497.737 75.3427 497.766Q75.5306 497.795 75.7168 497.833Q75.9031 497.871 76.0873 497.917Q76.2715 497.964 76.4533 498.02Q76.6351 498.075 76.8141 498.139Q76.993 498.203 77.1687 498.276Q77.3445 498.348 77.5165 498.429Q77.6886 498.509 77.8567 498.598Q78.0247 498.687 78.1883 498.784Z" id="Rectangle-2-Copy-7" fill="#FFFFFF" fill-rule="evenodd" stroke="none" />
        <path d="M46.6113 375.367L47.2148 377.496Q47.2693 377.689 47.3141 377.884Q47.3589 378.078 47.394 378.275Q47.429 378.472 47.4542 378.67Q47.4793 378.868 47.4946 379.068Q47.5098 379.267 47.5151 379.467Q47.5203 379.667 47.5156 379.866Q47.5109 380.066 47.4962 380.266Q47.4815 380.465 47.4569 380.663Q47.4322 380.862 47.3977 381.058Q47.3632 381.255 47.3189 381.45Q47.2746 381.645 47.2207 381.837Q47.1667 382.03 47.1032 382.219Q47.0397 382.409 46.9668 382.595Q46.8938 382.781 46.8117 382.963Q46.7296 383.146 46.6385 383.324Q46.5474 383.501 46.4475 383.675Q46.3477 383.848 46.2393 384.016Q46.1309 384.184 46.0142 384.346Q45.8976 384.508 45.773 384.664Q45.6484 384.821 45.5161 384.971Q45.3839 385.12 45.2443 385.263Q45.1047 385.406 44.9581 385.542Q44.8116 385.678 44.6585 385.807Q44.5053 385.935 44.3459 386.056Q44.1866 386.176 44.0214 386.289Q43.8562 386.401 43.6855 386.505Q43.5149 386.61 43.3393 386.705Q43.1637 386.801 42.9836 386.887Q42.8034 386.974 42.6192 387.051Q42.4349 387.129 42.2471 387.197Q42.0592 387.265 41.8681 387.324Q41.6771 387.382 41.4833 387.431L12.5069 394.773Q12.3199 394.82 12.1309 394.858Q11.9419 394.897 11.7513 394.926Q11.5606 394.955 11.3688 394.975Q11.177 394.995 10.9844 395.005Q10.7918 395.016 10.599 395.017Q10.4061 395.019 10.2134 395.011Q10.0207 395.003 9.82863 394.986Q9.63653 394.968 9.4455 394.942Q9.25446 394.916 9.06492 394.88Q8.87537 394.844 8.68777 394.8Q8.50017 394.755 8.31493 394.701Q8.1297 394.647 7.94727 394.585Q7.76485 394.522 7.58565 394.451Q7.40644 394.38 7.23089 394.3Q7.05533 394.22 6.88383 394.132Q6.71232 394.044 6.54527 393.947Q6.37821 393.851 6.216 393.747Q6.05378 393.642 5.89678 393.53Q5.73978 393.418 5.58836 393.299Q5.43694 393.179 5.29145 393.053Q5.14597 392.926 5.00675 392.793Q4.86753 392.659 4.73491 392.519Q4.60228 392.379 4.47656 392.233Q4.35084 392.087 4.23232 391.935Q4.11379 391.782 4.00273 391.625Q3.89168 391.467 3.78835 391.304Q3.68502 391.141 3.58966 390.974Q3.4943 390.806 3.40713 390.634Q3.31995 390.462 3.24117 390.286Q3.1624 390.11 3.09219 389.93Q3.02199 389.751 2.96052 389.568Q2.89906 389.385 2.84647 389.2L2.24295 387.07Q2.18846 386.878 2.14364 386.683Q2.09881 386.488 2.06377 386.291Q2.02873 386.094 2.00356 385.896Q1.97839 385.698 1.96316 385.499Q1.94793 385.299 1.94266 385.1Q1.9374 384.9 1.94212 384.7Q1.94684 384.5 1.96154 384.301Q1.97623 384.102 2.00087 383.903Q2.0255 383.705 2.06 383.508Q2.09451 383.311 2.13881 383.116Q2.1831 382.921 2.23708 382.729Q2.29105 382.536 2.35457 382.347Q2.41809 382.157 2.49099 381.971Q2.56389 381.785 2.646 381.603Q2.72811 381.421 2.81921 381.243Q2.91032 381.065 3.01019 380.892Q3.11007 380.719 3.21846 380.551Q3.32686 380.383 3.44351 380.221Q3.56016 380.058 3.68477 379.902Q3.80938 379.746 3.94163 379.596Q4.07389 379.446 4.21347 379.303Q4.35304 379.16 4.49959 379.024Q4.64614 378.888 4.79929 378.76Q4.95244 378.631 5.11181 378.511Q5.27119 378.39 5.43639 378.277Q5.60159 378.165 5.7722 378.061Q5.94281 377.957 6.11841 377.861Q6.294 377.766 6.47415 377.679Q6.6543 377.593 6.83854 377.515Q7.02279 377.438 7.21067 377.37Q7.39856 377.301 7.58961 377.243Q7.78067 377.184 7.97441 377.135L36.9509 369.794Q37.1378 369.746 37.3268 369.708Q37.5159 369.67 37.7065 369.641Q37.8971 369.612 38.089 369.592Q38.2808 369.572 38.4734 369.561Q38.6659 369.55 38.8588 369.549Q39.0516 369.548 39.2443 369.556Q39.437 369.564 39.6291 369.581Q39.8212 369.598 40.0122 369.624Q40.2033 369.651 40.3928 369.686Q40.5824 369.722 40.77 369.767Q40.9576 369.811 41.1428 369.865Q41.328 369.919 41.5105 369.982Q41.6929 370.044 41.8721 370.115Q42.0513 370.187 42.2269 370.266Q42.4024 370.346 42.5739 370.435Q42.7454 370.523 42.9125 370.619Q43.0795 370.715 43.2417 370.82Q43.404 370.924 43.561 371.036Q43.718 371.148 43.8694 371.267Q44.0208 371.387 44.1663 371.514Q44.3118 371.64 44.451 371.774Q44.5902 371.907 44.7228 372.047Q44.8554 372.187 44.9812 372.333Q45.1069 372.48 45.2254 372.632Q45.3439 372.784 45.455 372.942Q45.5661 373.099 45.6694 373.262Q45.7727 373.425 45.8681 373.593Q45.9634 373.76 46.0506 373.932Q46.1378 374.104 46.2166 374.28Q46.2953 374.456 46.3655 374.636Q46.4358 374.816 46.4972 374.998Q46.5587 375.181 46.6113 375.367Z" id="Rectangle-2-Copy-8" fill="#FFFFFF" fill-rule="evenodd" stroke="none" />
      </g>
    </g>
  </g>
</svg>