<?xml version="1.0" encoding="utf-8"?>
<svg width="1010px" height="1020px" viewBox="0 0 1010 1020" version="1.1" xmlns:xlink="http://www.w3.org/1999/xlink" xmlns="http://www.w3.org/2000/svg">
  <defs>
    <filter filterUnits="userSpaceOnUse" color-interpolation-filters="sRGB" id="filter_1">
      <feFlood flood-opacity="0" result="BackgroundImageFix" />
      <feColorMatrix in="SourceAlpha" type="matrix" values="0 0 0 0 0 0 0 0 0 0 0 0 0 0 0 0 0 0 127 0" />
      <feOffset dx="4" dy="4" />
      <feGaussianBlur stdDeviation="11" />
      <feColorMatrix type="matrix" values="0 0 0 0 0.5803922 0 0 0 0 0.90588236 0 0 0 0 0.9647059 0 0 0 1 0" />
      <feBlend mode="normal" in2="BackgroundImageFix" result="effect0_dropShadow" />
      <feBlend mode="normal" in="SourceGraphic" in2="effect0_dropShadow" result="shape" />
    </filter>
    <path d="M391.831 480.444C391.831 445.205 420.702 416.639 456.315 416.639C491.929 416.639 520.8 445.205 520.8 480.444C520.8 515.683 491.929 544.249 456.315 544.249C420.702 544.249 391.831 515.683 391.831 480.444Z" id="path_1" />
    <rect width="1010" height="1020" id="artboard_1" />
    <clipPath id="clip_1">
      <use xlink:href="#artboard_1" clip-rule="evenodd" />
    </clipPath>
    <clipPath id="clip_2">
      <use xlink:href="#path_1" />
    </clipPath>
  </defs>
  <g id="Artboard" clip-path="url(#clip_1)">
    <use xlink:href="#artboard_1" stroke="none" fill="#FFFFFF" fill-opacity="0" />
    <g filter="url(#filter_1)" artboard="e959be65-becc-4a56-8977-0cee0dce611e">
      <g id="Group-3" transform="translate(78.97412 35.11621)">
        <path d="M370.61 176.143C399.791 166.169 403.207 157.861 401.627 140.149C400.047 122.437 303.595 52.1691 243.927 105.301C184.259 158.432 220.418 316.029 220.418 316.029C220.418 316.029 46.1473 375.476 26.9652 441.943C7.78314 508.408 112.057 604.758 147.033 565.491C182.009 526.225 70.8703 499.045 92.4816 453.244C114.093 407.445 233.478 382.29 233.478 382.29L258.782 467.367C258.782 467.367 114.428 740.107 204.948 822.962C295.468 905.816 357.236 832.16 368.435 818.892C379.634 805.622 373.3 784.36 346.703 779.103C320.106 773.844 269.362 835.159 239.479 775.244C209.596 715.327 287.351 536.083 287.351 536.083C287.351 536.083 409.27 821.664 595.281 874.425C781.293 927.186 683.209 440.689 603.603 437.231C523.997 433.773 719.302 729.65 621.074 804.359C522.846 879.067 324.663 468.703 324.663 468.703L394.281 364.293C394.281 364.293 675.142 383.685 780.385 441.943C885.627 500.2 770.544 544.318 758.41 563.817C746.277 583.314 770.498 630.443 802.9 611.242C835.303 592.044 903.425 556.822 884.676 490.371C865.927 423.92 820.355 393.189 707.006 349.626C593.658 306.066 438.804 311.938 438.804 311.938C438.804 311.938 589.494 126.252 648.994 167.963C708.493 209.673 663.27 257.892 680.984 276.9C698.697 295.909 709.835 299.976 724.865 280.853C739.896 261.73 772.16 75.9776 622.416 104.077C472.67 132.176 363.263 309.484 363.263 309.484L278.373 309.484C278.373 309.484 261.843 186.574 284.903 153.238C307.962 119.902 341.428 186.117 370.61 176.143Z" id="Vector" fill="none" fill-rule="evenodd" stroke="#020218" stroke-width="10" />
        <path d="M272.658 357.741L346.121 354.469L296.329 431.363L272.658 357.741Z" id="Vector-2" fill="#020218" fill-rule="evenodd" stroke="#020218" stroke-width="1" />
        <g id="Oval">
          <g clip-path="url(#clip_2)">
            <use xlink:href="#path_1" fill="none" stroke="#020218" stroke-width="28" />
          </g>
        </g>
        <path d="M145.987 272.164L141.619 284.88Q141.555 285.066 141.482 285.248Q141.409 285.431 141.327 285.61Q141.246 285.788 141.155 285.963Q141.065 286.137 140.966 286.307Q140.867 286.477 140.76 286.642Q140.652 286.806 140.537 286.966Q140.422 287.125 140.299 287.278Q140.177 287.432 140.046 287.579Q139.916 287.726 139.779 287.867Q139.642 288.008 139.498 288.141Q139.354 288.275 139.203 288.402Q139.053 288.528 138.897 288.647Q138.74 288.766 138.578 288.877Q138.416 288.989 138.249 289.092Q138.081 289.195 137.909 289.289Q137.737 289.384 137.56 289.47Q137.384 289.556 137.203 289.634Q137.022 289.711 136.838 289.78Q136.654 289.848 136.466 289.907Q136.279 289.967 136.089 290.017Q135.899 290.067 135.707 290.107Q135.514 290.148 135.32 290.179Q135.126 290.21 134.931 290.232Q134.736 290.253 134.539 290.265Q134.343 290.277 134.147 290.279Q133.95 290.282 133.754 290.274Q133.557 290.267 133.362 290.25Q133.166 290.233 132.971 290.206Q132.776 290.18 132.583 290.144Q132.39 290.107 132.199 290.062Q132.008 290.016 131.819 289.961Q131.63 289.906 131.444 289.842L79.8853 272.05Q79.6998 271.986 79.5177 271.913Q79.3356 271.84 79.1573 271.758Q78.979 271.676 78.8049 271.585Q78.6308 271.495 78.4614 271.396Q78.292 271.297 78.1276 271.19Q77.9632 271.083 77.8043 270.968Q77.6454 270.853 77.4923 270.73Q77.3392 270.607 77.1923 270.477Q77.0454 270.347 76.9051 270.21Q76.7647 270.073 76.6313 269.929Q76.4978 269.785 76.3716 269.635Q76.2453 269.485 76.1266 269.329Q76.0079 269.173 75.8969 269.011Q75.786 268.849 75.6832 268.682Q75.5803 268.515 75.4858 268.343Q75.3912 268.171 75.3052 267.995Q75.2192 267.818 75.1419 267.638Q75.0647 267.458 74.9964 267.274Q74.928 267.09 74.8688 266.903Q74.8096 266.716 74.7596 266.526Q74.7096 266.336 74.669 266.144Q74.6284 265.952 74.5972 265.759Q74.566 265.565 74.5444 265.37Q74.5228 265.175 74.5107 264.979Q74.4987 264.783 74.4963 264.587Q74.4938 264.391 74.501 264.195Q74.5082 263.999 74.525 263.803Q74.5418 263.608 74.5682 263.414Q74.5945 263.219 74.6304 263.026Q74.6662 262.833 74.7115 262.642Q74.7568 262.452 74.8113 262.263Q74.8659 262.075 74.9297 261.889L79.2984 249.173Q79.3623 248.987 79.4352 248.805Q79.5081 248.622 79.5899 248.444Q79.6716 248.265 79.7621 248.09Q79.8526 247.916 79.9515 247.746Q80.0504 247.576 80.1576 247.411Q80.2647 247.247 80.3798 247.087Q80.4949 246.928 80.6177 246.775Q80.7405 246.621 80.8707 246.474Q81.0009 246.327 81.1381 246.186Q81.2754 246.045 81.4194 245.912Q81.5634 245.778 81.7137 245.651Q81.8641 245.525 82.0206 245.406Q82.177 245.287 82.3391 245.176Q82.5011 245.064 82.6685 244.961Q82.8358 244.858 83.008 244.764Q83.1802 244.669 83.3569 244.583Q83.5335 244.497 83.7142 244.419Q83.8948 244.342 84.0791 244.273Q84.2633 244.205 84.4507 244.146Q84.6381 244.086 84.8282 244.036Q85.0182 243.986 85.2105 243.946Q85.4028 243.905 85.5969 243.874Q85.7909 243.843 85.9863 243.821Q86.1816 243.8 86.3778 243.788Q86.574 243.776 86.7705 243.774Q86.967 243.771 87.1634 243.779Q87.3598 243.786 87.5556 243.803Q87.7514 243.82 87.9461 243.847Q88.1409 243.873 88.3341 243.91Q88.5272 243.946 88.7184 243.991Q88.9096 244.037 89.0983 244.092Q89.287 244.147 89.4728 244.211L141.032 262.004Q141.217 262.068 141.399 262.141Q141.582 262.214 141.76 262.295Q141.938 262.377 142.112 262.468Q142.286 262.558 142.456 262.657Q142.625 262.756 142.79 262.863Q142.954 262.97 143.113 263.085Q143.272 263.201 143.425 263.323Q143.578 263.446 143.725 263.576Q143.872 263.706 144.012 263.843Q144.152 263.98 144.286 264.124Q144.419 264.268 144.546 264.418Q144.672 264.568 144.791 264.724Q144.909 264.881 145.02 265.042Q145.131 265.204 145.234 265.371Q145.337 265.538 145.431 265.71Q145.526 265.882 145.612 266.059Q145.698 266.235 145.775 266.415Q145.852 266.595 145.921 266.779Q145.989 266.963 146.048 267.15Q146.108 267.337 146.158 267.527Q146.208 267.717 146.248 267.909Q146.289 268.101 146.32 268.294Q146.351 268.488 146.373 268.683Q146.394 268.878 146.406 269.074Q146.418 269.27 146.421 269.466Q146.423 269.662 146.416 269.858Q146.409 270.054 146.392 270.25Q146.375 270.445 146.349 270.64Q146.323 270.834 146.287 271.027Q146.251 271.22 146.206 271.411Q146.16 271.602 146.106 271.79Q146.051 271.979 145.987 272.164Z" id="Rectangle-2" fill="#020218" fill-rule="evenodd" stroke="none" />
        <path d="M196.804 81.6169L187.326 91.1166Q187.187 91.2558 187.041 91.388Q186.896 91.5202 186.744 91.6451Q186.592 91.77 186.434 91.8873Q186.276 92.0046 186.113 92.114Q185.95 92.2233 185.781 92.3246Q185.612 92.4258 185.439 92.5186Q185.266 92.6114 185.088 92.6956Q184.91 92.7798 184.729 92.8552Q184.547 92.9305 184.362 92.9968Q184.177 93.0632 183.989 93.1203Q183.801 93.1775 183.61 93.2253Q183.419 93.2732 183.226 93.3116Q183.033 93.35 182.839 93.3789Q182.644 93.4078 182.449 93.4271Q182.253 93.4464 182.057 93.4561Q181.86 93.4657 181.663 93.4657Q181.467 93.4657 181.27 93.4561Q181.074 93.4464 180.878 93.4271Q180.683 93.4078 180.488 93.3789Q180.294 93.35 180.101 93.3116Q179.908 93.2732 179.717 93.2253Q179.526 93.1775 179.338 93.1203Q179.15 93.0632 178.965 92.9968Q178.78 92.9305 178.598 92.8551Q178.417 92.7798 178.239 92.6956Q178.061 92.6114 177.888 92.5186Q177.715 92.4258 177.546 92.3245Q177.377 92.2233 177.214 92.1139Q177.051 92.0046 176.893 91.8873Q176.735 91.77 176.583 91.6451Q176.431 91.5202 176.286 91.388Q176.14 91.2558 176.001 91.1166L137.433 52.4623Q137.294 52.3235 137.163 52.1781Q137.031 52.0327 136.907 51.881Q136.783 51.7293 136.666 51.5717Q136.549 51.4141 136.44 51.2509Q136.332 51.0878 136.231 50.9195Q136.13 50.7513 136.038 50.5783Q135.946 50.4053 135.862 50.228Q135.778 50.0506 135.703 49.8694Q135.628 49.6882 135.562 49.5036Q135.496 49.3189 135.44 49.1313Q135.383 48.9436 135.335 48.7534Q135.288 48.5631 135.249 48.3708Q135.211 48.1785 135.182 47.9845Q135.154 47.7905 135.135 47.5954Q135.115 47.4003 135.106 47.2044Q135.096 47.0086 135.096 46.8125Q135.096 46.6164 135.106 46.4205Q135.115 46.2247 135.135 46.0295Q135.154 45.8344 135.182 45.6404Q135.211 45.4465 135.249 45.2541Q135.288 45.0618 135.335 44.8716Q135.383 44.6813 135.44 44.4937Q135.496 44.306 135.562 44.1214Q135.628 43.9367 135.703 43.7555Q135.778 43.5743 135.862 43.397Q135.946 43.2197 136.038 43.0467Q136.13 42.8737 136.231 42.7054Q136.332 42.5371 136.44 42.374Q136.549 42.2109 136.666 42.0533Q136.783 41.8957 136.907 41.744Q137.031 41.5923 137.163 41.4469Q137.294 41.3014 137.433 41.1626L146.911 31.663Q147.05 31.5238 147.196 31.3915Q147.341 31.2593 147.493 31.1344Q147.645 31.0095 147.803 30.8923Q147.961 30.775 148.124 30.6656Q148.288 30.5562 148.456 30.455Q148.625 30.3538 148.798 30.2609Q148.971 30.1681 149.149 30.0839Q149.327 29.9998 149.508 29.9244Q149.69 29.8491 149.875 29.7827Q150.06 29.7164 150.248 29.6592Q150.437 29.6021 150.627 29.5542Q150.818 29.5064 151.011 29.4679Q151.204 29.4295 151.398 29.4006Q151.593 29.3717 151.789 29.3524Q151.984 29.3331 152.181 29.3235Q152.377 29.3138 152.574 29.3138Q152.77 29.3138 152.967 29.3235Q153.163 29.3331 153.359 29.3524Q153.555 29.3717 153.749 29.4006Q153.944 29.4295 154.136 29.4679Q154.329 29.5064 154.52 29.5542Q154.711 29.602 154.899 29.6592Q155.087 29.7164 155.272 29.7827Q155.457 29.849 155.639 29.9244Q155.821 29.9997 155.998 30.0839Q156.176 30.1681 156.349 30.2609Q156.523 30.3538 156.691 30.455Q156.86 30.5562 157.023 30.6656Q157.187 30.775 157.344 30.8923Q157.502 31.0095 157.654 31.1344Q157.806 31.2593 157.952 31.3915Q158.097 31.5237 158.236 31.6629L196.805 70.3172Q196.943 70.456 197.075 70.6015Q197.206 70.7469 197.33 70.8986Q197.455 71.0503 197.571 71.2079Q197.688 71.3655 197.797 71.5286Q197.905 71.6917 198.006 71.86Q198.107 72.0283 198.199 72.2013Q198.291 72.3743 198.375 72.5516Q198.459 72.7289 198.534 72.9101Q198.609 73.0913 198.675 73.276Q198.741 73.4606 198.798 73.6483Q198.854 73.836 198.902 74.0262Q198.95 74.2164 198.988 74.4087Q199.026 74.6011 199.055 74.795Q199.083 74.989 199.103 75.1842Q199.122 75.3793 199.131 75.5751Q199.141 75.771 199.141 75.9671Q199.141 76.1632 199.131 76.359Q199.122 76.5549 199.103 76.75Q199.083 76.9452 199.055 77.1391Q199.026 77.3331 198.988 77.5254Q198.95 77.7178 198.902 77.908Q198.854 78.0982 198.798 78.2859Q198.741 78.4735 198.675 78.6582Q198.609 78.8429 198.534 79.0241Q198.459 79.2053 198.375 79.3826Q198.291 79.5599 198.199 79.7329Q198.107 79.9059 198.006 80.0741Q197.905 80.2424 197.797 80.4055Q197.688 80.5687 197.571 80.7263Q197.455 80.8839 197.33 81.0356Q197.206 81.1873 197.075 81.3327Q196.943 81.4781 196.804 81.6169Z" id="Rectangle-2-Copy" fill="#020218" fill-rule="evenodd" stroke="none" />
        <path d="M396.749 72.7032L384.814 66.6088Q384.64 66.5196 384.47 66.4219Q384.3 66.3243 384.134 66.2184Q383.969 66.1125 383.81 65.9987Q383.65 65.8848 383.496 65.7633Q383.342 65.6418 383.194 65.5128Q383.046 65.3839 382.905 65.2479Q382.764 65.1119 382.629 64.9691Q382.495 64.8263 382.367 64.6771Q382.24 64.5279 382.12 64.3726Q382 64.2174 381.888 64.0564Q381.776 63.8955 381.672 63.7292Q381.568 63.563 381.472 63.3918Q381.377 63.2207 381.289 63.045Q381.202 62.8694 381.123 62.6897Q381.045 62.51 380.975 62.3266Q380.905 62.1433 380.845 61.9567Q380.784 61.7702 380.733 61.5809Q380.681 61.3916 380.639 61.2Q380.597 61.0085 380.565 60.815Q380.532 60.6216 380.509 60.4269Q380.486 60.2321 380.472 60.0364Q380.459 59.8407 380.455 59.6446Q380.451 59.4485 380.457 59.2525Q380.462 59.0564 380.478 58.8609Q380.493 58.6653 380.518 58.4708Q380.543 58.2762 380.577 58.0831Q380.611 57.89 380.655 57.6988Q380.699 57.5076 380.752 57.3188Q380.805 57.13 380.868 56.944Q380.93 56.7581 381.001 56.5754Q381.073 56.3927 381.153 56.2137Q381.233 56.0347 381.322 55.8598L406.089 7.14329Q406.178 6.96805 406.276 6.79739Q406.373 6.62674 406.479 6.46108Q406.585 6.29543 406.699 6.13517Q406.813 5.97492 406.934 5.82045Q407.056 5.66599 407.185 5.51768Q407.314 5.36937 407.45 5.22758Q407.586 5.0858 407.729 4.95087Q407.872 4.81594 408.022 4.6882Q408.171 4.56046 408.327 4.44021Q408.482 4.31996 408.644 4.2075Q408.805 4.09504 408.971 3.99064Q409.138 3.88623 409.309 3.79013Q409.481 3.69404 409.657 3.60648Q409.833 3.51893 410.013 3.44013Q410.193 3.36132 410.377 3.29146Q410.561 3.2216 410.748 3.16085Q410.935 3.1001 411.124 3.04861Q411.314 2.99712 411.506 2.95501Q411.698 2.9129 411.892 2.88028Q412.086 2.84765 412.281 2.82459Q412.476 2.80153 412.673 2.78808Q412.869 2.77464 413.065 2.77085Q413.262 2.76705 413.458 2.77292Q413.655 2.77879 413.851 2.7943Q414.047 2.80981 414.242 2.83493Q414.437 2.86005 414.63 2.89472Q414.824 2.92939 415.015 2.97352Q415.207 3.01766 415.396 3.07115Q415.585 3.12464 415.772 3.18736Q415.958 3.25007 416.141 3.32187Q416.324 3.39367 416.503 3.47436Q416.682 3.55506 416.857 3.64447L428.792 9.73887Q428.966 9.82807 429.137 9.92573Q429.307 10.0234 429.472 10.1293Q429.637 10.2351 429.797 10.349Q429.956 10.4628 430.11 10.5844Q430.264 10.7059 430.412 10.8348Q430.56 10.9637 430.701 11.0998Q430.842 11.2358 430.977 11.3786Q431.111 11.5214 431.239 11.6706Q431.366 11.8198 431.486 11.975Q431.606 12.1303 431.718 12.2912Q431.83 12.4522 431.934 12.6184Q432.038 12.7847 432.134 12.9558Q432.23 13.127 432.317 13.3026Q432.404 13.4783 432.483 13.658Q432.561 13.8377 432.631 14.021Q432.701 14.2044 432.761 14.3909Q432.822 14.5775 432.873 14.7668Q432.925 14.956 432.967 15.1476Q433.009 15.3392 433.041 15.5326Q433.074 15.726 433.097 15.9208Q433.12 16.1156 433.134 16.3112Q433.147 16.5069 433.151 16.703Q433.155 16.8991 433.149 17.0952Q433.144 17.2912 433.128 17.4868Q433.113 17.6823 433.088 17.8769Q433.063 18.0714 433.029 18.2645Q432.995 18.4576 432.951 18.6488Q432.907 18.84 432.854 19.0288Q432.801 19.2176 432.739 19.4036Q432.676 19.5896 432.605 19.7723Q432.534 19.955 432.453 20.134Q432.373 20.313 432.284 20.4878L407.517 69.2044Q407.428 69.3796 407.33 69.5503Q407.233 69.7209 407.127 69.8866Q407.021 70.0522 406.907 70.2125Q406.793 70.3727 406.672 70.5272Q406.55 70.6817 406.421 70.83Q406.292 70.9783 406.156 71.1201Q406.02 71.2619 405.877 71.3968Q405.734 71.5317 405.584 71.6595Q405.435 71.7872 405.279 71.9075Q405.124 72.0277 404.963 72.1402Q404.801 72.2526 404.635 72.357Q404.468 72.4614 404.297 72.5575Q404.125 72.6536 403.949 72.7412Q403.773 72.8288 403.593 72.9075Q403.413 72.9864 403.229 73.0562Q403.045 73.1261 402.858 73.1868Q402.672 73.2476 402.482 73.2991Q402.292 73.3506 402.1 73.3927Q401.908 73.4348 401.714 73.4674Q401.52 73.5 401.325 73.5231Q401.13 73.5461 400.934 73.5596Q400.738 73.573 400.541 73.5768Q400.344 73.5806 400.148 73.5748Q399.951 73.5689 399.755 73.5534Q399.56 73.5379 399.365 73.5127Q399.17 73.4876 398.976 73.4529Q398.783 73.4183 398.591 73.3742Q398.399 73.33 398.21 73.2765Q398.021 73.223 397.835 73.1603Q397.648 73.0976 397.465 73.0258Q397.282 72.954 397.103 72.8733Q396.924 72.7926 396.749 72.7032Z" id="Rectangle-2-Copy-2" fill="#020218" fill-rule="evenodd" stroke="none" />
        <path d="M800.237 287.427L789.822 278.975Q789.67 278.851 789.524 278.721Q789.378 278.59 789.239 278.452Q789.099 278.314 788.967 278.169Q788.834 278.025 788.709 277.874Q788.584 277.723 788.466 277.566Q788.348 277.409 788.238 277.247Q788.128 277.085 788.027 276.917Q787.925 276.749 787.831 276.577Q787.738 276.405 787.653 276.228Q787.568 276.051 787.492 275.87Q787.416 275.69 787.349 275.506Q787.281 275.321 787.223 275.134Q787.165 274.947 787.116 274.757Q787.068 274.567 787.028 274.375Q786.989 274.183 786.958 273.989Q786.928 273.795 786.908 273.6Q786.888 273.405 786.877 273.209Q786.866 273.014 786.864 272.818Q786.863 272.621 786.871 272.426Q786.88 272.23 786.898 272.034Q786.915 271.839 786.943 271.645Q786.97 271.451 787.007 271.258Q787.044 271.066 787.09 270.875Q787.137 270.684 787.192 270.496Q787.248 270.308 787.313 270.123Q787.377 269.938 787.451 269.756Q787.525 269.575 787.607 269.397Q787.69 269.219 787.781 269.045Q787.872 268.872 787.972 268.703Q788.071 268.534 788.179 268.37Q788.287 268.206 788.402 268.048Q788.518 267.889 788.641 267.737L822.969 225.251Q823.093 225.098 823.224 224.951Q823.355 224.805 823.493 224.664Q823.631 224.524 823.775 224.391Q823.92 224.258 824.071 224.132Q824.222 224.006 824.379 223.888Q824.536 223.77 824.699 223.659Q824.862 223.549 825.03 223.447Q825.198 223.344 825.37 223.251Q825.543 223.157 825.72 223.071Q825.897 222.986 826.079 222.909Q826.26 222.833 826.444 222.765Q826.629 222.698 826.817 222.64Q827.005 222.581 827.195 222.532Q827.385 222.483 827.578 222.443Q827.771 222.404 827.965 222.374Q828.159 222.343 828.355 222.323Q828.55 222.302 828.747 222.291Q828.943 222.281 829.14 222.279Q829.336 222.278 829.533 222.286Q829.729 222.295 829.925 222.313Q830.121 222.331 830.316 222.359Q830.51 222.386 830.703 222.423Q830.897 222.461 831.088 222.507Q831.279 222.554 831.467 222.61Q831.656 222.666 831.841 222.731Q832.027 222.796 832.209 222.87Q832.391 222.944 832.569 223.027Q832.747 223.11 832.921 223.202Q833.095 223.294 833.264 223.394Q833.434 223.494 833.598 223.602Q833.762 223.711 833.92 223.827Q834.079 223.943 834.232 224.067L844.646 232.52Q844.799 232.643 844.945 232.774Q845.091 232.905 845.23 233.043Q845.369 233.181 845.502 233.325Q845.634 233.47 845.76 233.621Q845.885 233.771 846.003 233.928Q846.12 234.085 846.23 234.247Q846.34 234.41 846.442 234.577Q846.544 234.745 846.637 234.918Q846.731 235.09 846.816 235.267Q846.901 235.443 846.977 235.624Q847.053 235.805 847.12 235.989Q847.187 236.173 847.245 236.361Q847.303 236.548 847.352 236.738Q847.401 236.928 847.441 237.12Q847.48 237.312 847.51 237.506Q847.54 237.699 847.561 237.894Q847.581 238.089 847.592 238.285Q847.603 238.481 847.604 238.677Q847.606 238.873 847.597 239.069Q847.589 239.265 847.571 239.46Q847.553 239.656 847.526 239.85Q847.498 240.044 847.461 240.236Q847.425 240.429 847.378 240.62Q847.332 240.81 847.276 240.998Q847.221 241.186 847.156 241.371Q847.091 241.556 847.018 241.738Q846.944 241.92 846.861 242.098Q846.779 242.276 846.688 242.449Q846.596 242.623 846.497 242.792Q846.397 242.961 846.29 243.124Q846.182 243.288 846.066 243.447Q845.951 243.605 845.828 243.758L811.499 286.243Q811.376 286.396 811.245 286.543Q811.114 286.69 810.976 286.83Q810.838 286.97 810.693 287.103Q810.548 287.236 810.397 287.362Q810.246 287.488 810.089 287.606Q809.932 287.725 809.77 287.835Q809.607 287.945 809.439 288.048Q809.271 288.15 809.098 288.244Q808.925 288.338 808.748 288.423Q808.571 288.508 808.39 288.585Q808.209 288.661 808.024 288.729Q807.839 288.797 807.652 288.855Q807.464 288.913 807.273 288.962Q807.083 289.011 806.891 289.051Q806.698 289.091 806.504 289.121Q806.309 289.151 806.114 289.172Q805.918 289.192 805.722 289.203Q805.525 289.214 805.329 289.215Q805.132 289.216 804.936 289.208Q804.739 289.2 804.543 289.182Q804.348 289.164 804.153 289.136Q803.958 289.108 803.765 289.071Q803.572 289.034 803.381 288.987Q803.19 288.941 803.002 288.885Q802.813 288.829 802.628 288.764Q802.442 288.698 802.26 288.624Q802.078 288.55 801.899 288.467Q801.721 288.384 801.547 288.292Q801.373 288.201 801.204 288.1Q801.035 288 800.871 287.892Q800.707 287.784 800.548 287.667Q800.389 287.551 800.237 287.427Z" id="Rectangle-2-Copy-3" fill="#020218" fill-rule="evenodd" stroke="none" />
        <path d="M782.768 685.793L791.386 675.499Q791.512 675.348 791.646 675.204Q791.779 675.059 791.92 674.922Q792.06 674.784 792.207 674.653Q792.354 674.523 792.507 674.399Q792.661 674.276 792.82 674.161Q792.979 674.045 793.143 673.938Q793.308 673.83 793.478 673.731Q793.647 673.631 793.822 673.54Q793.996 673.45 794.175 673.367Q794.353 673.285 794.536 673.212Q794.718 673.138 794.904 673.074Q795.09 673.01 795.279 672.955Q795.468 672.9 795.659 672.854Q795.85 672.808 796.043 672.772Q796.237 672.736 796.431 672.709Q796.626 672.682 796.822 672.665Q797.018 672.648 797.214 672.64Q797.411 672.633 797.608 672.635Q797.804 672.637 798 672.649Q798.197 672.661 798.392 672.682Q798.588 672.704 798.782 672.735Q798.976 672.766 799.168 672.807Q799.361 672.847 799.551 672.897Q799.741 672.947 799.929 673.006Q800.116 673.065 800.301 673.134Q800.485 673.202 800.666 673.28Q800.847 673.357 801.023 673.443Q801.2 673.529 801.372 673.624Q801.545 673.719 801.712 673.822Q801.88 673.925 802.042 674.036Q802.204 674.147 802.361 674.266Q802.517 674.385 802.668 674.512L844.448 709.648Q844.598 709.774 844.742 709.908Q844.886 710.041 845.023 710.181Q845.16 710.322 845.29 710.468Q845.42 710.615 845.542 710.768Q845.665 710.921 845.78 711.08Q845.895 711.239 846.002 711.403Q846.109 711.568 846.208 711.737Q846.307 711.906 846.397 712.08Q846.488 712.254 846.569 712.432Q846.651 712.611 846.724 712.793Q846.797 712.975 846.861 713.16Q846.925 713.345 846.98 713.534Q847.035 713.722 847.08 713.913Q847.126 714.104 847.162 714.296Q847.198 714.489 847.225 714.683Q847.252 714.878 847.269 715.073Q847.286 715.268 847.293 715.464Q847.301 715.66 847.299 715.856Q847.296 716.052 847.285 716.248Q847.273 716.444 847.252 716.639Q847.23 716.834 847.2 717.027Q847.169 717.221 847.128 717.413Q847.088 717.605 847.039 717.794Q846.989 717.984 846.93 718.171Q846.871 718.358 846.803 718.542Q846.735 718.726 846.658 718.907Q846.581 719.087 846.496 719.263Q846.41 719.44 846.316 719.612Q846.222 719.784 846.119 719.951Q846.017 720.118 845.906 720.28Q845.796 720.442 845.677 720.598Q845.559 720.755 845.433 720.905L836.815 731.199Q836.689 731.349 836.555 731.494Q836.422 731.638 836.281 731.776Q836.141 731.914 835.994 732.044Q835.847 732.175 835.693 732.298Q835.54 732.421 835.381 732.537Q835.222 732.652 835.057 732.76Q834.893 732.867 834.723 732.967Q834.553 733.066 834.379 733.157Q834.205 733.248 834.026 733.33Q833.847 733.412 833.665 733.486Q833.482 733.559 833.297 733.623Q833.111 733.687 832.922 733.743Q832.733 733.798 832.542 733.843Q832.351 733.889 832.158 733.925Q831.964 733.962 831.769 733.988Q831.575 734.015 831.379 734.032Q831.183 734.049 830.986 734.057Q830.79 734.064 830.593 734.062Q830.397 734.06 830.2 734.048Q830.004 734.036 829.809 734.015Q829.613 733.993 829.419 733.962Q829.225 733.931 829.032 733.891Q828.84 733.85 828.65 733.8Q828.46 733.75 828.272 733.691Q828.085 733.632 827.9 733.564Q827.716 733.495 827.535 733.418Q827.354 733.341 827.177 733.254Q827.001 733.168 826.828 733.074Q826.656 732.979 826.489 732.876Q826.321 732.773 826.159 732.661Q825.997 732.55 825.84 732.431Q825.684 732.312 825.533 732.186L783.752 697.049Q783.602 696.923 783.459 696.79Q783.315 696.656 783.178 696.516Q783.041 696.376 782.911 696.229Q782.781 696.082 782.658 695.929Q782.536 695.776 782.421 695.617Q782.306 695.459 782.199 695.294Q782.092 695.13 781.993 694.961Q781.894 694.791 781.804 694.617Q781.713 694.443 781.631 694.265Q781.549 694.087 781.477 693.905Q781.404 693.723 781.339 693.537Q781.276 693.352 781.221 693.164Q781.166 692.976 781.12 692.785Q781.075 692.594 781.039 692.401Q781.003 692.209 780.976 692.014Q780.949 691.82 780.932 691.625Q780.915 691.429 780.908 691.233Q780.9 691.037 780.902 690.841Q780.904 690.645 780.916 690.45Q780.928 690.254 780.949 690.059Q780.97 689.864 781.001 689.67Q781.032 689.477 781.072 689.285Q781.112 689.093 781.162 688.903Q781.212 688.713 781.271 688.526Q781.33 688.339 781.398 688.155Q781.465 687.971 781.542 687.791Q781.619 687.611 781.705 687.434Q781.79 687.258 781.885 687.086Q781.979 686.914 782.081 686.747Q782.184 686.58 782.294 686.418Q782.405 686.256 782.523 686.099Q782.642 685.943 782.768 685.793Z" id="Rectangle-2-Copy-4" fill="#020218" fill-rule="evenodd" stroke="none" />
        <path d="M678.079 893.143L688.04 884.154Q688.186 884.023 688.338 883.898Q688.49 883.774 688.648 883.657Q688.807 883.54 688.97 883.432Q689.134 883.323 689.303 883.222Q689.472 883.121 689.646 883.029Q689.819 882.937 689.997 882.853Q690.175 882.77 690.357 882.695Q690.539 882.62 690.724 882.554Q690.91 882.488 691.098 882.432Q691.286 882.375 691.477 882.328Q691.668 882.281 691.861 882.243Q692.054 882.205 692.249 882.177Q692.443 882.149 692.639 882.13Q692.835 882.111 693.031 882.102Q693.228 882.094 693.424 882.094Q693.621 882.095 693.817 882.105Q694.014 882.115 694.209 882.135Q694.405 882.155 694.599 882.185Q694.794 882.214 694.986 882.253Q695.179 882.292 695.37 882.341Q695.56 882.389 695.748 882.447Q695.936 882.505 696.121 882.572Q696.306 882.639 696.487 882.714Q696.669 882.79 696.846 882.875Q697.024 882.96 697.197 883.053Q697.37 883.147 697.538 883.248Q697.706 883.35 697.869 883.46Q698.032 883.57 698.19 883.688Q698.347 883.806 698.499 883.931Q698.65 884.056 698.795 884.189Q698.941 884.322 699.079 884.461Q699.218 884.601 699.349 884.747L735.847 925.373Q735.978 925.519 736.102 925.671Q736.226 925.823 736.342 925.981Q736.458 926.139 736.566 926.302Q736.674 926.466 736.775 926.635Q736.875 926.803 736.967 926.976Q737.058 927.15 737.141 927.327Q737.224 927.505 737.299 927.686Q737.373 927.868 737.439 928.053Q737.504 928.238 737.56 928.426Q737.616 928.613 737.663 928.804Q737.71 928.994 737.748 929.187Q737.785 929.379 737.813 929.573Q737.841 929.767 737.86 929.962Q737.879 930.158 737.888 930.353Q737.896 930.549 737.896 930.745Q737.895 930.941 737.885 931.137Q737.875 931.333 737.855 931.528Q737.835 931.723 737.806 931.917Q737.776 932.111 737.737 932.303Q737.699 932.495 737.65 932.686Q737.602 932.876 737.545 933.063Q737.487 933.251 737.421 933.435Q737.354 933.619 737.278 933.8Q737.203 933.981 737.119 934.158Q737.034 934.335 736.941 934.508Q736.848 934.681 736.747 934.849Q736.646 935.017 736.537 935.179Q736.427 935.342 736.31 935.499Q736.193 935.657 736.068 935.808Q735.943 935.959 735.811 936.104Q735.679 936.249 735.54 936.387Q735.401 936.526 735.256 936.657L725.296 945.645Q725.15 945.777 724.997 945.902Q724.845 946.026 724.687 946.143Q724.529 946.259 724.365 946.368Q724.201 946.477 724.032 946.578Q723.863 946.679 723.69 946.771Q723.516 946.863 723.338 946.947Q723.16 947.03 722.978 947.105Q722.796 947.18 722.611 947.245Q722.426 947.311 722.237 947.368Q722.049 947.424 721.858 947.472Q721.667 947.519 721.474 947.557Q721.281 947.594 721.087 947.623Q720.892 947.651 720.696 947.67Q720.5 947.688 720.304 947.697Q720.108 947.706 719.911 947.706Q719.714 947.705 719.518 947.695Q719.322 947.685 719.126 947.665Q718.93 947.645 718.736 947.615Q718.542 947.586 718.349 947.547Q718.156 947.508 717.966 947.459Q717.775 947.411 717.587 947.353Q717.399 947.295 717.214 947.228Q717.029 947.161 716.848 947.086Q716.666 947.01 716.489 946.925Q716.312 946.84 716.138 946.747Q715.965 946.653 715.797 946.552Q715.629 946.45 715.466 946.34Q715.303 946.23 715.145 946.112Q714.988 945.995 714.836 945.869Q714.685 945.744 714.54 945.611Q714.395 945.478 714.256 945.339Q714.118 945.199 713.986 945.053L677.488 904.427Q677.357 904.281 677.233 904.129Q677.109 903.977 676.993 903.819Q676.877 903.661 676.769 903.497Q676.66 903.334 676.56 903.165Q676.46 902.997 676.368 902.823Q676.277 902.65 676.194 902.472Q676.111 902.295 676.036 902.113Q675.962 901.932 675.897 901.747Q675.831 901.562 675.775 901.374Q675.719 901.186 675.672 900.996Q675.625 900.806 675.587 900.613Q675.55 900.421 675.522 900.227Q675.494 900.033 675.475 899.837Q675.456 899.642 675.448 899.446Q675.439 899.25 675.439 899.054Q675.44 898.858 675.45 898.662Q675.46 898.467 675.48 898.271Q675.5 898.076 675.529 897.883Q675.559 897.689 675.598 897.496Q675.637 897.304 675.685 897.114Q675.733 896.924 675.79 896.737Q675.848 896.549 675.914 896.365Q675.981 896.18 676.057 895.999Q676.132 895.818 676.217 895.641Q676.301 895.464 676.394 895.292Q676.487 895.119 676.588 894.951Q676.689 894.783 676.798 894.62Q676.908 894.458 677.025 894.3Q677.142 894.143 677.267 893.992Q677.392 893.841 677.524 893.696Q677.656 893.551 677.795 893.412Q677.934 893.274 678.079 893.143Z" id="Rectangle-2-Copy-5" fill="#020218" fill-rule="evenodd" stroke="none" />
        <path d="M418.29 894.273L431.281 897.519Q431.472 897.567 431.66 897.624Q431.848 897.681 432.032 897.747Q432.217 897.813 432.399 897.888Q432.58 897.963 432.757 898.046Q432.935 898.13 433.108 898.223Q433.281 898.315 433.449 898.416Q433.618 898.517 433.781 898.625Q433.944 898.734 434.102 898.851Q434.26 898.968 434.412 899.092Q434.563 899.217 434.709 899.348Q434.854 899.48 434.993 899.619Q435.132 899.757 435.264 899.902Q435.396 900.048 435.521 900.199Q435.645 900.351 435.762 900.508Q435.879 900.666 435.989 900.829Q436.098 900.992 436.199 901.16Q436.3 901.328 436.393 901.501Q436.485 901.674 436.569 901.852Q436.654 902.029 436.729 902.21Q436.804 902.391 436.87 902.576Q436.937 902.761 436.994 902.948Q437.051 903.136 437.099 903.326Q437.147 903.517 437.186 903.709Q437.224 903.901 437.253 904.096Q437.282 904.29 437.302 904.485Q437.321 904.68 437.331 904.876Q437.341 905.072 437.341 905.268Q437.342 905.465 437.332 905.661Q437.323 905.857 437.304 906.052Q437.285 906.247 437.257 906.441Q437.228 906.636 437.19 906.828Q437.152 907.021 437.105 907.211L423.906 960.268Q423.858 960.458 423.801 960.647Q423.745 960.835 423.679 961.02Q423.613 961.205 423.538 961.387Q423.463 961.568 423.379 961.746Q423.295 961.924 423.203 962.097Q423.111 962.271 423.01 962.439Q422.909 962.608 422.8 962.771Q422.691 962.935 422.574 963.093Q422.458 963.251 422.333 963.403Q422.209 963.555 422.077 963.701Q421.945 963.847 421.806 963.986Q421.668 964.125 421.522 964.257Q421.377 964.389 421.225 964.514Q421.073 964.639 420.915 964.756Q420.758 964.873 420.595 964.983Q420.431 965.092 420.263 965.193Q420.094 965.294 419.921 965.387Q419.748 965.48 419.57 965.564Q419.393 965.648 419.211 965.724Q419.03 965.799 418.845 965.866Q418.66 965.932 418.472 965.989Q418.284 966.046 418.094 966.094Q417.903 966.142 417.71 966.181Q417.518 966.219 417.323 966.248Q417.129 966.277 416.933 966.297Q416.738 966.316 416.542 966.326Q416.345 966.336 416.149 966.336Q415.952 966.336 415.756 966.326Q415.56 966.317 415.364 966.298Q415.169 966.279 414.974 966.25Q414.78 966.221 414.587 966.183Q414.395 966.145 414.204 966.097L401.213 962.851Q401.022 962.803 400.835 962.747Q400.647 962.69 400.462 962.624Q400.277 962.558 400.096 962.483Q399.914 962.408 399.737 962.324Q399.56 962.24 399.386 962.148Q399.213 962.055 399.045 961.955Q398.876 961.854 398.713 961.745Q398.55 961.636 398.392 961.519Q398.235 961.403 398.083 961.278Q397.931 961.154 397.785 961.022Q397.64 960.891 397.501 960.752Q397.362 960.613 397.23 960.468Q397.098 960.323 396.974 960.171Q396.849 960.02 396.732 959.862Q396.615 959.705 396.506 959.542Q396.396 959.379 396.295 959.21Q396.194 959.042 396.102 958.869Q396.009 958.696 395.925 958.519Q395.841 958.342 395.765 958.161Q395.69 957.979 395.624 957.795Q395.557 957.61 395.5 957.422Q395.443 957.235 395.395 957.044Q395.347 956.854 395.309 956.662Q395.27 956.469 395.241 956.275Q395.212 956.081 395.193 955.886Q395.173 955.69 395.163 955.495Q395.153 955.299 395.153 955.102Q395.153 954.906 395.162 954.71Q395.171 954.514 395.19 954.319Q395.209 954.123 395.238 953.929Q395.266 953.735 395.304 953.543Q395.342 953.35 395.389 953.159L408.589 900.102Q408.636 899.912 408.693 899.724Q408.75 899.536 408.816 899.35Q408.881 899.165 408.956 898.984Q409.031 898.802 409.115 898.624Q409.199 898.447 409.291 898.273Q409.384 898.1 409.484 897.931Q409.585 897.762 409.694 897.599Q409.803 897.435 409.92 897.277Q410.037 897.119 410.161 896.967Q410.286 896.815 410.417 896.669Q410.549 896.524 410.688 896.385Q410.827 896.245 410.972 896.113Q411.118 895.981 411.269 895.856Q411.421 895.732 411.579 895.614Q411.736 895.497 411.9 895.388Q412.063 895.278 412.231 895.177Q412.4 895.076 412.573 894.983Q412.746 894.89 412.924 894.806Q413.101 894.722 413.283 894.647Q413.464 894.571 413.649 894.505Q413.834 894.438 414.022 894.381Q414.21 894.324 414.401 894.276Q414.591 894.228 414.784 894.19Q414.977 894.151 415.171 894.122Q415.365 894.093 415.561 894.074Q415.756 894.054 415.953 894.044Q416.149 894.035 416.345 894.035Q416.542 894.034 416.738 894.044Q416.934 894.053 417.13 894.073Q417.325 894.092 417.52 894.12Q417.714 894.149 417.907 894.187Q418.1 894.226 418.29 894.273Z" id="Rectangle-2-Copy-6" fill="#020218" fill-rule="evenodd" stroke="none" />
        <path d="M116.509 806.131L127.87 813.247Q128.036 813.351 128.197 813.463Q128.358 813.575 128.514 813.695Q128.669 813.815 128.818 813.942Q128.967 814.069 129.11 814.204Q129.253 814.338 129.389 814.48Q129.525 814.621 129.653 814.769Q129.782 814.917 129.904 815.07Q130.025 815.224 130.139 815.384Q130.253 815.544 130.359 815.709Q130.465 815.874 130.562 816.044Q130.66 816.214 130.749 816.389Q130.838 816.564 130.919 816.742Q130.999 816.921 131.071 817.104Q131.142 817.286 131.205 817.472Q131.268 817.658 131.321 817.847Q131.375 818.036 131.419 818.227Q131.463 818.418 131.497 818.611Q131.532 818.804 131.557 818.998Q131.583 819.193 131.598 819.388Q131.614 819.584 131.62 819.78Q131.626 819.976 131.622 820.172Q131.619 820.368 131.606 820.564Q131.592 820.759 131.57 820.954Q131.547 821.149 131.515 821.342Q131.482 821.536 131.441 821.727Q131.399 821.919 131.348 822.108Q131.297 822.298 131.237 822.484Q131.176 822.671 131.107 822.854Q131.038 823.038 130.959 823.218Q130.881 823.397 130.794 823.573Q130.707 823.749 130.612 823.92Q130.516 824.092 130.412 824.258L101.504 870.624Q101.4 870.79 101.288 870.952Q101.176 871.113 101.056 871.269Q100.936 871.425 100.809 871.575Q100.682 871.725 100.547 871.868Q100.412 872.011 100.271 872.148Q100.129 872.284 99.9813 872.414Q99.8333 872.543 99.6791 872.665Q99.5249 872.787 99.3649 872.901Q99.2049 873.015 99.0394 873.122Q98.874 873.228 98.7036 873.326Q98.5331 873.424 98.358 873.513Q98.183 873.603 98.0038 873.684Q97.8245 873.765 97.6415 873.836Q97.4585 873.908 97.2722 873.971Q97.0859 874.034 96.8967 874.088Q96.7075 874.141 96.516 874.185Q96.3244 874.23 96.1309 874.264Q95.9373 874.299 95.7423 874.324Q95.5474 874.35 95.3514 874.365Q95.1554 874.381 94.9589 874.387Q94.7623 874.393 94.5657 874.389Q94.3691 874.385 94.173 874.372Q93.9768 874.359 93.7816 874.336Q93.5863 874.313 93.3924 874.28Q93.1985 874.248 93.0064 874.206Q92.8143 874.163 92.6246 874.112Q92.4348 874.061 92.2478 874Q92.0608 873.939 91.877 873.87Q91.6932 873.8 91.513 873.721Q91.3328 873.642 91.1568 873.555Q90.9807 873.467 90.8091 873.371Q90.6376 873.275 90.4709 873.171L79.1096 866.055Q78.9434 865.951 78.7825 865.839Q78.6216 865.727 78.4664 865.607Q78.3112 865.487 78.162 865.36Q78.0128 865.233 77.8701 865.098Q77.7273 864.964 77.5914 864.822Q77.4554 864.681 77.3265 864.533Q77.1976 864.385 77.0761 864.232Q76.9546 864.078 76.8408 863.918Q76.727 863.758 76.6212 863.593Q76.5153 863.428 76.4177 863.258Q76.3201 863.088 76.2309 862.913Q76.1418 862.738 76.0613 862.56Q75.9807 862.381 75.9091 862.198Q75.8375 862.016 75.7749 861.83Q75.7122 861.644 75.6588 861.455Q75.6054 861.267 75.5613 861.076Q75.5172 860.884 75.4825 860.691Q75.4478 860.498 75.4226 860.304Q75.3974 860.109 75.3817 859.914Q75.3661 859.718 75.3601 859.522Q75.354 859.326 75.3576 859.13Q75.3612 858.934 75.3744 858.739Q75.3875 858.543 75.4103 858.348Q75.4331 858.153 75.4653 857.96Q75.4976 857.766 75.5393 857.575Q75.581 857.383 75.6321 857.194Q75.6831 857.004 75.7434 856.818Q75.8037 856.631 75.873 856.448Q75.9424 856.264 76.0206 856.085Q76.0989 855.905 76.1858 855.729Q76.2728 855.553 76.3683 855.382Q76.4638 855.211 76.5675 855.044L105.476 808.679Q105.58 808.512 105.692 808.35Q105.804 808.189 105.924 808.033Q106.044 807.877 106.171 807.727Q106.298 807.578 106.433 807.434Q106.568 807.291 106.709 807.154Q106.851 807.018 106.999 806.889Q107.147 806.759 107.301 806.637Q107.455 806.515 107.615 806.401Q107.775 806.287 107.941 806.18Q108.106 806.074 108.276 805.976Q108.447 805.878 108.622 805.789Q108.797 805.699 108.976 805.618Q109.155 805.538 109.338 805.466Q109.521 805.394 109.708 805.331Q109.894 805.268 110.083 805.215Q110.272 805.161 110.464 805.117Q110.656 805.072 110.849 805.038Q111.043 805.003 111.238 804.978Q111.433 804.953 111.629 804.937Q111.825 804.921 112.021 804.915Q112.218 804.909 112.414 804.913Q112.611 804.917 112.807 804.93Q113.003 804.944 113.198 804.967Q113.394 804.99 113.588 805.022Q113.781 805.055 113.974 805.097Q114.166 805.139 114.355 805.19Q114.545 805.242 114.732 805.302Q114.919 805.363 115.103 805.433Q115.287 805.503 115.467 805.581Q115.647 805.66 115.823 805.748Q115.999 805.835 116.171 805.931Q116.342 806.027 116.509 806.131Z" id="Rectangle-2-Copy-7" fill="#020218" fill-rule="evenodd" stroke="none" />
        <path d="M70.2154 603.445L73.6887 616.436Q73.7394 616.626 73.7807 616.818Q73.8221 617.01 73.8539 617.203Q73.8858 617.397 73.9081 617.592Q73.9305 617.787 73.9432 617.982Q73.956 618.178 73.9591 618.375Q73.9622 618.571 73.9558 618.767Q73.9493 618.963 73.9332 619.159Q73.9171 619.354 73.8914 619.549Q73.8657 619.743 73.8306 619.936Q73.7954 620.129 73.7508 620.32Q73.7062 620.511 73.6523 620.7Q73.5984 620.889 73.5353 621.075Q73.4722 621.26 73.4 621.443Q73.3279 621.625 73.2469 621.804Q73.1659 621.983 73.0762 622.157Q72.9866 622.332 72.8885 622.502Q72.7904 622.672 72.684 622.837Q72.5777 623.002 72.4634 623.161Q72.3491 623.321 72.2271 623.474Q72.1052 623.628 71.9758 623.776Q71.8465 623.923 71.71 624.064Q71.5736 624.205 71.4304 624.339Q71.2872 624.474 71.1376 624.601Q70.988 624.728 70.8324 624.847Q70.6767 624.966 70.5154 625.078Q70.3541 625.19 70.1875 625.294Q70.0209 625.397 69.8494 625.493Q69.678 625.588 69.502 625.675Q69.326 625.762 69.146 625.84Q68.966 625.918 68.7824 625.987Q68.5988 626.056 68.412 626.117Q68.2252 626.177 68.0357 626.228L15.3652 640.372Q15.1754 640.423 14.9834 640.465Q14.7913 640.506 14.5975 640.538Q14.4036 640.57 14.2084 640.593Q14.0132 640.615 13.8171 640.628Q13.621 640.641 13.4245 640.645Q13.2281 640.648 13.0317 640.642Q12.8353 640.635 12.6394 640.619Q12.4436 640.603 12.2487 640.578Q12.0539 640.552 11.8606 640.517Q11.6672 640.482 11.4759 640.437Q11.2845 640.392 11.0955 640.339Q10.9066 640.285 10.7205 640.221Q10.5344 640.158 10.3516 640.086Q10.1689 640.014 9.98988 639.933Q9.81089 639.852 9.63609 639.762Q9.46129 639.672 9.29112 639.574Q9.12094 639.476 8.95579 639.369Q8.79064 639.263 8.63093 639.148Q8.47121 639.034 8.3173 638.912Q8.16339 638.79 8.01567 638.66Q7.86795 638.53 7.72677 638.394Q7.58559 638.257 7.45129 638.114Q7.31699 637.97 7.1899 637.82Q7.06281 637.67 6.94323 637.514Q6.82365 637.359 6.71187 637.197Q6.60009 637.035 6.49638 636.868Q6.39267 636.701 6.29728 636.53Q6.20189 636.358 6.11505 636.182Q6.02821 636.005 5.95014 635.825Q5.87206 635.645 5.80293 635.461Q5.7338 635.277 5.67379 635.09Q5.61377 634.903 5.56302 634.713L2.08963 621.721Q2.03895 621.532 1.99762 621.34Q1.9563 621.148 1.92443 620.954Q1.89256 620.761 1.87022 620.566Q1.84788 620.371 1.83513 620.175Q1.82237 619.979 1.81924 619.783Q1.8161 619.587 1.82259 619.391Q1.82908 619.195 1.84517 618.999Q1.86127 618.803 1.88694 618.609Q1.9126 618.414 1.94778 618.221Q1.98295 618.028 2.02755 617.837Q2.07215 617.646 2.12606 617.457Q2.17997 617.269 2.24307 617.083Q2.30617 616.897 2.37831 616.715Q2.45044 616.532 2.53144 616.353Q2.61243 616.175 2.70209 616Q2.79176 615.826 2.88987 615.656Q2.98798 615.486 3.09431 615.321Q3.20063 615.156 3.31492 614.996Q3.42921 614.837 3.55117 614.683Q3.67314 614.529 3.8025 614.382Q3.93186 614.234 4.0683 614.093Q4.20474 613.952 4.34793 613.818Q4.49112 613.684 4.64072 613.557Q4.79031 613.43 4.94595 613.31Q5.1016 613.191 5.26291 613.079Q5.42423 612.968 5.59082 612.864Q5.75742 612.76 5.92891 612.665Q6.10039 612.569 6.27634 612.483Q6.45229 612.396 6.63229 612.318Q6.81229 612.239 6.99591 612.17Q7.17952 612.101 7.36631 612.041Q7.5531 611.981 7.74261 611.93L60.4132 597.785Q60.6029 597.734 60.795 597.693Q60.987 597.651 61.1809 597.619Q61.3748 597.587 61.57 597.565Q61.7652 597.542 61.9613 597.529Q62.1574 597.516 62.3538 597.513Q62.5503 597.509 62.7467 597.516Q62.9431 597.522 63.139 597.538Q63.3348 597.554 63.5296 597.58Q63.7245 597.605 63.9178 597.641Q64.1111 597.676 64.3025 597.72Q64.4939 597.765 64.6829 597.819Q64.8718 597.873 65.0579 597.936Q65.244 597.999 65.4267 598.071Q65.6095 598.143 65.7885 598.224Q65.9675 598.305 66.1423 598.395Q66.3171 598.485 66.4873 598.583Q66.6574 598.682 66.8226 598.788Q66.9877 598.894 67.1474 599.009Q67.3072 599.123 67.4611 599.246Q67.615 599.368 67.7627 599.497Q67.9104 599.627 68.0516 599.764Q68.1928 599.9 68.3271 600.044Q68.4614 600.187 68.5885 600.337Q68.7156 600.487 68.8352 600.643Q68.9547 600.799 69.0665 600.96Q69.1783 601.122 69.282 601.289Q69.3857 601.456 69.4811 601.628Q69.5765 601.799 69.6633 601.976Q69.7502 602.152 69.8283 602.332Q69.9063 602.513 69.9754 602.697Q70.0446 602.881 70.1046 603.068Q70.1646 603.255 70.2154 603.445Z" id="Rectangle-2-Copy-8" fill="#020218" fill-rule="evenodd" stroke="none" />
      </g>
    </g>
  </g>
</svg>