<?xml version="1.0" encoding="utf-8"?>
<svg width="336px" height="320px" viewBox="0 0 336 320" version="1.1" xmlns:xlink="http://www.w3.org/1999/xlink" xmlns="http://www.w3.org/2000/svg">
  <defs>
    <path d="M0 0L336 0L336 320L0 320L0 0Z" id="path_1" />
    <clipPath id="clip_1">
      <use xlink:href="#path_1" />
    </clipPath>
  </defs>
  <g id="candor" clip-path="url(#clip_1)">
    <path d="M0 0L336 0L336 320L0 320L0 0Z" id="candor" fill="none" fill-rule="evenodd" stroke="none" />
    <g id="Mask-Group">
      <path d="M0 0L336 0L336 320L0 320L0 0Z" id="artboard_1" fill="none" fill-rule="evenodd" stroke="none" />
      <g clip-path="url(#clip_1)">
        <g id="Artboard">
          <path d="M0 0L336 0L336 320L0 320L0 0Z" id="artboard_1" fill="#FFFFFF" fill-opacity="0" fill-rule="evenodd" stroke="none" />
          <path d="M62.2582 197.8C62.2582 197.8 39.4975 172.589 30.4974 144.589C21.4974 116.589 26.2582 85.8 26.2582 85.8C26.2582 85.8 33.1229 64.4665 49.6229 48.9665C66.1229 33.4665 92.2582 29.8 92.2582 29.8C92.2582 29.8 123.389 25.7076 143.889 35.7076C164.389 45.7076 174.258 63.8 174.258 63.8C174.258 63.8 190.442 44.8681 211.942 34.8681C233.442 24.8681 275.029 29.767 286.658 39.7999C298.287 49.8329 321.608 63.15 325.658 103.8C329.708 144.45 291.658 195.2 291.658 195.2C291.658 195.2 269.129 225.524 243.778 250.674C218.428 275.823 190.258 295.8 190.258 295.8C190.258 295.8 181.241 301 174.741 301C168.241 301 162.258 294.6 162.258 294.6L237.258 220.8C237.258 220.8 238.383 209.726 234.233 204.726C230.083 199.726 220.658 200.8 220.658 200.8L193.058 230L185.758 222.2L238.258 168.6C238.258 168.6 238.304 157.311 234.179 153.311C230.054 149.311 220.158 151.8 220.158 151.8L167.758 202.3L160.258 196.3L224.758 130.3C224.758 130.3 225.085 120.048 220.585 116.173C216.085 112.298 206.758 114.8 206.758 114.8L143.258 178.8L135.758 171.8L186.258 120.8C186.258 120.8 187.991 110.203 183.991 105.578C179.991 100.953 170.258 102.3 170.258 102.3L88.5582 183.4L87.6581 134.5C87.6581 134.5 87.8427 129.07 81.7927 126.97C75.7428 124.87 63.4582 126.1 63.4582 126.1L62.2582 197.8L62.2582 197.8Z" id="Vector" fill="#3C174D" fill-rule="evenodd" stroke="#3C174D" stroke-width="1" />
        </g>
      </g>
    </g>
  </g>
</svg>