<?xml version="1.0" encoding="utf-8"?>
<svg width="412px" height="448px" viewBox="0 0 412 448" version="1.1" xmlns:xlink="http://www.w3.org/1999/xlink" xmlns="http://www.w3.org/2000/svg">
  <defs>
    <path d="M195.817 63.7186C185.265 50.0827 187.274 30.0772 200.305 19.0352C213.336 7.99305 232.454 10.0957 243.007 23.7316C253.559 37.3674 251.55 57.3729 238.519 68.415C225.488 79.4571 206.369 77.3544 195.817 63.7186Z" id="path_1" />
    <path d="M125.135 24.4347C135.226 10.4218 154.262 7.62221 167.654 18.1817C181.045 28.7412 183.72 48.6611 173.629 62.674C163.538 76.6869 144.502 79.4865 131.11 68.927C117.719 58.3675 115.044 38.4476 125.135 24.4347Z" id="path_2" />
    <path d="M142.192 28.2545C152.284 14.2415 171.32 11.442 184.711 22.0015C198.103 32.561 200.778 52.4809 190.687 66.4938C180.596 80.5067 161.559 83.3063 148.168 72.7468C134.777 62.1873 132.101 42.2674 142.192 28.2545Z" id="path_3" />
    <path d="M142.193 29.4521C152.284 15.4392 171.321 12.6396 184.712 23.1991C198.103 33.7586 200.779 53.6785 190.688 67.6914C180.596 81.7043 161.56 84.5039 148.169 73.9444C134.777 63.3849 132.102 43.465 142.193 29.4521Z" id="path_4" />
    <path d="M142.193 30.3914C152.284 16.3785 171.321 13.5789 184.712 24.1384C198.103 34.6979 200.779 54.6178 190.688 68.6307C180.597 82.6436 161.56 85.4432 148.169 74.8837C134.777 64.3242 132.102 44.4043 142.193 30.3914Z" id="path_5" />
    <path d="M142.193 28.2283C152.284 14.2153 171.321 11.4158 184.712 21.9753C198.104 32.5348 200.779 52.4546 190.688 66.4676C180.597 80.4805 161.56 83.28 148.169 72.7206C134.778 62.1611 132.102 42.2412 142.193 28.2283Z" id="path_6" />
    <path d="M188.572 223.638C188.572 206.093 202.165 191.869 218.933 191.869C235.7 191.869 249.294 206.093 249.294 223.638C249.294 241.183 235.7 255.407 218.933 255.407C202.165 255.407 188.572 241.183 188.572 223.638Z" id="path_7" />
    <rect width="412" height="448" id="artboard_1" />
    <clipPath id="clip_1">
      <use xlink:href="#artboard_1" clip-rule="evenodd" />
    </clipPath>
    <clipPath id="clip_2">
      <use xlink:href="#path_1" />
    </clipPath>
    <clipPath id="clip_3">
      <use xlink:href="#path_2" />
    </clipPath>
    <clipPath id="clip_4">
      <use xlink:href="#path_3" />
    </clipPath>
    <clipPath id="clip_5">
      <use xlink:href="#path_4" />
    </clipPath>
    <clipPath id="clip_6">
      <use xlink:href="#path_5" />
    </clipPath>
    <clipPath id="clip_7">
      <use xlink:href="#path_6" />
    </clipPath>
    <clipPath id="clip_8">
      <use xlink:href="#path_7" />
    </clipPath>
  </defs>
  <g id="Artboard" clip-path="url(#clip_1)">
    <use xlink:href="#artboard_1" stroke="none" fill="#FFFFFF" fill-opacity="0" />
    <g id="Group-5" transform="translate(-21.845764 1.3741455)" artboard="e4c7edda-5e7a-49ad-b5fd-49a8f0e50a8b">
      <path d="M219.557 223.25L218.933 68.557" id="Vector" fill="none" fill-rule="evenodd" stroke="#040A2E" stroke-width="11" />
      <g id="Oval-Copy">
        <g clip-path="url(#clip_2)">
          <use xlink:href="#path_1" fill="none" stroke="#040A2E" stroke-width="20" />
        </g>
      </g>
      <g id="Group" transform="matrix(0.88294756 -0.46947157 0.46947157 0.88294756 200.58911 142.82764)">
        <path d="M3.06048e-05 81.4039L125.808 52.2881" id="Vector-Copy" fill="none" fill-rule="evenodd" stroke="#040A2E" stroke-width="11" />
        <g id="Oval-Copy-2">
          <g clip-path="url(#clip_3)">
            <use xlink:href="#path_2" fill="none" stroke="#040A2E" stroke-width="20" />
          </g>
        </g>
      </g>
      <g id="Group-Copy" transform="matrix(-0.88294756 -0.4694716 -0.4694716 0.88294756 254.38873 147.62117)">
        <path d="M7.62939e-06 90.9542L142.999 56.11" id="Vector-Copy" fill="none" fill-rule="evenodd" stroke="#040A2E" stroke-width="11" />
        <g id="Oval-Copy-2">
          <g clip-path="url(#clip_4)">
            <use xlink:href="#path_3" fill="none" stroke="#040A2E" stroke-width="20" />
          </g>
        </g>
      </g>
      <g id="Group-Copy-3" transform="matrix(0.89100647 0.4539906 0.4539906 -0.89100647 183.98132 313.55255)">
        <path d="M-7.62939e-06 92.1529L144.586 56.6249" id="Vector-Copy" fill="none" fill-rule="evenodd" stroke="#040A2E" stroke-width="11" />
        <g id="Oval-Copy-2">
          <g clip-path="url(#clip_5)">
            <use xlink:href="#path_4" fill="none" stroke="#040A2E" stroke-width="20" />
          </g>
        </g>
      </g>
      <g id="Group-Copy-4" transform="matrix(0.24192186 0.9702957 0.9702957 -0.24192186 131.01793 246.51842)">
        <path d="M6.86646e-05 93.0922L142.022 54.1593" id="Vector-Copy" fill="none" fill-rule="evenodd" stroke="#040A2E" stroke-width="11" />
        <g id="Oval-Copy-2">
          <g clip-path="url(#clip_6)">
            <use xlink:href="#path_5" fill="none" stroke="#040A2E" stroke-width="20" />
          </g>
        </g>
      </g>
      <g id="Group-Copy-2" transform="matrix(-0.5591929 0.82903755 0.82903755 0.5591929 141.49225 176.3569)">
        <path d="M3.05176e-05 90.9289L140.699 54.3906" id="Vector-Copy" fill="none" fill-rule="evenodd" stroke="#040A2E" stroke-width="11" />
        <g id="Oval-Copy-2">
          <g clip-path="url(#clip_7)">
            <use xlink:href="#path_6" fill="none" stroke="#040A2E" stroke-width="20" />
          </g>
        </g>
      </g>
      <g id="Oval">
        <use stroke="none" fill="#040A2E" xlink:href="#path_7" fill-rule="evenodd" />
        <g clip-path="url(#clip_8)">
          <use xlink:href="#path_7" fill="none" stroke="#040A2E" stroke-width="20" />
        </g>
      </g>
    </g>
  </g>
</svg>