<?xml version="1.0" encoding="utf-8"?>
<svg width="329px" height="315px" viewBox="0 0 329 315" version="1.1" xmlns:xlink="http://www.w3.org/1999/xlink" xmlns="http://www.w3.org/2000/svg">
  <defs>
    <path d="M0 0L329 0L329 315L0 315L0 0Z" id="path_1" />
    <path d="M169.774 162.43C169.774 162.43 176.097 163.118 190.375 157.866C204.653 152.613 226.885 141.42 226.885 141.42C226.885 141.42 241.355 152.075 254.836 156.039C268.317 160.004 277 160.527 277 160.527C277 160.527 275.151 201.961 262.135 229.08C249.119 256.198 224.937 269 224.937 269C224.937 269 196.451 244.775 182.661 218.133C168.87 191.49 169.774 162.43 169.774 162.43Z" id="path_2" />
    <path d="M58.1973 182.019C58.1973 182.019 58.4341 210.531 60.0419 219.369C61.6497 228.207 118.561 268.442 186.487 247.9" id="path_3" />
    <path d="M58.2567 143.958L58.1972 186.505C58.1972 186.505 107.831 221.287 160.524 213.736" id="path_4" />
    <path d="M242.958 130.033L242.988 95.7475C242.988 95.7475 215.234 126.185 157.612 127.987C99.9902 129.788 58.1972 96.458 58.1972 96.458L58.1972 143.988C58.1972 143.988 102.602 176.642 148.158 173.153" id="path_5" />
    <path d="M52.538 86.8668C52.538 63.7444 96.4141 45 150.538 45C204.662 45 248.538 63.7444 248.538 86.8668C248.538 109.989 204.662 128.734 150.538 128.734C96.4141 128.734 52.538 109.989 52.538 86.8668Z" id="path_6" />
    <clipPath id="clip_1">
      <use xlink:href="#path_1" />
    </clipPath>
    <clipPath id="clip_2">
      <use xlink:href="#path_2" />
    </clipPath>
    <clipPath id="clip_3">
      <use xlink:href="#path_3" />
    </clipPath>
    <clipPath id="clip_4">
      <use xlink:href="#path_4" />
    </clipPath>
    <clipPath id="clip_5">
      <use xlink:href="#path_5" />
    </clipPath>
    <clipPath id="clip_6">
      <use xlink:href="#path_6" />
    </clipPath>
  </defs>
  <g id="Frame" clip-path="url(#clip_1)">
    <path d="M0 0L329 0L329 315L0 315L0 0Z" id="Frame" fill="#FFFFFF" fill-opacity="0" fill-rule="evenodd" stroke="none" />
    <g id="Vector-3">
      <g clip-path="url(#clip_2)">
        <use xlink:href="#path_2" fill="none" stroke="#3C174D" stroke-width="22" />
      </g>
    </g>
    <g id="Vector-2-Copy">
      <g clip-path="url(#clip_3)">
        <use xlink:href="#path_3" fill="none" stroke="#3C174D" stroke-width="22" />
      </g>
    </g>
    <g id="Vector-2">
      <g clip-path="url(#clip_4)">
        <use xlink:href="#path_4" fill="none" stroke="#3C174D" stroke-width="22" />
      </g>
    </g>
    <g id="Vector">
      <g clip-path="url(#clip_5)">
        <use xlink:href="#path_5" fill="none" stroke="#3C174D" stroke-width="22" />
      </g>
    </g>
    <g id="Oval">
      <g clip-path="url(#clip_6)">
        <use xlink:href="#path_6" fill="none" stroke="#3C174D" stroke-width="22" />
      </g>
    </g>
  </g>
</svg>