<?xml version="1.0" encoding="utf-8"?>
<svg width="452px" height="446px" viewBox="0 0 452 446" version="1.1" xmlns:xlink="http://www.w3.org/1999/xlink" xmlns="http://www.w3.org/2000/svg">
  <defs>
    <path d="M0 0L452 0L452 446L0 446L0 0Z" id="path_1" />
    <clipPath id="mask_1">
      <use xlink:href="#path_1" />
    </clipPath>
  </defs>
  <g id="inclusive">
    <g id="Mask-Group">
      <path d="M0 0L452 0L452 446L0 446L0 0Z" id="artboard_1" fill="none" fill-rule="evenodd" stroke="none" />
      <g clip-path="url(#mask_1)">
        <g id="Artboard">
          <path d="M0 0L452 0L452 446L0 446L0 0Z" id="artboard_1" fill="#FFFFFF" fill-opacity="0" fill-rule="evenodd" stroke="none" />
          <path d="M187.291 339.185C187.291 339.185 159.464 285.976 166.442 257.316C173.42 228.655 189.001 220.933 212.961 221.187C236.921 221.442 256.874 228.223 263.628 257.519C270.382 286.815 240.424 339.185 240.424 339.185L243.339 359.221C243.339 359.221 267.092 368.686 288.67 382.67C310.248 396.654 329.652 415.157 329.652 415.157C329.652 415.157 283.876 420.449 230.07 420.958C176.265 421.466 114.43 417.19 114.43 417.19C114.43 417.19 121.673 401.389 139.888 386.896C158.104 372.404 187.291 359.221 187.291 359.221L187.291 339.185L187.291 339.185ZM270.241 250.634C270.241 250.634 292.8 227.934 312.837 229.114C332.874 230.294 354.873 247.624 354.873 247.624L353.752 302.034L334.696 328.984L336.938 351.359C336.938 351.359 372.5 368.266 387.829 381.055C403.158 393.844 398.253 402.514 398.253 402.514L330.212 402.718C330.212 402.718 316.107 390.631 295.397 379.088C274.688 367.545 247.374 356.545 247.374 356.545L245.805 345.358L258.808 313.831C258.808 313.831 267.468 307.262 269.43 301.185C271.392 295.108 270.241 285.863 270.241 285.863L270.241 250.634L270.241 250.634ZM81.6983 252.912C87.5553 242.691 97.1113 228.656 117.568 226.877C138.026 225.097 155.737 239.462 160.837 251.895C165.937 264.328 164.872 301.017 164.872 301.017L177.875 326.543C177.875 326.543 187.373 338.069 187.065 347.07C186.756 356.07 176.642 362.546 176.642 362.546C176.642 362.546 158.014 368.224 143.021 377.886C128.028 387.547 116.672 401.192 116.672 401.192L36.3 399.158C36.3 399.158 49.8074 378.665 65.7809 367.733C81.7543 356.8 99.2972 353.393 99.2972 353.393L100.979 329.595C100.979 329.595 86.4062 314.187 81.5862 295.017C76.7661 275.846 75.8414 263.133 81.6983 252.912L81.6983 252.912Z" id="Group" fill="none" stroke="#040A2E" stroke-width="18" />
          <path d="M130.123 55.6768L130.123 126.868L173.333 126.868C173.333 126.868 174.034 134.2 166.034 147.803C158.034 161.405 141.333 181.278 141.333 181.278C141.333 181.278 170.921 168.508 186.755 157.957C202.588 147.405 210.405 131.782 210.405 131.782L305.551 126.868L304.403 31L142.198 36.4023L130.123 55.6768L130.123 55.6768Z" id="Vector#1" fill="none" fill-rule="evenodd" stroke="#040A2E" stroke-width="13" />
        </g>
      </g>
    </g>
  </g>
</svg>