<?xml version="1.0" encoding="utf-8"?>
<svg width="452px" height="446px" viewBox="0 0 452 446" version="1.1" xmlns:xlink="http://www.w3.org/1999/xlink" xmlns="http://www.w3.org/2000/svg">
  <defs>
    <rect width="452" height="446" id="artboard_1" />
    <clipPath id="clip_1">
      <use xlink:href="#artboard_1" clip-rule="evenodd" />
    </clipPath>
  </defs>
  <g id="Artboard" clip-path="url(#clip_1)">
    <use xlink:href="#artboard_1" stroke="none" fill="#FFFFFF" fill-opacity="0" />
    <g id="Group" transform="translate(36.299988 221.18134)" artboard="cac97cd3-15c6-4b6b-809d-41313baf0eba">
      <path d="M150.991 118.004C150.991 118.004 123.164 64.7948 130.142 36.1343C137.12 7.47375 152.701 -0.248222 176.661 0.0060323C200.621 0.260286 220.574 7.04165 227.328 36.3378C234.082 65.634 204.124 118.004 204.124 118.004L207.039 138.04C207.039 138.04 230.792 147.505 252.37 161.489C273.948 175.473 293.352 193.976 293.352 193.976C293.352 193.976 247.576 199.268 193.77 199.777C139.965 200.285 78.1299 196.009 78.1299 196.009C78.1299 196.009 85.373 180.208 103.588 165.715C121.804 151.223 150.991 138.04 150.991 138.04L150.991 118.004Z" id="Vector" fill="none" fill-rule="evenodd" stroke="#143D34" stroke-width="18" />
      <path d="M233.941 29.4527C233.941 29.4527 256.5 6.75297 276.537 7.93269C296.574 9.11242 318.573 26.4422 318.573 26.4422L317.452 80.8525L298.396 107.803L300.638 130.178C300.638 130.178 336.2 147.085 351.529 159.874C366.858 172.663 361.953 181.333 361.953 181.333L293.912 181.537C293.912 181.537 279.807 169.45 259.097 157.907C238.388 146.364 211.074 135.364 211.074 135.364L209.505 124.177L222.508 92.6499C222.508 92.6499 231.168 86.0805 233.13 80.0038C235.092 73.9271 233.941 64.6819 233.941 64.6819L233.941 29.4527Z" id="Vector-2" fill="none" fill-rule="evenodd" stroke="#143D34" stroke-width="18" />
      <path d="M45.3983 31.7307C51.2553 21.5098 60.8113 7.47502 81.2685 5.69525C101.726 3.91547 119.437 18.2805 124.537 30.7136C129.637 43.1466 128.572 79.8355 128.572 79.8355L141.575 105.362C141.575 105.362 151.073 116.888 150.765 125.889C150.456 134.889 140.342 141.365 140.342 141.365C140.342 141.365 121.714 147.043 106.721 156.705C91.7284 166.366 80.3718 180.011 80.3718 180.011L0 177.977C0 177.977 13.5074 157.484 29.4809 146.552C45.4543 135.619 62.9972 132.212 62.9972 132.212L64.6786 108.414C64.6786 108.414 50.1062 93.0059 45.2862 73.8352C40.4661 54.6645 39.5414 41.9517 45.3983 31.7307Z" id="Vector-3" fill="none" fill-rule="evenodd" stroke="#143D34" stroke-width="18" />
    </g>
    <path d="M130.123 55.6768L130.123 126.868L173.333 126.868C173.333 126.868 174.034 134.2 166.034 147.803C158.034 161.405 141.333 181.278 141.333 181.278C141.333 181.278 170.921 168.508 186.755 157.957C202.588 147.405 210.405 131.782 210.405 131.782L305.551 126.868L304.403 31L142.198 36.4023L130.123 55.6768Z" id="Vector" fill="none" fill-rule="evenodd" stroke="#143D34" stroke-width="13" artboard="cf03b9ec-d3f0-4f2a-9b78-0d1071728f81" />
  </g>
</svg>