<?xml version="1.0" encoding="utf-8"?>
<svg width="529px" height="522px" viewBox="0 0 529 522" version="1.1" xmlns:xlink="http://www.w3.org/1999/xlink" xmlns="http://www.w3.org/2000/svg">
  <defs>
    <path d="M0 0L529 0L529 522L0 522L0 0Z" id="path_1" />
    <clipPath id="clip_1">
      <use xlink:href="#path_1" />
    </clipPath>
  </defs>
  <g id="initiative" clip-path="url(#clip_1)">
    <path d="M0 0L529 0L529 522L0 522L0 0Z" id="initiative" fill="none" fill-rule="evenodd" stroke="none" />
    <g id="Mask-Group">
      <path d="M0 0L529 0L529 522L0 522L0 0Z" id="artboard_1" fill="none" fill-rule="evenodd" stroke="none" />
      <g clip-path="url(#clip_1)">
        <g id="Artboard">
          <path d="M0 0L529 0L529 522L0 522L0 0Z" id="artboard_1" fill="#FFFFFF" fill-opacity="0" fill-rule="evenodd" stroke="none" />
          <g id="Group" transform="translate(33.904022 40.5)">
            <path d="M75.5599 127.644C64.8829 134.909 32.096 217.5 32.096 217.5C32.096 217.5 25.9474 268.647 18.9475 299.397C11.9475 330.147 0 340.5 0 340.5L126.68 450.916L154.096 428.5C154.096 428.5 207.356 416.173 250.606 392.173C293.856 368.173 324.024 330.452 324.024 330.452C324.024 330.452 291.187 360.908 246.845 355.718C202.503 350.528 204 295.356 204 295.356C204 295.356 188.192 279.357 182.716 260.643C177.24 241.929 186.192 224.084 186.192 224.084L170.668 211.608C170.668 211.608 179.347 256.355 172.823 286.474C166.299 316.593 139.74 341.326 133.308 321.332C130.288 311.946 152.599 294.766 156.478 269.945C159.038 243.321 151.777 204.369 147.608 201.38C143.439 198.392 134.81 218.567 134.81 218.567C127.302 227.515 117.28 237.631 113.596 232.512C110.189 227.778 111.4 218.533 117.053 208.224L135.472 182.884C135.472 182.884 152.323 184.348 163.854 186.877C175.385 189.406 181.596 193 181.596 193C181.596 193 190.768 204.878 199.893 211.378C209.018 217.878 218.096 219 218.096 219C218.096 219 236.317 218.49 245.567 212.49C254.817 206.49 255.096 195 255.096 195L240.679 179.157C218.813 158.994 179.859 126.433 169.012 122.904C153.056 117.713 86.2369 120.379 75.5599 127.644L75.5599 127.644Z" id="Vector" fill="#3C174D" fill-rule="evenodd" stroke="none" />
            <path d="M264.096 111.5C264.096 111.5 264.661 127.411 259.911 138.911C255.161 150.411 245.096 157.5 245.096 157.5L275.776 192.58L299.096 165C299.096 165 303.862 142.256 295.112 128.881C286.362 115.506 264.096 111.5 264.096 111.5L264.096 111.5Z" id="Vector-3" fill="#3C174D" fill-rule="evenodd" stroke="none" />
            <path d="M202.096 233.5C202.096 233.5 227.734 244.794 255.734 229.794C283.734 214.794 316.337 173.5 316.337 173.5C316.337 173.5 324.396 180.137 327.461 191.137C330.526 202.137 326.676 223.26 326.676 223.26L245.596 285C245.596 285 213.138 289.236 202.583 268.36C192.028 247.485 202.096 233.5 202.096 233.5L202.096 233.5Z" id="Vector-4" fill="#3C174D" fill-rule="evenodd" stroke="none" />
            <path d="M222.096 301.5L252.136 303.78C252.136 303.78 282.564 284.851 304.939 267.101C327.314 249.351 342.596 231.5 342.596 231.5C342.596 231.5 353.441 238.143 355.691 250.143C357.941 262.143 351.596 279.5 351.596 279.5L278.836 336.72C278.836 336.72 252.462 345.984 238.837 336.859C225.212 327.734 222.096 301.5 222.096 301.5L222.096 301.5Z" id="Vector-5" fill="#3C174D" fill-rule="evenodd" stroke="none" />
            <path d="M137.396 16L253.396 0L275.896 59.5L378.396 57.5L359.396 150.5L456.896 177L397.896 263.5C397.896 263.5 460.474 298.333 463.896 300" id="Vector-6" fill="none" fill-rule="evenodd" stroke="#3C174D" stroke-width="16" />
          </g>
          <path d="M193 147C193 147 203.345 144.525 221.72 155.4C240.095 166.275 266.5 190.5 266.5 190.5C266.5 190.5 279.824 171.191 279.449 155.691C279.074 140.191 265 128.5 265 128.5C265 128.5 258.346 121.714 248.471 120.089C238.596 118.464 225.5 122 225.5 122C225.5 122 216.494 126.023 208.369 132.273C200.244 138.523 193 147 193 147L193 147Z" id="Vector-2" fill="#3C174D" fill-rule="evenodd" stroke="none" />
        </g>
      </g>
    </g>
  </g>
</svg>