<?xml version="1.0" encoding="utf-8"?>
<svg width="570px" height="643px" viewBox="0 0 570 643" version="1.1" xmlns:xlink="http://www.w3.org/1999/xlink" xmlns="http://www.w3.org/2000/svg">
  <defs>
    <linearGradient gradientUnits="userSpaceOnUse" x1="263.9584" y1="22.612785" x2="141.7256" y2="379.44397" id="gradient_1">
      <stop offset="0%" stop-color="#F1C77F" />
      <stop offset="19.287024%" stop-color="#B19258" />
      <stop offset="31.947231%" stop-color="#E2C484" />
      <stop offset="52.00685%" stop-color="#E1BE75" />
      <stop offset="68.92153%" stop-color="#B38F3C" />
      <stop offset="88.09407%" stop-color="#F5D79D" />
      <stop offset="100%" stop-color="#BE994C" />
    </linearGradient>
    <linearGradient gradientUnits="userSpaceOnUse" x1="164.00226" y1="378.7519" x2="241.16844" y2="50.579777" id="gradient_2">
      <stop offset="0%" stop-color="#DAB356" />
      <stop offset="19.111595%" stop-color="#CBA74E" />
      <stop offset="33.534874%" stop-color="#FBD67D" />
      <stop offset="46.95205%" stop-color="#DFBC6F" />
      <stop offset="63.35799%" stop-color="#CBA64E" />
      <stop offset="86.432556%" stop-color="#C5A24F" />
      <stop offset="100%" stop-color="#FFDA84" />
    </linearGradient>
    <linearGradient gradientUnits="userSpaceOnUse" x1="17.662296" y1="297.4663" x2="223.24127" y2="7.298923" id="gradient_3">
      <stop offset="0%" stop-color="#BF955B" />
      <stop offset="19.949432%" stop-color="#B08745" />
      <stop offset="40.712036%" stop-color="#A67F3A" />
      <stop offset="56.81947%" stop-color="#8E6428" />
      <stop offset="81.61996%" stop-color="#9A732E" />
      <stop offset="100%" stop-color="#AF8247" />
    </linearGradient>
    <linearGradient gradientUnits="userSpaceOnUse" x1="62.76258" y1="23.986082" x2="25.092474" y2="177.28378" id="gradient_4">
      <stop offset="0%" stop-color="#A57B31" />
      <stop offset="22.40246%" stop-color="#8A5E21" />
      <stop offset="63.64175%" stop-color="#7A5622" />
      <stop offset="100%" stop-color="#8E5F35" />
    </linearGradient>
    <linearGradient gradientUnits="userSpaceOnUse" x1="152.22821" y1="19.890764" x2="35.449722" y2="165.21004" id="gradient_5">
      <stop offset="0%" stop-color="#EFCA72" />
      <stop offset="16.76723%" stop-color="#CCA74F" />
      <stop offset="47.7845%" stop-color="#CA9B53" />
      <stop offset="70.898094%" stop-color="#DBB65D" />
      <stop offset="100%" stop-color="#95642A" />
    </linearGradient>
    <linearGradient gradientUnits="userSpaceOnUse" x1="104.402405" y1="11.700588" x2="29.114637" y2="116.94721" id="gradient_6">
      <stop offset="0%" stop-color="#DCAC6C" />
      <stop offset="26.28918%" stop-color="#F1CE70" />
      <stop offset="71.09405%" stop-color="#F1C984" />
      <stop offset="100%" stop-color="#D4A66B" />
    </linearGradient>
    <linearGradient gradientUnits="userSpaceOnUse" x1="3.2185528" y1="2.600126" x2="9.96276" y2="18.24909" id="gradient_7">
      <stop offset="0%" stop-color="#845829" stop-opacity="0.61960787" />
      <stop offset="100%" stop-color="#956735" stop-opacity="0.49019608" />
    </linearGradient>
    <linearGradient gradientUnits="userSpaceOnUse" x1="20.58755" y1="1.7203058" x2="3.2597833" y2="17.910332" id="gradient_8">
      <stop offset="0%" stop-color="#936529" stop-opacity="0.49019608" />
      <stop offset="41.38024%" stop-color="#8E5F28" stop-opacity="0.6509804" />
      <stop offset="69.60405%" stop-color="#906130" stop-opacity="0.65882355" />
      <stop offset="100%" stop-color="#906427" />
    </linearGradient>
    <linearGradient gradientUnits="userSpaceOnUse" x1="17.278334" y1="-1.7192643" x2="1.8671197" y2="24.97321" id="gradient_9">
      <stop offset="0%" stop-color="#895A2C" stop-opacity="0.61960787" />
      <stop offset="97.0297%" stop-color="#A26D37" stop-opacity="0.61960787" />
    </linearGradient>
    <linearGradient gradientUnits="userSpaceOnUse" x1="59.229954" y1="18.756063" x2="114.21695" y2="144.23438" id="gradient_10">
      <stop offset="0%" stop-color="#EDCA86" />
      <stop offset="18.62788%" stop-color="#F8D873" />
      <stop offset="41.193733%" stop-color="#E1BB66" />
      <stop offset="64.23683%" stop-color="#FDDA86" />
      <stop offset="89.92988%" stop-color="#F8D47C" />
      <stop offset="100%" stop-color="#D1B262" />
    </linearGradient>
    <linearGradient gradientUnits="userSpaceOnUse" x1="1.4170969" y1="12.667022" x2="7.994645" y2="4.6520925" id="gradient_11">
      <stop offset="0%" stop-color="#B9893D" stop-opacity="0.49803922" />
      <stop offset="100%" stop-color="#723F06" stop-opacity="0.16078432" />
    </linearGradient>
    <linearGradient gradientUnits="userSpaceOnUse" x1="2.9963076" y1="17.448566" x2="19.273024" y2="3.652029" id="gradient_12">
      <stop offset="0%" stop-color="#946D28" stop-opacity="0.4" />
      <stop offset="100%" stop-color="#8B5B19" stop-opacity="0.34901962" />
    </linearGradient>
    <linearGradient gradientUnits="userSpaceOnUse" x1="3.8496962" y1="2.0096488" x2="3.9977622" y2="46.919506" id="gradient_13">
      <stop offset="0%" stop-color="#F4DC9C" stop-opacity="0.25882354" />
      <stop offset="44.292988%" stop-color="#FFEDBF" stop-opacity="0.4392157" />
      <stop offset="100%" stop-color="#FFE4A1" stop-opacity="0.47058824" />
    </linearGradient>
    <linearGradient gradientUnits="userSpaceOnUse" x1="0" y1="0" x2="45.620224" y2="9.029526" id="gradient_14">
      <stop offset="0%" stop-color="#C19D45" />
      <stop offset="100%" stop-color="#DDC074" />
    </linearGradient>
    <linearGradient gradientUnits="userSpaceOnUse" x1="0" y1="0" x2="52.676544" y2="16.05574" id="gradient_15">
      <stop offset="0%" stop-color="#D7BA7E" stop-opacity="0.5882353" />
      <stop offset="100%" stop-color="#FFE3A7" stop-opacity="0.70980394" />
    </linearGradient>
    <linearGradient gradientUnits="userSpaceOnUse" x1="4.4878926" y1="8.293187" x2="28.015137" y2="2.0095997" id="gradient_16">
      <stop offset="0%" stop-color="#6A3C0A" stop-opacity="0.2901961" />
      <stop offset="100%" stop-color="#8B6222" stop-opacity="0.25882354" />
    </linearGradient>
    <linearGradient gradientUnits="userSpaceOnUse" x1="25.178768" y1="7.58682" x2="3.0824232" y2="44.570744" id="gradient_17">
      <stop offset="0%" stop-color="#EDD17D" stop-opacity="0.61960787" />
      <stop offset="97.0297%" stop-color="#DBC073" stop-opacity="0.6509804" />
    </linearGradient>
    <linearGradient gradientUnits="userSpaceOnUse" x1="25.0077" y1="5.1048183" x2="-5.027083" y2="35.59735" id="gradient_18">
      <stop offset="0%" stop-color="#E8C574" stop-opacity="0.8" />
      <stop offset="100%" stop-color="#D6B25C" stop-opacity="0.54901963" />
    </linearGradient>
    <linearGradient gradientUnits="userSpaceOnUse" x1="10.530348" y1="4.4661117" x2="5.456753" y2="32.113285" id="gradient_19">
      <stop offset="0%" stop-color="#F6D997" stop-opacity="0.7607843" />
      <stop offset="100%" stop-color="#ECEB8C" stop-opacity="0.4392157" />
    </linearGradient>
    <linearGradient gradientUnits="userSpaceOnUse" x1="0" y1="0" x2="7.5765076" y2="20.39032" id="gradient_20">
      <stop offset="0%" stop-color="#A87B38" stop-opacity="0.2901961" />
      <stop offset="100%" stop-color="#7D490F" stop-opacity="0.34901962" />
    </linearGradient>
    <linearGradient gradientUnits="userSpaceOnUse" x1="0" y1="0" x2="31.272995" y2="40.422348" id="gradient_21">
      <stop offset="0%" stop-color="#F2DA99" />
      <stop offset="100%" stop-color="#FFDEA6" />
    </linearGradient>
    <linearGradient gradientUnits="userSpaceOnUse" x1="0" y1="0" x2="22.53778" y2="8.029495" id="gradient_22">
      <stop offset="0%" stop-color="#A57D37" stop-opacity="0.16862746" />
      <stop offset="100%" stop-color="#6A4006" stop-opacity="0.18039216" />
    </linearGradient>
    <linearGradient gradientUnits="userSpaceOnUse" x1="4.170129" y1="18.405693" x2="37.57558" y2="2.0118535" id="gradient_23">
      <stop offset="0%" stop-color="#CFA66E" stop-opacity="0.4117647" />
      <stop offset="57.19048%" stop-color="#BD9943" stop-opacity="0.36078432" />
      <stop offset="99.0099%" stop-color="#C09755" stop-opacity="0.50980395" />
    </linearGradient>
    <linearGradient gradientUnits="userSpaceOnUse" x1="0" y1="14.108704" x2="46.88146" y2="1.6687136" id="gradient_24">
      <stop offset="0%" stop-color="#EBC972" />
      <stop offset="50.392105%" stop-color="#C6AE68" />
      <stop offset="100%" stop-color="#C9A74C" />
    </linearGradient>
    <linearGradient gradientUnits="userSpaceOnUse" x1="10.365853" y1="4.3064423" x2="2.4285712" y2="32.327026" id="gradient_25">
      <stop offset="0%" stop-color="#CDD69F" stop-opacity="0.23921569" />
      <stop offset="100%" stop-color="#F7DC8D" stop-opacity="0.43137255" />
    </linearGradient>
    <linearGradient gradientUnits="userSpaceOnUse" x1="0" y1="0" x2="12.3358" y2="33.21974" id="gradient_26">
      <stop offset="0%" stop-color="#F7E3AE" />
      <stop offset="100%" stop-color="#FAD384" />
    </linearGradient>
    <linearGradient gradientUnits="userSpaceOnUse" x1="263.9584" y1="22.612785" x2="141.7256" y2="379.44397" id="gradient_27">
      <stop offset="0%" stop-color="#B5B5B5" />
      <stop offset="19.287024%" stop-color="#7A7A7A" />
      <stop offset="31.947231%" stop-color="#DFDFDF" />
      <stop offset="52.00685%" stop-color="#E6E6E6" />
      <stop offset="68.92153%" stop-color="#BFBFBF" />
      <stop offset="87.623764%" stop-color="#F8F8F8" />
      <stop offset="100%" stop-color="#BEBEBE" />
    </linearGradient>
    <linearGradient gradientUnits="userSpaceOnUse" x1="164.00226" y1="378.7519" x2="241.16844" y2="50.579777" id="gradient_28">
      <stop offset="0%" stop-color="#DADADA" />
      <stop offset="19.111595%" stop-color="#C6C6C6" />
      <stop offset="33.534874%" stop-color="#FFFFFF" />
      <stop offset="46.95205%" stop-color="#DCDCDC" />
      <stop offset="63.35799%" stop-color="#CDCDCD" />
      <stop offset="84.653465%" stop-color="#CDCDCD" />
      <stop offset="100%" stop-color="#FFFFFF" />
    </linearGradient>
    <linearGradient gradientUnits="userSpaceOnUse" x1="17.662296" y1="297.4663" x2="223.24127" y2="7.298923" id="gradient_29">
      <stop offset="0%" stop-color="#CDCDCD" />
      <stop offset="19.949432%" stop-color="#AEAEAE" />
      <stop offset="40.712036%" stop-color="#9F9F9F" />
      <stop offset="56.81947%" stop-color="#909090" />
      <stop offset="81.61996%" stop-color="#999999" />
      <stop offset="100%" stop-color="#B4B4B4" />
    </linearGradient>
    <linearGradient gradientUnits="userSpaceOnUse" x1="152.22894" y1="19.890795" x2="35.449894" y2="165.2103" id="gradient_30">
      <stop offset="0%" stop-color="#EFEFEF" />
      <stop offset="16.76723%" stop-color="#C5C5C5" />
      <stop offset="47.7845%" stop-color="#C9C9C9" />
      <stop offset="70.898094%" stop-color="#D8D8D8" />
      <stop offset="100%" stop-color="#939393" />
    </linearGradient>
    <linearGradient gradientUnits="userSpaceOnUse" x1="62.76258" y1="23.98594" x2="25.092474" y2="177.28273" id="gradient_31">
      <stop offset="0%" stop-color="#A6A6A6" />
      <stop offset="22.40246%" stop-color="#858585" />
      <stop offset="63.64175%" stop-color="#828282" />
      <stop offset="100%" stop-color="#8B8B8B" />
    </linearGradient>
    <linearGradient gradientUnits="userSpaceOnUse" x1="104.4024" y1="11.700588" x2="29.114635" y2="116.94721" id="gradient_32">
      <stop offset="0%" stop-color="#D2D2D2" />
      <stop offset="26.28918%" stop-color="#F2F2F2" />
      <stop offset="71.09405%" stop-color="#EBEBEB" />
      <stop offset="100%" stop-color="#C5C5C5" />
    </linearGradient>
    <linearGradient gradientUnits="userSpaceOnUse" x1="3.2185528" y1="2.600126" x2="9.96276" y2="18.24909" id="gradient_33">
      <stop offset="0%" stop-color="#818181" stop-opacity="0.61960787" />
      <stop offset="100%" stop-color="#919191" stop-opacity="0.49019608" />
    </linearGradient>
    <linearGradient gradientUnits="userSpaceOnUse" x1="20.58755" y1="1.7203058" x2="3.2597833" y2="17.910332" id="gradient_34">
      <stop offset="0%" stop-color="#8C8C8C" stop-opacity="0.49019608" />
      <stop offset="41.38024%" stop-color="#919191" stop-opacity="0.6509804" />
      <stop offset="69.60405%" stop-color="#838383" stop-opacity="0.65882355" />
      <stop offset="100%" stop-color="#8D8D8D" />
    </linearGradient>
    <linearGradient gradientUnits="userSpaceOnUse" x1="17.278334" y1="-1.7192643" x2="2.3248782" y2="24.180365" id="gradient_35">
      <stop offset="0%" stop-color="#888888" stop-opacity="0.61960787" />
      <stop offset="100%" stop-color="#A0A0A0" stop-opacity="0.61960787" />
    </linearGradient>
    <linearGradient gradientUnits="userSpaceOnUse" x1="59.229954" y1="18.756063" x2="114.21695" y2="144.23438" id="gradient_36">
      <stop offset="0%" stop-color="#E9E9E9" />
      <stop offset="18.62788%" stop-color="#F5F5F5" />
      <stop offset="41.193733%" stop-color="#E1E1E1" />
      <stop offset="63.88432%" stop-color="#F7F7F7" />
      <stop offset="89.57855%" stop-color="#EFEFEF" />
      <stop offset="100%" stop-color="#C2C2C2" />
    </linearGradient>
    <linearGradient gradientUnits="userSpaceOnUse" x1="1.4170969" y1="12.667952" x2="7.994645" y2="4.652434" id="gradient_37">
      <stop offset="0%" stop-color="#BBBBBB" stop-opacity="0.49803922" />
      <stop offset="100%" stop-color="#636363" stop-opacity="0.16078432" />
    </linearGradient>
    <linearGradient gradientUnits="userSpaceOnUse" x1="2.9963076" y1="17.448566" x2="19.273024" y2="3.652029" id="gradient_38">
      <stop offset="0%" stop-color="#999999" stop-opacity="0.4" />
      <stop offset="100%" stop-color="#8D8D8D" stop-opacity="0.34901962" />
    </linearGradient>
    <linearGradient gradientUnits="userSpaceOnUse" x1="3.8496962" y1="2.0096488" x2="3.9977622" y2="46.919506" id="gradient_39">
      <stop offset="0%" stop-color="#EEEEEE" stop-opacity="0.25882354" />
      <stop offset="42.07921%" stop-color="#BDBDBD" stop-opacity="0.4392157" />
      <stop offset="100%" stop-color="#FAFAFA" stop-opacity="0.47058824" />
    </linearGradient>
    <linearGradient gradientUnits="userSpaceOnUse" x1="0" y1="0" x2="45.62024" y2="9.029526" id="gradient_40">
      <stop offset="0%" stop-color="#BBBBBB" />
      <stop offset="100%" stop-color="#D2D2D2" />
    </linearGradient>
    <linearGradient gradientUnits="userSpaceOnUse" x1="0" y1="0" x2="52.676544" y2="16.05574" id="gradient_41">
      <stop offset="0%" stop-color="#C3C3C3" stop-opacity="0.5882353" />
      <stop offset="100%" stop-color="#F5F5F5" stop-opacity="0.70980394" />
    </linearGradient>
    <linearGradient gradientUnits="userSpaceOnUse" x1="4.4878926" y1="8.293187" x2="28.015137" y2="2.0095997" id="gradient_42">
      <stop offset="0%" stop-color="#6F6F6F" stop-opacity="0.2901961" />
      <stop offset="100%" stop-color="#8B6222" stop-opacity="0.25882354" />
    </linearGradient>
    <linearGradient gradientUnits="userSpaceOnUse" x1="25.178768" y1="7.5868225" x2="3.73875" y2="43.47223" id="gradient_43">
      <stop offset="0%" stop-color="#E6E6E6" stop-opacity="0.61960787" />
      <stop offset="100%" stop-color="#CBCBCB" stop-opacity="0.6509804" />
    </linearGradient>
    <linearGradient gradientUnits="userSpaceOnUse" x1="25.0077" y1="5.1048183" x2="-5.027083" y2="35.59735" id="gradient_44">
      <stop offset="0%" stop-color="#E0E0E0" stop-opacity="0.8" />
      <stop offset="100%" stop-color="#D6D6D6" stop-opacity="0.54901963" />
    </linearGradient>
    <linearGradient gradientUnits="userSpaceOnUse" x1="10.530348" y1="4.4661155" x2="5.456753" y2="32.11331" id="gradient_45">
      <stop offset="0%" stop-color="#F6F6F6" stop-opacity="0.7607843" />
      <stop offset="100%" stop-color="#F0F0F0" stop-opacity="0.4392157" />
    </linearGradient>
    <linearGradient gradientUnits="userSpaceOnUse" x1="0" y1="0" x2="7.5765076" y2="20.39032" id="gradient_46">
      <stop offset="0%" stop-color="#9F9F9F" stop-opacity="0.2901961" />
      <stop offset="100%" stop-color="#767676" stop-opacity="0.34901962" />
    </linearGradient>
    <linearGradient gradientUnits="userSpaceOnUse" x1="0" y1="0" x2="31.272995" y2="40.42241" id="gradient_47">
      <stop offset="0%" stop-color="#F3F3F3" />
      <stop offset="100%" stop-color="#FFFFFF" />
    </linearGradient>
    <linearGradient gradientUnits="userSpaceOnUse" x1="4.170129" y1="18.405693" x2="37.57558" y2="2.0118535" id="gradient_48">
      <stop offset="0%" stop-color="#D5D5D5" stop-opacity="0.4117647" />
      <stop offset="54.950493%" stop-color="#BBBBBB" stop-opacity="0.36078432" />
      <stop offset="100%" stop-color="#BBBBBB" stop-opacity="0.50980395" />
    </linearGradient>
    <linearGradient gradientUnits="userSpaceOnUse" x1="0" y1="14.108704" x2="46.88146" y2="1.6687136" id="gradient_49">
      <stop offset="0%" stop-color="#E7E7E7" />
      <stop offset="50.392105%" stop-color="#C0C0C0" />
      <stop offset="100%" stop-color="#BCBCBC" />
    </linearGradient>
    <linearGradient gradientUnits="userSpaceOnUse" x1="10.365853" y1="4.3064423" x2="2.4285712" y2="32.327026" id="gradient_50">
      <stop offset="0%" stop-color="#B0B0B0" stop-opacity="0.23921569" />
      <stop offset="100%" stop-color="#DFDFDF" stop-opacity="0.43137255" />
    </linearGradient>
    <linearGradient gradientUnits="userSpaceOnUse" x1="0" y1="0" x2="12.3358" y2="33.21974" id="gradient_51">
      <stop offset="0%" stop-color="#F7F7F7" />
      <stop offset="100%" stop-color="#F8F8F8" />
    </linearGradient>
    <path d="M0 0L570 0L570 643L0 643L0 0Z" id="path_1" />
    <path d="M0 94.3058C0 42.2224 42.7901 0 95.574 0C148.358 0 191.148 42.2224 191.148 94.3058C191.148 146.39 148.358 188.611 95.574 188.611C42.7901 188.611 0 146.39 0 94.3058Z" id="path_2" />
    <path d="M115.072 217.852C115.072 180.389 145.635 150.019 183.338 150.019C221.043 150.019 251.607 180.389 251.607 217.852C251.607 255.316 221.043 285.687 183.338 285.687C145.635 285.687 115.072 255.316 115.072 217.852Z" id="path_3" />
    <path d="M79.2656 192.335C79.2656 184.111 86.477 177.445 95.3754 177.445C104.272 177.445 111.487 184.111 111.487 192.335C111.487 200.559 104.272 207.226 95.3754 207.226C86.477 207.226 79.2656 200.559 79.2656 192.335Z" id="path_4" />
    <path d="M165.992 130.179C165.992 121.956 172.869 115.289 181.351 115.289C189.836 115.289 196.712 121.956 196.712 130.179C196.712 138.403 189.836 145.069 181.351 145.069C172.869 145.069 165.992 138.403 165.992 130.179Z" id="path_5" />
    <path d="M254.631 193.437C254.631 184.811 262.054 177.818 271.214 177.818C280.375 177.818 287.799 184.811 287.799 193.437C287.799 202.062 280.375 209.054 271.214 209.054C262.054 209.054 254.631 202.062 254.631 193.437Z" id="path_6" />
    <path d="M220.684 293.153C220.684 284.781 227.895 277.994 236.793 277.994C245.692 277.994 252.905 284.781 252.905 293.153C252.905 301.525 245.692 308.311 236.793 308.311C227.895 308.311 220.684 301.525 220.684 293.153Z" id="path_7" />
    <path d="M116.035 294.863C116.035 286.238 123.459 279.245 132.62 279.245C141.78 279.245 149.203 286.238 149.203 294.863C149.203 303.49 141.78 310.481 132.62 310.481C123.459 310.481 116.035 303.49 116.035 294.863Z" id="path_8" />
    <path d="M158.959 218.894C158.959 205.199 170.191 194.097 184.049 194.097C197.902 194.097 209.135 205.199 209.135 218.894C209.135 232.59 197.902 243.691 184.049 243.691C170.191 243.691 158.959 232.59 158.959 218.894Z" id="path_9" />
    <path d="M88.668 218.733C88.668 166.65 131.459 124.428 184.241 124.428C237.026 124.428 279.817 166.65 279.817 218.733C279.817 270.818 237.026 313.04 184.241 313.04C131.459 313.04 88.668 270.818 88.668 218.733Z" id="path_10" />
    <path d="M115.07 217.852C115.07 180.389 145.633 150.019 183.338 150.019C221.042 150.019 251.605 180.389 251.605 217.852C251.605 255.316 221.042 285.687 183.338 285.687C145.633 285.687 115.07 255.316 115.07 217.852Z" id="path_11" />
    <path d="M79.2656 192.335C79.2656 184.111 86.479 177.445 95.3754 177.445C104.272 177.445 111.487 184.111 111.487 192.335C111.487 200.559 104.272 207.226 95.3754 207.226C86.479 207.226 79.2656 200.559 79.2656 192.335Z" id="path_12" />
    <path d="M165.99 130.18C165.99 121.956 172.869 115.289 181.351 115.289C189.834 115.289 196.71 121.956 196.71 130.18C196.71 138.402 189.834 145.069 181.351 145.069C172.869 145.069 165.99 138.402 165.99 130.18Z" id="path_13" />
    <path d="M254.631 193.436C254.631 184.811 262.056 177.818 271.214 177.818C280.373 177.818 287.799 184.811 287.799 193.436C287.799 202.062 280.373 209.054 271.214 209.054C262.056 209.054 254.631 202.062 254.631 193.436Z" id="path_14" />
    <path d="M220.684 293.154C220.684 284.781 227.895 277.994 236.795 277.994C245.692 277.994 252.905 284.781 252.905 293.154C252.905 301.526 245.692 308.311 236.795 308.311C227.895 308.311 220.684 301.526 220.684 293.154Z" id="path_15" />
    <path d="M114.277 293.945C114.277 285.321 121.703 278.328 130.862 278.328C140.02 278.328 147.445 285.321 147.445 293.945C147.445 302.573 140.02 309.564 130.862 309.564C121.703 309.564 114.277 302.573 114.277 293.945Z" id="path_16" />
    <path d="M158.959 218.071C158.959 204.375 170.191 193.273 184.047 193.273C197.902 193.273 209.135 204.375 209.135 218.071C209.135 231.766 197.902 242.868 184.047 242.868C170.191 242.868 158.959 231.766 158.959 218.071Z" id="path_17" />
    <clipPath id="clip_1">
      <use xlink:href="#path_1" />
    </clipPath>
    <clipPath id="clip_2">
      <use xlink:href="#path_2" />
    </clipPath>
    <clipPath id="clip_3">
      <use xlink:href="#path_3" />
    </clipPath>
    <clipPath id="clip_4">
      <use xlink:href="#path_4" />
    </clipPath>
    <clipPath id="clip_5">
      <use xlink:href="#path_5" />
    </clipPath>
    <clipPath id="clip_6">
      <use xlink:href="#path_6" />
    </clipPath>
    <clipPath id="clip_7">
      <use xlink:href="#path_7" />
    </clipPath>
    <clipPath id="clip_8">
      <use xlink:href="#path_8" />
    </clipPath>
    <clipPath id="clip_9">
      <use xlink:href="#path_9" />
    </clipPath>
    <clipPath id="clip_10">
      <use xlink:href="#path_10" />
    </clipPath>
    <clipPath id="clip_11">
      <use xlink:href="#path_11" />
    </clipPath>
    <clipPath id="clip_12">
      <use xlink:href="#path_12" />
    </clipPath>
    <clipPath id="clip_13">
      <use xlink:href="#path_13" />
    </clipPath>
    <clipPath id="clip_14">
      <use xlink:href="#path_14" />
    </clipPath>
    <clipPath id="clip_15">
      <use xlink:href="#path_15" />
    </clipPath>
    <clipPath id="clip_16">
      <use xlink:href="#path_16" />
    </clipPath>
    <clipPath id="clip_17">
      <use xlink:href="#path_17" />
    </clipPath>
  </defs>
  <g id="Frame" clip-path="url(#clip_1)">
    <path d="M0 0L570 0L570 643L0 643L0 0Z" id="Frame" fill="#FFFFFF" fill-opacity="0" fill-rule="evenodd" stroke="none" />
    <g id="Group-21" transform="translate(31 19)">
      <path d="M0 91.5388L36.7034 36.551L63.3967 38.168C63.3967 38.168 75.7019 18.9606 94.4697 12.4918C113.24 6.02293 138.47 12.2915 138.47 12.2915C138.47 12.2915 161.126 0 185.316 0C209.509 0 235.235 12.2915 235.235 12.2915C235.235 12.2915 257.04 5.46555 274.558 11.9344C292.075 18.4032 305.302 38.168 305.302 38.168L333.666 38.168L368.699 93.1569C368.699 93.1569 338.199 128.068 336.949 174.565C336.351 196.748 357.85 240.241 361.265 253.827C364.68 267.413 365.662 293.246 358.571 304.163C351.48 315.081 335.333 322.815 335.333 322.815C335.333 322.815 324.539 347.615 305.353 357.723C286.167 367.833 258.591 363.247 258.591 363.247C258.591 363.247 252.434 381.247 233.666 393.782C214.896 406.315 183.515 413.382 183.515 413.382C183.515 413.382 157.74 405.52 139.804 393.389C121.871 381.261 111.777 364.865 111.777 364.865C111.777 364.865 79.8226 361.676 63.1396 351.972C46.4566 342.267 45.0429 326.05 45.0429 326.05C45.0429 326.05 10.1877 315.258 7.67443 275.266C5.16117 235.273 36.577 216.7 34.9919 166.079C33.4068 115.458 0 91.5388 0 91.5388Z" id="Vector-13" fill="url(#gradient_1)" fill-rule="evenodd" stroke="#471D07" stroke-width="6" />
      <path d="M21.1895 96.2312L43.5905 59.0946L71.061 58.8966C71.061 58.8966 85.9958 39.1037 102.911 33.2723C119.825 27.4431 143.846 35.162 143.846 35.162C143.846 35.162 162.552 17.8746 184.354 17.8746C206.157 17.8746 231.047 35.162 231.047 35.162C231.047 35.162 250.7 29.0103 266.488 34.8406C282.273 40.6708 294.197 58.4821 294.197 58.4821L324.026 57.9647L349.191 99.7584C349.191 99.7584 316.9 135.879 315.774 177.782C315.237 197.773 337.797 240.45 342.339 257.564C346.884 274.68 347.308 290.429 340.919 300.267C334.527 310.105 319.123 313.35 319.123 313.35C319.123 313.35 311.531 337.355 294.24 346.466C276.949 355.576 252.1 351.445 252.1 351.445C252.1 351.445 246.549 367.666 229.635 378.962C212.72 390.256 184.439 396.627 184.439 396.627C184.439 396.627 162.063 391.197 145.902 380.265C129.737 369.334 119.788 352.902 119.788 352.902C119.788 352.902 89.7085 352.513 74.6759 343.767C59.6391 335.022 54.5228 315.851 54.5228 315.851C54.5228 315.851 27.3808 311.095 25.1144 275.053C22.852 239.013 53.7272 219.377 52.2972 173.755C50.8692 128.136 21.1895 96.2312 21.1895 96.2312Z" id="Vector-9-Copy-3" fill="url(#gradient_2)" fill-rule="evenodd" stroke="#531C07" stroke-width="7" />
      <path d="M48.8244 309.117C48.8244 309.117 38.0533 307.336 43.1247 270.701C48.1941 234.065 69.3018 229.118 69.3406 188.293C69.3773 147.47 39.9546 97.3291 39.9546 97.3291L55.2198 72.5598C55.2198 72.5598 70.5116 81.1001 82.576 74.1324C94.6426 67.1624 92.8412 55.4824 109.155 48.9962C125.469 42.5079 151.377 49.3263 151.377 49.3263C151.377 49.3263 165.65 32.1645 188.464 32.6115C211.277 33.0574 235.92 48.7906 235.92 48.7906C235.92 48.7906 246.989 44.4127 258.05 43.0718C269.11 41.7308 284.219 49.8631 284.219 49.8631C284.219 49.8631 276.438 37.9656 262.841 35.2858C249.247 32.605 231.309 37.1744 231.309 37.1744C231.309 37.1744 206.74 19.6608 185.079 19.6608C163.419 19.6608 145.404 37.1744 145.404 37.1744C145.404 37.1744 123.427 28.5193 105.224 34.5509C87.0171 40.5814 73.3206 60.765 73.3206 60.765L46.2602 60.8007L24.875 95.4708C24.875 95.4708 34.1671 107.093 41.1317 123.174C48.0962 139.256 49.6098 131.707 52.7351 159.795C54.2427 173.326 55.0097 189.537 52.831 198.901C46.3377 226.795 29.5201 240.869 28.9101 267.09C28.0941 302.117 48.8244 309.117 48.8244 309.117Z" id="Vector-16" fill="url(#gradient_3)" fill-rule="evenodd" stroke="none" />
      <path d="M213.143 129.912C213.143 129.912 248.039 139.315 268.31 161.253C288.583 183.192 291.745 217.395 288.202 233.022C284.658 248.65 278.653 271.239 254.138 294.549C229.62 317.86 196.17 310.904 196.17 310.904C196.17 310.904 238.328 298.398 257.729 271.143C277.127 243.888 273.747 241.281 275.576 203.054C277.404 164.826 213.143 129.912 213.143 129.912Z" id="Vector-17" fill="url(#gradient_4)" fill-rule="evenodd" stroke="none" />
      <g id="Group" transform="translate(88.666016 124.426025)">
        <g id="Oval-10">
          <use stroke="none" fill="url(#gradient_5)" xlink:href="#path_2" fill-rule="evenodd" />
          <g clip-path="url(#clip_2)">
            <use xlink:href="#path_2" fill="none" stroke="#4E240E" stroke-width="14" />
          </g>
        </g>
        <g id="Irving-Thao" fill="#757575" transform="translate(23.695312 23.427063)">
          <path d="M55.3287 67.4059Q55.5396 67.6062 55.8337 67.6062Q56.1277 67.6062 56.3386 67.4059Q56.5496 67.2056 56.5496 66.9244Q56.5496 66.6431 56.3386 66.4429Q56.1277 66.2426 55.8337 66.2426Q55.5396 66.2426 55.3287 66.4429Q55.1177 66.6431 55.1177 66.9244Q55.1177 67.2056 55.3287 67.4059ZM42.1973 75.2426L42.1973 66.5153L41.1405 66.5153L41.1405 75.2426L42.1973 75.2426ZM75.5382 67.4528L75.5382 66.5153L82.0837 66.5153L82.0837 67.4528L79.3393 67.4528L79.3393 75.2426L78.2825 75.2426L78.2825 67.4528L75.5382 67.4528ZM84.5893 75.2426L84.5893 71.3051Q84.5893 70.4485 85.0773 69.9819Q85.5652 69.5153 86.3109 69.5153Q87.0226 69.5153 87.4253 69.9436Q87.828 70.3718 87.828 71.1517L87.828 75.2426L88.8337 75.2426L88.8337 71.0835Q88.8337 69.8221 88.22 69.217Q87.6064 68.6119 86.6007 68.6119Q85.8294 68.6119 85.367 68.9123Q84.9047 69.2127 84.6746 69.7198L84.5893 69.7198L84.5893 66.5153L83.5837 66.5153L83.5837 75.2426L84.5893 75.2426ZM44.1746 68.6971L44.1746 75.2426L45.1802 75.2426L45.1802 71.1005Q45.1802 70.4358 45.649 70.0011Q46.1177 69.5664 46.8337 69.5664Q47.0339 69.5664 47.215 69.5941Q47.3962 69.6218 47.4473 69.6346L47.4473 68.6119Q47.3621 68.6034 47.1959 68.5991Q47.0297 68.5948 46.9189 68.5948Q46.3308 68.5948 45.8621 68.8974Q45.3933 69.2 45.2143 69.6858L45.1462 69.6858L45.1462 68.6971L44.1746 68.6971ZM59.1746 71.3051L59.1746 75.2426L58.1689 75.2426L58.1689 68.6971L59.1405 68.6971L59.1405 69.7198L59.2257 69.7198Q59.4558 69.2213 59.9246 68.9166Q60.3933 68.6119 61.1348 68.6119Q62.1277 68.6119 62.7392 69.2213Q63.3507 69.8306 63.3507 71.0835L63.3507 75.2426L62.345 75.2426L62.345 71.1517Q62.345 70.3804 61.9445 69.9478Q61.5439 69.5153 60.845 69.5153Q60.1248 69.5153 59.6497 69.9819Q59.1746 70.4485 59.1746 71.3051ZM66.1014 77.435Q66.7385 77.8335 67.8337 77.8335Q68.6177 77.8335 69.2591 77.5842Q69.9004 77.3349 70.2818 76.8044Q70.6632 76.2738 70.6632 75.4301L70.6632 68.6971L69.6916 68.6971L69.6916 69.7369L69.5893 69.7369Q69.4785 69.5664 69.2761 69.3001Q69.0737 69.0338 68.6966 68.8228Q68.3195 68.6119 67.6802 68.6119Q66.8535 68.6119 66.2229 69.0231Q65.5922 69.4343 65.2385 70.1822Q64.8848 70.9301 64.8848 71.9358Q64.8848 72.9585 65.2491 73.6744Q65.6135 74.3903 66.242 74.7653Q66.8706 75.1403 67.6632 75.1403Q68.3024 75.1403 68.6795 74.9379Q69.0567 74.7355 69.2591 74.4734Q69.4615 74.2113 69.5723 74.0323L69.6575 74.0323L69.6575 75.3619Q69.6575 76.1801 69.1419 76.5636Q68.6263 76.9471 67.8337 76.9471Q67.2413 76.9471 66.877 76.7745Q66.5126 76.6019 66.3038 76.3697Q66.095 76.1375 65.9587 75.9585L65.1575 76.521Q65.4643 77.0366 66.1014 77.435ZM92.6007 75.396Q91.9785 75.396 91.4714 75.1595Q90.9643 74.923 90.666 74.4734Q90.3677 74.0238 90.3677 73.3846Q90.3677 72.8221 90.5893 72.4706Q90.8109 72.119 91.1817 71.9187Q91.5524 71.7184 92.002 71.6183Q92.4515 71.5181 92.9075 71.4585Q93.5041 71.3818 93.877 71.3413Q94.2498 71.3008 94.4224 71.2028Q94.595 71.1048 94.595 70.8619L94.595 70.8278Q94.595 70.1971 94.252 69.8477Q93.9089 69.4983 93.2143 69.4983Q92.4942 69.4983 92.0851 69.8136Q91.676 70.1289 91.5098 70.4869L90.5552 70.146Q90.8109 69.5494 91.2392 69.2149Q91.6675 68.8804 92.1767 68.7461Q92.6859 68.6119 93.1802 68.6119Q93.4956 68.6119 93.9068 68.6865Q94.318 68.761 94.7037 68.9911Q95.0893 69.2213 95.345 69.6858Q95.6007 70.1502 95.6007 70.9301L95.6007 75.2426L94.595 75.2426L94.595 74.3562L94.5439 74.3562Q94.4416 74.5693 94.203 74.8122Q93.9643 75.0551 93.568 75.2255Q93.1717 75.396 92.6007 75.396ZM98.5474 74.9571Q99.2143 75.3789 100.101 75.3789Q100.987 75.3789 101.654 74.9571Q102.321 74.5352 102.694 73.7767Q103.067 73.0181 103.067 72.0039Q103.067 70.9812 102.694 70.2184Q102.321 69.4556 101.654 69.0338Q100.987 68.6119 100.101 68.6119Q99.2143 68.6119 98.5474 69.0338Q97.8805 69.4556 97.5077 70.2184Q97.1348 70.9812 97.1348 72.0039Q97.1348 73.0181 97.5077 73.7767Q97.8805 74.5352 98.5474 74.9571ZM53.9927 68.6971L51.5723 75.2426L50.5496 75.2426L48.1291 68.6971L49.22 68.6971L51.0268 73.913L51.095 73.913L52.9018 68.6971L53.9927 68.6971ZM55.3223 68.6971L55.3223 75.2426L56.328 75.2426L56.328 68.6971L55.3223 68.6971ZM69.1909 73.6211Q68.7072 74.2369 67.7996 74.2369Q66.8535 74.2369 66.372 73.5892Q65.8905 72.9414 65.8905 71.9187Q65.8905 71.2539 66.1014 70.7085Q66.3123 70.163 66.7364 69.8392Q67.1604 69.5153 67.7996 69.5153Q68.72 69.5153 69.1973 70.1865Q69.6746 70.8576 69.6746 71.9187Q69.6746 73.0054 69.1909 73.6211ZM101.209 74.1304Q100.774 74.4755 100.101 74.4755Q99.4274 74.4755 98.9927 74.1304Q98.5581 73.7852 98.3493 73.2227Q98.1405 72.6602 98.1405 72.0039Q98.1405 71.3477 98.3493 70.7809Q98.5581 70.2142 98.9927 69.8647Q99.4274 69.5153 100.101 69.5153Q100.774 69.5153 101.209 69.8647Q101.643 70.2142 101.852 70.7809Q102.061 71.3477 102.061 72.0039Q102.061 72.6602 101.852 73.2227Q101.643 73.7852 101.209 74.1304ZM92.7541 74.4926Q93.3507 74.4926 93.7619 74.2582Q94.1731 74.0238 94.3841 73.6531Q94.595 73.2823 94.595 72.8733L94.595 71.9528Q94.5311 72.0295 94.3159 72.0913Q94.1007 72.1531 93.8216 72.1978Q93.5425 72.2426 93.2804 72.2745Q93.0183 72.3065 92.8564 72.3278Q92.4643 72.3789 92.1256 72.4919Q91.7868 72.6048 91.5801 72.8285Q91.3734 73.0522 91.3734 73.4358Q91.3734 73.9599 91.7633 74.2262Q92.1533 74.4926 92.7541 74.4926Z" />
        </g>
      </g>
      <path d="M94.9219 206.299L97.5433 206.765C99.214 206.542 101.895 205.354 102.37 205.627C102.782 205.863 105.305 207.491 107.843 209.724L115.293 216.909L115.667 223.667L95.8643 217.268L94.9219 206.299Z" id="Vector-23" fill="#97692E" fill-opacity="0.6784314" fill-rule="evenodd" stroke="none" />
      <g id="Oval-11">
        <use stroke="none" fill="url(#gradient_6)" xlink:href="#path_3" fill-rule="evenodd" />
        <g clip-path="url(#clip_3)">
          <use xlink:href="#path_3" fill="none" stroke="#4C1D01" stroke-width="16" />
        </g>
      </g>
      <path d="M235.773 261.541L254.855 273.306L247.962 281.35C247.962 281.35 245.727 279.786 243.279 279.004C240.831 278.221 237.15 277.591 237.15 277.591C237.15 277.591 236.73 273.549 236.298 269.507C235.863 265.464 235.773 261.541 235.773 261.541Z" id="Vector-21" fill="url(#gradient_7)" fill-rule="evenodd" stroke="none" />
      <path d="M160.884 281.67L161.457 303.687C161.457 303.687 157.51 303.108 153.965 301.94C150.421 300.772 147.875 299.736 147.875 299.736C147.875 299.736 147.747 298.646 148.626 295.718C149.505 292.791 149.058 288.603 149.058 288.603C149.058 288.603 153.371 285.894 158.087 283.38C162.8 280.866 160.884 281.67 160.884 281.67Z" id="Vector-22" fill="#97692E" fill-opacity="0.8784314" fill-rule="evenodd" stroke="none" />
      <path d="M259.596 102.033C259.596 102.033 265.071 102.885 269.81 105.871C274.549 108.856 278.549 113.976 278.549 113.976C278.549 113.976 272.24 116.117 269.753 121.17C267.264 126.223 268.598 134.187 268.598 134.187C268.598 134.187 275.275 132.52 278.117 128.73C280.96 124.941 280.275 119.676 280.275 119.676C280.275 119.676 280.659 118.441 281.371 118.441C282.08 118.441 282.813 119.029 282.813 119.029L283.967 127.59C283.967 127.59 275.636 131.902 272.566 138.353C269.5 144.804 270.304 153.019 270.304 153.019C270.304 153.019 277.935 151.682 281.299 148.006C284.663 144.332 283.996 139.549 284.143 138.797C284.29 138.044 284.928 137.562 285.522 137.791C286.113 138.021 286.13 139.24 286.13 139.24C286.13 139.24 287.136 143.414 286.53 145.193C285.922 146.972 281.772 148.332 281.891 154.878C282.009 161.425 287.554 172.035 287.554 172.035C287.554 172.035 293.286 166.039 294.471 159.724C295.657 153.407 290.64 145.597 290.64 145.597C290.64 145.597 289.698 141.942 289.712 139.645C289.726 137.348 290.699 136.411 290.699 136.411C290.699 136.411 294.751 143.075 298.939 145.505C303.129 147.935 309.008 148.283 309.008 148.283C309.008 148.283 308.015 137.959 303.125 132.599C298.235 127.236 290.381 127.94 289.892 127.339C289.402 126.737 289.086 125.773 288.729 124.165C288.374 122.557 288.102 119.975 288.102 119.975C288.102 119.975 292.456 121.748 297.058 121.971C301.658 122.193 306.505 120.867 306.505 120.867C306.505 120.867 300.932 113.209 295.128 110.797C289.322 108.386 283.288 111.219 283.288 111.219C283.288 111.219 278.821 106.074 272.896 103.778C266.972 101.481 259.596 102.033 259.596 102.033Z" id="Vector-51" fill="#4A1704" fill-rule="evenodd" stroke="#481504" stroke-width="1" />
      <path d="M52.9707 171.058C52.9707 171.058 58.446 170.208 63.187 167.223C67.9258 164.236 71.9263 159.117 71.9263 159.117C71.9263 159.117 65.6166 156.975 63.1278 151.922C60.6411 146.868 61.9752 138.905 61.9752 138.905C61.9752 138.905 68.6521 140.572 71.4979 144.362C74.3416 148.151 73.6521 153.416 73.6521 153.416C73.6521 153.416 74.0356 154.651 74.7476 154.651C75.4575 154.651 76.1898 154.064 76.1898 154.064L77.3445 145.502C77.3445 145.502 69.0132 141.19 65.945 134.739C62.8748 128.287 63.6827 120.071 63.6827 120.071C63.6827 120.071 71.3143 121.41 74.6762 125.085C78.0401 128.76 77.373 133.544 77.5199 134.296C77.6668 135.047 78.3053 135.53 78.8989 135.3C79.4905 135.07 79.5069 133.851 79.5069 133.851C79.5069 133.851 80.5146 129.676 79.9046 127.899C79.2988 126.121 75.1474 124.76 75.2678 118.213C75.3861 111.667 80.9287 101.055 80.9287 101.055C80.9287 101.055 86.6631 107.052 87.8484 113.367C89.0336 119.684 84.0173 127.494 84.0173 127.494C84.0173 127.494 83.0748 131.15 83.0891 133.447C83.1033 135.744 84.0744 136.683 84.0744 136.683C84.0744 136.683 88.1278 130.016 92.3159 127.586C96.504 125.156 102.383 124.809 102.383 124.809C102.383 124.809 101.39 135.132 96.4999 140.494C91.6121 145.854 83.7582 145.152 83.2686 145.753C82.779 146.353 82.4628 147.32 82.1058 148.927C81.7508 150.534 81.4775 153.117 81.4775 153.117C81.4775 153.117 85.8329 151.344 90.4351 151.121C95.0352 150.899 99.8822 152.226 99.8822 152.226C99.8822 152.226 94.309 159.883 88.5052 162.295C82.7015 164.707 76.6651 161.872 76.6651 161.872C76.6651 161.872 72.1976 167.017 66.2735 169.314C60.3493 171.612 52.9707 171.058 52.9707 171.058Z" id="Vector-51-Copy" fill="#4A1704" fill-rule="evenodd" stroke="#481504" stroke-width="1" />
      <path d="M203.041 153.091L209.14 134.23C209.14 134.23 205.44 132.097 202.145 131.336C198.853 130.576 195.674 131.295 195.674 131.295C195.674 131.295 195.882 132.991 193.524 137.103C191.168 141.218 188.553 142.181 188.553 142.181L192.749 150.229L203.041 153.091Z" id="Vector-19" fill="url(#gradient_8)" fill-rule="evenodd" stroke="none" />
      <path d="M250.23 231.234L271.736 232.776C271.736 232.776 273.248 224.889 273.558 221.532C273.864 218.172 274.241 215.502 274.139 213.387C273.913 208.725 274.313 208.924 274.313 208.924C274.313 208.924 271.758 209.496 268.694 208.81C265.63 208.125 260.604 206.083 260.604 206.083L251.813 215.631C251.813 215.631 251.609 220.053 251.383 223.644C251.157 227.239 250.23 231.234 250.23 231.234Z" id="Vector-20" fill="url(#gradient_9)" fill-rule="evenodd" stroke="none" />
      <path d="M156.751 184.741L177.144 140.883L185.678 140.883L211.279 186.789L260.221 188.976L262.595 201.903L230.051 233.534L234.97 283.673L227.477 290.095L184.288 265.081L141.304 289.787L132.336 282.131L135.231 231.376L103.758 203.753L105.147 189.789L156.751 184.741Z" id="Vector-18" fill="url(#gradient_10)" fill-rule="evenodd" stroke="#571E00" stroke-width="5.5" />
      <g id="Oval-8-Copy-9">
        <use stroke="none" fill="#E7C36C" xlink:href="#path_4" fill-rule="evenodd" />
        <g clip-path="url(#clip_4)">
          <use xlink:href="#path_4" fill="none" stroke="#502200" stroke-width="9" />
        </g>
      </g>
      <g id="Oval-12">
        <use stroke="none" fill="#DFC57A" xlink:href="#path_5" fill-rule="evenodd" />
        <g clip-path="url(#clip_5)">
          <use xlink:href="#path_5" fill="none" stroke="#502200" stroke-width="9" />
        </g>
      </g>
      <g id="Oval-8-Copy-10">
        <use stroke="none" fill="#D7B968" xlink:href="#path_6" fill-rule="evenodd" />
        <g clip-path="url(#clip_6)">
          <use xlink:href="#path_6" fill="none" stroke="#502200" stroke-width="9" />
        </g>
      </g>
      <path d="M73.9093 302.94C73.9093 302.94 80.731 301.093 85.8514 304.574C90.9718 308.056 94.3928 316.862 94.3928 316.862L98.9359 320.254L96.6103 315.416C96.6103 315.416 94.25 311.283 93.9257 307.914C93.5993 304.545 97.6548 301.874 97.6548 301.874C97.6548 301.874 103.809 305.573 106.408 311.53C109.005 317.484 106.306 323.876 106.306 323.876L112.151 326.765C112.151 326.765 109.213 321.868 108.746 317.198C108.279 312.525 109.334 308.39 109.334 308.39C109.334 308.39 115.166 313.278 117.641 317.954C120.115 322.63 119.232 327.094 119.232 327.094C119.232 327.094 121.123 328.459 125.133 327.478C129.144 326.497 135.27 323.17 135.27 323.17C135.27 323.17 130.898 328.499 126.502 331.192C122.106 333.884 116.892 333.831 116.892 333.831C116.892 333.831 114.693 339.188 109.942 342.027C105.188 344.867 99.9192 343.952 99.9192 343.952C99.9192 343.952 100.811 339.284 102.944 336.094C105.08 332.906 108.461 331.195 108.461 331.195L104.493 328.249C104.493 328.249 96.4614 334.835 90.3781 334.736C84.2949 334.639 79.6621 330.738 79.6621 330.738C79.6621 330.738 83.8318 325.265 88.2627 323.481C92.6915 321.7 97.3794 323.608 97.3794 323.608L92.7608 319.76C92.7608 319.76 81.696 317.619 77.516 313.351C73.3361 309.086 73.9093 302.94 73.9093 302.94Z" id="Vector-50-Copy" fill="#451900" fill-rule="evenodd" stroke="#4A1D00" stroke-width="1" />
      <g id="Oval-8-Copy-11">
        <use stroke="none" fill="#DABE68" xlink:href="#path_7" fill-rule="evenodd" />
        <g clip-path="url(#clip_7)">
          <use xlink:href="#path_7" fill="none" stroke="#502200" stroke-width="9" />
        </g>
      </g>
      <g id="Oval-8-Copy-12">
        <use stroke="none" fill="#E5B96A" xlink:href="#path_8" fill-rule="evenodd" />
        <g clip-path="url(#clip_8)">
          <use xlink:href="#path_8" fill="none" stroke="#502200" stroke-width="9" />
        </g>
      </g>
      <g id="Oval-13">
        <use stroke="none" fill="#E8BF6D" xlink:href="#path_9" fill-rule="evenodd" />
        <g clip-path="url(#clip_9)">
          <use xlink:href="#path_9" fill="none" stroke="#4D2104" stroke-width="14" />
        </g>
      </g>
      <path d="M209.07 186.877L201.18 200.676L202.391 201.439L213.93 189.449L210.351 188.718L209.07 186.877Z" id="Vector-24" fill="url(#gradient_11)" fill-rule="evenodd" stroke="none" />
      <path d="M223.568 189.8L206.326 206.963L207.067 209.793L233.285 189.734L223.568 189.8Z" id="Vector-24-Copy" fill="url(#gradient_12)" fill-rule="evenodd" stroke="none" />
      <path d="M178.207 144.618C178.207 144.618 181.202 144.833 181.542 145.059C181.885 145.287 184.574 144.784 184.574 144.784L183.627 193.382L179.988 193.548L178.207 144.618Z" id="Vector-25" fill="url(#gradient_13)" fill-rule="evenodd" stroke="none" />
      <path d="M160.795 181.958L168.649 198.625L152.346 187.41L158.696 186.948L160.795 181.958Z" id="Vector-26" fill="#653C00" fill-opacity="0.50980395" fill-rule="evenodd" stroke="none" />
      <path d="M127.467 190.159L162.28 207.846L111.26 191.558L127.467 190.159Z" id="Vector-27" fill="#DBBA59" fill-opacity="0.5294118" fill-rule="evenodd" stroke="none" />
      <path d="M113.943 209.426L159.564 218.456L122.799 217.078L113.943 209.426Z" id="Vector-28" fill="url(#gradient_14)" fill-rule="evenodd" stroke="none" />
      <path d="M116.858 201.852L158.741 217.908L114.016 209.666L106.064 202.777L116.858 201.852Z" id="Vector-29" fill="url(#gradient_15)" fill-rule="evenodd" stroke="none" />
      <path d="M134.539 227.5L162.554 224.241L137.685 235.181L138.28 229.828L134.539 227.5Z" id="Vector-30" fill="url(#gradient_16)" fill-rule="evenodd" stroke="none" />
      <path d="M146.738 283.325L172.432 239.229L159.056 276.537L146.738 283.325Z" id="Vector-32" fill="url(#gradient_17)" fill-rule="evenodd" stroke="none" />
      <path d="M136.946 256.415L162.638 233.345L135.418 278.513L136.946 256.415Z" id="Vector-31" fill="url(#gradient_18)" fill-rule="evenodd" stroke="none" />
      <path d="M158.715 277.41L176.018 241.47L167.864 271.651L158.715 277.41Z" id="Vector-33" fill="url(#gradient_19)" fill-rule="evenodd" stroke="none" />
      <path d="M180.441 264.228L184.095 243.837L185.341 243.848L188.018 264.206L184.383 262.297L180.441 264.228Z" id="Vector-34" fill="url(#gradient_20)" fill-rule="evenodd" stroke="none" />
      <path d="M198.127 239.319L209.025 260.693L229.4 279.741L215.659 256.975L198.127 239.319Z" id="Vector-35" fill="url(#gradient_21)" fill-rule="evenodd" stroke="none" />
      <path d="M207.318 229.721L227.443 237.154L227.839 233.257L229.856 229.125L207.318 229.721Z" id="Vector-36" fill="url(#gradient_22)" fill-rule="evenodd" stroke="none" />
      <path d="M206.656 209.459L231.393 189.749L252.95 190.65L206.656 209.459Z" id="Vector-37" fill="url(#gradient_23)" fill-rule="evenodd" stroke="none" />
      <path d="M211.424 217.063L257.811 202.955L244.204 215.377L211.424 217.063Z" id="Vector-38" fill="url(#gradient_24)" fill-rule="evenodd" stroke="none" />
      <path d="M196.47 165.592L202.155 176.099L193.034 195.622L189.064 193.899L196.47 165.592Z" id="Vector-39" fill="url(#gradient_25)" fill-rule="evenodd" stroke="none" />
      <path d="M194.072 241.565L206.408 274.785L200.025 271.695L194.072 241.565Z" id="Vector-40" fill="url(#gradient_26)" fill-rule="evenodd" stroke="none" />
      <path d="M13.1328 93.6429L17.123 96.2891L42.0496 55.9923L69.4568 55.5604C69.4568 55.5604 84.7608 36.2405 101.33 30.381C117.898 24.5204 143.08 31.3313 143.08 31.3313L155.644 22.7184L140.554 28.3885C140.554 28.3885 110.528 22.7682 97.5413 27.6255C75.7665 35.773 65.9583 52.0744 65.9583 52.0744L39.6608 52.319L13.1328 93.6429Z" id="Vector-41" fill="#FFE6B4" fill-opacity="0.49019608" fill-rule="evenodd" stroke="none" />
      <path d="M275.262 35.6534L288.112 24.2483C288.112 24.2483 291.669 25.6217 295.143 29.6629C298.618 33.7042 303.952 41.041 303.952 41.041L331.582 40.7975L365.044 93.15C365.044 93.15 341.569 125.657 335.886 156.477C330.203 187.297 345.088 216.676 345.088 216.676L331.488 218.191C331.488 218.191 314.762 191.766 320.478 162.906C326.196 134.044 353.095 100.046 353.095 100.046L326.423 54.1108L295.745 55.7418C295.745 55.7418 291.41 48.695 286.208 43.6342C281.006 38.5723 275.262 35.6534 275.262 35.6534Z" id="Vector-42" fill="#F2D491" fill-opacity="0.5411765" fill-rule="evenodd" stroke="none" />
      <path d="M120.845 126.728L114.354 75.7012L140.637 68.9055C143.791 68.9055 148.97 69.2616 151.31 70.3439C153.654 71.4251 156.889 72.8851 159.156 76.1255C161.422 79.3669 161.236 82.7978 160.38 87.1215C159.521 91.4453 158.827 91.3912 156.914 93.4226C155.004 95.4508 152.734 95.2419 152.734 95.2419C154.645 95.335 158.556 96.1662 159.607 97.3654C160.659 98.5646 161.569 100.388 162.569 103.596C163.57 106.804 163.613 110.197 163.613 110.197C163.613 110.197 160.692 110.437 157.065 111.356C153.438 112.273 149.103 113.869 149.103 113.869C149.103 113.869 147.312 100.503 146.714 99.7973C146.116 99.0927 144.378 99.1057 142.991 99.1057L132.224 100.21L135.165 117.888L120.845 126.728ZM201.119 115.234L213.167 68.0531L238.745 74.3639C238.745 74.3639 241.46 75.4733 246.48 79.5037C251.499 83.5341 250.715 88.2129 250.593 91.4814C250.468 94.7488 247.953 97.105 245.764 99.2652C243.575 101.427 242.449 100.674 240.511 101.468L248.902 108.034C248.902 108.034 249.744 110.315 248.912 117.296C248.082 124.278 245.854 127.265 245.854 127.265L245.387 127.496C244.098 127.03 241.062 125.496 238.802 124.378C235.752 122.871 231.085 121.982 231.085 121.982L235.338 110.705C235.356 109.602 231.501 106.929 228.608 105.375C225.719 103.821 218.979 102.627 218.979 102.627L215.189 119.886C215.189 119.886 211.949 118.36 208.302 117.234C204.652 116.11 201.119 115.234 201.119 115.234ZM129.872 93.3825L137.542 91.7667C137.628 91.7667 142.12 90.4571 143.34 89.3045C144.606 88.1053 145.078 86.4775 144.937 84.1052C144.798 81.7328 144.015 81.012 142.773 79.8128C141.532 78.6147 138.866 78.4556 136.571 78.4556L127.932 80.2923L129.872 93.3825ZM222.883 91.1177L227.605 92.7216C227.665 92.7498 231.722 94.1329 232.922 93.805C234.166 93.4641 235.629 92.6664 236.318 91.1036C237.01 89.5408 236.859 86.9098 236.422 85.7257C235.988 84.5439 235.459 84.7582 232.95 83.5774C230.441 82.3977 225.241 81.1985 225.241 81.1985L222.883 91.1177Z" id="R" fill="#481504" stroke="none" />
      <path d="M170.275 85.6855C170.275 85.6855 177.534 82.8034 183.896 82.8034C190.259 82.8034 197.86 85.9767 197.86 85.9767L195.457 98.3137C195.457 98.3137 190.522 93.6977 184.16 93.6977C177.799 93.6977 172.948 97.1589 172.948 97.1589L170.275 85.6855Z" id="Rectangle" fill="#481504" fill-rule="evenodd" stroke="none" />
      <path d="M175.383 121.266L178.226 129.535L172.025 135.653C172.025 135.653 169.591 131.637 170.658 128.077C171.723 124.517 175.383 121.266 175.383 121.266Z" id="Vector-43" fill="#FAE0AF" fill-rule="evenodd" stroke="none" />
      <path d="M268.257 181.899C268.257 181.899 269.47 184.226 269.47 186.754C269.47 189.28 268.257 192.006 268.257 192.006C268.257 192.006 267.763 194.33 266.104 196.282C264.444 198.233 261.625 199.813 261.625 199.813C261.625 199.813 259.944 198.651 259.395 196.58C258.844 194.508 259.425 191.529 259.425 191.529C259.425 191.529 260.474 187.243 262.606 184.946C264.74 182.649 268.257 181.899 268.257 181.899Z" id="Vector-44" fill="#FFEEBB" fill-rule="evenodd" stroke="none" />
      <path d="M303.137 302.157C303.137 302.157 296.11 300.32 290.865 303.674C285.618 307.027 282.152 315.569 282.152 315.569L277.497 318.837L279.863 314.149C279.863 314.149 282.262 310.145 282.576 306.871C282.893 303.598 278.708 300.975 278.708 300.975C278.708 300.975 272.397 304.535 269.761 310.309C267.123 316.084 269.939 322.316 269.939 322.316L263.943 325.089C263.943 325.089 266.934 320.345 267.387 315.807C267.841 311.267 266.736 307.239 266.736 307.239C266.736 307.239 260.763 311.956 258.245 316.488C255.726 321.018 256.662 325.366 256.662 325.366C256.662 325.366 254.724 326.68 250.593 325.701C246.464 324.723 240.143 321.45 240.143 321.45C240.143 321.45 244.669 326.659 249.208 329.304C253.745 331.95 259.11 331.93 259.11 331.93C259.11 331.93 261.403 337.15 266.305 339.94C271.21 342.732 276.624 341.874 276.624 341.874C276.624 341.874 275.679 337.329 273.466 334.214C271.25 331.102 267.764 329.418 267.764 329.418L271.828 326.577C271.828 326.577 280.128 333.029 286.385 332.972C292.638 332.915 297.385 329.15 297.385 329.15C297.385 329.15 293.06 323.803 288.494 322.043C283.929 320.282 279.119 322.109 279.119 322.109L283.845 318.397C283.845 318.397 295.214 316.382 299.49 312.259C303.762 308.137 303.137 302.157 303.137 302.157Z" id="Vector-50" fill="#451900" fill-rule="evenodd" stroke="#4A1D00" stroke-width="1" />
      <path d="M234.144 282.033C234.144 282.033 233.014 284.406 232.746 286.898C232.477 289.391 230.764 289.107 230.282 291.415C229.805 293.721 232.4 294.562 230.829 296.124C229.254 297.688 226.782 298.25 226.782 298.25C226.782 298.25 223.834 292.865 225.494 289.076C227.151 285.285 234.144 282.033 234.144 282.033Z" id="Vector-45" fill="#FFE5B9" fill-rule="evenodd" stroke="none" />
      <path d="M248.356 289.383C248.356 289.383 246.465 290.597 245.043 291.745C243.621 292.895 242.791 294.918 242.791 294.918C242.791 294.918 241.016 297.869 240.629 299.931C240.243 301.991 241.247 303.163 241.247 303.163C241.247 303.163 242.95 302.625 244.845 301.132C246.741 299.638 247.344 298.364 248.222 295.427C249.101 292.49 248.356 289.383 248.356 289.383Z" id="Vector-46" fill="#EBDBB8" fill-rule="evenodd" stroke="none" />
      <path d="M92.6412 181.975C92.6412 181.975 91.0296 183.467 90.9561 185.32C90.8827 187.174 92.3495 189.389 92.3495 189.389L86.7681 197.978C86.7681 197.978 84.2446 197.316 83.7734 194.56C83.298 191.804 84.8749 186.955 84.8749 186.955C84.8749 186.955 87.1026 184.043 89.0426 182.798C90.9847 181.553 92.6412 181.975 92.6412 181.975Z" id="Vector-47" fill="#F6D3AD" fill-rule="evenodd" stroke="none" />
      <path d="M130.174 283.53C130.174 283.53 126.647 287.314 126.812 290.385C126.977 293.456 127.895 296.359 127.895 296.359C127.895 296.359 126.663 295.83 125.621 297.187C124.58 298.543 123.734 301.787 123.734 301.787C123.734 301.787 121.561 301.141 120.788 299.016C120.015 296.888 120.643 293.28 120.643 293.28C120.643 293.28 121.449 290.533 123.76 287.722C126.074 284.911 130.174 283.53 130.174 283.53Z" id="Vector-48" fill="#FFEFB9" fill-rule="evenodd" stroke="none" />
      <path d="M141.915 288.344C141.915 288.344 140.668 290.202 140.75 292.307C140.831 294.413 142.539 294.861 142.239 296.767C141.652 300.531 139.561 303.404 139.561 303.404C139.561 303.404 141.009 303.378 142.549 301.905C144.091 300.431 145.727 297.508 145.727 297.508C145.727 297.508 145.625 292.517 144.673 290.227C143.718 287.936 141.915 288.344 141.915 288.344Z" id="Vector-49" fill="#FFEDB8" fill-rule="evenodd" stroke="none" />
    </g>
    <g id="Group-22" transform="translate(174 210)">
      <path d="M0 91.5388L36.7034 36.551L63.3967 38.1691C63.3967 38.1691 75.7019 18.9617 94.4718 12.4918C113.238 6.02293 138.47 12.2915 138.47 12.2915C138.47 12.2915 161.126 0 185.316 0C209.509 0 235.235 12.2915 235.235 12.2915C235.235 12.2915 257.04 5.46447 274.558 11.9344C292.075 18.4032 305.302 38.1691 305.302 38.1691L333.664 38.1691L368.699 93.1569C368.699 93.1569 338.201 128.068 336.949 174.565C336.353 196.748 357.85 240.241 361.265 253.827C364.68 267.413 365.659 293.245 358.571 304.163C351.48 315.08 335.333 322.815 335.333 322.815C335.333 322.815 324.537 347.615 305.353 357.723C286.167 367.832 258.591 363.247 258.591 363.247C258.591 363.247 252.436 381.247 233.666 393.782C214.898 406.316 183.515 413.382 183.515 413.382C183.515 413.382 157.74 405.52 139.806 393.39C121.871 381.26 111.779 364.865 111.779 364.865C111.779 364.865 79.8226 361.676 63.1396 351.972C46.4566 342.267 45.0449 326.05 45.0449 326.05C45.0449 326.05 10.1877 315.258 7.67443 275.266C5.16117 235.274 36.577 216.7 34.9919 166.079C33.4068 115.457 0 91.5388 0 91.5388Z" id="Vector-13" fill="url(#gradient_27)" fill-rule="evenodd" stroke="#000000" stroke-width="6" />
      <path d="M20.3105 96.2301L42.7116 59.0957L70.1821 58.8977C70.1821 58.8977 85.1169 39.1026 102.032 33.2734C118.946 27.4431 142.967 35.162 142.967 35.162C142.967 35.162 161.676 17.8746 183.475 17.8746C205.276 17.8746 230.17 35.162 230.17 35.162C230.17 35.162 249.821 29.0103 265.609 34.8406C281.396 40.6708 293.318 58.4821 293.318 58.4821L323.147 57.9647L348.312 99.7584C348.312 99.7584 316.023 135.878 314.897 177.782C314.358 197.773 336.917 240.45 341.46 257.564C346.007 274.68 346.429 290.428 340.04 300.267C333.648 310.106 318.245 313.35 318.245 313.35C318.245 313.35 310.652 337.356 293.361 346.466C276.07 355.576 251.219 351.445 251.219 351.445C251.219 351.445 245.67 367.666 228.754 378.962C211.841 390.256 183.561 396.627 183.561 396.627C183.561 396.627 161.186 391.197 145.023 380.265C128.86 369.334 118.911 352.902 118.911 352.902C118.911 352.902 88.8296 352.513 73.797 343.767C58.7602 335.022 53.6439 315.851 53.6439 315.851C53.6439 315.851 26.5019 311.095 24.2375 275.053C21.9711 239.013 52.8483 219.377 51.4183 173.757C49.9903 128.136 20.3105 96.2301 20.3105 96.2301Z" id="Vector-9-Copy-3" fill="url(#gradient_28)" fill-rule="evenodd" stroke="#000000" stroke-width="7" />
      <path d="M48.8244 309.117C48.8244 309.117 38.0533 307.337 43.1247 270.702C48.1941 234.065 69.3018 229.118 69.3406 188.293C69.3773 147.47 39.9546 97.329 39.9546 97.329L55.2198 72.5598C55.2198 72.5598 70.5095 81.1012 82.5781 74.1313C94.6426 67.1635 92.8412 55.4824 109.155 48.9962C125.471 42.509 151.377 49.3263 151.377 49.3263C151.377 49.3263 165.65 32.1645 188.464 32.6115C211.277 33.0584 235.92 48.7917 235.92 48.7917C235.92 48.7917 246.989 44.4127 258.05 43.0718C269.112 41.7319 284.219 49.8631 284.219 49.8631C284.219 49.8631 276.438 37.9666 262.841 35.2858C249.247 32.605 231.309 37.1744 231.309 37.1744C231.309 37.1744 206.742 19.6608 185.081 19.6608C163.419 19.6608 145.404 37.1744 145.404 37.1744C145.404 37.1744 123.427 28.5182 105.224 34.5509C87.0191 40.5825 73.3206 60.7639 73.3206 60.7639L46.2602 60.8007L24.875 95.4707C24.875 95.4707 34.1671 107.093 41.1317 123.174C48.0982 139.255 49.6119 131.707 52.7351 159.795C54.2427 173.326 55.0097 189.537 52.831 198.902C46.3377 226.796 29.5201 240.869 28.9101 267.09C28.0941 302.117 48.8244 309.117 48.8244 309.117Z" id="Vector-16" fill="url(#gradient_29)" fill-rule="evenodd" stroke="none" />
      <g id="Oval-10">
        <use stroke="none" fill="url(#gradient_30)" xlink:href="#path_10" fill-rule="evenodd" />
        <g clip-path="url(#clip_10)">
          <use xlink:href="#path_10" fill="none" stroke="#4E4E4E" stroke-width="14" />
        </g>
      </g>
      <path d="M213.141 129.912C213.141 129.912 248.035 139.315 268.308 161.254C288.579 183.191 291.743 217.395 288.2 233.022C284.656 248.649 278.651 271.239 254.134 294.548C229.618 317.859 196.168 310.904 196.168 310.904C196.168 310.904 238.326 298.398 257.727 271.144C277.125 243.888 273.743 241.281 275.572 203.054C277.402 164.826 213.141 129.912 213.141 129.912Z" id="Vector-17" fill="url(#gradient_31)" fill-rule="evenodd" stroke="none" />
      <g id="Group" transform="translate(112.36133 147.85309)">
        <g id="Irving-Thao" fill="#757575">
          <path d="M55.3288 67.4059Q55.5397 67.6062 55.8337 67.6062Q56.1278 67.6062 56.3387 67.4059Q56.5496 67.2056 56.5496 66.9244Q56.5496 66.6431 56.3387 66.4428Q56.1278 66.2425 55.8337 66.2425Q55.5397 66.2425 55.3288 66.4428Q55.1178 66.6431 55.1178 66.9244Q55.1178 67.2056 55.3288 67.4059ZM42.1974 75.2425L42.1974 66.5153L41.1405 66.5153L41.1405 75.2425L42.1974 75.2425ZM75.5383 67.4528L75.5383 66.5153L82.0837 66.5153L82.0837 67.4528L79.3394 67.4528L79.3394 75.2425L78.2826 75.2425L78.2826 67.4528L75.5383 67.4528ZM84.5894 75.2425L84.5894 71.305Q84.5894 70.4485 85.0773 69.9819Q85.5653 69.5153 86.311 69.5153Q87.0226 69.5153 87.4253 69.9435Q87.828 70.3718 87.828 71.1516L87.828 75.2425L88.8337 75.2425L88.8337 71.0835Q88.8337 69.8221 88.2201 69.217Q87.6065 68.6119 86.6008 68.6119Q85.8295 68.6119 85.3671 68.9123Q84.9047 69.2127 84.6746 69.7198L84.5894 69.7198L84.5894 66.5153L83.5837 66.5153L83.5837 75.2425L84.5894 75.2425ZM44.1746 68.6971L44.1746 75.2425L45.1803 75.2425L45.1803 71.1005Q45.1803 70.4357 45.6491 70.0011Q46.1178 69.5664 46.8337 69.5664Q47.034 69.5664 47.2151 69.5941Q47.3962 69.6218 47.4474 69.6346L47.4474 68.6119Q47.3621 68.6033 47.1959 68.5991Q47.0298 68.5948 46.919 68.5948Q46.3309 68.5948 45.8621 68.8974Q45.3934 69.1999 45.2144 69.6857L45.1462 69.6857L45.1462 68.6971L44.1746 68.6971ZM59.1746 71.305L59.1746 75.2425L58.169 75.2425L58.169 68.6971L59.1405 68.6971L59.1405 69.7198L59.2258 69.7198Q59.4559 69.2212 59.9246 68.9165Q60.3934 68.6119 61.1349 68.6119Q62.1278 68.6119 62.7393 69.2212Q63.3508 69.8306 63.3508 71.0835L63.3508 75.2425L62.3451 75.2425L62.3451 71.1516Q62.3451 70.3803 61.9445 69.9478Q61.544 69.5153 60.8451 69.5153Q60.1249 69.5153 59.6498 69.9819Q59.1746 70.4485 59.1746 71.305ZM66.1015 77.435Q66.7386 77.8335 67.8337 77.8335Q68.6178 77.8335 69.2592 77.5842Q69.9005 77.3349 70.2819 76.8043Q70.6633 76.2738 70.6633 75.43L70.6633 68.6971L69.6917 68.6971L69.6917 69.7369L69.5894 69.7369Q69.4786 69.5664 69.2762 69.3001Q69.0738 69.0337 68.6967 68.8228Q68.3195 68.6119 67.6803 68.6119Q66.8536 68.6119 66.2229 69.0231Q65.5922 69.4343 65.2386 70.1822Q64.8849 70.93 64.8849 71.9357Q64.8849 72.9585 65.2492 73.6744Q65.6136 74.3903 66.2421 74.7653Q66.8707 75.1403 67.6633 75.1403Q68.3025 75.1403 68.6796 74.9379Q69.0567 74.7354 69.2592 74.4734Q69.4616 74.2113 69.5724 74.0323L69.6576 74.0323L69.6576 75.3619Q69.6576 76.18 69.142 76.5636Q68.6263 76.9471 67.8337 76.9471Q67.2414 76.9471 66.8771 76.7745Q66.5127 76.6019 66.3039 76.3697Q66.0951 76.1374 65.9587 75.9585L65.1576 76.521Q65.4644 77.0366 66.1015 77.435ZM92.6008 75.396Q91.9786 75.396 91.4715 75.1594Q90.9644 74.9229 90.6661 74.4734Q90.3678 74.0238 90.3678 73.3846Q90.3678 72.8221 90.5894 72.4705Q90.811 72.119 91.1817 71.9187Q91.5525 71.7184 92.0021 71.6182Q92.4516 71.5181 92.9076 71.4585Q93.5042 71.3817 93.8771 71.3413Q94.2499 71.3008 94.4225 71.2028Q94.5951 71.1048 94.5951 70.8619L94.5951 70.8278Q94.5951 70.1971 94.2521 69.8476Q93.909 69.4982 93.2144 69.4982Q92.4942 69.4982 92.0851 69.8136Q91.6761 70.1289 91.5099 70.4869L90.5553 70.146Q90.811 69.5494 91.2393 69.2148Q91.6675 68.8803 92.1768 68.7461Q92.686 68.6119 93.1803 68.6119Q93.4957 68.6119 93.9069 68.6864Q94.3181 68.761 94.7038 68.9911Q95.0894 69.2212 95.3451 69.6857Q95.6008 70.1502 95.6008 70.93L95.6008 75.2425L94.5951 75.2425L94.5951 74.3562L94.544 74.3562Q94.4417 74.5692 94.203 74.8121Q93.9644 75.055 93.5681 75.2255Q93.1718 75.396 92.6008 75.396ZM98.5475 74.957Q99.2144 75.3789 100.101 75.3789Q100.987 75.3789 101.654 74.957Q102.321 74.5351 102.694 73.7766Q103.067 73.0181 103.067 72.0039Q103.067 70.9812 102.694 70.2184Q102.321 69.4556 101.654 69.0337Q100.987 68.6119 100.101 68.6119Q99.2144 68.6119 98.5475 69.0337Q97.8806 69.4556 97.5077 70.2184Q97.1349 70.9812 97.1349 72.0039Q97.1349 73.0181 97.5077 73.7766Q97.8806 74.5351 98.5475 74.957ZM53.9928 68.6971L51.5724 75.2425L50.5496 75.2425L48.1292 68.6971L49.2201 68.6971L51.0269 73.913L51.0951 73.913L52.9019 68.6971L53.9928 68.6971ZM55.3224 68.6971L55.3224 75.2425L56.328 75.2425L56.328 68.6971L55.3224 68.6971ZM69.191 73.6211Q68.7073 74.2369 67.7996 74.2369Q66.8536 74.2369 66.3721 73.5891Q65.8905 72.9414 65.8905 71.9187Q65.8905 71.2539 66.1015 70.7085Q66.3124 70.163 66.7364 69.8391Q67.1604 69.5153 67.7996 69.5153Q68.7201 69.5153 69.1974 70.1864Q69.6746 70.8576 69.6746 71.9187Q69.6746 73.0053 69.191 73.6211ZM101.209 74.1303Q100.774 74.4755 100.101 74.4755Q99.4275 74.4755 98.9928 74.1303Q98.5582 73.7851 98.3493 73.2226Q98.1405 72.6601 98.1405 72.0039Q98.1405 71.3476 98.3493 70.7809Q98.5582 70.2141 98.9928 69.8647Q99.4275 69.5153 100.101 69.5153Q100.774 69.5153 101.209 69.8647Q101.643 70.2141 101.852 70.7809Q102.061 71.3477 102.061 72.0039Q102.061 72.6601 101.852 73.2226Q101.643 73.7851 101.209 74.1303ZM92.7542 74.4925Q93.3508 74.4925 93.762 74.2582Q94.1732 74.0238 94.3842 73.6531Q94.5951 73.2823 94.5951 72.8732L94.5951 71.9528Q94.5312 72.0295 94.316 72.0913Q94.1008 72.153 93.8217 72.1978Q93.5425 72.2425 93.2805 72.2745Q93.0184 72.3065 92.8565 72.3278Q92.4644 72.3789 92.1256 72.4918Q91.7868 72.6048 91.5802 72.8285Q91.3735 73.0522 91.3735 73.4357Q91.3735 73.9599 91.7634 74.2262Q92.1533 74.4925 92.7542 74.4925Z" />
        </g>
      </g>
      <path d="M94.9219 206.299L97.5412 206.765C99.214 206.543 101.897 205.355 102.37 205.627C102.782 205.863 105.305 207.491 107.845 209.725L115.293 216.91L115.667 223.667L95.8664 217.268L94.9219 206.299Z" id="Vector-23" fill="#989898" fill-opacity="0.6784314" fill-rule="evenodd" stroke="none" />
      <g id="Oval-11">
        <use stroke="none" fill="url(#gradient_32)" xlink:href="#path_11" fill-rule="evenodd" />
        <g clip-path="url(#clip_11)">
          <use xlink:href="#path_11" fill="none" stroke="#4E4E4E" stroke-width="16" />
        </g>
      </g>
      <path d="M235.773 261.541L254.855 273.306L247.962 281.35C247.962 281.35 245.729 279.785 243.279 279.004C240.831 278.22 237.15 277.591 237.15 277.591C237.15 277.591 236.73 273.548 236.298 269.508C235.863 265.464 235.773 261.541 235.773 261.541Z" id="Vector-21" fill="url(#gradient_33)" fill-rule="evenodd" stroke="none" />
      <path d="M160.884 281.672L161.457 303.689C161.457 303.689 157.512 303.111 153.967 301.942C150.421 300.775 147.875 299.739 147.875 299.739C147.875 299.739 147.747 298.649 148.628 295.72C149.507 292.793 149.056 288.605 149.056 288.605C149.056 288.605 153.373 285.896 158.085 283.382C162.802 280.869 160.884 281.672 160.884 281.672Z" id="Vector-22" fill="#969696" fill-opacity="0.8784314" fill-rule="evenodd" stroke="none" />
      <path d="M259.594 102.033C259.594 102.033 265.067 102.885 269.808 105.87C274.545 108.856 278.547 113.976 278.547 113.976C278.547 113.976 272.238 116.118 269.749 121.17C267.262 126.223 268.596 134.187 268.596 134.187C268.596 134.187 275.273 132.52 278.117 128.73C280.959 124.941 280.273 119.675 280.273 119.675C280.273 119.675 280.659 118.441 281.369 118.441C282.078 118.441 282.811 119.028 282.811 119.028L283.965 127.59C283.965 127.59 275.634 131.902 272.566 138.353C269.498 144.805 270.304 153.019 270.304 153.019C270.304 153.019 277.931 151.682 281.295 148.006C284.659 144.332 283.996 139.549 284.141 138.796C284.288 138.044 284.926 137.562 285.52 137.791C286.114 138.021 286.128 139.24 286.128 139.24C286.128 139.24 287.134 143.414 286.526 145.193C285.92 146.971 281.77 148.333 281.889 154.878C282.007 161.425 287.552 172.035 287.552 172.035C287.552 172.035 293.284 166.039 294.469 159.724C295.655 153.408 290.64 145.596 290.64 145.596C290.64 145.596 289.696 141.941 289.712 139.645C289.724 137.348 290.695 136.41 290.695 136.41C290.695 136.41 294.749 143.075 298.937 145.505C303.127 147.935 309.006 148.282 309.006 148.282C309.006 148.282 308.013 137.959 303.123 132.599C298.233 127.236 290.379 127.94 289.89 127.339C289.4 126.738 289.084 125.773 288.729 124.166C288.374 122.557 288.098 119.975 288.098 119.975C288.098 119.975 292.454 121.748 297.056 121.971C301.656 122.194 306.503 120.866 306.503 120.866C306.503 120.866 300.93 113.209 295.126 110.797C289.322 108.386 283.286 111.219 283.286 111.219C283.286 111.219 278.819 106.074 272.894 103.778C266.97 101.481 259.594 102.033 259.594 102.033Z" id="Vector-51" fill="#4E4E4E" fill-rule="evenodd" stroke="#414141" stroke-width="1" />
      <path d="M52.9707 171.057C52.9707 171.057 58.446 170.205 63.187 167.22C67.9238 164.234 71.9283 159.114 71.9283 159.114C71.9283 159.114 65.6166 156.973 63.1278 151.92C60.639 146.866 61.9752 138.903 61.9752 138.903C61.9752 138.903 68.6521 140.57 71.4979 144.36C74.3396 148.149 73.6521 153.414 73.6521 153.414C73.6521 153.414 74.0356 154.648 74.7476 154.648C75.4575 154.648 76.1898 154.061 76.1898 154.061L77.3424 145.499C77.3424 145.499 69.0111 141.189 65.943 134.737C62.8748 128.286 63.6827 120.07 63.6827 120.07C63.6827 120.07 71.3122 121.408 74.6741 125.083C78.0381 128.758 77.3751 133.541 77.5199 134.293C77.6668 135.046 78.3053 135.527 78.8989 135.298C79.4905 135.068 79.5069 133.85 79.5069 133.85C79.5069 133.85 80.5126 129.675 79.9046 127.896C79.2988 126.119 75.1494 124.756 75.2678 118.211C75.3861 111.665 80.9308 101.053 80.9308 101.053C80.9308 101.053 86.6631 107.05 87.8463 113.365C89.0336 119.683 84.0193 127.492 84.0193 127.492C84.0193 127.492 83.0748 131.148 83.0891 133.444C83.1033 135.742 84.0744 136.68 84.0744 136.68C84.0744 136.68 88.1258 130.015 92.3159 127.584C96.504 125.155 102.383 124.806 102.383 124.806C102.383 124.806 101.39 135.13 96.4999 140.491C91.6101 145.852 83.7582 145.15 83.2686 145.751C82.781 146.352 82.4628 147.317 82.1078 148.925C81.7508 150.533 81.4775 153.114 81.4775 153.114C81.4775 153.114 85.8329 151.342 90.433 151.12C95.0332 150.896 99.8822 152.224 99.8822 152.224C99.8822 152.224 94.309 159.882 88.5032 162.293C82.7015 164.704 76.6651 161.87 76.6651 161.87C76.6651 161.87 72.1976 167.015 66.2735 169.312C60.3493 171.61 52.9707 171.057 52.9707 171.057Z" id="Vector-51-Copy" fill="#515151" fill-rule="evenodd" stroke="#515151" stroke-width="1" />
      <path d="M203.041 153.089L209.14 134.227C209.14 134.227 205.442 132.096 202.147 131.335C198.853 130.574 195.676 131.293 195.676 131.293C195.676 131.293 195.884 132.989 193.526 137.101C191.168 141.216 188.553 142.179 188.553 142.179L192.749 150.227L203.041 153.089Z" id="Vector-19" fill="url(#gradient_34)" fill-rule="evenodd" stroke="none" />
      <path d="M250.23 231.236L271.736 232.778C271.736 232.778 273.248 224.892 273.558 221.534C273.866 218.175 274.241 215.504 274.139 213.39C273.915 208.727 274.313 208.927 274.313 208.927C274.313 208.927 271.758 209.498 268.696 208.813C265.63 208.126 260.606 206.085 260.606 206.085L251.811 215.634C251.811 215.634 251.607 220.055 251.381 223.647C251.157 227.24 250.23 231.236 250.23 231.236Z" id="Vector-20" fill="url(#gradient_35)" fill-rule="evenodd" stroke="none" />
      <path d="M156.749 184.742L177.142 140.883L185.678 140.883L211.277 186.787L260.221 188.976L262.593 201.904L230.051 233.535L234.968 283.674L227.477 290.095L184.288 265.081L141.302 289.787L132.336 282.132L135.229 231.376L103.756 203.753L105.145 189.789L156.749 184.742Z" id="Vector-18" fill="url(#gradient_36)" fill-rule="evenodd" stroke="#595959" stroke-width="5.5" />
      <g id="Oval-8-Copy-9">
        <use stroke="none" fill="#E1E1E1" xlink:href="#path_12" fill-rule="evenodd" />
        <g clip-path="url(#clip_12)">
          <use xlink:href="#path_12" fill="none" stroke="#393939" stroke-width="9" />
        </g>
      </g>
      <g id="Oval-12">
        <use stroke="none" fill="#E0E0E0" xlink:href="#path_13" fill-rule="evenodd" />
        <g clip-path="url(#clip_13)">
          <use xlink:href="#path_13" fill="none" stroke="#333333" stroke-width="9" />
        </g>
      </g>
      <g id="Oval-8-Copy-10">
        <use stroke="none" fill="#D4D4D4" xlink:href="#path_14" fill-rule="evenodd" />
        <g clip-path="url(#clip_14)">
          <use xlink:href="#path_14" fill="none" stroke="#2D2C2C" stroke-width="9" />
        </g>
      </g>
      <path d="M136.037 326.315C136.037 326.315 129.868 319.798 123.249 318.192C116.632 316.582 109.569 319.884 109.569 319.884L103.574 318.66L107.908 317.194C107.908 317.194 111.988 316.227 113.693 314.205C115.397 312.182 112.374 307.248 112.374 307.248C112.374 307.248 104.616 304.988 99.5491 307C94.4834 309.01 94.6166 315.41 94.6166 315.41L87.5049 312.842C87.5049 312.842 92.483 311.806 94.8634 309.017C97.2439 306.224 97.8627 302.622 97.8627 302.622C97.8627 302.622 89.948 301.413 85.5285 302.656C81.1089 303.899 80.1845 307.594 80.1845 307.594C80.1845 307.594 77.7074 307.053 74.0388 303.292C70.3694 299.531 65.5071 292.552 65.5071 292.552C65.5071 292.552 67.7706 299.526 71.1332 304.741C74.4972 309.955 79.8132 313.947 79.8132 313.947C79.8132 313.947 79.8594 319.261 83.5236 324.848C87.1862 330.436 92.9097 333.89 92.9097 333.89C92.9097 333.89 93.9083 330.053 93.0413 326.251C92.1766 322.449 89.4433 318.684 89.4433 318.684L94.6708 319.761C94.6708 319.761 100.14 330.411 106.35 335.046C112.563 339.677 118.858 340.629 118.858 340.629C118.858 340.629 116.857 333.712 113.089 329.085C109.321 324.46 103.786 322.126 103.786 322.126L110.041 323.1C110.041 323.1 122.145 330.203 128.128 330.555C134.112 330.906 136.037 326.315 136.037 326.315Z" id="Vector-50-Copy" fill="#434343" fill-rule="evenodd" stroke="#4D4D4D" stroke-width="1" />
      <g id="Oval-8-Copy-11">
        <use stroke="none" fill="#D5D5D5" xlink:href="#path_15" fill-rule="evenodd" />
        <g clip-path="url(#clip_15)">
          <use xlink:href="#path_15" fill="none" stroke="#3A3A3A" stroke-width="9" />
        </g>
      </g>
      <g id="Oval-8-Copy-12">
        <use stroke="none" fill="#E7E7E7" xlink:href="#path_16" fill-rule="evenodd" />
        <g clip-path="url(#clip_16)">
          <use xlink:href="#path_16" fill="none" stroke="#3C3C3C" stroke-width="9" />
        </g>
      </g>
      <g id="Oval-13">
        <use stroke="none" fill="#EBEBEB" xlink:href="#path_17" fill-rule="evenodd" />
        <g clip-path="url(#clip_17)">
          <use xlink:href="#path_17" fill="none" stroke="#444444" stroke-width="14" />
        </g>
      </g>
      <path d="M209.07 186.877L201.18 200.676L202.391 201.44L213.93 189.449L210.351 188.718L209.07 186.877Z" id="Vector-24" fill="url(#gradient_37)" fill-rule="evenodd" stroke="none" />
      <path d="M223.568 189.798L206.326 206.961L207.067 209.791L233.285 189.732L223.568 189.798Z" id="Vector-24-Copy" fill="url(#gradient_38)" fill-rule="evenodd" stroke="none" />
      <path d="M178.207 144.618C178.207 144.618 181.202 144.833 181.542 145.06C181.885 145.287 184.574 144.784 184.574 144.784L183.629 193.382L179.988 193.548L178.207 144.618Z" id="Vector-25" fill="url(#gradient_39)" fill-rule="evenodd" stroke="none" />
      <path d="M160.795 181.958L168.649 198.625L152.346 187.41L158.696 186.948L160.795 181.958Z" id="Vector-26" fill="#5F5F5F" fill-opacity="0.50980395" fill-rule="evenodd" stroke="none" />
      <path d="M127.462 190.159L162.276 207.846L111.256 191.558L127.462 190.159Z" id="Vector-27" fill="#D4D4D4" fill-opacity="0.5294118" fill-rule="evenodd" stroke="none" />
      <path d="M113.941 209.426L159.562 218.456L122.797 217.077L113.941 209.426Z" id="Vector-28" fill="url(#gradient_40)" fill-rule="evenodd" stroke="none" />
      <path d="M116.858 201.852L158.741 217.908L114.016 209.666L106.064 202.778L116.858 201.852Z" id="Vector-29" fill="url(#gradient_41)" fill-rule="evenodd" stroke="none" />
      <path d="M134.539 227.499L162.554 224.241L137.687 235.181L138.28 229.828L134.539 227.499Z" id="Vector-30" fill="url(#gradient_42)" fill-rule="evenodd" stroke="none" />
      <path d="M146.738 283.323L172.432 239.227L159.056 276.534L146.738 283.323Z" id="Vector-32" fill="url(#gradient_43)" fill-rule="evenodd" stroke="none" />
      <path d="M136.948 256.415L162.639 233.345L135.42 278.513L136.948 256.415Z" id="Vector-31" fill="url(#gradient_44)" fill-rule="evenodd" stroke="none" />
      <path d="M158.717 277.41L176.02 241.47L167.866 271.652L158.717 277.41Z" id="Vector-33" fill="url(#gradient_45)" fill-rule="evenodd" stroke="none" />
      <path d="M180.439 265.145L184.093 244.754L185.337 244.765L188.016 265.124L184.379 263.214L180.439 265.145Z" id="Vector-34" fill="url(#gradient_46)" fill-rule="evenodd" stroke="none" />
      <path d="M199.658 240.05L210.556 261.423L230.931 280.473L217.19 257.706L199.658 240.05Z" id="Vector-35" fill="url(#gradient_47)" fill-rule="evenodd" stroke="none" />
      <path d="M207.318 229.723L227.443 237.156L227.839 233.26L229.856 229.127L207.318 229.723Z" id="Vector-36" fill="url(#gradient_22)" fill-rule="evenodd" stroke="none" />
      <path d="M206.658 209.461L231.393 189.751L252.952 190.651L206.658 209.461Z" id="Vector-37" fill="url(#gradient_48)" fill-rule="evenodd" stroke="none" />
      <path d="M211.424 217.063L257.811 202.955L244.202 215.377L211.424 217.063Z" id="Vector-38" fill="url(#gradient_49)" fill-rule="evenodd" stroke="none" />
      <path d="M196.47 165.592L202.155 176.1L193.032 195.622L189.064 193.899L196.47 165.592Z" id="Vector-39" fill="url(#gradient_50)" fill-rule="evenodd" stroke="none" />
      <path d="M194.072 241.568L206.408 274.787L200.023 271.697L194.072 241.568Z" id="Vector-40" fill="url(#gradient_51)" fill-rule="evenodd" stroke="none" />
      <path d="M13.1328 93.6429L17.1251 96.2891L42.0517 55.9923L69.4568 55.5594C69.4568 55.5594 84.7629 36.2405 101.33 30.3799C117.898 24.5204 143.08 31.3313 143.08 31.3313L155.644 22.7184L140.554 28.3885C140.554 28.3885 110.528 22.7671 97.5434 27.6266C75.7665 35.773 65.9603 52.0744 65.9603 52.0744L39.6628 52.3201L13.1328 93.6429Z" id="Vector-41" fill="#FFE6B4" fill-opacity="0.49019608" fill-rule="evenodd" stroke="none" />
      <path d="M275.262 35.6523L288.114 24.2483C288.114 24.2483 291.669 25.6217 295.143 29.6629C298.615 33.7042 303.952 41.041 303.952 41.041L331.582 40.7975L365.044 93.1489C365.044 93.1489 341.569 125.658 335.884 156.478C330.201 187.298 345.088 216.677 345.088 216.677L331.486 218.191C331.486 218.191 314.76 191.768 320.478 162.907C326.198 134.045 353.095 100.047 353.095 100.047L326.423 54.1108L295.745 55.7407C295.745 55.7407 291.41 48.695 286.208 43.6331C281.006 38.5713 275.262 35.6523 275.262 35.6523Z" id="Vector-42" fill="#FAFAFA" fill-opacity="0.5411765" fill-rule="evenodd" stroke="none" />
      <path d="M120.845 126.728L114.354 75.7012L140.639 68.9055C143.793 68.9055 148.97 69.2627 151.314 70.3439C153.656 71.4251 156.889 72.8851 159.158 76.1255C161.424 79.3669 161.241 82.7978 160.38 87.1205C159.523 91.4453 158.827 91.3912 156.916 93.4215C155.004 95.4519 152.736 95.2419 152.736 95.2419C154.647 95.3361 158.556 96.1673 159.609 97.3654C160.661 98.5657 161.569 100.388 162.571 103.596C163.572 106.804 163.613 110.197 163.613 110.197C163.613 110.197 160.694 110.437 157.067 111.356C153.44 112.274 149.105 113.869 149.105 113.869C149.105 113.869 147.314 100.503 146.714 99.7984C146.116 99.0927 144.378 99.1057 142.993 99.1057L132.224 100.209L135.165 117.888L120.845 126.728ZM201.119 115.234L213.167 68.0531L238.747 74.3639C238.747 74.3639 241.462 75.4733 246.482 79.5037C251.501 83.5341 250.715 88.214 250.593 91.4825C250.468 94.751 247.953 97.1049 245.764 99.2652C243.577 101.427 242.449 100.674 240.513 101.468L248.904 108.035C248.904 108.035 249.744 110.315 248.914 117.296C248.084 124.279 245.854 127.265 245.854 127.265L245.389 127.497C244.1 127.03 241.062 125.497 238.802 124.378C235.754 122.871 231.087 121.982 231.087 121.982L235.338 110.705C235.358 109.603 231.501 106.929 228.61 105.375C225.719 103.821 218.979 102.627 218.979 102.627L215.191 119.886C215.191 119.886 211.949 118.36 208.302 117.236C204.652 116.111 201.119 115.234 201.119 115.234ZM129.87 93.3825L137.54 91.7667C137.626 91.7667 142.118 90.4582 143.338 89.3045C144.603 88.1064 145.078 86.4775 144.937 84.1052C144.794 81.7328 144.015 81.012 142.773 79.8128C141.528 78.6136 138.864 78.4556 136.569 78.4556L127.93 80.2923L129.87 93.3825ZM222.885 91.1198L227.609 92.7237C227.667 92.7518 231.724 94.135 232.924 93.8071C234.168 93.4662 235.631 92.6696 236.32 91.1057C237.012 89.5429 236.861 86.9118 236.426 85.7289C235.99 84.5459 235.461 84.7602 232.952 83.5795C230.443 82.3998 225.243 81.2006 225.243 81.2006L222.885 91.1198Z" id="R" fill="#101010" stroke="none" />
      <path d="M170.275 85.6855C170.275 85.6855 177.534 82.8034 183.896 82.8034C190.257 82.8034 197.86 85.9767 197.86 85.9767L195.455 98.3137C195.455 98.3137 190.522 93.6977 184.162 93.6977C177.801 93.6977 172.948 97.1589 172.948 97.1589L170.275 85.6855Z" id="Rectangle" fill="#1C1C1C" fill-rule="evenodd" stroke="none" />
      <path d="M175.383 121.266L178.226 129.535L172.027 135.653C172.027 135.653 169.591 131.637 170.656 128.077C171.723 124.517 175.383 121.266 175.383 121.266Z" id="Vector-43" fill="#F6F6F6" fill-rule="evenodd" stroke="none" />
      <path d="M268.257 181.902C268.257 181.902 269.47 184.23 269.47 186.755C269.47 189.282 268.257 192.007 268.257 192.007C268.257 192.007 267.763 194.331 266.104 196.283C264.446 198.235 261.625 199.816 261.625 199.816C261.625 199.816 259.944 198.652 259.395 196.582C258.846 194.509 259.423 191.53 259.423 191.53C259.423 191.53 260.474 187.245 262.606 184.948C264.74 182.652 268.257 181.902 268.257 181.902Z" id="Vector-44" fill="#F6F6F6" fill-rule="evenodd" stroke="none" />
      <path d="M303.155 302.157C303.155 302.157 296.127 300.32 290.882 303.673C285.636 307.027 282.168 315.569 282.168 315.569L277.514 318.837L279.881 314.149C279.881 314.149 282.28 310.144 282.596 306.87C282.91 303.597 278.726 300.975 278.726 300.975C278.726 300.975 272.417 304.535 269.779 310.309C267.141 316.084 269.954 322.315 269.954 322.315L263.959 325.088C263.959 325.088 266.951 320.345 267.404 315.806C267.859 311.267 266.751 307.238 266.751 307.238C266.751 307.238 260.78 311.956 258.261 316.487C255.744 321.018 256.68 325.365 256.68 325.365C256.68 325.365 254.742 326.68 250.611 325.701C246.48 324.722 240.158 321.45 240.158 321.45C240.158 321.45 244.687 326.659 249.226 329.304C253.761 331.949 259.126 331.93 259.126 331.93C259.126 331.93 261.419 337.15 266.321 339.941C271.227 342.731 276.641 341.873 276.641 341.873C276.641 341.873 275.697 337.328 273.483 334.214C271.268 331.101 267.782 329.417 267.782 329.417L271.845 326.577C271.845 326.577 280.148 333.029 286.401 332.971C292.655 332.914 297.402 329.15 297.402 329.15C297.402 329.15 293.078 323.802 288.512 322.042C283.947 320.281 279.136 322.108 279.136 322.108L283.863 318.397C283.863 318.397 295.232 316.381 299.505 312.258C303.781 308.137 303.155 302.157 303.155 302.157Z" id="Vector-50" fill="#414141" fill-rule="evenodd" stroke="#555555" stroke-width="1" />
      <path d="M234.142 282.033C234.142 282.033 233.012 284.407 232.744 286.898C232.477 289.391 230.762 289.107 230.282 291.414C229.803 293.721 232.4 294.562 230.827 296.124C229.254 297.687 226.78 298.25 226.78 298.25C226.78 298.25 223.832 292.865 225.49 289.075C227.151 285.285 234.142 282.033 234.142 282.033Z" id="Vector-45" fill="#F3F2EF" fill-rule="evenodd" stroke="none" />
      <path d="M248.354 289.383C248.354 289.383 246.465 290.597 245.041 291.745C243.621 292.895 242.793 294.918 242.793 294.918C242.793 294.918 241.014 297.868 240.629 299.931C240.243 301.99 241.249 303.163 241.249 303.163C241.249 303.163 242.948 302.624 244.845 301.132C246.738 299.638 247.344 298.365 248.222 295.427C249.099 292.49 248.354 289.383 248.354 289.383Z" id="Vector-46" fill="#E3E3E3" fill-rule="evenodd" stroke="none" />
      <path d="M92.6411 181.975C92.6411 181.975 91.0295 183.467 90.9561 185.32C90.8826 187.174 92.3494 189.389 92.3494 189.389L86.768 197.978C86.768 197.978 84.2465 197.315 83.7733 194.56C83.3 191.803 84.8749 186.953 84.8749 186.953C84.8749 186.953 87.1005 184.042 89.0446 182.798C90.9846 181.553 92.6411 181.975 92.6411 181.975Z" id="Vector-47" fill="#F1F1F1" fill-rule="evenodd" stroke="none" />
      <path d="M130.174 283.53C130.174 283.53 126.645 287.314 126.812 290.385C126.977 293.456 127.895 296.359 127.895 296.359C127.895 296.359 126.663 295.83 125.623 297.186C124.58 298.545 123.734 301.787 123.734 301.787C123.734 301.787 121.561 301.142 120.788 299.016C120.015 296.889 120.643 293.28 120.643 293.28C120.643 293.28 121.449 290.533 123.76 287.722C126.074 284.91 130.174 283.53 130.174 283.53Z" id="Vector-48" fill="#F7F7F7" fill-rule="evenodd" stroke="none" />
      <path d="M139.965 287.106C139.965 287.106 138.719 288.964 138.799 291.069C138.88 293.176 140.588 293.624 140.292 295.53C139.702 299.293 137.611 302.166 137.611 302.166C137.611 302.166 139.058 302.14 140.6 300.665C142.144 299.193 143.778 296.271 143.778 296.271C143.778 296.271 143.678 291.279 142.724 288.989C141.771 286.696 139.965 287.106 139.965 287.106Z" id="Vector-49" fill="#F8F8F8" fill-rule="evenodd" stroke="none" />
    </g>
  </g>
</svg>