<?xml version="1.0" encoding="utf-8"?>
<svg width="343px" height="331px" viewBox="0 0 343 331" version="1.1" xmlns:xlink="http://www.w3.org/1999/xlink" xmlns="http://www.w3.org/2000/svg">
  <defs>
    <path d="M0 0L343 0L343 331L0 331L0 0Z" id="path_1" />
    <clipPath id="clip_1">
      <use xlink:href="#path_1" />
    </clipPath>
  </defs>
  <g id="Frame" clip-path="url(#clip_1)">
    <path d="M0 0L343 0L343 331L0 331L0 0Z" id="Frame" fill="#FFFFFF" fill-opacity="0" fill-rule="evenodd" stroke="none" />
    <path d="M167.87 184.819L259.442 283.775C259.442 283.775 266.661 284.071 270.543 280.717C274.426 277.364 274.974 270.361 274.974 270.361L182.472 174.532L167.87 184.819Z" id="Vector-3" fill="#3C174D" fill-rule="evenodd" stroke="none" />
    <path d="M49.4225 121.61C49.4225 74.6795 87.5029 36.6347 134.477 36.6347C181.452 36.6347 219.532 74.6795 219.532 121.61C219.532 168.541 181.452 206.586 134.477 206.586C87.5029 206.586 49.4225 168.541 49.4225 121.61Z" id="Oval" fill="#3C174D" fill-rule="evenodd" stroke="none" />
    <path d="M48.124 115.86L101.467 115.86L119.544 138.222L143.567 83.9143L168.24 115.86L219.532 115.86L219.532 138.222L162.256 138.314L143.567 115.86L119.544 173.362L95.521 134.389L48.124 134.389L48.124 115.86Z" id="Vector" fill="#FFFFFF" fill-rule="evenodd" stroke="none" />
    <path d="M219.532 115.86L273.692 116.842C273.692 116.842 283 120.557 283 126.308C283 132.058 274.357 137.225 274.357 137.225L219.532 137.88L219.532 115.86Z" id="Vector-2" fill="#3C174D" fill-rule="evenodd" stroke="none" />
  </g>
</svg>