<?xml version="1.0" encoding="utf-8"?>
<svg width="285px" height="304px" viewBox="0 0 285 304" version="1.1" xmlns:xlink="http://www.w3.org/1999/xlink" xmlns="http://www.w3.org/2000/svg">
  <defs>
    <path d="M0 0L285 0L285 304L0 304L0 0Z" id="path_1" />
    <path d="M154.658 61.7654C154.658 61.7654 80.8949 32.4918 34.6407 113.067C-11.6136 193.642 63.7628 247.605 63.7628 247.605C63.7628 247.605 131.927 295.704 192.974 247.665C254.022 199.626 231.037 125.219 231.037 125.219L126.352 162.541L154.658 61.7654Z" id="path_2" />
    <path d="M165.411 116.401L192.294 21.8144C192.294 21.8144 221.81 29.8678 238.487 44.5865C255.163 59.3052 259 80.6893 259 80.6893L165.411 116.401Z" id="path_3" />
    <clipPath id="clip_1">
      <use xlink:href="#path_1" />
    </clipPath>
    <clipPath id="clip_2">
      <use xlink:href="#path_2" />
    </clipPath>
    <clipPath id="clip_3">
      <use xlink:href="#path_3" />
    </clipPath>
  </defs>
  <g id="Frame" clip-path="url(#clip_1)">
    <path d="M0 0L285 0L285 304L0 304L0 0Z" id="Frame" fill="#FFFFFF" fill-opacity="0" fill-rule="evenodd" stroke="none" />
    <g id="Vector">
      <g clip-path="url(#clip_2)">
        <use xlink:href="#path_2" fill="none" stroke="#3C174D" stroke-width="24" />
      </g>
    </g>
    <g id="Vector-2">
      <g clip-path="url(#clip_3)">
        <use xlink:href="#path_3" fill="none" stroke="#3C174D" stroke-width="24" />
      </g>
    </g>
  </g>
</svg>