<?xml version="1.0" encoding="utf-8"?>
<svg width="884px" height="985px" viewBox="0 0 884 985" version="1.1" xmlns:xlink="http://www.w3.org/1999/xlink" xmlns="http://www.w3.org/2000/svg">
  <defs>
    <path d="M0 0L884 0L884 985L0 985L0 0Z" id="path_1" />
    <path d="M0.0311973 35.595C0.0311973 35.595 3.847 52.2871 63.6016 61.7021C123.356 71.117 239.05 73.2548 239.05 73.2548L239.05 228.146C239.05 228.146 118.806 220.858 59.6674 211.139C0.528867 201.42 2.4953 189.271 2.4953 189.271L0.0311973 35.595Z" id="path_2" />
    <path d="M16.1706 120.183C16.1706 120.183 59.1446 134.226 75.3092 131.116" id="path_3" />
    <path d="M16.1706 147.36C16.1706 147.36 59.1446 161.404 75.3092 158.294" id="path_4" />
    <path d="M100.282 65.8866L101.182 7.65368C101.182 7.65368 54.7531 13.7015 29.65 20.2313C4.54691 26.761 0 35.2911 0 35.2911C0 35.2911 3.66934 47.3119 28.4644 53.2341C53.2595 59.1564 42.1735 57.7221 60.1279 60.8852C78.0823 64.0483 100.282 65.8866 100.282 65.8866Z" id="path_5" />
    <path d="M410.305 0L347.47 89.8975C347.47 89.8975 377.803 87.4968 416.767 88.4079C455.73 89.319 503.325 93.5419 503.325 93.5419L410.305 0Z" id="path_6" />
    <path d="M538.772 31.9507C538.772 31.9507 592.503 38.0275 616.296 39.7384C640.09 41.4494 635.545 46.1406 635.545 46.1406L633.607 128.651C633.607 128.651 637.099 120.893 613.91 118.766C590.72 116.64 540.051 105.453 540.051 105.453L538.772 31.9507Z" id="path_7" />
    <path d="M486.41 215.137C486.41 215.137 560.01 214.546 611.756 206.346C663.503 198.146 695.524 180.16 695.524 180.16L693.799 335.658C693.799 335.658 664.324 347.205 613.809 354.798C563.295 362.391 490.481 368.517 490.481 368.517L486.41 215.137Z" id="path_8" />
    <path d="M624.807 153.433L622.976 205.565C622.976 205.565 644.379 201.64 662.552 196.173C680.724 190.706 695.069 181.339 695.069 181.339C695.069 181.339 682.119 169.7 664.254 163.018C646.39 156.336 624.807 153.433 624.807 153.433Z" id="path_9" />
    <path d="M301.14 141.892C301.14 141.892 317.65 118.182 350.792 117.332C383.934 116.482 404.56 155.456 404.56 155.456C404.56 155.456 386.434 154.082 380.366 175.038C374.298 195.994 391.696 208.708 391.696 208.708C391.696 208.708 369.192 236.413 334.633 227.423C300.074 218.433 296.828 194.13 296.828 194.13C296.828 194.13 291.358 181.671 292.436 168.612C293.514 155.552 301.14 141.892 301.14 141.892Z" id="path_10" />
    <path d="M301.118 144.647C301.118 144.647 294.433 158.026 293.201 170.781C291.969 183.537 299.901 197.508 299.901 197.508C299.901 197.508 288.347 193.34 285.428 187.117C282.509 180.895 282.937 169.847 282.937 169.847C282.937 169.847 283.658 160.969 288.124 154.591C292.59 148.213 301.118 144.647 301.118 144.647Z" id="path_11" />
    <path d="M399.843 154.652C399.843 154.652 403.722 154.779 407.078 158.147C410.434 161.516 411.824 164.762 413.268 168.127C416.656 176.023 414.342 186.237 414.342 186.237C414.342 186.237 411.195 197.877 406.113 203.8C401.031 209.722 392.042 211.715 392.042 211.715C392.042 211.715 384.322 207.017 380.163 199.576C376.005 192.135 377.38 180.163 377.38 180.163C377.38 180.163 379.522 169.145 385.059 163.234C390.596 157.322 390.715 157.851 394.332 156.172C397.949 154.493 399.843 154.652 399.843 154.652Z" id="path_12" />
    <path d="M386.208 178.944C386.208 178.944 388.165 173.282 391.245 170.245C394.326 167.208 398.528 166.796 398.528 166.796C398.528 166.796 404.792 168.79 406.948 173.346C409.104 177.901 407.153 185.018 407.153 185.018C407.153 185.018 405.229 190.512 401.995 193.549C398.761 196.586 394.216 197.166 394.216 197.166C394.216 197.166 389.712 196.487 387.71 191.932C385.708 187.376 386.208 178.944 386.208 178.944Z" id="path_13" />
    <path d="M402.768 155.754L411.823 131.609C411.823 131.609 413.116 131.686 414.032 132.158C414.948 132.629 415.487 133.495 415.487 133.495L406.4 159.462L402.768 155.754Z" id="path_14" />
    <path d="M336.566 140.118C336.518 137.435 339.514 135.207 343.256 135.143C346.999 135.078 350.071 137.201 350.118 139.885C350.166 142.568 347.171 144.796 343.428 144.86C339.686 144.925 336.613 142.801 336.566 140.118Z" id="path_15" />
    <path d="M343.202 135.065L348.976 127.406C351.793 124.021 354.771 120.919 354.98 120.633C355.383 120.08 356.828 121.24 356.828 121.24C356.828 121.24 353.156 125.229 350.384 128.722C347.612 132.215 345.74 135.211 345.74 135.211L343.202 135.065Z" id="path_16" />
    <path d="M324.182 171.655C324.182 171.655 323.491 176.707 325.956 180.351C328.42 183.996 328.12 184.611 332.955 185.455C337.79 186.3 338.821 185.156 341.748 182.174C344.674 179.191 345.743 174.303 345.743 174.303L324.182 171.655Z" id="path_17" />
    <path d="M330.348 183.805C330.348 183.805 329.881 182.477 331.101 181.817C332.322 181.156 334.737 181.086 334.737 181.086C334.737 181.086 337.899 181.051 338.669 182.114C339.439 183.177 338.356 184.412 338.356 184.412C338.356 184.412 336.079 184.951 334.077 184.799C332.075 184.647 330.348 183.805 330.348 183.805Z" id="path_18" />
    <path d="M69.9748 208.217C69.9748 208.217 82.1922 214.869 98.3568 216.958C114.521 219.048 134.633 216.575 134.633 216.575C134.633 216.575 132.678 239.6 136.066 250.685C139.455 261.77 153.607 261.402 153.607 261.402C153.607 261.402 209.171 248.528 254.88 243.334C300.589 238.141 335.951 242.572 335.951 242.572C335.951 242.572 382.738 249.541 421.548 273.23C460.358 296.919 491.684 335.385 491.684 335.385L492.915 365.148L590.306 355.823L581.159 380.182C576.952 388.338 570.986 394.946 564.989 401.295C550.358 416.784 529.261 420.423 529.261 420.423C529.261 420.423 509.816 428.695 480.232 417.662C450.648 406.629 410.926 376.29 410.926 376.29C410.926 376.29 403.508 388.916 392.434 399.797C381.359 410.679 364.165 417.386 364.165 417.386C364.165 417.386 373.452 423.125 381.552 435.364C389.653 447.604 392.783 469.143 392.783 469.143L396.897 514.517C397.959 547.703 398.613 592.616 421.937 632.138C463.519 702.598 561.911 747.212 561.911 747.212C561.911 747.212 548.034 787.824 531.956 812.698C515.877 837.572 497.597 846.707 497.597 846.707C497.597 846.707 478.095 835.276 471.165 817.843C464.235 800.411 466.426 781.349 466.426 781.349C466.426 781.349 384.441 744.772 335.159 670.667C316.205 642.168 290.681 573.205 290.681 573.205C290.681 573.205 280.443 647.032 277.671 709.748C274.899 772.463 284.698 835.288 284.698 835.288C284.698 835.288 255.359 845.991 224.558 847.51C193.757 849.028 161.492 841.362 161.492 841.362C161.492 841.362 159.566 823.58 168.529 807.484C177.492 791.387 197.345 776.976 197.345 776.976C197.345 776.976 190.387 614.854 205.634 521.919C220.881 428.985 261.289 407.667 261.289 407.667C261.289 407.667 243.926 392.734 234.07 375.119C224.213 357.504 221.863 337.207 221.863 337.207C221.863 337.207 129.016 347.907 90.5145 315.866C52.0127 283.825 69.9748 208.217 69.9748 208.217Z" id="path_19" />
    <path d="M70.2667 277.165C70.2667 277.165 73.1459 268.316 80.5382 265.279C87.9306 262.242 99.0495 265.497 99.0495 265.497C99.0495 265.497 108.714 270.827 113.642 279.027C118.57 287.227 118.762 298.298 118.762 298.298C118.762 298.298 118.216 309.502 111.748 314.817C105.28 320.132 98.9509 319.871 98.9509 319.871C98.9509 319.871 87.0995 313.845 79.9285 303.168C72.7574 292.492 70.2667 277.165 70.2667 277.165Z" id="path_20" />
    <path d="M213.382 249.147C213.382 249.147 233.085 244.859 250.95 242.733C268.815 240.607 287.857 241.236 287.857 241.236C287.857 241.236 290.814 250.381 283.576 257.214C276.337 264.047 258.904 268.57 258.904 268.57C258.904 268.57 236.681 270.194 226.054 265.486C215.428 260.779 213.382 249.147 213.382 249.147Z" id="path_21" />
    <path d="M314.329 243.33C314.329 243.33 322.49 242.375 332.039 243.589C341.587 244.804 352.522 248.189 352.522 248.189C352.522 248.189 355.563 256.481 349.864 259.973C344.166 263.466 329.729 261.577 329.729 261.577C329.729 261.577 318.541 259.241 314.691 254.533C310.841 249.826 314.329 243.33 314.329 243.33Z" id="path_22" />
    <path d="M385.954 257.283C385.954 257.283 400.554 261.377 415.646 270.489C430.739 279.6 449.805 294.063 449.805 294.063C449.805 294.063 444.804 304.208 433.253 304.664C421.703 305.119 400.547 295.419 400.547 295.419C400.547 295.419 385.355 283.58 381.813 274.013C378.271 264.446 385.954 257.283 385.954 257.283Z" id="path_23" />
    <path d="M308.787 287.065C308.787 287.065 325.777 291.208 331.321 303.66C336.865 316.112 330.964 336.873 330.964 336.873C330.964 336.873 327.347 356.522 317.644 365.026C307.942 373.53 292.154 370.888 292.154 370.888C292.154 370.888 275.324 367.712 269.78 355.412C264.236 343.112 269.977 321.688 269.977 321.688C269.977 321.688 273.219 302.135 282.922 293.479C292.624 284.823 308.787 287.065 308.787 287.065Z" id="path_24" />
    <path d="M279.594 346.352C279.701 343.334 282.269 340.974 285.329 341.079C288.39 341.184 290.784 343.716 290.678 346.733C290.571 349.751 288.003 352.112 284.942 352.006C281.882 351.901 279.487 349.369 279.594 346.352Z" id="path_25" />
    <path d="M510.387 759.896C510.493 756.878 513.061 754.517 516.122 754.623C519.182 754.728 521.577 757.26 521.47 760.277C521.363 763.295 518.795 765.655 515.735 765.55C512.674 765.445 510.28 762.913 510.387 759.896Z" id="path_26" />
    <path d="M241.385 798.774C241.492 795.757 244.06 793.396 247.12 793.501C250.181 793.607 252.576 796.138 252.469 799.156C252.362 802.173 249.794 804.534 246.733 804.429C243.673 804.323 241.278 801.792 241.385 798.774Z" id="path_27" />
    <path d="M262.329 456.17C262.436 453.152 265.004 450.791 268.064 450.897C271.125 451.002 273.519 453.534 273.412 456.551C273.306 459.569 270.738 461.929 267.677 461.824C264.617 461.719 262.222 459.187 262.329 456.17Z" id="path_28" />
    <path d="M323.621 258.897C320.911 261.449 311.021 282.924 309.789 289.727" id="path_29" />
    <path d="M305.835 307.801C298.881 323.806 293.149 374.759 296.619 371.649" id="path_30" />
    <path d="M287.868 307.405C285.798 309.252 297.594 345.464 323.583 317.751" id="path_31" />
    <path d="M290.923 347.808L295.851 349.023" id="path_32" />
    <path d="M273.665 455.927C275.932 455.149 297.538 454.381 310.055 462.448" id="path_33" />
    <path d="M263.813 460.785C259.673 461.368 226.605 546.406 225.619 599.276" id="path_34" />
    <path d="M313.983 455.048C317.494 471.874 322.947 564.047 322.947 564.047C322.947 564.047 333.358 618.533 341.428 630.863" id="path_35" />
    <path d="M224.389 662.447C224.389 662.447 230.402 769.547 246.566 793.649" id="path_36" />
    <path d="M377.327 675.445C372.99 683.22 455.291 743.135 512.853 754.409" id="path_37" />
    <path d="M199.129 601.014C199.129 601.014 204.28 596.668 208.592 595.149C212.904 593.631 216.378 594.94 216.378 594.94C216.378 594.94 229.35 597.376 235.972 605.728C242.594 614.08 242.867 628.347 242.867 628.347C242.867 628.347 242.933 644.355 236.619 653.618C230.304 662.881 217.61 665.4 217.61 665.4C217.61 665.4 210.446 665.63 205.363 663.808C200.281 661.985 197.281 658.111 197.281 658.111L199.129 601.014Z" id="path_38" />
    <path d="M318.27 635.234C318.27 635.234 331.736 626.698 345.504 630.13C359.273 633.562 367.922 644.831 367.922 644.831C367.922 644.831 374.697 653.497 376.545 662.761C378.393 672.024 375.314 681.884 375.314 681.884C375.314 681.884 371.645 689.131 366.717 693.383C361.789 697.635 358.804 698.648 358.804 698.648C358.804 698.648 344.613 683.485 335.218 668.907C325.824 654.329 318.27 635.234 318.27 635.234Z" id="path_39" />
    <path d="M197.944 775.369L218.772 796.613C218.772 796.613 225.855 805.302 228.628 812.895C231.4 820.488 233.014 830.094 233.014 830.094C233.014 830.094 211.111 833.587 193.246 832.524C175.381 831.461 161.555 825.842 161.555 825.842C161.555 825.842 161.978 812.35 170.959 800.998C179.939 789.647 197.944 775.369 197.944 775.369Z" id="path_40" />
    <path d="M162.785 825.237C162.785 825.237 184.344 833.522 213.605 832.611C242.866 831.7 282.341 819.724 282.341 819.724L284.312 835.563C284.312 835.563 251.482 848.616 217.091 846.6C182.7 844.584 162.169 841.323 162.169 841.323L162.785 825.237Z" id="path_41" />
    <path d="M528.608 783.006C528.608 783.006 513.207 773.483 497.215 773.714C481.223 773.945 465.107 778.4 465.107 778.4C465.107 778.4 464.097 800.756 468.563 814.119C473.03 827.482 484.841 835.539 484.841 835.539C484.841 835.539 498.262 825.961 509.196 811.687C520.131 797.412 528.608 783.006 528.608 783.006Z" id="path_42" />
    <path d="M548.418 740.196L561.97 747.485C561.97 747.485 552.478 774.789 536.615 804.453C520.753 834.116 497.585 845.404 497.585 845.404C497.585 845.404 493.022 843.259 490.037 840.918C487.053 838.578 485.646 836.042 485.646 836.042C485.646 836.042 505.523 821.66 521.54 797.515C537.557 773.371 548.418 740.196 548.418 740.196Z" id="path_43" />
    <path d="M16.1706 91.4778C16.1706 91.4778 59.1446 105.521 75.3092 102.411" id="path_44" />
    <path d="M129.518 118.81C129.518 109.752 136.965 102.409 146.151 102.409C155.337 102.409 162.784 109.752 162.784 118.81C162.784 127.867 155.337 135.21 146.151 135.21C136.965 135.21 129.518 127.867 129.518 118.81Z" id="path_45" />
    <path d="M173.873 154.038C173.873 144.981 181.32 137.638 190.506 137.638C199.692 137.638 207.138 144.981 207.138 154.038C207.138 163.096 199.692 170.438 190.506 170.438C181.32 170.438 173.873 163.096 173.873 154.038Z" id="path_46" />
    <path d="M70.8699 209.703C70.8699 209.703 71.96 196.829 77.5043 184.681C83.0485 172.533 90.0899 160.721 90.0899 160.721C90.0899 160.721 88.8244 149.845 91.2885 144.53C93.7526 139.215 99.9463 139.462 99.9463 139.462C99.9463 139.462 102.557 139.617 104.867 140.528C107.178 141.439 109.187 143.106 109.187 143.106C109.187 143.106 108.779 140.426 111.243 138.452C113.707 136.478 118.797 136.182 118.797 136.182C118.797 136.182 125.037 135.9 127.809 139.241C130.581 142.582 130.132 148.573 130.132 148.573C130.132 148.573 132.349 141.455 133.889 137.355C135.429 133.255 136.292 132.173 136.292 132.173C136.292 132.173 140.52 134.985 145.14 135.136C149.76 135.288 154.773 132.78 154.773 132.78C154.773 132.78 156.218 137.409 154.863 144.971C153.508 152.534 149.352 163.03 149.352 163.03C149.352 163.03 153.458 168.772 149.916 183.046C148.757 187.715 145.355 193.712 143.291 198.689L135.183 216.677C135.183 216.677 116.262 218.196 99.3211 216.222C82.3804 214.248 70.8699 209.703 70.8699 209.703Z" id="path_47" />
    <path d="M91.8215 161.45C91.8215 161.45 93.1519 172.832 97.6181 173.683C102.084 174.533 107.161 173.265 109.193 165.824C111.226 158.383 107.438 153.433 109.563 144.078" id="path_48" />
    <path d="M108.577 163.151C108.577 163.151 114.737 181.131 123.362 168.011" id="path_49" />
    <path d="M149.231 161.937C149.293 158.444 127.454 143.532 120.894 152.461C114.333 161.39 129.888 174.328 129.888 174.328C129.888 174.328 115.565 183.622 114.733 196.56" id="path_50" />
    <path d="M559.451 78.6627C559.451 63.1811 571.973 50.6307 587.42 50.6307C602.867 50.6307 615.389 63.1811 615.389 78.6627C615.389 94.1443 602.867 106.695 587.42 106.695C571.973 106.695 559.451 94.1443 559.451 78.6627Z" id="path_51" />
    <path d="M568.444 78.4684C568.444 68.8591 576.717 61.0692 586.923 61.0692C597.129 61.0692 605.403 68.8591 605.403 78.4684C605.403 88.0776 597.129 95.8675 586.923 95.8675C576.717 95.8675 568.444 88.0776 568.444 78.4684Z" id="path_52" />
    <path d="M599.123 84.0776C600.462 85.281 614.107 97.127 614.107 97.127" id="path_53" />
    <path d="M606.4 67.8367L619.386 60.1038" id="path_54" />
    <path d="M564.444 80.652L548.462 79.4372" id="path_55" />
    <path d="M316.235 315.683C316.342 312.665 318.91 310.305 321.971 310.41C325.031 310.515 327.426 313.047 327.319 316.064C327.212 319.082 324.644 321.443 321.583 321.337C318.523 321.232 316.129 318.7 316.235 315.683Z" id="path_56" />
    <path d="M284.677 308.138C284.784 305.12 287.351 302.76 290.412 302.865C293.472 302.97 295.867 305.502 295.76 308.519C295.653 311.537 293.085 313.898 290.025 313.792C286.964 313.687 284.57 311.155 284.677 308.138Z" id="path_57" />
    <path d="M301.762 304.305C301.869 301.288 304.437 298.927 307.498 299.033C310.558 299.138 312.953 301.67 312.846 304.687C312.739 307.704 310.171 310.065 307.111 309.96C304.05 309.854 301.656 307.323 301.762 304.305Z" id="path_58" />
    <path d="M310.386 465.047C310.493 462.029 313.06 459.668 316.121 459.774C319.182 459.879 321.576 462.411 321.469 465.428C321.362 468.446 318.794 470.807 315.734 470.701C312.673 470.596 310.279 468.064 310.386 465.047Z" id="path_59" />
    <path d="M504.344 423.707C504.344 423.707 522.214 422.809 535.15 418.861C548.087 414.913 557.292 407.39 557.292 407.39C557.292 407.39 555.318 390.387 547.414 384.732C539.51 379.077 524.199 380.883 524.199 380.883C524.199 380.883 507.68 388.532 502.597 397.795C497.515 407.058 504.344 423.707 504.344 423.707Z" id="path_60" />
    <clipPath id="clip_1">
      <use xlink:href="#path_1" />
    </clipPath>
    <clipPath id="clip_2">
      <use xlink:href="#path_2" />
    </clipPath>
    <clipPath id="clip_3">
      <use xlink:href="#path_3" />
    </clipPath>
    <clipPath id="clip_4">
      <use xlink:href="#path_4" />
    </clipPath>
    <clipPath id="clip_5">
      <use xlink:href="#path_5" />
    </clipPath>
    <clipPath id="clip_6">
      <use xlink:href="#path_6" />
    </clipPath>
    <clipPath id="clip_7">
      <use xlink:href="#path_7" />
    </clipPath>
    <clipPath id="clip_8">
      <use xlink:href="#path_8" />
    </clipPath>
    <clipPath id="clip_9">
      <use xlink:href="#path_9" />
    </clipPath>
    <clipPath id="clip_10">
      <use xlink:href="#path_10" />
    </clipPath>
    <clipPath id="clip_11">
      <use xlink:href="#path_11" />
    </clipPath>
    <clipPath id="clip_12">
      <use xlink:href="#path_12" />
    </clipPath>
    <clipPath id="clip_13">
      <use xlink:href="#path_13" />
    </clipPath>
    <clipPath id="clip_14">
      <use xlink:href="#path_14" />
    </clipPath>
    <clipPath id="clip_15">
      <use xlink:href="#path_15" />
    </clipPath>
    <clipPath id="clip_16">
      <use xlink:href="#path_16" />
    </clipPath>
    <clipPath id="clip_17">
      <use xlink:href="#path_17" />
    </clipPath>
    <clipPath id="clip_18">
      <use xlink:href="#path_18" />
    </clipPath>
    <clipPath id="clip_19">
      <use xlink:href="#path_19" />
    </clipPath>
    <clipPath id="clip_20">
      <use xlink:href="#path_20" />
    </clipPath>
    <clipPath id="clip_21">
      <use xlink:href="#path_21" />
    </clipPath>
    <clipPath id="clip_22">
      <use xlink:href="#path_22" />
    </clipPath>
    <clipPath id="clip_23">
      <use xlink:href="#path_23" />
    </clipPath>
    <clipPath id="clip_24">
      <use xlink:href="#path_24" />
    </clipPath>
    <clipPath id="clip_25">
      <use xlink:href="#path_25" />
    </clipPath>
    <clipPath id="clip_26">
      <use xlink:href="#path_26" />
    </clipPath>
    <clipPath id="clip_27">
      <use xlink:href="#path_27" />
    </clipPath>
    <clipPath id="clip_28">
      <use xlink:href="#path_28" />
    </clipPath>
    <clipPath id="clip_29">
      <use xlink:href="#path_29" />
    </clipPath>
    <clipPath id="clip_30">
      <use xlink:href="#path_30" />
    </clipPath>
    <clipPath id="clip_31">
      <use xlink:href="#path_31" />
    </clipPath>
    <clipPath id="clip_32">
      <use xlink:href="#path_32" />
    </clipPath>
    <clipPath id="clip_33">
      <use xlink:href="#path_33" />
    </clipPath>
    <clipPath id="clip_34">
      <use xlink:href="#path_34" />
    </clipPath>
    <clipPath id="clip_35">
      <use xlink:href="#path_35" />
    </clipPath>
    <clipPath id="clip_36">
      <use xlink:href="#path_36" />
    </clipPath>
    <clipPath id="clip_37">
      <use xlink:href="#path_37" />
    </clipPath>
    <clipPath id="clip_38">
      <use xlink:href="#path_38" />
    </clipPath>
    <clipPath id="clip_39">
      <use xlink:href="#path_39" />
    </clipPath>
    <clipPath id="clip_40">
      <use xlink:href="#path_40" />
    </clipPath>
    <clipPath id="clip_41">
      <use xlink:href="#path_41" />
    </clipPath>
    <clipPath id="clip_42">
      <use xlink:href="#path_42" />
    </clipPath>
    <clipPath id="clip_43">
      <use xlink:href="#path_43" />
    </clipPath>
    <clipPath id="clip_44">
      <use xlink:href="#path_44" />
    </clipPath>
    <clipPath id="clip_45">
      <use xlink:href="#path_45" />
    </clipPath>
    <clipPath id="clip_46">
      <use xlink:href="#path_46" />
    </clipPath>
    <clipPath id="clip_47">
      <use xlink:href="#path_47" />
    </clipPath>
    <clipPath id="clip_48">
      <use xlink:href="#path_48" />
    </clipPath>
    <clipPath id="clip_49">
      <use xlink:href="#path_49" />
    </clipPath>
    <clipPath id="clip_50">
      <use xlink:href="#path_50" />
    </clipPath>
    <clipPath id="clip_51">
      <use xlink:href="#path_51" />
    </clipPath>
    <clipPath id="clip_52">
      <use xlink:href="#path_52" />
    </clipPath>
    <clipPath id="clip_53">
      <use xlink:href="#path_53" />
    </clipPath>
    <clipPath id="clip_54">
      <use xlink:href="#path_54" />
    </clipPath>
    <clipPath id="clip_55">
      <use xlink:href="#path_55" />
    </clipPath>
    <clipPath id="clip_56">
      <use xlink:href="#path_56" />
    </clipPath>
    <clipPath id="clip_57">
      <use xlink:href="#path_57" />
    </clipPath>
    <clipPath id="clip_58">
      <use xlink:href="#path_58" />
    </clipPath>
    <clipPath id="clip_59">
      <use xlink:href="#path_59" />
    </clipPath>
    <clipPath id="clip_60">
      <use xlink:href="#path_60" />
    </clipPath>
  </defs>
  <g id="Frame" clip-path="url(#clip_1)">
    <path d="M0 0L884 0L884 985L0 985L0 0Z" id="Frame" fill="#FFFFFF" fill-opacity="0" fill-rule="evenodd" stroke="none" />
    <g id="Group-16" transform="translate(101 81)">
      <g id="Vector">
        <use stroke="none" fill="#D9BAEE" xlink:href="#path_2" fill-rule="evenodd" />
        <g clip-path="url(#clip_2)">
          <use xlink:href="#path_2" fill="none" stroke="#464646" stroke-width="2" />
        </g>
      </g>
      <g id="Vector-44">
        <g clip-path="url(#clip_3)">
          <use xlink:href="#path_3" fill="none" stroke="#FFFFFF" stroke-width="40" />
        </g>
      </g>
      <g id="Vector-45">
        <g clip-path="url(#clip_4)">
          <use xlink:href="#path_4" fill="none" stroke="#FFFFFF" stroke-width="28" />
        </g>
      </g>
      <g id="Vector-2">
        <use stroke="none" fill="#AC6EEA" xlink:href="#path_5" fill-rule="evenodd" />
        <g clip-path="url(#clip_5)">
          <use xlink:href="#path_5" fill="none" stroke="#5C5C5C" stroke-width="2" />
        </g>
      </g>
      <g id="Vector-3">
        <use stroke="none" fill="#AC6EEA" xlink:href="#path_6" fill-rule="evenodd" />
        <g clip-path="url(#clip_6)">
          <use xlink:href="#path_6" fill="none" stroke="#414141" stroke-opacity="0.65882355" stroke-width="4" />
        </g>
      </g>
      <g id="Vector-4">
        <use stroke="none" fill="#D9BAEE" xlink:href="#path_7" fill-rule="evenodd" />
        <g clip-path="url(#clip_7)">
          <use xlink:href="#path_7" fill="none" stroke="#000000" stroke-opacity="0.67058825" stroke-width="2" />
        </g>
      </g>
      <g id="Vector-5">
        <use stroke="none" fill="#D9BAEE" xlink:href="#path_8" fill-rule="evenodd" />
        <g clip-path="url(#clip_8)">
          <use xlink:href="#path_8" fill="none" stroke="#1C1B1B" stroke-opacity="0.23137255" stroke-width="5" />
        </g>
      </g>
      <g id="Vector-6">
        <use stroke="none" fill="#AC6EEA" xlink:href="#path_9" fill-rule="evenodd" />
        <g clip-path="url(#clip_9)">
          <use xlink:href="#path_9" fill="none" stroke="#4D4D4D" stroke-width="2" />
        </g>
      </g>
      <g id="Vector-7">
        <use stroke="none" fill="#E3E3F1" xlink:href="#path_10" fill-rule="evenodd" />
        <g clip-path="url(#clip_10)">
          <use xlink:href="#path_10" fill="none" stroke="#2D2D2D" stroke-width="2" />
        </g>
      </g>
      <g id="Vector-8">
        <g clip-path="url(#clip_11)">
          <use xlink:href="#path_11" fill="none" stroke="#262626" stroke-opacity="0.70980394" stroke-width="3" />
        </g>
      </g>
      <g id="Vector-9">
        <use stroke="none" fill="#FFFFFF" xlink:href="#path_12" fill-rule="evenodd" />
        <g clip-path="url(#clip_12)">
          <use xlink:href="#path_12" fill="none" stroke="#000000" stroke-opacity="0.8392157" stroke-width="2.4" />
        </g>
      </g>
      <g id="Vector-10">
        <use stroke="none" fill="#8E739D" xlink:href="#path_13" fill-rule="evenodd" />
        <g clip-path="url(#clip_13)">
          <use xlink:href="#path_13" fill="none" stroke="#000000" stroke-width="2" />
        </g>
      </g>
      <g id="Vector-11">
        <use stroke="none" fill="#8E739D" xlink:href="#path_14" fill-rule="evenodd" />
        <g clip-path="url(#clip_14)">
          <use xlink:href="#path_14" fill="none" stroke="#242525" stroke-width="2" />
        </g>
      </g>
      <path d="M351.567 165.802C352.505 162.578 355.121 160.488 357.411 161.135C359.7 161.783 360.796 164.922 359.858 168.147C358.92 171.371 356.304 173.461 354.014 172.814C351.725 172.166 350.629 169.027 351.567 165.802Z" id="Oval" fill="#200038" fill-rule="evenodd" stroke="none" />
      <path d="M357.217 177.92C360.848 177.027 364.26 178.151 364.836 180.429C365.412 182.708 362.935 185.279 359.303 186.172C355.671 187.064 352.26 185.941 351.684 183.662C351.108 181.384 353.585 178.813 357.217 177.92Z" id="Oval-Copy-2" fill="#370249" fill-opacity="0.49803922" fill-rule="evenodd" stroke="none" />
      <path d="M311.397 169.502C315.023 170.419 317.507 173.012 316.946 175.294C316.385 177.577 312.991 178.684 309.365 177.767C305.74 176.85 303.255 174.257 303.816 171.974C304.377 169.692 307.771 168.585 311.397 169.502Z" transform="matrix(-0.2419219 0.9702957 0.9702957 0.2419219 218.38805 -179.28168)" id="Oval-Copy-3" fill="#2D0249" fill-opacity="0.47058824" fill-rule="evenodd" stroke="none" />
      <path d="M314.418 161.077C314.525 158.06 316.266 155.671 318.306 155.741C320.346 155.811 321.914 158.314 321.807 161.332C321.7 164.349 319.96 166.738 317.919 166.668C315.879 166.598 314.311 164.095 314.418 161.077Z" id="Oval-Copy" fill="#200038" fill-rule="evenodd" stroke="none" />
      <g id="Oval-2">
        <use stroke="none" fill="#FFFFFF" xlink:href="#path_15" fill-rule="evenodd" />
        <g clip-path="url(#clip_15)">
          <use xlink:href="#path_15" fill="none" stroke="#000000" stroke-opacity="0.67058825" stroke-width="2" />
        </g>
      </g>
      <g id="Vector-12">
        <g clip-path="url(#clip_16)">
          <use xlink:href="#path_16" fill="none" stroke="#808080" stroke-width="2" />
        </g>
      </g>
      <g id="Vector-13">
        <use stroke="none" fill="#200038" xlink:href="#path_17" fill-rule="evenodd" />
        <g clip-path="url(#clip_17)">
          <use xlink:href="#path_17" fill="none" stroke="#3E2051" stroke-width="2" />
        </g>
      </g>
      <g id="Vector-14">
        <use stroke="none" fill="#E3E3F1" xlink:href="#path_18" fill-rule="evenodd" />
        <g clip-path="url(#clip_18)">
          <use xlink:href="#path_18" fill="none" stroke="#808080" stroke-width="2" />
        </g>
      </g>
      <g id="Vector-15">
        <use stroke="none" fill="#E3E3F1" xlink:href="#path_19" fill-rule="evenodd" />
        <g clip-path="url(#clip_19)">
          <use xlink:href="#path_19" fill="none" stroke="#000000" stroke-opacity="0.81960785" stroke-width="2" />
        </g>
      </g>
      <path d="M50.991 414.622L249.496 397.371C249.496 397.371 250.946 399.008 254.149 402.515C257.353 406.022 262.31 410.428 262.31 410.428C262.31 410.428 260.016 410.789 255.327 414.571C253.838 415.772 250.958 418.02 247.152 421.738C243.347 425.456 240.103 429.443 240.103 429.443L50.3966 440.133L50.991 414.622Z" id="Vector-16" fill="#75499C" fill-rule="evenodd" stroke="none" />
      <path d="M48.8261 449.852L234.62 439.201C234.62 439.201 230.394 444.89 227.218 451.805C224.042 458.72 220.989 466.86 220.989 466.86L46.9649 477.672L48.8261 449.852Z" id="Vector-17" fill="#75499C" fill-rule="evenodd" stroke="none" />
      <path d="M45.9892 489.94L215.766 480.222L209.606 501.481L44.5108 517.274L45.9892 489.94Z" id="Vector-18" fill="#75499C" fill-rule="evenodd" stroke="none" />
      <g id="Vector-19">
        <use stroke="none" fill="#FFFFFF" xlink:href="#path_20" fill-rule="evenodd" />
        <g clip-path="url(#clip_20)">
          <use xlink:href="#path_20" fill="none" stroke="#000000" stroke-opacity="0.5803922" stroke-width="3" />
        </g>
      </g>
      <g id="Vector-20">
        <use stroke="none" fill="#FFFFFF" xlink:href="#path_21" fill-rule="evenodd" />
        <g clip-path="url(#clip_21)">
          <use xlink:href="#path_21" fill="none" stroke="#1B1B1B" stroke-opacity="0.69803923" stroke-width="3" />
        </g>
      </g>
      <g id="Vector-21">
        <use stroke="none" fill="#200038" xlink:href="#path_22" fill-rule="evenodd" />
        <g clip-path="url(#clip_22)">
          <use xlink:href="#path_22" fill="none" stroke="#75499C" stroke-width="2" />
        </g>
      </g>
      <g id="Vector-22">
        <use stroke="none" fill="#FFFFFF" xlink:href="#path_23" fill-rule="evenodd" />
        <g clip-path="url(#clip_23)">
          <use xlink:href="#path_23" fill="none" stroke="#080808" stroke-opacity="0.6" stroke-width="2.4" />
        </g>
      </g>
      <g id="Vector-24">
        <use stroke="none" fill="#D1B0F7" xlink:href="#path_24" fill-rule="evenodd" />
        <g clip-path="url(#clip_24)">
          <use xlink:href="#path_24" fill="none" stroke="#000000" stroke-opacity="0.56078434" stroke-width="3" />
        </g>
      </g>
      <g id="Oval-4-Copy-3">
        <use stroke="none" fill="#FFFFFF" xlink:href="#path_25" fill-rule="evenodd" />
        <g clip-path="url(#clip_25)">
          <use xlink:href="#path_25" fill="none" stroke="#000000" stroke-width="2" />
        </g>
      </g>
      <g id="Oval-4-Copy-6">
        <use stroke="none" fill="#FFFFFF" xlink:href="#path_26" fill-rule="evenodd" />
        <g clip-path="url(#clip_26)">
          <use xlink:href="#path_26" fill="none" stroke="#000000" stroke-width="2" />
        </g>
      </g>
      <g id="Oval-4-Copy-7">
        <use stroke="none" fill="#FFFFFF" xlink:href="#path_27" fill-rule="evenodd" />
        <g clip-path="url(#clip_27)">
          <use xlink:href="#path_27" fill="none" stroke="#000000" stroke-width="2" />
        </g>
      </g>
      <g id="Oval-4-Copy-5">
        <use stroke="none" fill="#FFFFFF" xlink:href="#path_28" fill-rule="evenodd" />
        <g clip-path="url(#clip_28)">
          <use xlink:href="#path_28" fill="none" stroke="#000000" stroke-width="2" />
        </g>
      </g>
      <g id="Vector-27">
        <g clip-path="url(#clip_29)">
          <use xlink:href="#path_29" fill="none" stroke="#222222" stroke-opacity="0.78039217" stroke-width="38" />
        </g>
      </g>
      <g id="Vector-28">
        <g clip-path="url(#clip_30)">
          <use xlink:href="#path_30" fill="none" stroke="#000000" stroke-width="2" />
        </g>
      </g>
      <g id="Vector-29">
        <g clip-path="url(#clip_31)">
          <use xlink:href="#path_31" fill="none" stroke="#000000" stroke-width="2" />
        </g>
      </g>
      <g id="Vector-30">
        <g clip-path="url(#clip_32)">
          <use xlink:href="#path_32" fill="none" stroke="#808080" stroke-width="2" />
        </g>
      </g>
      <g id="Vector-31">
        <g clip-path="url(#clip_33)">
          <use xlink:href="#path_33" fill="none" stroke="#000000" stroke-opacity="0.5803922" stroke-width="5" />
        </g>
      </g>
      <g id="Vector-32">
        <g clip-path="url(#clip_34)">
          <use xlink:href="#path_34" fill="none" stroke="#151515" stroke-opacity="0.5882353" stroke-width="3" />
        </g>
      </g>
      <g id="Vector-33">
        <g clip-path="url(#clip_35)">
          <use xlink:href="#path_35" fill="none" stroke="#000000" stroke-opacity="0.6" stroke-width="3" />
        </g>
      </g>
      <g id="Vector-34">
        <g clip-path="url(#clip_36)">
          <use xlink:href="#path_36" fill="none" stroke="#000000" stroke-opacity="0.5803922" stroke-width="3" />
        </g>
      </g>
      <g id="Vector-35">
        <g clip-path="url(#clip_37)">
          <use xlink:href="#path_37" fill="none" stroke="#000000" stroke-opacity="0.54901963" stroke-width="3" />
        </g>
      </g>
      <g id="Vector-36">
        <use stroke="none" fill="#FFFFFF" xlink:href="#path_38" fill-rule="evenodd" />
        <g clip-path="url(#clip_38)">
          <use xlink:href="#path_38" fill="none" stroke="#000000" stroke-opacity="0.5803922" stroke-width="3" />
        </g>
      </g>
      <g id="Vector-37">
        <use stroke="none" fill="#FFFFFF" xlink:href="#path_39" fill-rule="evenodd" />
        <g clip-path="url(#clip_39)">
          <use xlink:href="#path_39" fill="none" stroke="#000000" stroke-opacity="0.54901963" stroke-width="3" />
        </g>
      </g>
      <g id="Vector-38">
        <use stroke="none" fill="#FFFFFF" xlink:href="#path_40" fill-rule="evenodd" />
        <g clip-path="url(#clip_40)">
          <use xlink:href="#path_40" fill="none" stroke="#1B1B1B" stroke-opacity="0.5803922" stroke-width="3" />
        </g>
      </g>
      <g id="Vector-39">
        <g clip-path="url(#clip_41)">
          <use xlink:href="#path_41" fill="none" stroke="#808080" stroke-width="1" />
        </g>
      </g>
      <g id="Vector-40">
        <use stroke="none" fill="#FFFFFF" xlink:href="#path_42" fill-rule="evenodd" />
        <g clip-path="url(#clip_42)">
          <use xlink:href="#path_42" fill="none" stroke="#1C1C1C" stroke-opacity="0.61960787" stroke-width="3" />
        </g>
      </g>
      <g id="Vector-41">
        <g clip-path="url(#clip_43)">
          <use xlink:href="#path_43" fill="none" stroke="#808080" stroke-width="1" />
        </g>
      </g>
      <path d="M215.766 852.786C215.766 852.786 242.89 860.369 329.749 859.458C374.25 858.991 440.765 860.129 488.903 857.709L563.303 849.531C563.303 849.531 565.932 845.046 554.228 842.313C542.523 839.579 517.964 832.766 517.964 832.766C517.964 832.766 513.07 839.521 507.789 844.278C502.508 849.035 496.841 851.795 496.841 851.795L476.074 833.981L282.494 834.685L282.775 838.845C282.775 838.845 270.565 844.192 253.655 847.284C236.745 850.376 215.766 852.786 215.766 852.786Z" id="Vector-42" fill="#E1DAE7" fill-rule="evenodd" stroke="none" />
      <g id="Vector-43">
        <g clip-path="url(#clip_44)">
          <use xlink:href="#path_44" fill="none" stroke="#FFFFFF" stroke-width="30" />
        </g>
      </g>
      <path d="M134.447 118.809C134.447 112.436 139.688 107.269 146.152 107.269C152.616 107.269 157.856 112.436 157.856 118.809C157.856 125.183 152.616 130.35 146.152 130.35C139.688 130.35 134.447 125.183 134.447 118.809Z" id="Oval-8" fill="#FFFFFF" fill-rule="evenodd" stroke="none" />
      <g id="Oval-11">
        <use stroke="none" fill="#D3D3D3" fill-opacity="0" xlink:href="#path_45" fill-rule="evenodd" />
        <g clip-path="url(#clip_45)">
          <use xlink:href="#path_45" fill="none" stroke="#FFFFFF" stroke-width="2" />
        </g>
      </g>
      <g id="Oval-11-Copy">
        <use stroke="none" fill="#D3D3D3" fill-opacity="0" xlink:href="#path_46" fill-rule="evenodd" />
        <g clip-path="url(#clip_46)">
          <use xlink:href="#path_46" fill="none" stroke="#FFFFFF" stroke-width="2" />
        </g>
      </g>
      <path d="M183.729 153.433C183.729 149.408 186.763 146.144 190.505 146.144C194.247 146.144 197.281 149.408 197.281 153.433C197.281 157.459 194.247 160.722 190.505 160.722C186.763 160.722 183.729 157.459 183.729 153.433Z" id="Oval-9" fill="#FFFFFF" fill-rule="evenodd" stroke="none" />
      <path d="M170.8 189.616C170.384 184.937 173.62 180.836 178.027 180.456C182.434 180.076 186.342 183.561 186.758 188.239C187.173 192.918 183.937 197.019 179.53 197.399C175.124 197.78 171.215 194.295 170.8 189.616Z" id="Oval-10" fill="#FFFFFF" fill-rule="evenodd" stroke="none" />
      <g id="Vector-46">
        <g clip-path="url(#clip_47)">
          <use xlink:href="#path_47" fill="none" stroke="#FFFFFF" stroke-width="2" />
        </g>
      </g>
      <g id="Vector-47">
        <g clip-path="url(#clip_48)">
          <use xlink:href="#path_48" fill="none" stroke="#FFFFFF" stroke-width="2" />
        </g>
      </g>
      <g id="Vector-48">
        <g clip-path="url(#clip_49)">
          <use xlink:href="#path_49" fill="none" stroke="#FFFFFF" stroke-width="2" />
        </g>
      </g>
      <g id="Vector-49">
        <g clip-path="url(#clip_50)">
          <use xlink:href="#path_50" fill="none" stroke="#FFFFFF" stroke-width="2" />
        </g>
      </g>
      <g id="Oval-12">
        <use stroke="none" fill="#D3D3D3" fill-opacity="0" xlink:href="#path_51" fill-rule="evenodd" />
        <g clip-path="url(#clip_51)">
          <use xlink:href="#path_51" fill="none" stroke="#AC6EEA" stroke-width="2" />
        </g>
      </g>
      <g id="Oval-12-Copy">
        <use stroke="none" fill="#AC6EEA" xlink:href="#path_52" fill-rule="evenodd" />
        <g clip-path="url(#clip_52)">
          <use xlink:href="#path_52" fill="none" stroke="#808080" stroke-width="2" />
        </g>
      </g>
      <g id="Vector-51">
        <g clip-path="url(#clip_53)">
          <use xlink:href="#path_53" fill="none" stroke="#808080" stroke-width="2" />
        </g>
      </g>
      <g id="Vector-52">
        <g clip-path="url(#clip_54)">
          <use xlink:href="#path_54" fill="none" stroke="#808080" stroke-width="2" />
        </g>
      </g>
      <g id="Vector-53">
        <g clip-path="url(#clip_55)">
          <use xlink:href="#path_55" fill="none" stroke="#808080" stroke-width="2" />
        </g>
      </g>
      <path d="M490.614 338.486C490.614 338.486 495.06 339.513 499.681 342.246C504.301 344.98 511.618 345.221 511.618 345.221C511.618 345.221 522.735 343.624 523.548 322.562C524.361 301.501 514.082 268.128 514.082 268.128C514.082 268.128 512.885 261.756 515.746 259.719C518.607 257.681 522.734 259.614 524.581 260.134C528.893 261.349 531.804 265.99 531.804 265.99C531.804 265.99 526.569 253.296 526.723 245.247C526.877 237.199 530.528 233.486 530.528 233.486C530.528 233.486 534.816 232.081 537.982 233.226C541.149 234.37 543.824 237.908 543.824 237.908C543.824 237.908 544.932 232.078 547.858 229.952C550.784 227.826 555.055 228.16 555.055 228.16C555.055 228.16 558.57 229.083 561.188 232.272C563.806 235.461 566.001 241.538 566.001 241.538C566.001 241.538 568.547 237.493 571.935 237.189C575.323 236.885 578.607 239.079 578.607 239.079C578.607 239.079 583.006 244.599 586.107 256.544C589.208 268.489 589.451 275.777 590.396 287.769C591.52 302.03 592.239 312.372 591.602 329.507C590.965 346.643 588.321 357.243 588.321 357.243L491.23 367.797L490.614 338.486Z" id="Vector-54" fill="#AC6EEA" fill-rule="evenodd" stroke="#FFFFFF" stroke-width="1" />
      <path d="M522.547 310.146C531.063 315.743 581.291 317.386 591.542 306.501" id="Vector-55" fill="none" fill-rule="evenodd" stroke="#FFFFFF" stroke-width="1" />
      <path d="M531.171 265.197L540.899 277.812C540.899 277.812 559.668 281.461 562.716 288.842" id="Vector-56" fill="none" fill-rule="evenodd" stroke="#FFFFFF" stroke-width="1" />
      <path d="M544.279 238.626C544.279 238.626 551.04 250.794 549.779 262.146" id="Vector-57" fill="none" fill-rule="evenodd" stroke="#FFFFFF" stroke-width="1" />
      <path d="M566.257 241.679C566.257 241.679 569.549 255.712 568.287 267.064" id="Vector-57-Copy" fill="none" fill-rule="evenodd" stroke="#FFFFFF" stroke-width="1" />
      <path d="M540.868 262.485C552.38 259.531 578.569 271.92 577.987 272.486" id="Vector-58" fill="none" fill-rule="evenodd" stroke="#FFFFFF" stroke-width="1" />
      <path d="M572.076 313.355C576.61 329.877 566.98 360.792 566.98 360.792" id="Vector-59" fill="none" fill-rule="evenodd" stroke="#FFFFFF" stroke-width="1" />
      <path d="M611.253 225.108C612.255 220.338 631.322 223.763 649.803 219.785C668.284 215.806 683.996 207.42 685.176 209.194C686.356 210.968 689.393 309.461 687.64 313.378C685.888 317.295 615.455 334.543 612.719 330.601C609.984 326.658 610.25 229.879 611.253 225.108Z" id="Vector-60" fill="none" fill-rule="evenodd" stroke="#FFFFFF" stroke-width="1" />
      <path d="M621.107 238.472C621.107 238.472 640.141 239.952 654.926 236.307C669.711 232.663 680.246 223.894 680.246 223.894L680.862 262.769C680.862 262.769 672.36 270.403 657.575 274.199C642.79 277.995 621.723 277.954 621.723 277.954L621.107 238.472Z" id="Vector-61" fill="none" fill-rule="evenodd" stroke="#FFFFFF" stroke-width="1" />
      <path d="M627.269 306.502C627.269 306.502 662.9 308.057 681.627 294.062" id="Vector-62" fill="none" fill-rule="evenodd" stroke="#FFFFFF" stroke-width="1" />
      <path d="M390.718 47.7415L436.994 48.5999" id="Vector-63" fill="none" fill-rule="evenodd" stroke="#808080" stroke-width="1" />
      <path d="M401.806 61.4635L448.082 62.3219" id="Vector-63-Copy" fill="none" fill-rule="evenodd" stroke="#808080" stroke-width="1" />
      <path d="M412.891 75.1799L459.167 76.0383" id="Vector-63-Copy-2" fill="none" fill-rule="evenodd" stroke="#808080" stroke-width="1" />
      <path d="M113.504 306.501C113.504 306.501 153.421 333.713 222.91 322.051" id="Vector-65" fill="none" fill-rule="evenodd" stroke="#000000" stroke-opacity="0.5686275" stroke-width="1.5" />
      <path d="M72.1991 207.558C72.1991 207.558 55.4277 285.07 103.509 310.127C151.591 335.183 224.387 323.295 224.387 323.295L222.797 333.932C222.797 333.932 116.706 345.569 85.9095 308.404C55.1126 271.239 72.1991 207.558 72.1991 207.558Z" id="Vector" fill="#F1C8FF" fill-opacity="0.7294118" fill-rule="evenodd" stroke="none" />
      <g id="Oval-4-Copy-2">
        <use stroke="none" fill="#FFFFFF" xlink:href="#path_56" fill-rule="evenodd" />
        <g clip-path="url(#clip_56)">
          <use xlink:href="#path_56" fill="none" stroke="#000000" stroke-width="2" />
        </g>
      </g>
      <g id="Oval-4">
        <use stroke="none" fill="#FFFFFF" xlink:href="#path_57" fill-rule="evenodd" />
        <g clip-path="url(#clip_57)">
          <use xlink:href="#path_57" fill="none" stroke="#000000" stroke-width="2" />
        </g>
      </g>
      <g id="Oval-4-Copy">
        <use stroke="none" fill="#FFFFFF" xlink:href="#path_58" fill-rule="evenodd" />
        <g clip-path="url(#clip_58)">
          <use xlink:href="#path_58" fill="none" stroke="#000000" stroke-width="2" />
        </g>
      </g>
      <path d="M224.164 314.894L221.719 336.903" id="Vector-69" fill="none" fill-rule="evenodd" stroke="#808080" stroke-width="1" />
      <path d="M417.524 352.394C468.54 396.844 502.116 397.051 509.319 397.352" id="Vector-70" fill="none" fill-rule="evenodd" stroke="#000000" stroke-opacity="0.5294118" stroke-width="1.5" />
      <path d="M551.587 390.783C561.289 382.522 567.258 359.161 567.258 359.161" id="Vector-71" fill="none" fill-rule="evenodd" stroke="#000000" stroke-opacity="0.5411765" stroke-width="1.5" />
      <g id="Oval-4-Copy-4">
        <use stroke="none" fill="#FFFFFF" xlink:href="#path_59" fill-rule="evenodd" />
        <g clip-path="url(#clip_59)">
          <use xlink:href="#path_59" fill="none" stroke="#000000" stroke-width="2" />
        </g>
      </g>
      <path d="M267.148 487.463C274.013 493.157 283.628 511.682 283.628 511.682C283.628 511.682 287.394 583.385 294.616 578.373" id="Vector" fill="none" fill-rule="evenodd" stroke="#000000" stroke-width="1" />
      <path d="M262.338 407.333C262.338 407.333 284.493 427.261 362.198 417.151" id="Vector-72" fill="none" fill-rule="evenodd" stroke="#000000" stroke-width="1" />
      <g id="Vector-23">
        <use stroke="none" fill="#FFFFFF" xlink:href="#path_60" fill-rule="evenodd" />
        <g clip-path="url(#clip_60)">
          <use xlink:href="#path_60" fill="none" stroke="#020202" stroke-opacity="0.5294118" stroke-width="3" />
        </g>
      </g>
      <path d="M229.685 356.221C229.685 356.221 266.478 409.603 308.676 408.691C328.014 408.274 350.135 399.669 369.813 386.187C389.492 372.704 398.232 350.875 398.232 350.875C398.232 350.875 401.915 346.521 408.045 344.547C414.174 342.572 421.516 342.979 421.516 342.979C421.516 342.979 418.836 364.423 404 384.069C389.164 403.715 360.113 425.975 317.079 422.534C240.722 416.43 229.685 356.221 229.685 356.221Z" id="Vector-67" fill="#E5C8FF" fill-rule="evenodd" stroke="none" />
      <path d="M415.769 355.095L409.194 371.822C409.194 371.822 475.01 429.921 528.105 418.551C581.201 407.18 588.087 357.103 588.087 357.103L580.586 358.187C580.586 358.187 573.911 401.475 518.771 403.755C463.63 406.035 415.769 355.095 415.769 355.095Z" id="Vector-68" fill="#ECC8FF" fill-opacity="0.8509804" fill-rule="evenodd" stroke="none" />
      <path d="M358.681 414.621C358.681 414.621 369.775 413.031 379.939 469.593C390.104 526.156 380.076 589.263 402.098 631.153C443.372 709.661 523.776 728.655 523.776 728.655C523.776 728.655 503.917 719.892 481.528 701.274C459.139 682.656 434.221 654.184 434.221 654.184L413.806 622.074C395.5 584.845 397.458 551.954 395.176 514.959C393.366 485.609 390.594 460.052 387.234 451.158C379.637 431.055 358.681 414.621 358.681 414.621Z" id="Vector-73" fill="#F1CCFD" fill-rule="evenodd" stroke="none" />
    </g>
  </g>
</svg>