<?xml version="1.0" encoding="utf-8"?>
<svg width="437px" height="491px" viewBox="0 0 437 491" version="1.1" xmlns:xlink="http://www.w3.org/1999/xlink" xmlns="http://www.w3.org/2000/svg">
  <defs>
    <rect width="437" height="491" id="artboard_1" />
    <clipPath id="clip_1">
      <use xlink:href="#artboard_1" clip-rule="evenodd" />
    </clipPath>
  </defs>
  <g id="Artboard" clip-path="url(#clip_1)">
    <use xlink:href="#artboard_1" stroke="none" fill="#FFFFFF" fill-opacity="0" />
    <g id="Group" transform="translate(51 29)" artboard="a9b19f22-c11e-409c-8799-29f270eb560c">
      <path d="M0 29.6479C0 29.6479 41.4183 31.36 83.54 23.948C125.662 16.536 168.487 0 168.487 0C168.487 0 211.937 21.8769 256.315 30.03C300.693 38.1832 346 32.6127 346 32.6127L341.487 254.972C341.487 254.972 319.706 325.92 276.456 362.238C233.206 398.557 169.991 421 169.991 421C169.991 421 107.208 394.018 64.7106 358.812C22.2128 323.605 3.0087 247.56 3.0087 247.56L0 29.6479Z" id="Vector" fill="none" fill-rule="evenodd" stroke="#FFFFFF" stroke-width="24" />
      <path d="M51.1478 72.6373L174.504 51.8838L296.357 72.6373L296.357 100.803L51.1478 210.5L51.1478 72.6373Z" id="Vector-2" fill="#FFFFFF" fill-rule="evenodd" stroke="none" />
      <path d="M296.357 269.796C296.357 269.796 274.828 300.739 244.365 320.751C213.902 340.764 174.504 349.845 174.504 349.845C174.504 349.845 132.035 337.544 101.196 317.531C70.3571 297.519 51.1478 269.796 51.1478 269.796L51.1478 241.63L296.357 131.933L296.357 269.796Z" id="Vector-2-Copy" fill="#FFFFFF" fill-rule="evenodd" stroke="none" />
    </g>
  </g>
</svg>