<?xml version="1.0" encoding="utf-8"?>
<svg width="300px" height="300px" viewBox="0 0 300 300" version="1.1" xmlns:xlink="http://www.w3.org/1999/xlink" xmlns="http://www.w3.org/2000/svg">
  <defs>
    <path d="M0 0L300 0L300 300L0 300L0 0Z" id="path_1" />
    <clipPath id="clip_1">
      <use xlink:href="#path_1" />
    </clipPath>
  </defs>
  <g id="LinkedIn Company Profile" clip-path="url(#clip_1)">
    <path d="M0 0L300 0L300 300L0 300L0 0Z" id="LinkedIn-Company-Profile" fill="#FFFFFF" fill-opacity="0" fill-rule="evenodd" stroke="none" />
    <path d="M262.446 49.7885C262.446 49.7885 242.027 97.5506 213.406 103.566C184.785 109.582 38.9185 39 38.9185 39C38.9185 39 27.6858 74.8152 59.5794 101.806C74.475 114.411 91.7773 118.64 120.023 127.693C148.268 136.746 166.762 136.846 166.762 136.846C166.762 136.846 139.388 140.221 112.764 140.358C86.1405 140.494 49.2021 122.273 49.2021 122.273C49.2021 122.273 57.1795 162.672 87.7602 169.892C118.341 177.112 171.483 164.618 171.483 164.618C171.483 164.618 164.2 174.848 140.56 183.446C116.92 192.045 80.4726 182.243 80.4726 182.243C80.4726 182.243 92.8879 214.059 119.308 215.862C145.729 217.664 184.184 192.138 184.184 192.138C184.184 192.138 174.611 213.697 155.548 220.422C136.485 227.146 115.84 230.773 115.84 230.773C115.84 230.773 131.638 242.066 144.91 249.698C158.182 257.33 184.184 261 184.184 261C184.184 261 239.526 216.351 255.416 162.271C271.305 108.191 262.446 49.7885 262.446 49.7885Z" id="Vector-Copy" fill="#000000" fill-rule="evenodd" stroke="none" />
  </g>
</svg>