<?xml version="1.0" encoding="utf-8"?>
<svg width="314px" height="308px" viewBox="0 0 314 308" version="1.1" xmlns:xlink="http://www.w3.org/1999/xlink" xmlns="http://www.w3.org/2000/svg">
  <defs>
    <path d="M0 0L314 0L314 308L0 308L0 0Z" id="path_1" />
    <clipPath id="clip_1">
      <use xlink:href="#path_1" />
    </clipPath>
  </defs>
  <g id="Frame" clip-path="url(#clip_1)">
    <path d="M0 0L314 0L314 308L0 308L0 0Z" id="Frame" fill="#FFFFFF" fill-opacity="0" fill-rule="evenodd" stroke="none" />
    <path d="M276.057 42.295C276.057 42.295 252.412 96.7266 219.271 103.582C186.129 110.438 17.2216 30 17.2216 30C17.2216 30 4.21456 70.8164 41.146 101.576C58.3945 115.942 78.4298 120.76 111.137 131.078C143.844 141.396 165.259 141.509 165.259 141.509C165.259 141.509 133.561 145.355 102.732 145.511C71.9027 145.667 29.1295 124.901 29.1295 124.901C29.1295 124.901 38.367 170.941 73.7782 179.17C109.189 187.398 170.725 173.16 170.725 173.16C170.725 173.16 162.293 184.818 134.918 194.617C107.544 204.416 65.3395 193.245 65.3395 193.245C65.3395 193.245 79.7159 229.504 110.31 231.559C140.903 233.613 185.433 204.523 185.433 204.523C185.433 204.523 174.348 229.092 152.274 236.755C130.2 244.419 106.293 248.552 106.293 248.552C106.293 248.552 124.587 261.422 139.955 270.12C155.324 278.817 185.433 283 185.433 283C185.433 283 249.517 232.116 267.916 170.485C286.316 108.853 276.057 42.295 276.057 42.295Z" id="Vector-Copy" fill="#791AB8" fill-rule="evenodd" stroke="none" />
  </g>
</svg>