<?xml version="1.0" encoding="utf-8"?>
<svg width="702px" height="683px" viewBox="0 0 702 683" version="1.1" xmlns:xlink="http://www.w3.org/1999/xlink" xmlns="http://www.w3.org/2000/svg">
  <defs>
    <linearGradient gradientUnits="userSpaceOnUse" x1="300.4334" y1="24.706211" x2="161.30989" y2="414.57175" id="gradient_1">
      <stop offset="0%" stop-color="#F1C77F" />
      <stop offset="19.287024%" stop-color="#B19258" />
      <stop offset="31.947231%" stop-color="#E2C484" />
      <stop offset="52.00685%" stop-color="#E1BE75" />
      <stop offset="68.92153%" stop-color="#B38F3C" />
      <stop offset="88.09407%" stop-color="#F5D79D" />
      <stop offset="100%" stop-color="#BE994C" />
    </linearGradient>
    <linearGradient gradientUnits="userSpaceOnUse" x1="186.6652" y1="413.8154" x2="274.49475" y2="55.262276" id="gradient_2">
      <stop offset="0%" stop-color="#DAB356" />
      <stop offset="19.111595%" stop-color="#CBA74E" />
      <stop offset="33.534874%" stop-color="#FBD67D" />
      <stop offset="46.95205%" stop-color="#DFBC6F" />
      <stop offset="63.35799%" stop-color="#CBA64E" />
      <stop offset="86.432556%" stop-color="#C5A24F" />
      <stop offset="100%" stop-color="#FFDA84" />
    </linearGradient>
    <linearGradient gradientUnits="userSpaceOnUse" x1="20.102888" y1="325.00525" x2="254.08893" y2="7.974645" id="gradient_3">
      <stop offset="0%" stop-color="#BF955B" />
      <stop offset="19.949432%" stop-color="#B08745" />
      <stop offset="40.712036%" stop-color="#A67F3A" />
      <stop offset="56.81947%" stop-color="#8E6428" />
      <stop offset="81.61996%" stop-color="#9A732E" />
      <stop offset="100%" stop-color="#AF8247" />
    </linearGradient>
    <linearGradient gradientUnits="userSpaceOnUse" x1="71.434715" y1="26.20659" x2="28.559591" y2="193.6958" id="gradient_4">
      <stop offset="0%" stop-color="#A57B31" />
      <stop offset="22.40246%" stop-color="#8A5E21" />
      <stop offset="63.64175%" stop-color="#7A5622" />
      <stop offset="100%" stop-color="#8E5F35" />
    </linearGradient>
    <linearGradient gradientUnits="userSpaceOnUse" x1="173.26381" y1="21.73219" x2="40.34833" y2="180.50468" id="gradient_5">
      <stop offset="0%" stop-color="#EFCA72" />
      <stop offset="16.76723%" stop-color="#CCA74F" />
      <stop offset="47.7845%" stop-color="#CA9B53" />
      <stop offset="70.898094%" stop-color="#DBB65D" />
      <stop offset="100%" stop-color="#95642A" />
    </linearGradient>
    <linearGradient gradientUnits="userSpaceOnUse" x1="118.82915" y1="12.783757" x2="33.137814" y2="127.773476" id="gradient_6">
      <stop offset="0%" stop-color="#DCAC6C" />
      <stop offset="26.28918%" stop-color="#F1CE70" />
      <stop offset="71.09405%" stop-color="#F1C984" />
      <stop offset="100%" stop-color="#D4A66B" />
    </linearGradient>
    <linearGradient gradientUnits="userSpaceOnUse" x1="3.6633224" y1="2.840865" x2="11.339506" y2="19.938725" id="gradient_7">
      <stop offset="0%" stop-color="#845829" stop-opacity="0.61960787" />
      <stop offset="100%" stop-color="#956735" stop-opacity="0.49019608" />
    </linearGradient>
    <linearGradient gradientUnits="userSpaceOnUse" x1="23.432474" y1="1.8795235" x2="3.7102418" y2="19.567968" id="gradient_8">
      <stop offset="0%" stop-color="#936529" stop-opacity="0.49019608" />
      <stop offset="41.38024%" stop-color="#8E5F28" stop-opacity="0.6509804" />
      <stop offset="69.60405%" stop-color="#906130" stop-opacity="0.65882355" />
      <stop offset="100%" stop-color="#906427" />
    </linearGradient>
    <linearGradient gradientUnits="userSpaceOnUse" x1="19.66571" y1="-1.8783927" x2="2.1251025" y2="27.284632" id="gradient_9">
      <stop offset="0%" stop-color="#895A2C" stop-opacity="0.61960787" />
      <stop offset="97.0297%" stop-color="#A26D37" stop-opacity="0.61960787" />
    </linearGradient>
    <linearGradient gradientUnits="userSpaceOnUse" x1="67.41441" y1="20.492458" x2="129.99959" y2="157.58728" id="gradient_10">
      <stop offset="0%" stop-color="#EDCA86" />
      <stop offset="18.62788%" stop-color="#F8D873" />
      <stop offset="41.193733%" stop-color="#E1BB66" />
      <stop offset="64.23683%" stop-color="#FDDA86" />
      <stop offset="89.92988%" stop-color="#F8D47C" />
      <stop offset="100%" stop-color="#D1B262" />
    </linearGradient>
    <linearGradient gradientUnits="userSpaceOnUse" x1="0.7208073" y1="13.597956" x2="8.113715" y2="5.7733507" id="gradient_11">
      <stop offset="0%" stop-color="#B9893D" stop-opacity="0.49803922" />
      <stop offset="100%" stop-color="#723F06" stop-opacity="0.16078432" />
    </linearGradient>
    <linearGradient gradientUnits="userSpaceOnUse" x1="3.4103966" y1="19.063566" x2="21.93655" y2="3.990053" id="gradient_12">
      <stop offset="0%" stop-color="#946D28" stop-opacity="0.4" />
      <stop offset="100%" stop-color="#8B5B19" stop-opacity="0.34901962" />
    </linearGradient>
    <linearGradient gradientUnits="userSpaceOnUse" x1="4.3819304" y1="2.1956902" x2="4.5504675" y2="51.263035" id="gradient_13">
      <stop offset="0%" stop-color="#F4DC9C" stop-opacity="0.25882354" />
      <stop offset="44.292988%" stop-color="#FFEDBF" stop-opacity="0.4392157" />
      <stop offset="100%" stop-color="#FFE4A1" stop-opacity="0.47058824" />
    </linearGradient>
    <linearGradient gradientUnits="userSpaceOnUse" x1="0" y1="0" x2="51.92383" y2="9.864944" id="gradient_14">
      <stop offset="0%" stop-color="#C19D45" />
      <stop offset="100%" stop-color="#DDC074" />
    </linearGradient>
    <linearGradient gradientUnits="userSpaceOnUse" x1="0" y1="0" x2="59.956703" y2="17.542007" id="gradient_15">
      <stop offset="0%" stop-color="#D7BA7E" stop-opacity="0.5882353" />
      <stop offset="100%" stop-color="#FFE3A7" stop-opacity="0.70980394" />
    </linearGradient>
    <linearGradient gradientUnits="userSpaceOnUse" x1="5.1081457" y1="9.061167" x2="31.886993" y2="2.1956959" id="gradient_16">
      <stop offset="0%" stop-color="#6A3C0A" stop-opacity="0.2901961" />
      <stop offset="100%" stop-color="#8B6222" stop-opacity="0.25882354" />
    </linearGradient>
    <linearGradient gradientUnits="userSpaceOnUse" x1="28.65708" y1="8.289167" x2="3.5082436" y2="48.696865" id="gradient_17">
      <stop offset="0%" stop-color="#EDD17D" stop-opacity="0.61960787" />
      <stop offset="97.0297%" stop-color="#DBC073" stop-opacity="0.6509804" />
    </linearGradient>
    <linearGradient gradientUnits="userSpaceOnUse" x1="28.463646" y1="5.5774426" x2="-5.7218018" y2="38.893097" id="gradient_18">
      <stop offset="0%" stop-color="#E8C574" stop-opacity="0.8" />
      <stop offset="100%" stop-color="#D6B25C" stop-opacity="0.54901963" />
    </linearGradient>
    <linearGradient gradientUnits="userSpaceOnUse" x1="11.985001" y1="4.879533" x2="6.2105436" y2="35.08596" id="gradient_19">
      <stop offset="0%" stop-color="#F6D997" stop-opacity="0.7607843" />
      <stop offset="100%" stop-color="#ECEB8C" stop-opacity="0.4392157" />
    </linearGradient>
    <linearGradient gradientUnits="userSpaceOnUse" x1="0" y1="0" x2="8.622726" y2="22.278412" id="gradient_20">
      <stop offset="0%" stop-color="#A87B38" stop-opacity="0.2901961" />
      <stop offset="100%" stop-color="#7D490F" stop-opacity="0.34901962" />
    </linearGradient>
    <linearGradient gradientUnits="userSpaceOnUse" x1="0" y1="0" x2="35.59482" y2="44.164764" id="gradient_21">
      <stop offset="0%" stop-color="#F2DA99" />
      <stop offset="100%" stop-color="#FFDEA6" />
    </linearGradient>
    <linearGradient gradientUnits="userSpaceOnUse" x1="0" y1="0" x2="25.651154" y2="8.772934" id="gradient_22">
      <stop offset="0%" stop-color="#A57D37" stop-opacity="0.16862746" />
      <stop offset="100%" stop-color="#6A4006" stop-opacity="0.18039216" />
    </linearGradient>
    <linearGradient gradientUnits="userSpaceOnUse" x1="4.746398" y1="20.109667" x2="42.768143" y2="2.1981082" id="gradient_23">
      <stop offset="0%" stop-color="#CFA66E" stop-opacity="0.4117647" />
      <stop offset="57.19048%" stop-color="#BD9943" stop-opacity="0.36078432" />
      <stop offset="99.0099%" stop-color="#C09755" stop-opacity="0.50980395" />
    </linearGradient>
    <linearGradient gradientUnits="userSpaceOnUse" x1="0" y1="15.414902" x2="53.360588" y2="1.8232048" id="gradient_24">
      <stop offset="0%" stop-color="#EBC972" />
      <stop offset="50.392105%" stop-color="#C6AE68" />
      <stop offset="100%" stop-color="#C9A74C" />
    </linearGradient>
    <linearGradient gradientUnits="userSpaceOnUse" x1="11.7975025" y1="4.7050533" x2="2.763986" y2="35.319267" id="gradient_25">
      <stop offset="0%" stop-color="#CDD69F" stop-opacity="0.23921569" />
      <stop offset="100%" stop-color="#F7DC8D" stop-opacity="0.43137255" />
    </linearGradient>
    <linearGradient gradientUnits="userSpaceOnUse" x1="0" y1="0" x2="14.041183" y2="36.2955" id="gradient_26">
      <stop offset="0%" stop-color="#F7E3AE" />
      <stop offset="100%" stop-color="#FAD384" />
    </linearGradient>
    <path d="M0 103.036C0 46.1312 48.703 0 108.781 0C168.859 0 217.562 46.1312 217.562 103.036C217.562 159.942 168.859 206.072 108.781 206.072C48.703 206.072 0 159.942 0 103.036Z" id="path_1" />
    <path d="M130.971 238.02C130.971 197.088 165.759 163.907 208.672 163.907C251.585 163.907 286.372 197.088 286.372 238.02C286.372 278.951 251.585 312.134 208.672 312.134C165.759 312.134 130.971 278.951 130.971 238.02Z" id="path_2" />
    <path d="M90.2181 210.14C90.2181 201.155 98.4282 193.871 108.554 193.871C118.682 193.871 126.891 201.155 126.891 210.14C126.891 219.124 118.682 226.409 108.554 226.409C98.4282 226.409 90.2181 219.124 90.2181 210.14Z" id="path_3" />
    <path d="M188.927 142.229C188.927 133.244 196.754 125.96 206.41 125.96C216.065 125.96 223.892 133.244 223.892 142.229C223.892 151.214 216.065 158.498 206.41 158.498C196.754 158.498 188.927 151.214 188.927 142.229Z" id="path_4" />
    <path d="M289.817 211.344C289.817 201.92 298.268 194.281 308.693 194.281C319.118 194.281 327.569 201.92 327.569 211.344C327.569 220.768 319.118 228.408 308.693 228.408C298.268 228.408 289.817 220.768 289.817 211.344Z" id="path_5" />
    <path d="M251.178 320.293C251.178 311.146 259.387 303.731 269.515 303.731C279.643 303.731 287.851 311.146 287.851 320.293C287.851 329.44 279.643 336.854 269.515 336.854C259.387 336.854 251.178 329.44 251.178 320.293Z" id="path_6" />
    <path d="M132.069 322.16C132.069 312.736 140.52 305.096 150.945 305.096C161.37 305.096 169.821 312.736 169.821 322.16C169.821 331.585 161.37 339.223 150.945 339.223C140.52 339.223 132.069 331.585 132.069 322.16Z" id="path_7" />
    <path d="M180.925 239.158C180.925 224.195 193.709 212.065 209.48 212.065C225.25 212.065 238.034 224.195 238.034 239.158C238.034 254.122 225.25 266.251 209.48 266.251C193.709 266.251 180.925 254.122 180.925 239.158Z" id="path_8" />
    <clipPath id="clip_1">
      <use xlink:href="#path_1" />
    </clipPath>
    <clipPath id="clip_2">
      <use xlink:href="#path_2" />
    </clipPath>
    <clipPath id="clip_3">
      <use xlink:href="#path_3" />
    </clipPath>
    <clipPath id="clip_4">
      <use xlink:href="#path_4" />
    </clipPath>
    <clipPath id="clip_5">
      <use xlink:href="#path_5" />
    </clipPath>
    <clipPath id="clip_6">
      <use xlink:href="#path_6" />
    </clipPath>
    <clipPath id="clip_7">
      <use xlink:href="#path_7" />
    </clipPath>
    <clipPath id="clip_8">
      <use xlink:href="#path_8" />
    </clipPath>
  </defs>
  <g id="Frame">
    <path d="M0 0L702 0L702 683L0 683L0 0Z" id="Frame" fill="#000000" fill-rule="evenodd" stroke="none" />
    <g id="Group-2" transform="translate(141.35156 116)">
      <path d="M0 100.014L41.7751 39.9348L72.1569 41.702C72.1569 41.702 86.1629 20.7168 107.525 13.6484C128.887 6.58045 157.606 13.4294 157.606 13.4294C157.606 13.4294 183.392 0 210.926 0C238.46 0 267.741 13.4294 267.741 13.4294C267.741 13.4294 292.56 5.97116 312.498 13.0392C332.436 20.1073 347.492 41.702 347.492 41.702L379.773 41.702L419.648 101.781C419.648 101.781 384.935 139.925 383.51 190.727C382.832 214.962 407.3 262.481 411.188 277.325C415.074 292.169 416.19 320.393 408.12 332.321C400.049 344.249 381.672 352.701 381.672 352.701C381.672 352.701 369.385 379.796 347.548 390.84C325.712 401.884 294.324 396.875 294.324 396.875C294.324 396.875 287.318 416.541 265.955 430.237C244.593 443.93 208.875 451.652 208.875 451.652C208.875 451.652 179.537 443.062 159.124 429.808C138.711 416.556 127.224 398.643 127.224 398.643C127.224 398.643 90.8534 395.159 71.865 384.556C52.8764 373.953 51.2694 356.234 51.2694 356.234C51.2694 356.234 11.5951 344.444 8.7346 300.749C5.87432 257.055 41.6317 236.762 39.8281 181.454C38.0242 126.146 0 100.014 0 100.014Z" id="Vector-13" fill="url(#gradient_1)" fill-rule="evenodd" stroke="#471D07" stroke-width="6" />
      <path d="M24.1168 105.139L49.612 64.5662L80.881 64.3491C80.881 64.3491 97.8784 42.7229 117.13 36.3531C136.382 29.9834 163.721 38.4172 163.721 38.4172C163.721 38.4172 185.015 19.5292 209.828 19.5292C234.642 19.5292 262.975 38.4172 262.975 38.4172C262.975 38.4172 285.341 31.6959 303.31 38.0657C321.279 44.4356 334.848 63.8967 334.848 63.8967L368.8 63.3309L397.444 108.993C397.444 108.993 360.691 148.457 359.409 194.24C358.796 216.081 384.472 262.71 389.645 281.408C394.817 300.108 395.299 317.316 388.026 328.065C380.754 338.814 363.22 342.359 363.22 342.359C363.22 342.359 354.577 368.587 334.898 378.54C315.219 388.493 286.933 383.98 286.933 383.98C286.933 383.98 280.617 401.703 261.366 414.045C242.114 426.385 209.925 433.345 209.925 433.345C209.925 433.345 184.458 427.412 166.061 415.468C147.666 403.525 136.341 385.573 136.341 385.573C136.341 385.573 102.106 385.147 84.9931 375.591C67.8803 366.037 62.0572 345.092 62.0572 345.092C62.0572 345.092 31.1637 339.894 28.5858 300.517C26.008 261.14 61.1494 239.686 59.5237 189.842C57.8978 139.998 24.1168 105.139 24.1168 105.139Z" id="Vector-9-Copy-3" fill="url(#gradient_2)" fill-rule="evenodd" stroke="#531C07" stroke-width="7" />
      <path d="M55.5726 337.734C55.5726 337.734 43.3131 335.789 49.0833 295.763C54.8535 255.734 78.8794 250.329 78.9222 205.725C78.9645 161.123 45.4758 106.339 45.4758 106.339L62.8495 79.2768C62.8495 79.2768 80.254 88.6085 93.9877 80.995C107.721 73.381 105.669 60.6191 124.239 53.5314C142.809 46.4436 172.294 53.8934 172.294 53.8934C172.294 53.8934 188.541 35.1422 214.506 35.6303C240.472 36.1184 268.52 53.3077 268.52 53.3077C268.52 53.3077 281.118 48.524 293.708 47.0595C306.298 45.595 323.492 54.4793 323.492 54.4793C323.492 54.4793 314.637 41.4812 299.163 38.5525C283.689 35.6238 263.274 40.6159 263.274 40.6159C263.274 40.6159 235.31 21.481 210.655 21.481C186.001 21.481 165.495 40.6159 165.495 40.6159C165.495 40.6159 140.483 31.1592 119.763 37.7492C99.0425 44.3392 83.4539 66.3895 83.4539 66.3895L52.6517 66.4289L28.3123 104.309C28.3123 104.309 38.8875 117.008 46.8153 134.577C54.7433 152.147 56.4656 143.9 60.0232 174.589C61.7375 189.372 62.6117 207.083 60.1304 217.315C52.7393 247.792 33.5996 263.168 32.905 291.817C31.9769 330.086 55.5726 337.734 55.5726 337.734Z" id="Vector-16" fill="url(#gradient_3)" fill-rule="evenodd" stroke="none" />
      <path d="M242.593 141.94C242.593 141.94 282.308 152.213 305.383 176.182C328.457 200.152 332.056 237.522 328.023 254.596C323.99 271.669 317.156 296.351 289.252 321.818C261.348 347.286 223.275 339.688 223.275 339.688C223.275 339.688 271.259 326.024 293.338 296.246C315.418 266.467 311.569 263.619 313.653 221.853C315.734 180.086 242.593 141.94 242.593 141.94Z" id="Vector-17" fill="url(#gradient_4)" fill-rule="evenodd" stroke="none" />
      <g id="Group" transform="translate(100.92026 135.9464)">
        <g id="Oval-10">
          <use stroke="none" fill="url(#gradient_5)" xlink:href="#path_1" fill-rule="evenodd" />
          <g clip-path="url(#clip_1)">
            <use xlink:href="#path_1" fill="none" stroke="#4E240E" stroke-width="14" />
          </g>
        </g>
        <g id="Irving-Thao" fill="#757575" transform="translate(26.967022 25.595058)">
          <path d="M65.2618 73.9676Q65.4727 74.1679 65.7667 74.1679Q66.0608 74.1679 66.2717 73.9676Q66.4826 73.7673 66.4826 73.486Q66.4826 73.2048 66.2717 73.0045Q66.0608 72.8042 65.7667 72.8042Q65.4727 72.8042 65.2618 73.0045Q65.0508 73.2048 65.0508 73.486Q65.0508 73.7673 65.2618 73.9676ZM52.1304 81.8042L52.1304 73.077L51.0735 73.077L51.0735 81.8042L52.1304 81.8042ZM85.4713 74.0145L85.4713 73.077L92.0167 73.077L92.0167 74.0145L89.2724 74.0145L89.2724 81.8042L88.2156 81.8042L88.2156 74.0145L85.4713 74.0145ZM94.5224 81.8042L94.5224 77.8667Q94.5224 77.0102 95.0103 76.5436Q95.4983 76.077 96.244 76.077Q96.9556 76.077 97.3583 76.5052Q97.761 76.9335 97.761 77.7133L97.761 81.8042L98.7667 81.8042L98.7667 77.6451Q98.7667 76.3838 98.1531 75.7787Q97.5395 75.1735 96.5338 75.1735Q95.7625 75.1735 95.3001 75.474Q94.8377 75.7744 94.6076 76.2815L94.5224 76.2815L94.5224 73.077L93.5167 73.077L93.5167 81.8042L94.5224 81.8042ZM54.1076 75.2588L54.1076 81.8042L55.1133 81.8042L55.1133 77.6622Q55.1133 76.9974 55.5821 76.5628Q56.0508 76.1281 56.7667 76.1281Q56.967 76.1281 57.1481 76.1558Q57.3292 76.1835 57.3804 76.1963L57.3804 75.1735Q57.2951 75.165 57.1289 75.1608Q56.9627 75.1565 56.852 75.1565Q56.2639 75.1565 55.7951 75.4591Q55.3264 75.7616 55.1474 76.2474L55.0792 76.2474L55.0792 75.2588L54.1076 75.2588ZM69.1076 77.8667L69.1076 81.8042L68.102 81.8042L68.102 75.2588L69.0735 75.2588L69.0735 76.2815L69.1588 76.2815Q69.3889 75.7829 69.8576 75.4782Q70.3264 75.1735 71.0679 75.1735Q72.0608 75.1735 72.6723 75.7829Q73.2838 76.3923 73.2838 77.6451L73.2838 81.8042L72.2781 81.8042L72.2781 77.7133Q72.2781 76.942 71.8775 76.5095Q71.477 76.077 70.7781 76.077Q70.0579 76.077 69.5828 76.5436Q69.1076 77.0102 69.1076 77.8667ZM76.0345 83.9967Q76.6716 84.3951 77.7667 84.3951Q78.5508 84.3951 79.1922 84.1459Q79.8335 83.8966 80.2149 83.366Q80.5963 82.8355 80.5963 81.9917L80.5963 75.2588L79.6247 75.2588L79.6247 76.2985L79.5224 76.2985Q79.4116 76.1281 79.2092 75.8618Q79.0068 75.5954 78.6297 75.3845Q78.2525 75.1735 77.6133 75.1735Q76.7866 75.1735 76.1559 75.5848Q75.5252 75.996 75.1716 76.7439Q74.8179 77.4917 74.8179 78.4974Q74.8179 79.5201 75.1822 80.236Q75.5466 80.952 76.1751 81.327Q76.8037 81.702 77.5963 81.702Q78.2355 81.702 78.6126 81.4995Q78.9897 81.2971 79.1922 81.0351Q79.3946 80.773 79.5054 80.594L79.5906 80.594L79.5906 81.9235Q79.5906 82.7417 79.075 83.1253Q78.5593 83.5088 77.7667 83.5088Q77.1744 83.5088 76.8101 83.3362Q76.4457 83.1636 76.2369 82.9314Q76.0281 82.6991 75.8917 82.5201L75.0906 83.0826Q75.3974 83.5983 76.0345 83.9967ZM102.534 81.9576Q101.912 81.9576 101.405 81.7211Q100.897 81.4846 100.599 81.0351Q100.301 80.5855 100.301 79.9463Q100.301 79.3838 100.522 79.0322Q100.744 78.6806 101.115 78.4804Q101.485 78.2801 101.935 78.1799Q102.385 78.0798 102.841 78.0201Q103.437 77.9434 103.81 77.903Q104.183 77.8625 104.356 77.7645Q104.528 77.6664 104.528 77.4235L104.528 77.3895Q104.528 76.7588 104.185 76.4093Q103.842 76.0599 103.147 76.0599Q102.427 76.0599 102.018 76.3753Q101.609 76.6906 101.443 77.0485L100.488 76.7076Q100.744 76.111 101.172 75.7765Q101.601 75.442 102.11 75.3078Q102.619 75.1735 103.113 75.1735Q103.429 75.1735 103.84 75.2481Q104.251 75.3227 104.637 75.5528Q105.022 75.7829 105.278 76.2474Q105.534 76.7119 105.534 77.4917L105.534 81.8042L104.528 81.8042L104.528 80.9179L104.477 80.9179Q104.375 81.1309 104.136 81.3738Q103.897 81.6167 103.501 81.7872Q103.105 81.9576 102.534 81.9576ZM108.48 81.5187Q109.147 81.9406 110.034 81.9406Q110.92 81.9406 111.587 81.5187Q112.254 81.0968 112.627 80.3383Q113 79.5798 113 78.5656Q113 77.5429 112.627 76.7801Q112.254 76.0173 111.587 75.5954Q110.92 75.1735 110.034 75.1735Q109.147 75.1735 108.48 75.5954Q107.814 76.0173 107.441 76.7801Q107.068 77.5429 107.068 78.5656Q107.068 79.5798 107.441 80.3383Q107.814 81.0968 108.48 81.5187ZM63.9258 75.2588L61.5054 81.8042L60.4826 81.8042L58.0622 75.2588L59.1531 75.2588L60.9599 80.4747L61.0281 80.4747L62.8349 75.2588L63.9258 75.2588ZM65.2554 75.2588L65.2554 81.8042L66.261 81.8042L66.261 75.2588L65.2554 75.2588ZM79.124 80.1828Q78.6403 80.7985 77.7326 80.7985Q76.7866 80.7985 76.3051 80.1508Q75.8235 79.5031 75.8235 78.4804Q75.8235 77.8156 76.0345 77.2701Q76.2454 76.7247 76.6694 76.4008Q77.0934 76.077 77.7326 76.077Q78.6531 76.077 79.1304 76.7481Q79.6076 77.4193 79.6076 78.4804Q79.6076 79.567 79.124 80.1828ZM111.142 80.692Q110.707 81.0372 110.034 81.0372Q109.36 81.0372 108.926 80.692Q108.491 80.3468 108.282 79.7843Q108.074 79.2218 108.074 78.5656Q108.074 77.9093 108.282 77.3426Q108.491 76.7758 108.926 76.4264Q109.36 76.077 110.034 76.077Q110.707 76.077 111.142 76.4264Q111.576 76.7758 111.785 77.3426Q111.994 77.9093 111.994 78.5656Q111.994 79.2218 111.785 79.7843Q111.576 80.3468 111.142 80.692ZM102.687 81.0542Q103.284 81.0542 103.695 80.8199Q104.106 80.5855 104.317 80.2147Q104.528 79.844 104.528 79.4349L104.528 78.5145Q104.464 78.5912 104.249 78.653Q104.034 78.7147 103.755 78.7595Q103.476 78.8042 103.213 78.8362Q102.951 78.8681 102.789 78.8895Q102.397 78.9406 102.059 79.0535Q101.72 79.1664 101.513 79.3902Q101.306 79.6139 101.306 79.9974Q101.306 80.5216 101.696 80.7879Q102.086 81.0542 102.687 81.0542Z" />
        </g>
      </g>
      <path d="M108.04 225.398L111.023 225.906C112.925 225.663 115.976 224.366 116.517 224.663C116.985 224.921 119.859 226.7 122.748 229.14L131.228 236.99L131.651 244.373L109.113 237.382L108.04 225.398Z" id="Vector-23" fill="#97692E" fill-opacity="0.6784314" fill-rule="evenodd" stroke="none" />
      <g id="Oval-11">
        <use stroke="none" fill="url(#gradient_6)" xlink:href="#path_2" fill-rule="evenodd" />
        <g clip-path="url(#clip_2)">
          <use xlink:href="#path_2" fill="none" stroke="#4C1D01" stroke-width="16" />
        </g>
      </g>
      <path d="M268.353 285.755L290.072 298.608L282.226 307.398C282.226 307.398 279.683 305.688 276.896 304.834C274.109 303.979 269.919 303.291 269.919 303.291C269.919 303.291 269.441 298.874 268.948 294.458C268.454 290.041 268.353 285.755 268.353 285.755Z" id="Vector-21" fill="url(#gradient_7)" fill-rule="evenodd" stroke="none" />
      <path d="M183.117 307.747L183.77 331.803C183.77 331.803 179.277 331.171 175.243 329.894C171.208 328.618 168.31 327.486 168.31 327.486C168.31 327.486 168.164 326.296 169.165 323.096C170.167 319.897 169.655 315.322 169.655 315.322C169.655 315.322 174.566 312.362 179.933 309.616C185.299 306.869 183.117 307.747 183.117 307.747Z" id="Vector-22" fill="#97692E" fill-opacity="0.8784314" fill-rule="evenodd" stroke="none" />
      <path d="M295.468 111.478C295.468 111.478 301.699 112.409 307.092 115.671C312.486 118.933 317.04 124.527 317.04 124.527C317.04 124.527 309.858 126.867 307.027 132.388C304.196 137.908 305.714 146.609 305.714 146.609C305.714 146.609 313.313 144.788 316.55 140.647C319.785 136.507 319.004 130.755 319.004 130.755C319.004 130.755 319.441 129.406 320.251 129.406C321.06 129.406 321.893 130.047 321.893 130.047L323.206 139.402C323.206 139.402 313.723 144.113 310.231 151.161C306.74 158.21 307.657 167.185 307.657 167.185C307.657 167.185 316.34 165.723 320.169 161.708C323.998 157.693 323.24 152.467 323.407 151.645C323.573 150.823 324.302 150.297 324.977 150.547C325.651 150.798 325.669 152.13 325.669 152.13C325.669 152.13 326.813 156.691 326.122 158.635C325.431 160.576 320.709 162.065 320.843 169.216C320.978 176.368 327.288 187.962 327.288 187.962C327.288 187.962 333.814 181.41 335.162 174.51C336.511 167.609 330.803 159.075 330.803 159.075C330.803 159.075 329.729 155.082 329.746 152.572C329.762 150.063 330.869 149.038 330.869 149.038C330.869 149.038 335.48 156.32 340.247 158.975C345.016 161.63 351.708 162.01 351.708 162.01C351.708 162.01 350.577 150.731 345.011 144.874C339.446 139.016 330.507 139.784 329.95 139.128C329.394 138.471 329.031 137.416 328.627 135.66C328.223 133.903 327.911 131.082 327.911 131.082C327.911 131.082 332.868 133.019 338.105 133.262C343.343 133.505 348.86 132.055 348.86 132.055C348.86 132.055 342.516 123.689 335.91 121.054C329.303 118.419 322.433 121.515 322.433 121.515C322.433 121.515 317.348 115.895 310.607 113.385C303.865 110.876 295.468 111.478 295.468 111.478Z" id="Vector-51" fill="#4A1704" fill-rule="evenodd" stroke="#481504" stroke-width="1" />
      <path d="M116.53 186.894C116.53 186.894 110.298 185.965 104.904 182.703C99.5101 179.441 94.9549 173.847 94.9549 173.847C94.9549 173.847 102.138 171.507 104.969 165.986C107.801 160.465 106.282 151.764 106.282 151.764C106.282 151.764 98.6819 153.586 95.4453 157.726C92.208 161.867 92.9915 167.619 92.9915 167.619C92.9915 167.619 92.5538 168.968 91.7449 168.968C90.9358 168.968 90.1018 168.326 90.1018 168.326L88.7892 158.971C88.7892 158.971 98.2729 154.261 101.765 147.213C105.256 140.164 104.34 131.188 104.34 131.188C104.34 131.188 95.654 132.65 91.8272 136.665C87.9982 140.68 88.7551 145.907 88.5896 146.728C88.4227 147.55 87.6937 148.077 87.0198 147.826C86.346 147.575 86.3276 146.243 86.3276 146.243C86.3276 146.243 85.1829 141.682 85.8743 139.739C86.5649 137.796 91.2881 136.309 91.153 129.157C91.017 122.006 84.7086 110.411 84.7086 110.411C84.7086 110.411 78.1825 116.963 76.8345 123.864C75.4863 130.764 81.1933 139.298 81.1933 139.298C81.1933 139.298 82.2671 143.291 82.2511 145.801C82.2339 148.31 81.1278 149.336 81.1278 149.336C81.1278 149.336 76.517 142.053 71.7499 139.398C66.9812 136.743 60.29 136.363 60.29 136.363C60.29 136.363 61.4207 147.642 66.9863 153.499C72.5516 159.357 81.49 158.589 82.0462 159.246C82.6017 159.903 82.9646 160.957 83.3691 162.714C83.7736 164.471 84.0858 167.292 84.0858 167.292C84.0858 167.292 79.1283 165.355 73.8917 165.112C68.6546 164.868 63.1373 166.318 63.1373 166.318C63.1373 166.318 69.4803 174.685 76.0865 177.32C82.6931 179.954 89.5623 176.858 89.5623 176.858C89.5623 176.858 94.6477 182.479 101.389 184.989C108.132 187.499 116.53 186.894 116.53 186.894Z" transform="matrix(-1 0 0 1 176.82039 0)" id="Vector-51-Copy" fill="#4A1704" fill-rule="evenodd" stroke="#481504" stroke-width="1" />
      <path d="M231.096 167.26L238.039 146.653C238.039 146.653 233.829 144.324 230.08 143.493C226.33 142.662 222.714 143.447 222.714 143.447C222.714 143.447 222.95 145.3 220.267 149.794C217.583 154.289 214.606 155.342 214.606 155.342L219.383 164.134L231.096 167.26Z" id="Vector-19" fill="url(#gradient_8)" fill-rule="evenodd" stroke="none" />
      <path d="M284.809 252.643L309.289 254.326C309.289 254.326 311.009 245.711 311.36 242.042C311.711 238.373 312.14 235.454 312.022 233.144C311.766 228.05 312.219 228.268 312.219 228.268C312.219 228.268 309.314 228.892 305.826 228.142C302.337 227.394 296.618 225.163 296.618 225.163L286.609 235.596C286.609 235.596 286.379 240.427 286.121 244.351C285.863 248.277 284.809 252.643 284.809 252.643Z" id="Vector-20" fill="url(#gradient_9)" fill-rule="evenodd" stroke="none" />
      <path d="M178.41 201.845L201.621 153.926L211.335 153.926L240.472 204.081L296.178 206.471L298.879 220.595L261.841 255.154L267.437 309.936L258.909 316.952L209.754 289.622L160.828 316.614L150.622 308.25L153.915 252.796L118.093 222.617L119.674 207.359L178.41 201.845Z" id="Vector-18" fill="url(#gradient_10)" fill-rule="evenodd" stroke="#571E00" stroke-width="5.5" />
      <g id="Oval-8-Copy-9">
        <use stroke="none" fill="#E7C36C" xlink:href="#path_3" fill-rule="evenodd" />
        <g clip-path="url(#clip_3)">
          <use xlink:href="#path_3" fill="none" stroke="#502200" stroke-width="9" />
        </g>
      </g>
      <g id="Oval-12">
        <use stroke="none" fill="#DFC57A" xlink:href="#path_4" fill-rule="evenodd" />
        <g clip-path="url(#clip_4)">
          <use xlink:href="#path_4" fill="none" stroke="#502200" stroke-width="9" />
        </g>
      </g>
      <g id="Oval-8-Copy-10">
        <use stroke="none" fill="#D7B968" xlink:href="#path_5" fill-rule="evenodd" />
        <g clip-path="url(#clip_5)">
          <use xlink:href="#path_5" fill="none" stroke="#502200" stroke-width="9" />
        </g>
      </g>
      <path d="M131.288 374.652C131.288 374.652 131.607 366.484 126.749 361.458C121.892 356.432 111.859 354.548 111.859 354.548L107.232 350.156L112.848 351.701C112.848 351.701 117.736 353.441 121.341 353.044C124.947 352.648 126.786 347.438 126.786 347.438C126.786 347.438 121.454 341.285 114.601 339.687C107.749 338.088 101.693 342.608 101.693 342.608L97.2839 336.623C97.2839 336.623 103.108 338.847 108.111 338.317C113.114 337.787 117.197 335.652 117.197 335.652C117.197 335.652 110.697 330.135 105.214 328.386C99.731 326.637 95.2642 328.655 95.2642 328.655C95.2642 328.655 93.3873 326.816 93.4662 322.038C93.5449 317.26 95.5793 309.543 95.5793 309.543C95.5793 309.543 91.0323 315.72 89.2522 321.326C87.472 326.932 88.7625 332.845 88.7625 332.845C88.7625 332.845 83.6737 336.559 81.8231 342.601C79.9726 348.643 82.1786 354.423 82.1786 354.423C82.1786 354.423 86.8575 352.35 89.6923 349.2C92.5272 346.05 93.5181 341.822 93.5181 341.822L97.5431 345.659C97.5431 345.659 92.5466 356.281 94.0882 363.167C95.6298 370.053 100.812 374.433 100.812 374.433C100.812 374.433 105.557 368.451 106.376 363.014C107.195 357.577 104.087 352.686 104.087 352.686L109.209 357.059C109.209 357.059 114.072 369.142 119.529 372.921C124.987 376.701 131.288 374.652 131.288 374.652Z" transform="matrix(-0.6293205 0.77714586 0.77714586 0.6293205 -69.887215 22.008362)" id="Vector-50-Copy" fill="#451900" fill-rule="evenodd" stroke="#4A1D00" stroke-width="1" />
      <g id="Oval-8-Copy-11">
        <use stroke="none" fill="#DABE68" xlink:href="#path_6" fill-rule="evenodd" />
        <g clip-path="url(#clip_6)">
          <use xlink:href="#path_6" fill="none" stroke="#502200" stroke-width="9" />
        </g>
      </g>
      <g id="Oval-8-Copy-12">
        <use stroke="none" fill="#E5B96A" xlink:href="#path_7" fill-rule="evenodd" />
        <g clip-path="url(#clip_7)">
          <use xlink:href="#path_7" fill="none" stroke="#502200" stroke-width="9" />
        </g>
      </g>
      <g id="Oval-13">
        <use stroke="none" fill="#E8BF6D" xlink:href="#path_8" fill-rule="evenodd" />
        <g clip-path="url(#clip_8)">
          <use xlink:href="#path_8" fill="none" stroke="#4D2104" stroke-width="14" />
        </g>
      </g>
      <path d="M237.419 204.151L228.439 219.227L229.818 220.061L242.949 206.961L238.877 206.162L237.419 204.151Z" id="Vector-24" fill="url(#gradient_11)" fill-rule="evenodd" stroke="none" />
      <path d="M254.461 207.37L234.837 226.121L235.68 229.213L265.521 207.297L254.461 207.37Z" id="Vector-24-Copy" fill="url(#gradient_12)" fill-rule="evenodd" stroke="none" />
      <path d="M202.832 158.007C202.832 158.007 206.242 158.241 206.629 158.489C207.017 158.737 210.08 158.187 210.08 158.187L209.002 211.285L204.859 211.465L202.832 158.007Z" id="Vector-25" fill="url(#gradient_13)" fill-rule="evenodd" stroke="none" />
      <path d="M183.015 198.803L191.954 217.013L173.398 204.76L180.627 204.255L183.015 198.803Z" id="Vector-26" fill="#653C00" fill-opacity="0.50980395" fill-rule="evenodd" stroke="none" />
      <path d="M145.078 207.763L184.703 227.087L126.632 209.29L145.078 207.763Z" id="Vector-27" fill="#DBBA59" fill-opacity="0.5294118" fill-rule="evenodd" stroke="none" />
      <path d="M129.688 228.815L181.611 238.68L139.768 237.175L129.688 228.815Z" id="Vector-28" fill="url(#gradient_14)" fill-rule="evenodd" stroke="none" />
      <path d="M133.006 220.539L180.677 238.081L129.77 229.077L120.72 221.55L133.006 220.539Z" id="Vector-29" fill="url(#gradient_15)" fill-rule="evenodd" stroke="none" />
      <path d="M153.132 248.562L185.019 245.001L156.713 256.954L157.389 251.106L153.132 248.562Z" id="Vector-30" fill="url(#gradient_16)" fill-rule="evenodd" stroke="none" />
      <path d="M167.016 309.554L196.259 261.376L181.036 302.137L167.016 309.554Z" id="Vector-32" fill="url(#gradient_17)" fill-rule="evenodd" stroke="none" />
      <path d="M155.872 280.154L185.115 254.949L154.134 304.299L155.872 280.154Z" id="Vector-31" fill="url(#gradient_18)" fill-rule="evenodd" stroke="none" />
      <path d="M180.648 303.092L200.341 263.825L191.061 296.801L180.648 303.092Z" id="Vector-33" fill="url(#gradient_19)" fill-rule="evenodd" stroke="none" />
      <path d="M205.375 288.69L209.534 266.412L210.952 266.423L213.998 288.667L209.86 286.581L205.375 288.69Z" id="Vector-34" fill="url(#gradient_20)" fill-rule="evenodd" stroke="none" />
      <path d="M225.506 261.473L237.91 284.825L261.101 305.637L245.461 280.763L225.506 261.473Z" id="Vector-35" fill="url(#gradient_21)" fill-rule="evenodd" stroke="none" />
      <path d="M235.965 250.988L258.87 259.11L259.321 254.853L261.616 250.337L235.965 250.988Z" id="Vector-36" fill="url(#gradient_22)" fill-rule="evenodd" stroke="none" />
      <path d="M235.214 228.851L263.369 207.316L287.905 208.3L235.214 228.851Z" id="Vector-37" fill="url(#gradient_23)" fill-rule="evenodd" stroke="none" />
      <path d="M240.639 237.159L293.438 221.744L277.948 235.316L240.639 237.159Z" id="Vector-38" fill="url(#gradient_24)" fill-rule="evenodd" stroke="none" />
      <path d="M223.616 180.922L230.088 192.402L219.706 213.732L215.189 211.849L223.616 180.922Z" id="Vector-39" fill="url(#gradient_25)" fill-rule="evenodd" stroke="none" />
      <path d="M220.89 263.931L234.931 300.227L227.663 296.85L220.89 263.931Z" id="Vector-40" fill="url(#gradient_26)" fill-rule="evenodd" stroke="none" />
      <path d="M14.9495 102.313L19.4917 105.204L47.8627 61.1765L79.0567 60.704C79.0567 60.704 96.4765 39.596 115.334 33.1934C134.191 26.7906 162.853 34.2323 162.853 34.2323L177.155 24.8222L159.98 31.0172C159.98 31.0172 125.803 24.8762 111.023 30.1841C86.2384 39.085 75.0768 56.8952 75.0768 56.8952L45.1447 57.1637L14.9495 102.313Z" id="Vector-41" fill="#FFE6B4" fill-opacity="0.49019608" fill-rule="evenodd" stroke="none" />
      <path d="M313.299 38.9531L327.927 26.4927C327.927 26.4927 331.974 27.9932 335.928 32.4085C339.882 36.8242 345.954 44.8403 345.954 44.8403L377.403 44.5742L415.489 101.772C415.489 101.772 388.77 137.29 382.3 170.963C375.83 204.637 392.776 236.735 392.776 236.735L377.293 238.391C377.293 238.391 358.256 209.52 364.764 177.986C371.273 146.454 401.888 109.309 401.888 109.309L371.53 59.1194L336.613 60.9014C336.613 60.9014 331.679 53.203 325.758 47.6726C319.838 42.1426 313.299 38.9531 313.299 38.9531Z" id="Vector-42" fill="#F2D491" fill-opacity="0.5411765" fill-rule="evenodd" stroke="none" />
      <path d="M137.545 138.461L130.156 82.7107L160.072 75.2856C163.663 75.2856 169.555 75.6749 172.222 76.8566C174.889 78.038 178.571 79.6329 181.151 83.174C183.731 86.7152 183.521 90.4633 182.544 95.1872C181.566 99.9117 180.775 99.8528 178.6 102.071C176.424 104.289 173.842 104.06 173.842 104.06C176.018 104.163 180.468 105.07 181.664 106.38C182.861 107.69 183.896 109.684 185.035 113.188C186.175 116.693 186.223 120.398 186.223 120.398C186.223 120.398 182.899 120.662 178.772 121.665C174.643 122.668 169.709 124.412 169.709 124.412C169.709 124.412 167.669 109.808 166.989 109.038C166.309 108.267 164.33 108.282 162.751 108.282L150.496 109.487L153.844 128.802L137.545 138.461ZM228.682 125.896L242.396 74.3489L271.507 81.2438C271.507 81.2438 274.599 82.4555 280.311 86.8591C286.024 91.2627 285.131 96.3746 284.991 99.9453C284.851 103.516 281.987 106.089 279.497 108.449C277.007 110.811 275.724 109.988 273.518 110.856L283.068 118.03C283.068 118.03 284.026 120.522 283.08 128.149C282.135 135.777 279.597 139.039 279.597 139.039L279.067 139.292C277.601 138.783 274.145 137.107 271.571 135.885C268.103 134.238 262.789 133.268 262.789 133.268L267.63 120.948C267.652 119.743 263.263 116.822 259.971 115.124C256.68 113.425 249.011 112.121 249.011 112.121L244.698 130.978C244.698 130.978 241.01 129.311 236.858 128.082C232.705 126.853 228.682 125.896 228.682 125.896ZM147.817 102.027L156.549 100.262C156.646 100.262 161.758 98.8327 163.145 97.5727C164.587 96.2626 165.126 94.4835 164.965 91.8913C164.805 89.2985 163.916 88.5118 162.503 87.2018C161.088 85.8919 158.054 85.7188 155.442 85.7188L145.609 87.7254L147.817 102.027ZM252.617 99.4656L257.994 101.219C258.059 101.25 262.68 102.761 264.043 102.403C265.461 102.03 267.123 101.159 267.909 99.4509C268.695 97.7432 268.526 94.8688 268.029 93.5765C267.533 92.2842 266.93 92.5178 264.075 91.2285C261.22 89.9391 255.3 88.6292 255.3 88.6292L252.617 99.4656Z" id="R" fill="#481504" stroke="none" />
      <path d="M193.805 93.6195C193.805 93.6195 202.067 90.4701 209.308 90.4701C216.55 90.4701 225.201 93.9368 225.201 93.9368L222.466 107.416C222.466 107.416 216.85 102.373 209.609 102.373C202.369 102.373 196.846 106.155 196.846 106.155L193.805 93.6195Z" id="Rectangle" fill="#481504" fill-rule="evenodd" stroke="none" />
      <path d="M199.617 132.492L202.853 141.526L195.797 148.21C195.797 148.21 193.025 143.823 194.238 139.933C195.452 136.044 199.617 132.492 199.617 132.492Z" id="Vector-43" fill="#FAE0AF" fill-rule="evenodd" stroke="none" />
      <path d="M305.325 198.739C305.325 198.739 306.705 201.282 306.705 204.042C306.705 206.803 305.325 209.781 305.325 209.781C305.325 209.781 304.762 212.32 302.875 214.452C300.986 216.585 297.775 218.312 297.775 218.312C297.775 218.312 295.864 217.041 295.238 214.778C294.613 212.514 295.272 209.259 295.272 209.259C295.272 209.259 296.466 204.578 298.893 202.068C301.32 199.559 305.325 198.739 305.325 198.739Z" id="Vector-44" fill="#FFEEBB" fill-rule="evenodd" stroke="none" />
      <path d="M334.736 329.479C334.736 329.479 326.738 327.473 320.767 331.136C314.795 334.799 310.85 344.131 310.85 344.131L305.553 347.703L308.245 342.58C308.245 342.58 310.978 338.206 311.336 334.629C311.694 331.052 306.933 328.187 306.933 328.187C306.933 328.187 299.75 332.076 296.748 338.385C293.746 344.694 296.95 351.503 296.95 351.503L290.125 354.532C290.125 354.532 293.531 349.35 294.047 344.391C294.563 339.431 293.304 335.031 293.304 335.031C293.304 335.031 286.507 340.184 283.641 345.135C280.775 350.085 281.839 354.834 281.839 354.834C281.839 354.834 279.633 356.271 274.932 355.201C270.231 354.132 263.036 350.557 263.036 350.557C263.036 350.557 268.189 356.247 273.354 359.138C278.519 362.028 284.625 362.006 284.625 362.006C284.625 362.006 287.234 367.709 292.815 370.758C298.396 373.807 304.56 372.87 304.56 372.87C304.56 372.87 303.485 367.905 300.965 364.503C298.444 361.101 294.476 359.262 294.476 359.262L299.1 356.158C299.1 356.158 308.549 363.208 315.668 363.145C322.786 363.082 328.187 358.97 328.187 358.97C328.187 358.97 323.267 353.127 318.07 351.204C312.872 349.281 307.398 351.277 307.398 351.277L312.779 347.221C312.779 347.221 325.718 345.019 330.584 340.515C335.449 336.011 334.736 329.479 334.736 329.479Z" id="Vector-50" fill="#451900" fill-rule="evenodd" stroke="#4A1D00" stroke-width="1" />
      <path d="M266.496 308.145C266.496 308.145 265.21 310.737 264.906 313.46C264.601 316.183 262.65 315.873 262.103 318.394C261.558 320.914 264.513 321.833 262.723 323.54C260.932 325.247 258.117 325.863 258.117 325.863C258.117 325.863 254.762 319.979 256.65 315.838C258.538 311.697 266.496 308.145 266.496 308.145Z" id="Vector-45" fill="#FFE5B9" fill-rule="evenodd" stroke="none" />
      <path d="M282.674 316.173C282.674 316.173 280.522 317.501 278.903 318.755C277.286 320.01 276.342 322.222 276.342 322.222C276.342 322.222 274.32 325.445 273.88 327.697C273.441 329.949 274.584 331.23 274.584 331.23C274.584 331.23 276.521 330.641 278.678 329.011C280.835 327.38 281.524 325.987 282.522 322.778C283.522 319.569 282.674 316.173 282.674 316.173Z" id="Vector-46" fill="#EBDBB8" fill-rule="evenodd" stroke="none" />
      <path d="M105.442 198.82C105.442 198.82 103.61 200.451 103.527 202.476C103.444 204.5 105.111 206.92 105.111 206.92L98.7601 216.305C98.7601 216.305 95.8886 215.582 95.3489 212.57C94.8098 209.559 96.6031 204.261 96.6031 204.261C96.6031 204.261 99.1386 201.079 101.348 199.719C103.559 198.359 105.442 198.82 105.442 198.82Z" id="Vector-47" fill="#F6D3AD" fill-rule="evenodd" stroke="none" />
      <path d="M148.161 309.778C148.161 309.778 144.144 313.911 144.334 317.267C144.523 320.623 145.568 323.796 145.568 323.796C145.568 323.796 144.164 323.217 142.98 324.699C141.795 326.182 140.83 329.725 140.83 329.725C140.83 329.725 138.357 329.02 137.477 326.698C136.598 324.373 137.312 320.432 137.312 320.432C137.312 320.432 138.229 317.429 140.861 314.358C143.494 311.286 148.161 309.778 148.161 309.778Z" id="Vector-48" fill="#FFEFB9" fill-rule="evenodd" stroke="none" />
      <path d="M161.526 315.037C161.526 315.037 160.106 317.067 160.199 319.367C160.292 321.668 162.236 322.158 161.897 324.241C161.227 328.353 158.846 331.491 158.846 331.491C158.846 331.491 160.493 331.463 162.248 329.853C164.003 328.243 165.866 325.05 165.866 325.05C165.866 325.05 165.75 319.597 164.665 317.094C163.58 314.59 161.526 315.037 161.526 315.037Z" id="Vector-49" fill="#FFEDB8" fill-rule="evenodd" stroke="none" />
    </g>
  </g>
</svg>