<?xml version="1.0" encoding="utf-8"?>
<svg width="702px" height="683px" viewBox="0 0 702 683" version="1.1" xmlns:xlink="http://www.w3.org/1999/xlink" xmlns="http://www.w3.org/2000/svg">
  <defs>
    <linearGradient gradientUnits="userSpaceOnUse" x1="300.4334" y1="24.706211" x2="161.30989" y2="414.57175" id="gradient_1">
      <stop offset="0%" stop-color="#B5B5B5" />
      <stop offset="19.287024%" stop-color="#7A7A7A" />
      <stop offset="31.947231%" stop-color="#DFDFDF" />
      <stop offset="52.00685%" stop-color="#E6E6E6" />
      <stop offset="68.92153%" stop-color="#BFBFBF" />
      <stop offset="87.623764%" stop-color="#F8F8F8" />
      <stop offset="100%" stop-color="#BEBEBE" />
    </linearGradient>
    <linearGradient gradientUnits="userSpaceOnUse" x1="186.6652" y1="413.8154" x2="274.49475" y2="55.262276" id="gradient_2">
      <stop offset="0%" stop-color="#DADADA" />
      <stop offset="19.111595%" stop-color="#C6C6C6" />
      <stop offset="33.534874%" stop-color="#FFFFFF" />
      <stop offset="46.95205%" stop-color="#DCDCDC" />
      <stop offset="63.35799%" stop-color="#CDCDCD" />
      <stop offset="84.653465%" stop-color="#CDCDCD" />
      <stop offset="100%" stop-color="#FFFFFF" />
    </linearGradient>
    <linearGradient gradientUnits="userSpaceOnUse" x1="20.102888" y1="325.00525" x2="254.08893" y2="7.974645" id="gradient_3">
      <stop offset="0%" stop-color="#CDCDCD" />
      <stop offset="19.949432%" stop-color="#AEAEAE" />
      <stop offset="40.712036%" stop-color="#9F9F9F" />
      <stop offset="56.81947%" stop-color="#909090" />
      <stop offset="81.61996%" stop-color="#999999" />
      <stop offset="100%" stop-color="#B4B4B4" />
    </linearGradient>
    <linearGradient gradientUnits="userSpaceOnUse" x1="173.26381" y1="21.73219" x2="40.34833" y2="180.50468" id="gradient_4">
      <stop offset="0%" stop-color="#EFEFEF" />
      <stop offset="16.76723%" stop-color="#C5C5C5" />
      <stop offset="47.7845%" stop-color="#C9C9C9" />
      <stop offset="70.898094%" stop-color="#D8D8D8" />
      <stop offset="100%" stop-color="#939393" />
    </linearGradient>
    <linearGradient gradientUnits="userSpaceOnUse" x1="71.434715" y1="26.20659" x2="28.559591" y2="193.6958" id="gradient_5">
      <stop offset="0%" stop-color="#A6A6A6" />
      <stop offset="22.40246%" stop-color="#858585" />
      <stop offset="63.64175%" stop-color="#828282" />
      <stop offset="100%" stop-color="#8B8B8B" />
    </linearGradient>
    <linearGradient gradientUnits="userSpaceOnUse" x1="118.82915" y1="12.783757" x2="33.137814" y2="127.773476" id="gradient_6">
      <stop offset="0%" stop-color="#D2D2D2" />
      <stop offset="26.28918%" stop-color="#F2F2F2" />
      <stop offset="71.09405%" stop-color="#EBEBEB" />
      <stop offset="100%" stop-color="#C5C5C5" />
    </linearGradient>
    <linearGradient gradientUnits="userSpaceOnUse" x1="3.6633224" y1="2.840865" x2="11.339506" y2="19.938725" id="gradient_7">
      <stop offset="0%" stop-color="#818181" stop-opacity="0.61960787" />
      <stop offset="100%" stop-color="#919191" stop-opacity="0.49019608" />
    </linearGradient>
    <linearGradient gradientUnits="userSpaceOnUse" x1="23.432474" y1="1.8795235" x2="3.7102418" y2="19.567968" id="gradient_8">
      <stop offset="0%" stop-color="#8C8C8C" stop-opacity="0.49019608" />
      <stop offset="41.38024%" stop-color="#919191" stop-opacity="0.6509804" />
      <stop offset="69.60405%" stop-color="#838383" stop-opacity="0.65882355" />
      <stop offset="100%" stop-color="#8D8D8D" />
    </linearGradient>
    <linearGradient gradientUnits="userSpaceOnUse" x1="19.66571" y1="-1.8783927" x2="2.6461105" y2="26.418404" id="gradient_9">
      <stop offset="0%" stop-color="#888888" stop-opacity="0.61960787" />
      <stop offset="100%" stop-color="#A0A0A0" stop-opacity="0.61960787" />
    </linearGradient>
    <linearGradient gradientUnits="userSpaceOnUse" x1="67.41441" y1="20.492458" x2="129.99959" y2="157.58728" id="gradient_10">
      <stop offset="0%" stop-color="#E9E9E9" />
      <stop offset="18.62788%" stop-color="#F5F5F5" />
      <stop offset="41.193733%" stop-color="#E1E1E1" />
      <stop offset="63.88432%" stop-color="#F7F7F7" />
      <stop offset="89.57855%" stop-color="#EFEFEF" />
      <stop offset="100%" stop-color="#C2C2C2" />
    </linearGradient>
    <linearGradient gradientUnits="userSpaceOnUse" x1="0.7208073" y1="13.597956" x2="8.113715" y2="5.7733507" id="gradient_11">
      <stop offset="0%" stop-color="#BBBBBB" stop-opacity="0.49803922" />
      <stop offset="100%" stop-color="#636363" stop-opacity="0.16078432" />
    </linearGradient>
    <linearGradient gradientUnits="userSpaceOnUse" x1="3.4103966" y1="19.063566" x2="21.93655" y2="3.990053" id="gradient_12">
      <stop offset="0%" stop-color="#999999" stop-opacity="0.4" />
      <stop offset="100%" stop-color="#8D8D8D" stop-opacity="0.34901962" />
    </linearGradient>
    <linearGradient gradientUnits="userSpaceOnUse" x1="4.3819304" y1="2.1956902" x2="4.5504675" y2="51.263035" id="gradient_13">
      <stop offset="0%" stop-color="#EEEEEE" stop-opacity="0.25882354" />
      <stop offset="42.07921%" stop-color="#BDBDBD" stop-opacity="0.4392157" />
      <stop offset="100%" stop-color="#FAFAFA" stop-opacity="0.47058824" />
    </linearGradient>
    <linearGradient gradientUnits="userSpaceOnUse" x1="0" y1="0" x2="51.92383" y2="9.864944" id="gradient_14">
      <stop offset="0%" stop-color="#BBBBBB" />
      <stop offset="100%" stop-color="#D2D2D2" />
    </linearGradient>
    <linearGradient gradientUnits="userSpaceOnUse" x1="0" y1="0" x2="59.956703" y2="17.542007" id="gradient_15">
      <stop offset="0%" stop-color="#C3C3C3" stop-opacity="0.5882353" />
      <stop offset="100%" stop-color="#F5F5F5" stop-opacity="0.70980394" />
    </linearGradient>
    <linearGradient gradientUnits="userSpaceOnUse" x1="5.1081457" y1="9.061167" x2="31.886993" y2="2.1956959" id="gradient_16">
      <stop offset="0%" stop-color="#6F6F6F" stop-opacity="0.2901961" />
      <stop offset="100%" stop-color="#8B6222" stop-opacity="0.25882354" />
    </linearGradient>
    <linearGradient gradientUnits="userSpaceOnUse" x1="28.65708" y1="8.289167" x2="4.2552385" y2="47.496635" id="gradient_17">
      <stop offset="0%" stop-color="#E6E6E6" stop-opacity="0.61960787" />
      <stop offset="100%" stop-color="#CBCBCB" stop-opacity="0.6509804" />
    </linearGradient>
    <linearGradient gradientUnits="userSpaceOnUse" x1="28.463646" y1="5.5774426" x2="-5.7218018" y2="38.893097" id="gradient_18">
      <stop offset="0%" stop-color="#E0E0E0" stop-opacity="0.8" />
      <stop offset="100%" stop-color="#D6D6D6" stop-opacity="0.54901963" />
    </linearGradient>
    <linearGradient gradientUnits="userSpaceOnUse" x1="11.985001" y1="4.879533" x2="6.2105436" y2="35.08596" id="gradient_19">
      <stop offset="0%" stop-color="#F6F6F6" stop-opacity="0.7607843" />
      <stop offset="100%" stop-color="#F0F0F0" stop-opacity="0.4392157" />
    </linearGradient>
    <linearGradient gradientUnits="userSpaceOnUse" x1="0" y1="0" x2="8.622726" y2="22.278412" id="gradient_20">
      <stop offset="0%" stop-color="#9F9F9F" stop-opacity="0.2901961" />
      <stop offset="100%" stop-color="#767676" stop-opacity="0.34901962" />
    </linearGradient>
    <linearGradient gradientUnits="userSpaceOnUse" x1="0" y1="0" x2="35.59482" y2="44.164764" id="gradient_21">
      <stop offset="0%" stop-color="#F3F3F3" />
      <stop offset="100%" stop-color="#FFFFFF" />
    </linearGradient>
    <linearGradient gradientUnits="userSpaceOnUse" x1="0" y1="0" x2="25.651154" y2="8.772934" id="gradient_22">
      <stop offset="0%" stop-color="#A57D37" stop-opacity="0.16862746" />
      <stop offset="100%" stop-color="#6A4006" stop-opacity="0.18039216" />
    </linearGradient>
    <linearGradient gradientUnits="userSpaceOnUse" x1="4.746398" y1="20.109667" x2="42.768143" y2="2.1981082" id="gradient_23">
      <stop offset="0%" stop-color="#D5D5D5" stop-opacity="0.4117647" />
      <stop offset="54.950493%" stop-color="#BBBBBB" stop-opacity="0.36078432" />
      <stop offset="100%" stop-color="#BBBBBB" stop-opacity="0.50980395" />
    </linearGradient>
    <linearGradient gradientUnits="userSpaceOnUse" x1="0" y1="15.414902" x2="53.360588" y2="1.8232048" id="gradient_24">
      <stop offset="0%" stop-color="#E7E7E7" />
      <stop offset="50.392105%" stop-color="#C0C0C0" />
      <stop offset="100%" stop-color="#BCBCBC" />
    </linearGradient>
    <linearGradient gradientUnits="userSpaceOnUse" x1="11.7975025" y1="4.7050533" x2="2.763986" y2="35.319267" id="gradient_25">
      <stop offset="0%" stop-color="#B0B0B0" stop-opacity="0.23921569" />
      <stop offset="100%" stop-color="#DFDFDF" stop-opacity="0.43137255" />
    </linearGradient>
    <linearGradient gradientUnits="userSpaceOnUse" x1="0" y1="0" x2="14.041183" y2="36.2955" id="gradient_26">
      <stop offset="0%" stop-color="#F7F7F7" />
      <stop offset="100%" stop-color="#F8F8F8" />
    </linearGradient>
    <path d="M100.92 238.984C100.92 182.078 149.623 135.947 209.701 135.947C269.779 135.947 318.482 182.078 318.482 238.984C318.482 295.889 269.779 342.019 209.701 342.019C149.623 342.019 100.92 295.889 100.92 238.984Z" id="path_1" />
    <path d="M130.971 238.02C130.971 197.088 165.759 163.906 208.671 163.906C251.585 163.906 286.372 197.088 286.372 238.02C286.372 278.951 251.585 312.134 208.671 312.134C165.759 312.134 130.971 278.951 130.971 238.02Z" id="path_2" />
    <path d="M90.2188 210.14C90.2188 201.155 98.4289 193.871 108.555 193.871C118.682 193.871 126.892 201.155 126.892 210.14C126.892 219.125 118.682 226.409 108.555 226.409C98.4289 226.409 90.2188 219.125 90.2188 210.14Z" id="path_3" />
    <path d="M188.928 142.23C188.928 133.245 196.755 125.961 206.41 125.961C216.066 125.961 223.893 133.245 223.893 142.23C223.893 151.215 216.066 158.499 206.41 158.499C196.755 158.499 188.928 151.215 188.928 142.23Z" id="path_4" />
    <path d="M289.816 211.345C289.816 201.921 298.267 194.281 308.692 194.281C319.118 194.281 327.569 201.921 327.569 211.345C327.569 220.768 319.118 228.409 308.692 228.409C298.267 228.409 289.816 220.768 289.816 211.345Z" id="path_5" />
    <path d="M251.178 320.293C251.178 311.146 259.387 303.73 269.515 303.73C279.643 303.73 287.851 311.146 287.851 320.293C287.851 329.44 279.643 336.854 269.515 336.854C259.387 336.854 251.178 329.44 251.178 320.293Z" id="path_6" />
    <path d="M130.068 321.158C130.068 311.734 138.519 304.094 148.945 304.094C159.369 304.094 167.82 311.734 167.82 321.158C167.82 330.583 159.369 338.221 148.945 338.221C138.519 338.221 130.068 330.583 130.068 321.158Z" id="path_7" />
    <path d="M180.926 238.257C180.926 223.294 193.71 211.164 209.48 211.164C225.25 211.164 238.035 223.294 238.035 238.257C238.035 253.221 225.25 265.35 209.48 265.35C193.71 265.35 180.926 253.221 180.926 238.257Z" id="path_8" />
    <clipPath id="clip_1">
      <use xlink:href="#path_1" />
    </clipPath>
    <clipPath id="clip_2">
      <use xlink:href="#path_2" />
    </clipPath>
    <clipPath id="clip_3">
      <use xlink:href="#path_3" />
    </clipPath>
    <clipPath id="clip_4">
      <use xlink:href="#path_4" />
    </clipPath>
    <clipPath id="clip_5">
      <use xlink:href="#path_5" />
    </clipPath>
    <clipPath id="clip_6">
      <use xlink:href="#path_6" />
    </clipPath>
    <clipPath id="clip_7">
      <use xlink:href="#path_7" />
    </clipPath>
    <clipPath id="clip_8">
      <use xlink:href="#path_8" />
    </clipPath>
  </defs>
  <g id="Frame-Copy">
    <path d="M0 0L702 0L702 683L0 683L0 0Z" id="Frame-Copy" fill="#FFFFFF" fill-rule="evenodd" stroke="none" />
    <g id="Group-2" transform="translate(141.35156 116.00391)">
      <path d="M0 100.014L41.7751 39.9348L72.1569 41.702C72.1569 41.702 86.1629 20.7168 107.525 13.6484C128.887 6.58045 157.606 13.4294 157.606 13.4294C157.606 13.4294 183.392 0 210.926 0C238.46 0 267.741 13.4294 267.741 13.4294C267.741 13.4294 292.56 5.97116 312.498 13.0392C332.436 20.1073 347.492 41.702 347.492 41.702L379.773 41.702L419.648 101.781C419.648 101.781 384.935 139.925 383.51 190.727C382.832 214.962 407.3 262.481 411.188 277.325C415.074 292.169 416.19 320.393 408.12 332.321C400.049 344.249 381.672 352.701 381.672 352.701C381.672 352.701 369.385 379.796 347.548 390.84C325.712 401.884 294.324 396.875 294.324 396.875C294.324 396.875 287.318 416.541 265.955 430.237C244.593 443.93 208.875 451.652 208.875 451.652C208.875 451.652 179.537 443.062 159.124 429.808C138.711 416.556 127.224 398.643 127.224 398.643C127.224 398.643 90.8534 395.159 71.865 384.556C52.8764 373.953 51.2694 356.234 51.2694 356.234C51.2694 356.234 11.5951 344.444 8.7346 300.749C5.87432 257.055 41.6317 236.762 39.8281 181.454C38.0242 126.146 0 100.014 0 100.014Z" id="Vector-13" fill="url(#gradient_1)" fill-rule="evenodd" stroke="#000000" stroke-width="6" />
      <path d="M23.1172 105.139L48.6124 64.5663L79.8814 64.3492C79.8814 64.3492 96.8788 42.723 116.131 36.3532C135.382 29.9835 162.722 38.4173 162.722 38.4173C162.722 38.4173 184.015 19.5293 208.829 19.5293C233.643 19.5293 261.975 38.4173 261.975 38.4173C261.975 38.4173 284.342 31.696 302.311 38.0658C320.279 44.4357 333.849 63.8968 333.849 63.8968L367.8 63.331L396.444 108.993C396.444 108.993 359.691 148.457 358.41 194.24C357.797 216.081 383.473 262.71 388.645 281.408C393.818 300.108 394.3 317.316 387.027 328.065C379.754 338.814 362.22 342.359 362.22 342.359C362.22 342.359 353.578 368.587 333.898 378.54C314.219 388.494 285.933 383.98 285.933 383.98C285.933 383.98 279.617 401.703 260.366 414.045C241.114 426.385 208.925 433.345 208.925 433.345C208.925 433.345 183.458 427.412 165.062 415.468C146.666 403.525 135.341 385.573 135.341 385.573C135.341 385.573 101.106 385.147 83.9934 375.591C66.8807 366.037 61.0576 345.092 61.0576 345.092C61.0576 345.092 30.164 339.895 27.5861 300.517C25.0083 261.14 60.1497 239.686 58.524 189.842C56.8982 139.998 23.1172 105.139 23.1172 105.139Z" id="Vector-9-Copy-3" fill="url(#gradient_2)" fill-rule="evenodd" stroke="#000000" stroke-width="7" />
      <path d="M55.5728 337.734C55.5728 337.734 43.3134 335.789 49.0836 295.762C54.8537 255.733 78.8796 250.328 78.9224 205.725C78.9648 161.122 45.476 106.339 45.476 106.339L62.8497 79.2762C62.8497 79.2762 80.2542 88.608 93.9879 80.9944C107.721 73.3805 105.669 60.6186 124.239 53.5308C142.809 46.4431 172.294 53.8928 172.294 53.8928C172.294 53.8928 188.542 35.1417 214.506 35.6298C240.473 36.1179 268.521 53.3072 268.521 53.3072C268.521 53.3072 281.119 48.5235 293.708 47.059C306.298 45.5944 323.492 54.4788 323.492 54.4788C323.492 54.4788 314.638 41.4807 299.163 38.5519C283.689 35.6233 263.274 40.6154 263.274 40.6154C263.274 40.6154 235.31 21.4805 210.655 21.4805C186.001 21.4805 165.495 40.6154 165.495 40.6154C165.495 40.6154 140.483 31.1587 119.763 37.7487C99.0427 44.3387 83.4541 66.389 83.4541 66.389L52.6519 66.4284L28.3125 104.308C28.3125 104.308 38.8877 117.007 46.8155 134.577C54.7435 152.147 56.4659 143.899 60.0234 174.588C61.7377 189.372 62.6119 207.083 60.1306 217.314C52.7395 247.791 33.5998 263.167 32.9052 291.817C31.9771 330.086 55.5728 337.734 55.5728 337.734Z" id="Vector-16" fill="url(#gradient_3)" fill-rule="evenodd" stroke="none" />
      <g id="Oval-10">
        <use stroke="none" fill="url(#gradient_4)" xlink:href="#path_1" fill-rule="evenodd" />
        <g clip-path="url(#clip_1)">
          <use xlink:href="#path_1" fill="none" stroke="#4E4E4E" stroke-width="14" />
        </g>
      </g>
      <path d="M242.594 141.939C242.594 141.939 282.309 152.213 305.384 176.182C328.458 200.152 332.057 237.522 328.023 254.596C323.99 271.669 317.156 296.351 289.253 321.818C261.348 347.286 223.275 339.688 223.275 339.688C223.275 339.688 271.26 326.024 293.339 296.246C315.418 266.467 311.57 263.619 313.653 221.853C315.735 180.086 242.594 141.939 242.594 141.939Z" id="Vector-17" fill="url(#gradient_5)" fill-rule="evenodd" stroke="none" />
      <g id="Group" transform="translate(127.88672 161.54297)">
        <g id="Irving-Thao" fill="#757575">
          <path d="M65.2618 73.9676Q65.4727 74.1679 65.7667 74.1679Q66.0608 74.1679 66.2717 73.9676Q66.4826 73.7673 66.4826 73.486Q66.4826 73.2048 66.2717 73.0045Q66.0608 72.8042 65.7667 72.8042Q65.4727 72.8042 65.2618 73.0045Q65.0508 73.2048 65.0508 73.486Q65.0508 73.7673 65.2618 73.9676ZM52.1304 81.8042L52.1304 73.077L51.0735 73.077L51.0735 81.8042L52.1304 81.8042ZM85.4713 74.0145L85.4713 73.077L92.0167 73.077L92.0167 74.0145L89.2724 74.0145L89.2724 81.8042L88.2156 81.8042L88.2156 74.0145L85.4713 74.0145ZM94.5224 81.8042L94.5224 77.8667Q94.5224 77.0102 95.0103 76.5436Q95.4983 76.077 96.244 76.077Q96.9556 76.077 97.3583 76.5052Q97.761 76.9335 97.761 77.7133L97.761 81.8042L98.7667 81.8042L98.7667 77.6451Q98.7667 76.3838 98.1531 75.7787Q97.5395 75.1735 96.5338 75.1735Q95.7625 75.1735 95.3001 75.474Q94.8377 75.7744 94.6076 76.2815L94.5224 76.2815L94.5224 73.077L93.5167 73.077L93.5167 81.8042L94.5224 81.8042ZM54.1076 75.2588L54.1076 81.8042L55.1133 81.8042L55.1133 77.6622Q55.1133 76.9974 55.5821 76.5628Q56.0508 76.1281 56.7667 76.1281Q56.967 76.1281 57.1481 76.1558Q57.3292 76.1835 57.3804 76.1963L57.3804 75.1735Q57.2951 75.165 57.1289 75.1608Q56.9627 75.1565 56.852 75.1565Q56.2639 75.1565 55.7951 75.4591Q55.3264 75.7616 55.1474 76.2474L55.0792 76.2474L55.0792 75.2588L54.1076 75.2588ZM69.1076 77.8667L69.1076 81.8042L68.102 81.8042L68.102 75.2588L69.0735 75.2588L69.0735 76.2815L69.1588 76.2815Q69.3889 75.7829 69.8576 75.4782Q70.3264 75.1735 71.0679 75.1735Q72.0608 75.1735 72.6723 75.7829Q73.2838 76.3923 73.2838 77.6451L73.2838 81.8042L72.2781 81.8042L72.2781 77.7133Q72.2781 76.942 71.8775 76.5095Q71.477 76.077 70.7781 76.077Q70.0579 76.077 69.5828 76.5436Q69.1076 77.0102 69.1076 77.8667ZM76.0345 83.9967Q76.6716 84.3951 77.7667 84.3951Q78.5508 84.3951 79.1922 84.1459Q79.8335 83.8966 80.2149 83.366Q80.5963 82.8355 80.5963 81.9917L80.5963 75.2588L79.6247 75.2588L79.6247 76.2985L79.5224 76.2985Q79.4116 76.1281 79.2092 75.8618Q79.0068 75.5954 78.6297 75.3845Q78.2525 75.1735 77.6133 75.1735Q76.7866 75.1735 76.1559 75.5848Q75.5252 75.996 75.1716 76.7439Q74.8179 77.4917 74.8179 78.4974Q74.8179 79.5201 75.1822 80.236Q75.5466 80.952 76.1751 81.327Q76.8037 81.702 77.5963 81.702Q78.2355 81.702 78.6126 81.4995Q78.9897 81.2971 79.1922 81.0351Q79.3946 80.773 79.5054 80.594L79.5906 80.594L79.5906 81.9235Q79.5906 82.7417 79.075 83.1253Q78.5593 83.5088 77.7667 83.5088Q77.1744 83.5088 76.8101 83.3362Q76.4457 83.1636 76.2369 82.9314Q76.0281 82.6991 75.8917 82.5201L75.0906 83.0826Q75.3974 83.5983 76.0345 83.9967ZM102.534 81.9576Q101.912 81.9576 101.405 81.7211Q100.897 81.4846 100.599 81.0351Q100.301 80.5855 100.301 79.9463Q100.301 79.3838 100.522 79.0322Q100.744 78.6806 101.115 78.4804Q101.485 78.2801 101.935 78.1799Q102.385 78.0798 102.841 78.0201Q103.437 77.9434 103.81 77.903Q104.183 77.8625 104.356 77.7645Q104.528 77.6664 104.528 77.4235L104.528 77.3895Q104.528 76.7588 104.185 76.4093Q103.842 76.0599 103.147 76.0599Q102.427 76.0599 102.018 76.3753Q101.609 76.6906 101.443 77.0485L100.488 76.7076Q100.744 76.111 101.172 75.7765Q101.601 75.442 102.11 75.3078Q102.619 75.1735 103.113 75.1735Q103.429 75.1735 103.84 75.2481Q104.251 75.3227 104.637 75.5528Q105.022 75.7829 105.278 76.2474Q105.534 76.7119 105.534 77.4917L105.534 81.8042L104.528 81.8042L104.528 80.9179L104.477 80.9179Q104.375 81.1309 104.136 81.3738Q103.897 81.6167 103.501 81.7872Q103.105 81.9576 102.534 81.9576ZM108.48 81.5187Q109.147 81.9406 110.034 81.9406Q110.92 81.9406 111.587 81.5187Q112.254 81.0968 112.627 80.3383Q113 79.5798 113 78.5656Q113 77.5429 112.627 76.7801Q112.254 76.0173 111.587 75.5954Q110.92 75.1735 110.034 75.1735Q109.147 75.1735 108.48 75.5954Q107.814 76.0173 107.441 76.7801Q107.068 77.5429 107.068 78.5656Q107.068 79.5798 107.441 80.3383Q107.814 81.0968 108.48 81.5187ZM63.9258 75.2588L61.5054 81.8042L60.4826 81.8042L58.0622 75.2588L59.1531 75.2588L60.9599 80.4747L61.0281 80.4747L62.8349 75.2588L63.9258 75.2588ZM65.2554 75.2588L65.2554 81.8042L66.261 81.8042L66.261 75.2588L65.2554 75.2588ZM79.124 80.1828Q78.6403 80.7985 77.7326 80.7985Q76.7866 80.7985 76.3051 80.1508Q75.8235 79.5031 75.8235 78.4804Q75.8235 77.8156 76.0345 77.2701Q76.2454 76.7247 76.6694 76.4008Q77.0934 76.077 77.7326 76.077Q78.6531 76.077 79.1304 76.7481Q79.6076 77.4193 79.6076 78.4804Q79.6076 79.567 79.124 80.1828ZM111.142 80.692Q110.707 81.0372 110.034 81.0372Q109.36 81.0372 108.926 80.692Q108.491 80.3468 108.282 79.7843Q108.074 79.2218 108.074 78.5656Q108.074 77.9093 108.282 77.3426Q108.491 76.7758 108.926 76.4264Q109.36 76.077 110.034 76.077Q110.707 76.077 111.142 76.4264Q111.576 76.7758 111.785 77.3426Q111.994 77.9093 111.994 78.5656Q111.994 79.2218 111.785 79.7843Q111.576 80.3468 111.142 80.692ZM102.687 81.0542Q103.284 81.0542 103.695 80.8199Q104.106 80.5855 104.317 80.2147Q104.528 79.844 104.528 79.4349L104.528 78.5145Q104.464 78.5912 104.249 78.653Q104.034 78.7147 103.755 78.7595Q103.476 78.8042 103.213 78.8362Q102.951 78.8681 102.789 78.8895Q102.397 78.9406 102.059 79.0535Q101.72 79.1664 101.513 79.3902Q101.306 79.6139 101.306 79.9974Q101.306 80.5216 101.696 80.7879Q102.086 81.0542 102.687 81.0542Z" />
        </g>
      </g>
      <path d="M108.039 225.397L111.022 225.905C112.924 225.663 115.976 224.366 116.516 224.663C116.984 224.921 119.858 226.7 122.748 229.14L131.227 236.99L131.65 244.373L109.112 237.382L108.039 225.397Z" id="Vector-23" fill="#989898" fill-opacity="0.6784314" fill-rule="evenodd" stroke="none" />
      <g id="Oval-11">
        <use stroke="none" fill="url(#gradient_6)" xlink:href="#path_2" fill-rule="evenodd" />
        <g clip-path="url(#clip_2)">
          <use xlink:href="#path_2" fill="none" stroke="#4E4E4E" stroke-width="16" />
        </g>
      </g>
      <path d="M268.354 285.754L290.072 298.607L282.226 307.397C282.226 307.397 279.683 305.688 276.896 304.833C274.109 303.978 269.919 303.29 269.919 303.29C269.919 303.29 269.442 298.873 268.948 294.458C268.455 290.04 268.354 285.754 268.354 285.754Z" id="Vector-21" fill="url(#gradient_7)" fill-rule="evenodd" stroke="none" />
      <path d="M183.117 307.747L183.77 331.802C183.77 331.802 179.277 331.17 175.242 329.894C171.208 328.617 168.31 327.486 168.31 327.486C168.31 327.486 168.164 326.295 169.165 323.095C170.166 319.897 169.655 315.322 169.655 315.322C169.655 315.322 174.566 312.362 179.932 309.615C185.299 306.869 183.117 307.747 183.117 307.747Z" id="Vector-22" fill="#969696" fill-opacity="0.8784314" fill-rule="evenodd" stroke="none" />
      <path d="M295.467 111.478C295.467 111.478 301.698 112.408 307.091 115.67C312.485 118.932 317.039 124.526 317.039 124.526C317.039 124.526 309.857 126.866 307.026 132.387C304.195 137.907 305.714 146.608 305.714 146.608C305.714 146.608 313.313 144.787 316.549 140.646C319.784 136.506 319.003 130.754 319.003 130.754C319.003 130.754 319.441 129.405 320.25 129.405C321.059 129.405 321.893 130.047 321.893 130.047L323.206 139.401C323.206 139.401 313.722 144.112 310.231 151.16C306.739 158.209 307.656 167.184 307.656 167.184C307.656 167.184 316.339 165.723 320.168 161.707C323.997 157.693 323.24 152.466 323.406 151.645C323.572 150.823 324.301 150.296 324.976 150.546C325.65 150.798 325.668 152.129 325.668 152.129C325.668 152.129 326.813 156.69 326.121 158.634C325.43 160.576 320.708 162.064 320.842 169.215C320.977 176.368 327.287 187.961 327.287 187.961C327.287 187.961 333.813 181.41 335.161 174.509C336.51 167.608 330.802 159.074 330.802 159.074C330.802 159.074 329.728 155.081 329.746 152.572C329.761 150.062 330.868 149.037 330.868 149.037C330.868 149.037 335.479 156.319 340.246 158.974C345.015 161.629 351.707 162.009 351.707 162.009C351.707 162.009 350.576 150.731 345.01 144.873C339.445 139.015 330.506 139.783 329.949 139.127C329.393 138.47 329.03 137.415 328.626 135.659C328.222 133.902 327.91 131.081 327.91 131.081C327.91 131.081 332.867 133.018 338.105 133.261C343.342 133.505 348.859 132.054 348.859 132.054C348.859 132.054 342.515 123.688 335.909 121.053C329.302 118.419 322.433 121.515 322.433 121.515C322.433 121.515 317.347 115.894 310.606 113.384C303.864 110.875 295.467 111.478 295.467 111.478Z" id="Vector-51" fill="#4E4E4E" fill-rule="evenodd" stroke="#414141" stroke-width="1" />
      <path d="M116.531 186.894C116.531 186.894 110.299 185.964 104.905 182.702C99.5112 179.44 94.9559 173.846 94.9559 173.846C94.9559 173.846 102.139 171.506 104.97 165.985C107.802 160.465 106.283 151.763 106.283 151.763C106.283 151.763 98.683 153.585 95.4464 157.726C92.2091 161.866 92.9926 167.618 92.9926 167.618C92.9926 167.618 92.5549 168.967 91.7459 168.967C90.9368 168.967 90.1028 168.325 90.1028 168.325L88.7903 158.97C88.7903 158.97 98.274 154.26 101.766 147.212C105.258 140.163 104.341 131.187 104.341 131.187C104.341 131.187 95.655 132.65 91.8283 136.665C87.9993 140.679 88.7561 145.906 88.5907 146.727C88.4237 147.549 87.6948 148.077 87.0209 147.825C86.3471 147.575 86.3287 146.242 86.3287 146.242C86.3287 146.242 85.1839 141.681 85.8754 139.739C86.566 137.795 91.2892 136.308 91.1541 129.156C91.0181 122.005 84.7097 110.41 84.7097 110.41C84.7097 110.41 78.1836 116.962 76.8355 123.863C75.4873 130.763 81.1944 139.297 81.1944 139.297C81.1944 139.297 82.2682 143.291 82.2522 145.8C82.235 148.31 81.1288 149.335 81.1288 149.335C81.1288 149.335 76.5181 142.052 71.7509 139.397C66.9823 136.742 60.291 136.363 60.291 136.363C60.291 136.363 61.4218 147.641 66.9873 153.499C72.5526 159.357 81.4911 158.589 82.0473 159.245C82.6028 159.902 82.9657 160.956 83.3701 162.713C83.7747 164.47 84.0869 167.291 84.0869 167.291C84.0869 167.291 79.1293 165.354 73.8927 165.111C68.6557 164.867 63.1383 166.317 63.1383 166.317C63.1383 166.317 69.4814 174.684 76.0876 177.319C82.6942 179.953 89.5634 176.857 89.5634 176.857C89.5634 176.857 94.6487 182.478 101.39 184.988C108.133 187.498 116.531 186.894 116.531 186.894Z" transform="matrix(-1 0 0 1 176.8225 0)" id="Vector-51-Copy" fill="#515151" fill-rule="evenodd" stroke="#515151" stroke-width="1" />
      <path d="M231.097 167.261L238.04 146.654C238.04 146.654 233.83 144.324 230.081 143.493C226.331 142.662 222.715 143.447 222.715 143.447C222.715 143.447 222.95 145.3 220.268 149.794C217.584 154.289 214.607 155.342 214.607 155.342L219.384 164.135L231.097 167.261Z" id="Vector-19" fill="url(#gradient_8)" fill-rule="evenodd" stroke="none" />
      <path d="M284.809 252.644L309.288 254.327C309.288 254.327 311.008 245.712 311.359 242.043C311.71 238.373 312.139 235.455 312.021 233.145C311.765 228.05 312.218 228.269 312.218 228.269C312.218 228.269 309.313 228.893 305.825 228.143C302.337 227.395 296.618 225.164 296.618 225.164L286.608 235.597C286.608 235.597 286.378 240.428 286.12 244.352C285.862 248.277 284.809 252.644 284.809 252.644Z" id="Vector-20" fill="url(#gradient_9)" fill-rule="evenodd" stroke="none" />
      <path d="M178.41 201.844L201.622 153.926L211.335 153.926L240.473 204.08L296.179 206.471L298.88 220.595L261.841 255.154L267.438 309.935L258.91 316.951L209.754 289.622L160.829 316.614L150.622 308.25L153.915 252.795L118.094 222.616L119.674 207.359L178.41 201.844Z" id="Vector-18" fill="url(#gradient_10)" fill-rule="evenodd" stroke="#595959" stroke-width="5.5" />
      <g id="Oval-8-Copy-9">
        <use stroke="none" fill="#E1E1E1" xlink:href="#path_3" fill-rule="evenodd" />
        <g clip-path="url(#clip_3)">
          <use xlink:href="#path_3" fill="none" stroke="#393939" stroke-width="9" />
        </g>
      </g>
      <g id="Oval-12">
        <use stroke="none" fill="#E0E0E0" xlink:href="#path_4" fill-rule="evenodd" />
        <g clip-path="url(#clip_4)">
          <use xlink:href="#path_4" fill="none" stroke="#333333" stroke-width="9" />
        </g>
      </g>
      <g id="Oval-8-Copy-10">
        <use stroke="none" fill="#D4D4D4" xlink:href="#path_5" fill-rule="evenodd" />
        <g clip-path="url(#clip_5)">
          <use xlink:href="#path_5" fill="none" stroke="#2D2C2C" stroke-width="9" />
        </g>
      </g>
      <path d="M131.289 374.652C131.289 374.652 131.608 366.484 126.75 361.458C121.893 356.432 111.86 354.547 111.86 354.547L107.233 350.156L112.85 351.7C112.85 351.7 117.737 353.44 121.342 353.044C124.948 352.648 126.787 347.438 126.787 347.438C126.787 347.438 121.455 341.285 114.603 339.686C107.75 338.088 101.694 342.608 101.694 342.608L97.285 336.622C97.285 336.622 103.109 338.846 108.112 338.316C113.116 337.787 117.198 335.652 117.198 335.652C117.198 335.652 110.699 330.135 105.215 328.386C99.7322 326.637 95.2653 328.655 95.2653 328.655C95.2653 328.655 93.3884 326.815 93.4673 322.038C93.5461 317.26 95.5805 309.543 95.5805 309.543C95.5805 309.543 91.0335 315.72 89.2533 321.326C87.4732 326.932 88.7636 332.845 88.7636 332.845C88.7636 332.845 83.6748 336.558 81.8243 342.601C79.9737 348.643 82.1797 354.422 82.1797 354.422C82.1797 354.422 86.8586 352.349 89.6935 349.199C92.5283 346.049 93.5193 341.822 93.5193 341.822L97.5442 345.659C97.5442 345.659 92.5477 356.281 94.0894 363.167C95.631 370.053 100.813 374.433 100.813 374.433C100.813 374.433 105.559 368.451 106.378 363.014C107.196 357.577 104.088 352.686 104.088 352.686L109.21 357.059C109.21 357.059 114.073 369.141 119.531 372.921C124.988 376.7 131.289 374.652 131.289 374.652Z" transform="matrix(-0.6293205 0.77714586 0.77714586 0.6293205 -69.88517 22.007385)" id="Vector-50-Copy" fill="#434343" fill-rule="evenodd" stroke="#4D4D4D" stroke-width="1" />
      <g id="Oval-8-Copy-11">
        <use stroke="none" fill="#D5D5D5" xlink:href="#path_6" fill-rule="evenodd" />
        <g clip-path="url(#clip_6)">
          <use xlink:href="#path_6" fill="none" stroke="#3A3A3A" stroke-width="9" />
        </g>
      </g>
      <g id="Oval-8-Copy-12">
        <use stroke="none" fill="#E7E7E7" xlink:href="#path_7" fill-rule="evenodd" />
        <g clip-path="url(#clip_7)">
          <use xlink:href="#path_7" fill="none" stroke="#3C3C3C" stroke-width="9" />
        </g>
      </g>
      <g id="Oval-13">
        <use stroke="none" fill="#EBEBEB" xlink:href="#path_8" fill-rule="evenodd" />
        <g clip-path="url(#clip_8)">
          <use xlink:href="#path_8" fill="none" stroke="#444444" stroke-width="14" />
        </g>
      </g>
      <path d="M237.418 204.151L228.439 219.227L229.818 220.061L242.948 206.962L238.876 206.162L237.418 204.151Z" id="Vector-24" fill="url(#gradient_11)" fill-rule="evenodd" stroke="none" />
      <path d="M254.462 207.369L234.838 226.121L235.68 229.213L265.522 207.297L254.462 207.369Z" id="Vector-24-Copy" fill="url(#gradient_12)" fill-rule="evenodd" stroke="none" />
      <path d="M202.832 158.006C202.832 158.006 206.241 158.24 206.629 158.488C207.017 158.736 210.079 158.186 210.079 158.186L209.001 211.284L204.859 211.465L202.832 158.006Z" id="Vector-25" fill="url(#gradient_13)" fill-rule="evenodd" stroke="none" />
      <path d="M183.015 198.803L191.954 217.013L173.398 204.761L180.627 204.255L183.015 198.803Z" id="Vector-26" fill="#5F5F5F" fill-opacity="0.50980395" fill-rule="evenodd" stroke="none" />
      <path d="M145.077 207.762L184.702 227.086L126.631 209.289L145.077 207.762Z" id="Vector-27" fill="#D4D4D4" fill-opacity="0.5294118" fill-rule="evenodd" stroke="none" />
      <path d="M129.688 228.814L181.611 238.679L139.768 237.174L129.688 228.814Z" id="Vector-28" fill="url(#gradient_14)" fill-rule="evenodd" stroke="none" />
      <path d="M133.007 220.539L180.677 238.081L129.771 229.077L120.721 221.551L133.007 220.539Z" id="Vector-29" fill="url(#gradient_15)" fill-rule="evenodd" stroke="none" />
      <path d="M153.131 248.562L185.018 245.002L156.712 256.955L157.388 251.106L153.131 248.562Z" id="Vector-30" fill="url(#gradient_16)" fill-rule="evenodd" stroke="none" />
      <path d="M167.016 309.553L196.259 261.375L181.036 302.137L167.016 309.553Z" id="Vector-32" fill="url(#gradient_17)" fill-rule="evenodd" stroke="none" />
      <path d="M155.871 280.155L185.114 254.949L154.133 304.299L155.871 280.155Z" id="Vector-31" fill="url(#gradient_18)" fill-rule="evenodd" stroke="none" />
      <path d="M180.648 303.092L200.342 263.824L191.062 296.801L180.648 303.092Z" id="Vector-33" fill="url(#gradient_19)" fill-rule="evenodd" stroke="none" />
      <path d="M205.373 289.692L209.532 267.414L210.949 267.426L213.996 289.669L209.858 287.583L205.373 289.692Z" id="Vector-34" fill="url(#gradient_20)" fill-rule="evenodd" stroke="none" />
      <path d="M227.246 262.273L239.65 285.625L262.841 306.438L247.201 281.564L227.246 262.273Z" id="Vector-35" fill="url(#gradient_21)" fill-rule="evenodd" stroke="none" />
      <path d="M235.965 250.989L258.87 259.111L259.321 254.853L261.616 250.338L235.965 250.989Z" id="Vector-36" fill="url(#gradient_22)" fill-rule="evenodd" stroke="none" />
      <path d="M235.215 228.852L263.369 207.316L287.906 208.301L235.215 228.852Z" id="Vector-37" fill="url(#gradient_23)" fill-rule="evenodd" stroke="none" />
      <path d="M240.639 237.159L293.437 221.744L277.947 235.316L240.639 237.159Z" id="Vector-38" fill="url(#gradient_24)" fill-rule="evenodd" stroke="none" />
      <path d="M223.616 180.922L230.088 192.402L219.706 213.732L215.189 211.85L223.616 180.922Z" id="Vector-39" fill="url(#gradient_25)" fill-rule="evenodd" stroke="none" />
      <path d="M220.891 263.932L234.932 300.227L227.664 296.851L220.891 263.932Z" id="Vector-40" fill="url(#gradient_26)" fill-rule="evenodd" stroke="none" />
      <path d="M14.9492 102.313L19.4914 105.204L47.8624 61.1766L79.0564 60.7041C79.0564 60.7041 96.4762 39.5961 115.334 33.1935C134.191 26.7907 162.853 34.2324 162.853 34.2324L177.155 24.8223L159.979 31.0173C159.979 31.0173 125.803 24.8763 111.023 30.1842C86.2381 39.0851 75.0765 56.8953 75.0765 56.8953L45.1443 57.1638L14.9492 102.313Z" id="Vector-41" fill="#FFE6B4" fill-opacity="0.49019608" fill-rule="evenodd" stroke="none" />
      <path d="M313.299 38.9525L327.926 26.4922C327.926 26.4922 331.973 27.9926 335.927 32.408C339.881 36.8236 345.954 44.8397 345.954 44.8397L377.403 44.5736L415.488 101.772C415.488 101.772 388.77 137.289 382.3 170.963C375.83 204.637 392.776 236.735 392.776 236.735L377.293 238.39C377.293 238.39 358.256 209.519 364.764 177.986C371.273 146.453 401.888 109.309 401.888 109.309L371.529 59.1188L336.613 60.9009C336.613 60.9009 331.678 53.2025 325.758 47.672C319.838 42.142 313.299 38.9525 313.299 38.9525Z" id="Vector-42" fill="#FAFAFA" fill-opacity="0.5411765" fill-rule="evenodd" stroke="none" />
      <path d="M137.545 138.46L130.156 82.7103L160.072 75.2852C163.663 75.2852 169.555 75.6744 172.222 76.8562C174.889 78.0376 178.571 79.6325 181.151 83.1736C183.731 86.7148 183.521 90.4629 182.544 95.1868C181.566 99.9114 180.775 99.8524 178.6 102.071C176.424 104.289 173.842 104.059 173.842 104.059C176.018 104.162 180.468 105.07 181.664 106.38C182.861 107.69 183.896 109.683 185.035 113.188C186.175 116.692 186.223 120.398 186.223 120.398C186.223 120.398 182.899 120.661 178.772 121.665C174.643 122.668 169.709 124.411 169.709 124.411C169.709 124.411 167.669 109.808 166.989 109.037C166.309 108.267 164.33 108.282 162.751 108.282L150.496 109.486L153.844 128.802L137.545 138.46ZM228.682 125.895L242.396 74.3486L271.508 81.2435C271.508 81.2435 274.599 82.4552 280.312 86.8588C286.024 91.2624 285.132 96.3743 284.992 99.945C284.852 103.516 281.988 106.089 279.498 108.449C277.008 110.81 275.724 109.988 273.518 110.855L283.068 118.03C283.068 118.03 284.026 120.522 283.081 128.149C282.135 135.776 279.597 139.039 279.597 139.039L279.067 139.292C277.601 138.783 274.145 137.107 271.572 135.885C268.103 134.238 262.789 133.268 262.789 133.268L267.63 120.947C267.652 119.743 263.263 116.822 259.972 115.123C256.68 113.425 249.012 112.121 249.012 112.121L244.699 130.978C244.699 130.978 241.01 129.311 236.858 128.082C232.705 126.852 228.682 125.895 228.682 125.895ZM147.818 102.027L156.549 100.262C156.647 100.262 161.759 98.8326 163.146 97.5727C164.588 96.2626 165.127 94.4835 164.966 91.8913C164.805 89.2985 163.917 88.5118 162.503 87.2018C161.088 85.8919 158.054 85.7188 155.442 85.7188L145.609 87.7254L147.818 102.027ZM252.616 99.4652L257.994 101.218C258.059 101.25 262.679 102.76 264.043 102.402C265.461 102.03 267.123 101.158 267.909 99.4505C268.695 97.7428 268.525 94.8684 268.029 93.5762C267.532 92.2838 266.93 92.5174 264.075 91.2281C261.219 89.9387 255.3 88.6289 255.3 88.6289L252.616 99.4652Z" id="R" fill="#101010" stroke="none" />
      <path d="M193.805 93.62C193.805 93.62 202.067 90.4707 209.308 90.4707C216.549 90.4707 225.201 93.9373 225.201 93.9373L222.466 107.417C222.466 107.417 216.85 102.374 209.609 102.374C202.368 102.374 196.846 106.155 196.846 106.155L193.805 93.62Z" id="Rectangle" fill="#1C1C1C" fill-rule="evenodd" stroke="none" />
      <path d="M199.616 132.492L202.852 141.526L195.796 148.211C195.796 148.211 193.024 143.824 194.237 139.934C195.451 136.045 199.616 132.492 199.616 132.492Z" id="Vector-43" fill="#F6F6F6" fill-rule="evenodd" stroke="none" />
      <path d="M305.325 198.74C305.325 198.74 306.705 201.283 306.705 204.043C306.705 206.804 305.325 209.782 305.325 209.782C305.325 209.782 304.762 212.321 302.875 214.453C300.986 216.586 297.775 218.313 297.775 218.313C297.775 218.313 295.864 217.042 295.238 214.779C294.613 212.515 295.272 209.26 295.272 209.26C295.272 209.26 296.467 204.578 298.893 202.069C301.32 199.56 305.325 198.74 305.325 198.74Z" id="Vector-44" fill="#F6F6F6" fill-rule="evenodd" stroke="none" />
      <path d="M334.736 329.479C334.736 329.479 326.738 327.473 320.767 331.136C314.795 334.799 310.85 344.131 310.85 344.131L305.553 347.703L308.245 342.58C308.245 342.58 310.978 338.206 311.336 334.629C311.694 331.052 306.933 328.187 306.933 328.187C306.933 328.187 299.75 332.076 296.748 338.385C293.746 344.694 296.95 351.503 296.95 351.503L290.125 354.532C290.125 354.532 293.531 349.35 294.047 344.391C294.563 339.431 293.304 335.031 293.304 335.031C293.304 335.031 286.507 340.184 283.641 345.135C280.775 350.085 281.839 354.834 281.839 354.834C281.839 354.834 279.633 356.271 274.932 355.201C270.232 354.132 263.036 350.557 263.036 350.557C263.036 350.557 268.189 356.247 273.354 359.138C278.519 362.028 284.625 362.006 284.625 362.006C284.625 362.006 287.234 367.709 292.815 370.758C298.396 373.807 304.56 372.87 304.56 372.87C304.56 372.87 303.485 367.905 300.965 364.503C298.444 361.101 294.476 359.262 294.476 359.262L299.1 356.158C299.1 356.158 308.549 363.208 315.668 363.145C322.786 363.082 328.187 358.97 328.187 358.97C328.187 358.97 323.267 353.127 318.07 351.204C312.872 349.281 307.398 351.277 307.398 351.277L312.779 347.221C312.779 347.221 325.718 345.019 330.584 340.515C335.449 336.011 334.736 329.479 334.736 329.479Z" id="Vector-50" fill="#414141" fill-rule="evenodd" stroke="#555555" stroke-width="1" />
      <path d="M266.497 308.145C266.497 308.145 265.21 310.737 264.906 313.46C264.601 316.183 262.65 315.873 262.103 318.394C261.558 320.914 264.513 321.833 262.723 323.54C260.933 325.247 258.117 325.863 258.117 325.863C258.117 325.863 254.763 319.979 256.651 315.838C258.538 311.697 266.497 308.145 266.497 308.145Z" id="Vector-45" fill="#F3F2EF" fill-rule="evenodd" stroke="none" />
      <path d="M282.674 316.174C282.674 316.174 280.521 317.501 278.903 318.756C277.285 320.011 276.341 322.222 276.341 322.222C276.341 322.222 274.319 325.446 273.88 327.698C273.441 329.95 274.584 331.23 274.584 331.23C274.584 331.23 276.52 330.642 278.678 329.011C280.834 327.38 281.523 325.988 282.521 322.779C283.521 319.569 282.674 316.174 282.674 316.174Z" id="Vector-46" fill="#E3E3E3" fill-rule="evenodd" stroke="none" />
      <path d="M105.442 198.819C105.442 198.819 103.61 200.45 103.528 202.475C103.444 204.5 105.112 206.92 105.112 206.92L98.7603 216.305C98.7603 216.305 95.8888 215.581 95.3491 212.57C94.8101 209.559 96.6033 204.26 96.6033 204.26C96.6033 204.26 99.1388 201.078 101.349 199.718C103.559 198.358 105.442 198.819 105.442 198.819Z" id="Vector-47" fill="#F1F1F1" fill-rule="evenodd" stroke="none" />
      <path d="M148.162 309.777C148.162 309.777 144.144 313.911 144.334 317.267C144.523 320.622 145.569 323.795 145.569 323.795C145.569 323.795 144.165 323.216 142.98 324.699C141.795 326.181 140.831 329.725 140.831 329.725C140.831 329.725 138.358 329.02 137.478 326.698C136.599 324.373 137.312 320.431 137.312 320.431C137.312 320.431 138.23 317.428 140.862 314.357C143.495 311.286 148.162 309.777 148.162 309.777Z" id="Vector-48" fill="#F7F7F7" fill-rule="evenodd" stroke="none" />
      <path d="M159.306 313.683C159.306 313.683 157.887 315.714 157.979 318.014C158.072 320.315 160.017 320.804 159.678 322.887C159.007 326.999 156.627 330.138 156.627 330.138C156.627 330.138 158.274 330.11 160.029 328.499C161.784 326.889 163.646 323.697 163.646 323.697C163.646 323.697 163.531 318.244 162.446 315.74C161.361 313.236 159.306 313.683 159.306 313.683Z" id="Vector-49" fill="#F8F8F8" fill-rule="evenodd" stroke="none" />
    </g>
  </g>
</svg>