<?xml version="1.0" encoding="utf-8"?>
<svg width="384px" height="372px" viewBox="0 0 384 372" version="1.1" xmlns:xlink="http://www.w3.org/1999/xlink" xmlns="http://www.w3.org/2000/svg">
  <defs>
    <path d="M0 0L384 0L384 372L0 372L0 0Z" id="path_1" />
    <clipPath id="clip_1">
      <use xlink:href="#path_1" />
    </clipPath>
  </defs>
  <g id="Frame" clip-path="url(#clip_1)">
    <path d="M0 0L384 0L384 372L0 372L0 0Z" id="Frame" fill="#FFFFFF" fill-opacity="0" fill-rule="evenodd" stroke="none" />
    <path d="M40.999 27L343.001 27Q343.467 27 343.933 27.0229Q344.399 27.0458 344.863 27.0915Q345.327 27.1372 345.789 27.2056Q346.25 27.2741 346.708 27.3651Q347.165 27.456 347.617 27.5694Q348.07 27.6827 348.516 27.8181Q348.962 27.9535 349.402 28.1106Q349.841 28.2677 350.272 28.4462Q350.702 28.6247 351.124 28.8241Q351.546 29.0235 351.957 29.2434Q352.368 29.4632 352.768 29.703Q353.168 29.9428 353.556 30.2019Q353.944 30.461 354.319 30.7389Q354.693 31.0167 355.054 31.3126Q355.414 31.6085 355.76 31.9217Q356.105 32.2349 356.435 32.5647Q356.765 32.8945 357.078 33.24Q357.392 33.5856 357.687 33.9462Q357.983 34.3067 358.261 34.6813Q358.539 35.0559 358.798 35.4437Q359.057 35.8315 359.297 36.2316Q359.537 36.6316 359.757 37.0429Q359.976 37.4543 360.176 37.8759Q360.375 38.2975 360.554 38.7284Q360.732 39.1593 360.889 39.5984Q361.047 40.0376 361.182 40.4839Q361.317 40.9302 361.431 41.3826Q361.544 41.835 361.635 42.2925Q361.726 42.7499 361.794 43.2113Q361.863 43.6726 361.909 44.1368Q361.954 44.6009 361.977 45.0668Q362 45.5326 362 45.999L362 98.9259Q362 99.3923 361.977 99.8581Q361.954 100.324 361.909 100.788Q361.863 101.252 361.794 101.714Q361.726 102.175 361.635 102.632Q361.544 103.09 361.431 103.542Q361.317 103.995 361.182 104.441Q361.047 104.887 360.889 105.326Q360.732 105.766 360.554 106.196Q360.375 106.627 360.176 107.049Q359.976 107.471 359.757 107.882Q359.537 108.293 359.297 108.693Q359.057 109.093 358.798 109.481Q358.539 109.869 358.261 110.244Q357.983 110.618 357.687 110.979Q357.392 111.339 357.078 111.685Q356.765 112.03 356.435 112.36Q356.105 112.69 355.76 113.003Q355.414 113.316 355.054 113.612Q354.693 113.908 354.319 114.186Q353.944 114.464 353.556 114.723Q353.168 114.982 352.768 115.222Q352.368 115.462 351.957 115.682Q351.546 115.901 351.124 116.101Q350.702 116.3 350.272 116.479Q349.841 116.657 349.402 116.814Q348.962 116.971 348.516 117.107Q348.07 117.242 347.617 117.356Q347.165 117.469 346.708 117.56Q346.25 117.651 345.789 117.719Q345.327 117.788 344.863 117.833Q344.399 117.879 343.933 117.902Q343.467 117.925 343.001 117.925L40.999 117.925Q40.5326 117.925 40.0668 117.902Q39.6009 117.879 39.1368 117.833Q38.6726 117.788 38.2113 117.719Q37.7499 117.651 37.2925 117.56Q36.835 117.469 36.3826 117.356Q35.9302 117.242 35.4839 117.107Q35.0376 116.971 34.5984 116.814Q34.1593 116.657 33.7284 116.479Q33.2975 116.3 32.8759 116.101Q32.4543 115.901 32.0429 115.682Q31.6316 115.462 31.2316 115.222Q30.8315 114.982 30.4437 114.723Q30.0559 114.464 29.6813 114.186Q29.3067 113.908 28.9462 113.612Q28.5856 113.316 28.24 113.003Q27.8945 112.69 27.5647 112.36Q27.2349 112.03 26.9217 111.685Q26.6085 111.339 26.3126 110.979Q26.0167 110.618 25.7389 110.244Q25.461 109.869 25.2019 109.481Q24.9428 109.093 24.703 108.693Q24.4632 108.293 24.2434 107.882Q24.0235 107.471 23.8241 107.049Q23.6247 106.627 23.4462 106.196Q23.2677 105.766 23.1106 105.326Q22.9535 104.887 22.8181 104.441Q22.6827 103.995 22.5694 103.542Q22.456 103.09 22.3651 102.632Q22.2741 102.175 22.2056 101.714Q22.1372 101.252 22.0915 100.788Q22.0458 100.324 22.0229 99.8581Q22 99.3923 22 98.9259L22 45.999Q22 45.5326 22.0229 45.0668Q22.0458 44.6009 22.0915 44.1368Q22.1372 43.6726 22.2056 43.2113Q22.2741 42.7499 22.3651 42.2925Q22.456 41.835 22.5694 41.3826Q22.6827 40.9302 22.8181 40.4839Q22.9535 40.0376 23.1106 39.5984Q23.2677 39.1593 23.4462 38.7284Q23.6247 38.2975 23.8241 37.8759Q24.0235 37.4543 24.2434 37.0429Q24.4632 36.6316 24.703 36.2316Q24.9428 35.8315 25.2019 35.4437Q25.461 35.0559 25.7389 34.6813Q26.0167 34.3067 26.3126 33.9462Q26.6085 33.5856 26.9217 33.2401Q27.2349 32.8945 27.5647 32.5647Q27.8945 32.2349 28.24 31.9217Q28.5856 31.6085 28.9462 31.3126Q29.3067 31.0167 29.6813 30.7389Q30.0559 30.461 30.4437 30.2019Q30.8315 29.9428 31.2316 29.703Q31.6316 29.4632 32.0429 29.2434Q32.4543 29.0235 32.8759 28.8241Q33.2975 28.6247 33.7284 28.4462Q34.1593 28.2677 34.5984 28.1106Q35.0376 27.9535 35.4839 27.8181Q35.9302 27.6827 36.3826 27.5694Q36.835 27.456 37.2925 27.3651Q37.7499 27.2741 38.2113 27.2056Q38.6726 27.1372 39.1368 27.0915Q39.6009 27.0458 40.0668 27.0229Q40.5326 27 40.999 27Z" id="Rectangle" fill="#512DA8" fill-rule="evenodd" stroke="none" />
    <path d="M67.9831 143.538L343.001 143.538Q343.467 143.538 343.933 143.56Q344.399 143.583 344.863 143.629Q345.327 143.675 345.789 143.743Q346.25 143.812 346.708 143.903Q347.165 143.994 347.617 144.107Q348.07 144.22 348.516 144.356Q348.962 144.491 349.402 144.648Q349.841 144.805 350.272 144.984Q350.702 145.162 351.124 145.362Q351.546 145.561 351.957 145.781Q352.368 146.001 352.768 146.241Q353.168 146.48 353.556 146.739Q353.944 146.999 354.319 147.276Q354.693 147.554 355.054 147.85Q355.414 148.146 355.76 148.459Q356.105 148.772 356.435 149.102Q356.765 149.432 357.078 149.778Q357.392 150.123 357.687 150.484Q357.983 150.844 358.261 151.219Q358.539 151.593 358.798 151.981Q359.057 152.369 359.297 152.769Q359.537 153.169 359.757 153.58Q359.976 153.992 360.176 154.413Q360.375 154.835 360.554 155.266Q360.732 155.697 360.889 156.136Q361.047 156.575 361.182 157.021Q361.317 157.468 361.431 157.92Q361.544 158.373 361.635 158.83Q361.726 159.287 361.794 159.749Q361.863 160.21 361.909 160.674Q361.954 161.138 361.977 161.604Q362 162.07 362 162.537L362 215.463Q362 215.93 361.977 216.396Q361.954 216.861 361.909 217.326Q361.863 217.79 361.794 218.251Q361.726 218.712 361.635 219.17Q361.544 219.627 361.431 220.08Q361.317 220.532 361.182 220.979Q361.047 221.425 360.889 221.864Q360.732 222.303 360.554 222.734Q360.375 223.165 360.176 223.587Q359.976 224.008 359.757 224.419Q359.537 224.831 359.297 225.231Q359.057 225.631 358.798 226.019Q358.539 226.406 358.261 226.781Q357.983 227.156 357.687 227.516Q357.392 227.877 357.078 228.222Q356.765 228.568 356.435 228.898Q356.105 229.228 355.76 229.541Q355.414 229.854 355.054 230.15Q354.693 230.446 354.319 230.724Q353.944 231.001 353.556 231.26Q353.168 231.52 352.768 231.759Q352.368 231.999 351.957 232.219Q351.546 232.439 351.124 232.638Q350.702 232.838 350.272 233.016Q349.841 233.195 349.402 233.352Q348.962 233.509 348.516 233.644Q348.07 233.78 347.617 233.893Q347.165 234.006 346.708 234.097Q346.25 234.188 345.789 234.257Q345.327 234.325 344.863 234.371Q344.399 234.417 343.933 234.44Q343.467 234.462 343.001 234.462L67.9831 234.462Q67.5167 234.462 67.0509 234.44Q66.5851 234.417 66.1209 234.371Q65.6568 234.325 65.1954 234.257Q64.734 234.188 64.2766 234.097Q63.8192 234.006 63.3668 233.893Q62.9143 233.78 62.468 233.644Q62.0217 233.509 61.5826 233.352Q61.1434 233.195 60.7125 233.016Q60.2816 232.838 59.86 232.638Q59.4384 232.439 59.0271 232.219Q58.6157 231.999 58.2157 231.759Q57.8156 231.52 57.4278 231.26Q57.04 231.001 56.6654 230.724Q56.2908 230.446 55.9303 230.15Q55.5698 229.854 55.2242 229.541Q54.8786 229.228 54.5488 228.898Q54.219 228.568 53.9058 228.222Q53.5926 227.877 53.2967 227.516Q53.0008 227.156 52.723 226.781Q52.4451 226.406 52.186 226.019Q51.9269 225.631 51.6871 225.231Q51.4474 224.831 51.2275 224.419Q51.0076 224.008 50.8082 223.587Q50.6088 223.165 50.4303 222.734Q50.2519 222.303 50.0947 221.864Q49.9376 221.425 49.8022 220.979Q49.6668 220.532 49.5535 220.08Q49.4402 219.627 49.3492 219.17Q49.2582 218.712 49.1898 218.251Q49.1213 217.79 49.0756 217.326Q49.0299 216.861 49.007 216.396Q48.9841 215.93 48.9841 215.463L48.9841 162.537Q48.9841 162.07 49.007 161.604Q49.0299 161.138 49.0756 160.674Q49.1213 160.21 49.1898 159.749Q49.2582 159.287 49.3492 158.83Q49.4402 158.373 49.5535 157.92Q49.6668 157.468 49.8022 157.021Q49.9376 156.575 50.0947 156.136Q50.2519 155.697 50.4303 155.266Q50.6088 154.835 50.8082 154.413Q51.0076 153.992 51.2275 153.58Q51.4474 153.169 51.6871 152.769Q51.9269 152.369 52.186 151.981Q52.4451 151.593 52.723 151.219Q53.0008 150.844 53.2967 150.484Q53.5926 150.123 53.9058 149.778Q54.219 149.432 54.5488 149.102Q54.8786 148.772 55.2242 148.459Q55.5698 148.146 55.9303 147.85Q56.2908 147.554 56.6654 147.276Q57.0401 146.999 57.4278 146.739Q57.8156 146.48 58.2157 146.241Q58.6157 146.001 59.0271 145.781Q59.4384 145.561 59.86 145.362Q60.2816 145.162 60.7125 144.984Q61.1434 144.805 61.5826 144.648Q62.0217 144.491 62.468 144.356Q62.9143 144.22 63.3667 144.107Q63.8192 143.994 64.2766 143.903Q64.734 143.812 65.1954 143.743Q65.6568 143.675 66.1209 143.629Q66.5851 143.583 67.0509 143.56Q67.5167 143.538 67.9831 143.538Z" id="Rectangle-Copy" fill="#512DA8" fill-rule="evenodd" stroke="none" />
    <path d="M105.761 260.075L343.001 260.075Q343.467 260.075 343.933 260.098Q344.399 260.121 344.863 260.167Q345.327 260.212 345.789 260.281Q346.25 260.349 346.708 260.44Q347.165 260.531 347.617 260.644Q348.07 260.758 348.516 260.893Q348.962 261.029 349.402 261.186Q349.841 261.343 350.272 261.521Q350.702 261.7 351.124 261.899Q351.546 262.099 351.957 262.318Q352.368 262.538 352.768 262.778Q353.168 263.018 353.556 263.277Q353.944 263.536 354.319 263.814Q354.693 264.092 355.054 264.388Q355.414 264.684 355.76 264.997Q356.105 265.31 356.435 265.64Q356.765 265.97 357.078 266.315Q357.392 266.661 357.687 267.021Q357.983 267.382 358.261 267.756Q358.539 268.131 358.798 268.519Q359.057 268.907 359.297 269.307Q359.537 269.707 359.757 270.118Q359.976 270.529 360.176 270.951Q360.375 271.373 360.554 271.803Q360.732 272.234 360.889 272.674Q361.046 273.113 361.182 273.559Q361.317 274.005 361.431 274.458Q361.544 274.91 361.635 275.368Q361.726 275.825 361.794 276.286Q361.863 276.748 361.908 277.212Q361.954 277.676 361.977 278.142Q362 278.608 362 279.074L362 332.001Q362 332.467 361.977 332.933Q361.954 333.399 361.909 333.863Q361.863 334.327 361.794 334.789Q361.726 335.25 361.635 335.708Q361.544 336.165 361.431 336.617Q361.317 337.07 361.182 337.516Q361.046 337.962 360.889 338.402Q360.732 338.841 360.554 339.272Q360.375 339.702 360.176 340.124Q359.976 340.546 359.757 340.957Q359.537 341.368 359.297 341.768Q359.057 342.168 358.798 342.556Q358.539 342.944 358.261 343.319Q357.983 343.693 357.687 344.054Q357.392 344.414 357.078 344.76Q356.765 345.105 356.435 345.435Q356.105 345.765 355.76 346.078Q355.414 346.391 355.054 346.687Q354.693 346.983 354.319 347.261Q353.944 347.539 353.556 347.798Q353.168 348.057 352.768 348.297Q352.368 348.537 351.957 348.757Q351.546 348.976 351.124 349.176Q350.702 349.375 350.272 349.554Q349.841 349.732 349.402 349.889Q348.962 350.047 348.516 350.182Q348.07 350.317 347.617 350.431Q347.165 350.544 346.707 350.635Q346.25 350.726 345.789 350.794Q345.327 350.863 344.863 350.909Q344.399 350.954 343.933 350.977Q343.467 351 343.001 351L105.761 351Q105.295 351 104.829 350.977Q104.363 350.954 103.899 350.909Q103.435 350.863 102.973 350.794Q102.512 350.726 102.054 350.635Q101.597 350.544 101.145 350.431Q100.692 350.317 100.246 350.182Q99.7995 350.047 99.3603 349.889Q98.9212 349.732 98.4903 349.554Q98.0594 349.375 97.6378 349.176Q97.2162 348.976 96.8048 348.757Q96.3935 348.537 95.9935 348.297Q95.5934 348.057 95.2056 347.798Q94.8178 347.539 94.4432 347.261Q94.0686 346.983 93.7081 346.687Q93.3475 346.391 93.0019 346.078Q92.6564 345.765 92.3266 345.435Q91.9968 345.105 91.6836 344.76Q91.3703 344.414 91.0745 344.054Q90.7786 343.693 90.5008 343.319Q90.2229 342.944 89.9638 342.556Q89.7047 342.168 89.4649 341.768Q89.2251 341.368 89.0053 340.957Q88.7854 340.546 88.586 340.124Q88.3866 339.702 88.2081 339.272Q88.0296 338.841 87.8725 338.402Q87.7154 337.962 87.58 337.516Q87.4446 337.07 87.3313 336.617Q87.2179 336.165 87.127 335.707Q87.036 335.25 86.9675 334.789Q86.8991 334.327 86.8534 333.863Q86.8077 333.399 86.7848 332.933Q86.7619 332.467 86.7619 332.001L86.7619 279.074Q86.7619 278.608 86.7848 278.142Q86.8077 277.676 86.8534 277.212Q86.8991 276.748 86.9675 276.286Q87.036 275.825 87.127 275.368Q87.2179 274.91 87.3313 274.458Q87.4446 274.005 87.58 273.559Q87.7154 273.113 87.8725 272.674Q88.0296 272.234 88.2081 271.803Q88.3866 271.373 88.586 270.951Q88.7854 270.529 89.0053 270.118Q89.2251 269.707 89.4649 269.307Q89.7047 268.907 89.9638 268.519Q90.2229 268.131 90.5007 267.756Q90.7786 267.382 91.0745 267.021Q91.3703 266.661 91.6836 266.315Q91.9968 265.97 92.3266 265.64Q92.6564 265.31 93.0019 264.997Q93.3475 264.684 93.7081 264.388Q94.0686 264.092 94.4432 263.814Q94.8178 263.536 95.2056 263.277Q95.5934 263.018 95.9935 262.778Q96.3935 262.538 96.8048 262.318Q97.2162 262.099 97.6378 261.899Q98.0594 261.7 98.4903 261.521Q98.9212 261.343 99.3603 261.186Q99.7995 261.029 100.246 260.893Q100.692 260.758 101.145 260.644Q101.597 260.531 102.054 260.44Q102.512 260.349 102.973 260.281Q103.435 260.212 103.899 260.167Q104.363 260.121 104.829 260.098Q105.295 260.075 105.761 260.075Z" id="Rectangle-Copy-2" fill="#512DA8" fill-rule="evenodd" stroke="none" />
  </g>
</svg>